<?xml version="1.0" encoding="UTF-8" standalone="no"?>
<!DOCTYPE svg PUBLIC "-//W3C//DTD SVG 1.1//EN"
 "http://www.w3.org/Graphics/SVG/1.1/DTD/svg11.dtd">
<!-- Generated by graphviz version 2.40.1 (20161225.0304)
 -->
<!-- Title: GenQPSolver.h Pages: 1 -->
<svg width="237pt" height="84pt"
 viewBox="0.00 0.00 236.50 84.00" xmlns="http://www.w3.org/2000/svg" xmlns:xlink="http://www.w3.org/1999/xlink">
<g id="graph0" class="graph" transform="scale(1 1) rotate(0) translate(4 80)">
<title>GenQPSolver.h</title>
<polygon fill="#ffffff" stroke="transparent" points="-4,4 -4,-80 232.5,-80 232.5,4 -4,4"/>
<!-- Node0 -->
<g id="node1" class="node">
<title>Node0</title>
<polygon fill="#bfbfbf" stroke="#000000" points="61.5,-56.5 61.5,-75.5 146.5,-75.5 146.5,-56.5 61.5,-56.5"/>
<text text-anchor="middle" x="104" y="-63.5" font-family="Helvetica,sans-Serif" font-size="10.00" fill="#000000">GenQPSolver.h</text>
</g>
<!-- Node1 -->
<g id="node2" class="node">
<title>Node1</title>
<polygon fill="#ffffff" stroke="#bfbfbf" points="0,-.5 0,-19.5 44,-19.5 44,-.5 0,-.5"/>
<text text-anchor="middle" x="22" y="-7.5" font-family="Helvetica,sans-Serif" font-size="10.00" fill="#000000">vector</text>
</g>
<!-- Node0&#45;&gt;Node1 -->
<g id="edge1" class="edge">
<title>Node0&#45;&gt;Node1</title>
<path fill="none" stroke="#191970" d="M89.7167,-56.2455C77.253,-47.7337 58.9549,-35.2375 44.5208,-25.3801"/>
<polygon fill="#191970" stroke="#191970" points="46.3515,-22.392 36.1196,-19.6427 42.4038,-28.1726 46.3515,-22.392"/>
</g>
<!-- Node2 -->
<g id="node3" class="node">
<title>Node2</title>
<polygon fill="#ffffff" stroke="#bfbfbf" points="62.5,-.5 62.5,-19.5 145.5,-19.5 145.5,-.5 62.5,-.5"/>
<text text-anchor="middle" x="104" y="-7.5" font-family="Helvetica,sans-Serif" font-size="10.00" fill="#000000">tasks/config.hh</text>
</g>
<!-- Node0&#45;&gt;Node2 -->
<g id="edge2" class="edge">
<title>Node0&#45;&gt;Node2</title>
<path fill="none" stroke="#191970" d="M104,-56.2455C104,-48.9382 104,-38.6944 104,-29.7046"/>
<polygon fill="#191970" stroke="#191970" points="107.5001,-29.6426 104,-19.6427 100.5001,-29.6427 107.5001,-29.6426"/>
</g>
<!-- Node3 -->
<g id="node4" class="node">
<title>Node3</title>
<polygon fill="#ffffff" stroke="#bfbfbf" points="163.5,-.5 163.5,-19.5 228.5,-19.5 228.5,-.5 163.5,-.5"/>
<text text-anchor="middle" x="196" y="-7.5" font-family="Helvetica,sans-Serif" font-size="10.00" fill="#000000">Eigen/Core</text>
</g>
<!-- Node0&#45;&gt;Node3 -->
<g id="edge3" class="edge">
<title>Node0&#45;&gt;Node3</title>
<path fill="none" stroke="#191970" d="M120.0252,-56.2455C134.1408,-47.6534 154.9263,-35.0014 171.1899,-25.1018"/>
<polygon fill="#191970" stroke="#191970" points="173.4363,-27.8319 180.1585,-19.6427 169.7966,-21.8525 173.4363,-27.8319"/>
</g>
</g>
</svg>
