<?xml version="1.0" encoding="UTF-8" standalone="no"?>
<!DOCTYPE svg PUBLIC "-//W3C//DTD SVG 1.1//EN"
 "http://www.w3.org/Graphics/SVG/1.1/DTD/svg11.dtd">
<!-- Generated by graphviz version 2.40.1 (20161225.0304)
 -->
<!-- Title: QPSolver.h Pages: 1 -->
<svg width="1015pt" height="252pt"
 viewBox="0.00 0.00 1014.50 252.00" xmlns="http://www.w3.org/2000/svg" xmlns:xlink="http://www.w3.org/1999/xlink">
<g id="graph0" class="graph" transform="scale(1 1) rotate(0) translate(4 248)">
<title>QPSolver.h</title>
<polygon fill="#ffffff" stroke="transparent" points="-4,4 -4,-248 1010.5,-248 1010.5,4 -4,4"/>
<!-- Node0 -->
<g id="node1" class="node">
<title>Node0</title>
<polygon fill="#bfbfbf" stroke="#000000" points="567,-224.5 567,-243.5 634,-243.5 634,-224.5 567,-224.5"/>
<text text-anchor="middle" x="600.5" y="-231.5" font-family="Helvetica,sans-Serif" font-size="10.00" fill="#000000">QPSolver.h</text>
</g>
<!-- Node1 -->
<g id="node2" class="node">
<title>Node1</title>
<polygon fill="#ffffff" stroke="#bfbfbf" points="376.5,-168.5 376.5,-187.5 428.5,-187.5 428.5,-168.5 376.5,-168.5"/>
<text text-anchor="middle" x="402.5" y="-175.5" font-family="Helvetica,sans-Serif" font-size="10.00" fill="#000000">memory</text>
</g>
<!-- Node0&#45;&gt;Node1 -->
<g id="edge1" class="edge">
<title>Node0&#45;&gt;Node1</title>
<path fill="none" stroke="#191970" d="M566.912,-224.5004C531.2108,-214.4031 474.9674,-198.4958 438.406,-188.1552"/>
<polygon fill="#191970" stroke="#191970" points="439.2243,-184.7494 428.6492,-185.3957 437.3192,-191.4852 439.2243,-184.7494"/>
</g>
<!-- Node2 -->
<g id="node3" class="node">
<title>Node2</title>
<polygon fill="#ffffff" stroke="#bfbfbf" points="379.5,-56.5 379.5,-75.5 423.5,-75.5 423.5,-56.5 379.5,-56.5"/>
<text text-anchor="middle" x="401.5" y="-63.5" font-family="Helvetica,sans-Serif" font-size="10.00" fill="#000000">vector</text>
</g>
<!-- Node0&#45;&gt;Node2 -->
<g id="edge2" class="edge">
<title>Node0&#45;&gt;Node2</title>
<path fill="none" stroke="#191970" d="M566.9069,-228.0286C539.8205,-221.816 502.0039,-209.8343 475.5,-188 441.404,-159.9112 418.9021,-111.7557 408.3864,-85.1201"/>
<polygon fill="#191970" stroke="#191970" points="411.651,-83.8577 404.8333,-75.7478 405.1056,-86.3392 411.651,-83.8577"/>
</g>
<!-- Node3 -->
<g id="node4" class="node">
<title>Node3</title>
<polygon fill="#ffffff" stroke="#bfbfbf" points="705,-168.5 705,-187.5 814,-187.5 814,-168.5 705,-168.5"/>
<text text-anchor="middle" x="759.5" y="-175.5" font-family="Helvetica,sans-Serif" font-size="10.00" fill="#000000">boost/timer/timer.hpp</text>
</g>
<!-- Node0&#45;&gt;Node3 -->
<g id="edge3" class="edge">
<title>Node0&#45;&gt;Node3</title>
<path fill="none" stroke="#191970" d="M627.8331,-224.3733C654.0434,-215.1419 693.7984,-201.1402 722.7668,-190.9375"/>
<polygon fill="#191970" stroke="#191970" points="724.2542,-194.1244 732.5236,-187.5011 721.9288,-187.5219 724.2542,-194.1244"/>
</g>
<!-- Node4 -->
<g id="node5" class="node">
<title>Node4</title>
<polygon fill="#ffffff" stroke="#bfbfbf" points="598,-56.5 598,-75.5 663,-75.5 663,-56.5 598,-56.5"/>
<text text-anchor="middle" x="630.5" y="-63.5" font-family="Helvetica,sans-Serif" font-size="10.00" fill="#000000">Eigen/Core</text>
</g>
<!-- Node0&#45;&gt;Node4 -->
<g id="edge4" class="edge">
<title>Node0&#45;&gt;Node4</title>
<path fill="none" stroke="#191970" d="M602.3419,-224.4485C605.8076,-206.4043 613.4902,-166.0587 619.5,-132 622.2166,-116.6047 625.1169,-99.1564 627.257,-86.0682"/>
<polygon fill="#191970" stroke="#191970" points="630.7681,-86.2821 628.9183,-75.85 623.8588,-85.1587 630.7681,-86.2821"/>
</g>
<!-- Node5 -->
<g id="node6" class="node">
<title>Node5</title>
<polygon fill="#ffffff" stroke="#bfbfbf" points="681,-56.5 681,-75.5 764,-75.5 764,-56.5 681,-56.5"/>
<text text-anchor="middle" x="722.5" y="-63.5" font-family="Helvetica,sans-Serif" font-size="10.00" fill="#000000">tasks/config.hh</text>
</g>
<!-- Node0&#45;&gt;Node5 -->
<g id="edge5" class="edge">
<title>Node0&#45;&gt;Node5</title>
<path fill="none" stroke="#191970" d="M607.4088,-224.4862C627.0281,-197.4695 683.3289,-119.9405 709.2033,-84.3102"/>
<polygon fill="#191970" stroke="#191970" points="712.3191,-85.976 715.3631,-75.8279 706.655,-81.8628 712.3191,-85.976"/>
</g>
<!-- Node6 -->
<g id="node7" class="node">
<title>Node6</title>
<g id="a_node7"><a xlink:href="a00044.html" target="_top" xlink:title="QPContacts.h">
<polygon fill="#ffffff" stroke="#000000" points="531,-112.5 531,-131.5 610,-131.5 610,-112.5 531,-112.5"/>
<text text-anchor="middle" x="570.5" y="-119.5" font-family="Helvetica,sans-Serif" font-size="10.00" fill="#000000">QPContacts.h</text>
</a>
</g>
</g>
<!-- Node0&#45;&gt;Node6 -->
<g id="edge6" class="edge">
<title>Node0&#45;&gt;Node6</title>
<path fill="none" stroke="#191970" d="M597.9422,-224.4509C593.0271,-206.1013 582.1761,-165.5908 575.6882,-141.3693"/>
<polygon fill="#191970" stroke="#191970" points="579.0196,-140.2788 573.0513,-131.5249 572.2579,-142.09 579.0196,-140.2788"/>
</g>
<!-- Node19 -->
<g id="node20" class="node">
<title>Node19</title>
<g id="a_node20"><a xlink:href="a00053.html" target="_top" xlink:title="QPSolverData.h">
<polygon fill="#ffffff" stroke="#000000" points="484.5,-168.5 484.5,-187.5 572.5,-187.5 572.5,-168.5 484.5,-168.5"/>
<text text-anchor="middle" x="528.5" y="-175.5" font-family="Helvetica,sans-Serif" font-size="10.00" fill="#000000">QPSolverData.h</text>
</a>
</g>
</g>
<!-- Node0&#45;&gt;Node19 -->
<g id="edge22" class="edge">
<title>Node0&#45;&gt;Node19</title>
<path fill="none" stroke="#191970" d="M587.9586,-224.2455C577.2213,-215.8943 561.5527,-203.7076 548.9953,-193.9408"/>
<polygon fill="#191970" stroke="#191970" points="550.9401,-191.0194 540.8977,-187.6427 546.6425,-196.5449 550.9401,-191.0194"/>
</g>
<!-- Node6&#45;&gt;Node2 -->
<g id="edge7" class="edge">
<title>Node6&#45;&gt;Node2</title>
<path fill="none" stroke="#191970" d="M541.4479,-112.3733C511.3019,-102.3841 464.2988,-86.8091 433.2062,-76.5062"/>
<polygon fill="#191970" stroke="#191970" points="434.3052,-73.1833 423.7119,-73.3601 432.1034,-79.828 434.3052,-73.1833"/>
</g>
<!-- Node6&#45;&gt;Node4 -->
<g id="edge8" class="edge">
<title>Node6&#45;&gt;Node4</title>
<path fill="none" stroke="#191970" d="M580.9512,-112.2455C589.7269,-104.0549 602.4554,-92.1749 612.814,-82.5069"/>
<polygon fill="#191970" stroke="#191970" points="615.2461,-85.0246 620.1686,-75.6427 610.4699,-79.9072 615.2461,-85.0246"/>
</g>
<!-- Node6&#45;&gt;Node5 -->
<g id="edge9" class="edge">
<title>Node6&#45;&gt;Node5</title>
<path fill="none" stroke="#191970" d="M596.6297,-112.3733C621.5768,-103.1822 659.3592,-89.2624 687.0206,-79.0713"/>
<polygon fill="#191970" stroke="#191970" points="688.5378,-82.2424 696.7112,-75.5011 686.1178,-75.674 688.5378,-82.2424"/>
</g>
<!-- Node7 -->
<g id="node8" class="node">
<title>Node7</title>
<g id="a_node8"><a doxygen="/usr/local/share/doc/SpaceVecAlg/doxygen-html/SpaceVecAlg.doxytag:/usr/local/share/doc/SpaceVecAlg/doxygen-html/" xlink:href="/usr/local/share/doc/SpaceVecAlg/doxygen-html/a00059.html" target="_top" xlink:title="SpaceVecAlg/SpaceVecAlg">
<polygon fill="#ffffff" stroke="#000000" points="441.5,-56.5 441.5,-75.5 579.5,-75.5 579.5,-56.5 441.5,-56.5"/>
<text text-anchor="middle" x="510.5" y="-63.5" font-family="Helvetica,sans-Serif" font-size="10.00" fill="#000000">SpaceVecAlg/SpaceVecAlg</text>
</a>
</g>
</g>
<!-- Node6&#45;&gt;Node7 -->
<g id="edge10" class="edge">
<title>Node6&#45;&gt;Node7</title>
<path fill="none" stroke="#191970" d="M560.0488,-112.2455C551.2731,-104.0549 538.5446,-92.1749 528.186,-82.5069"/>
<polygon fill="#191970" stroke="#191970" points="530.5301,-79.9072 520.8314,-75.6427 525.7539,-85.0246 530.5301,-79.9072"/>
</g>
<!-- Node8 -->
<g id="node9" class="node">
<title>Node8</title>
<g id="a_node9"><a doxygen="/usr/local/share/doc/SpaceVecAlg/doxygen-html/SpaceVecAlg.doxytag:/usr/local/share/doc/SpaceVecAlg/doxygen-html/" xlink:href="/usr/local/share/doc/SpaceVecAlg/doxygen-html/a00032.html" target="_top" xlink:title="EigenTypedef.h">
<polygon fill="#ffffff" stroke="#000000" points="0,-.5 0,-19.5 85,-19.5 85,-.5 0,-.5"/>
<text text-anchor="middle" x="42.5" y="-7.5" font-family="Helvetica,sans-Serif" font-size="10.00" fill="#000000">EigenTypedef.h</text>
</a>
</g>
</g>
<!-- Node7&#45;&gt;Node8 -->
<g id="edge11" class="edge">
<title>Node7&#45;&gt;Node8</title>
<path fill="none" stroke="#191970" d="M441.1871,-57.0344C438.2528,-56.6799 435.3475,-56.3337 432.5,-56 285.249,-38.7443 245.0334,-42.4267 95.0671,-20.1352"/>
<polygon fill="#191970" stroke="#191970" points="95.4368,-16.6515 85.0281,-18.6288 94.398,-23.574 95.4368,-16.6515"/>
</g>
<!-- Node9 -->
<g id="node10" class="node">
<title>Node9</title>
<g id="a_node10"><a doxygen="/usr/local/share/doc/SpaceVecAlg/doxygen-html/SpaceVecAlg.doxytag:/usr/local/share/doc/SpaceVecAlg/doxygen-html/" xlink:href="/usr/local/share/doc/SpaceVecAlg/doxygen-html/a00035.html" target="_top" xlink:title="EigenUtility.h">
<polygon fill="#ffffff" stroke="#000000" points="103,-.5 103,-19.5 178,-19.5 178,-.5 103,-.5"/>
<text text-anchor="middle" x="140.5" y="-7.5" font-family="Helvetica,sans-Serif" font-size="10.00" fill="#000000">EigenUtility.h</text>
</a>
</g>
</g>
<!-- Node7&#45;&gt;Node9 -->
<g id="edge12" class="edge">
<title>Node7&#45;&gt;Node9</title>
<path fill="none" stroke="#191970" d="M441.3326,-56.7131C365.7846,-46.4754 248.5411,-30.2891 188.0715,-19.9783"/>
<polygon fill="#191970" stroke="#191970" points="188.6186,-16.521 178.1658,-18.2501 187.4155,-23.4168 188.6186,-16.521"/>
</g>
<!-- Node10 -->
<g id="node11" class="node">
<title>Node10</title>
<g id="a_node11"><a doxygen="/usr/local/share/doc/SpaceVecAlg/doxygen-html/SpaceVecAlg.doxytag:/usr/local/share/doc/SpaceVecAlg/doxygen-html/" xlink:href="/usr/local/share/doc/SpaceVecAlg/doxygen-html/a00044.html" target="_top" xlink:title="MathFunc.h">
<polygon fill="#ffffff" stroke="#000000" points="196.5,-.5 196.5,-19.5 264.5,-19.5 264.5,-.5 196.5,-.5"/>
<text text-anchor="middle" x="230.5" y="-7.5" font-family="Helvetica,sans-Serif" font-size="10.00" fill="#000000">MathFunc.h</text>
</a>
</g>
</g>
<!-- Node7&#45;&gt;Node10 -->
<g id="edge13" class="edge">
<title>Node7&#45;&gt;Node10</title>
<path fill="none" stroke="#191970" d="M458.6079,-56.4965C412.7718,-47.9737 343.8705,-34.8513 274.9138,-20.2479"/>
<polygon fill="#191970" stroke="#191970" points="275.2517,-16.7415 264.7422,-18.0829 273.7944,-23.5881 275.2517,-16.7415"/>
</g>
<!-- Node11 -->
<g id="node12" class="node">
<title>Node11</title>
<g id="a_node12"><a doxygen="/usr/local/share/doc/SpaceVecAlg/doxygen-html/SpaceVecAlg.doxytag:/usr/local/share/doc/SpaceVecAlg/doxygen-html/" xlink:href="/usr/local/share/doc/SpaceVecAlg/doxygen-html/a00023.html" target="_top" xlink:title="ABInertia.h">
<polygon fill="#ffffff" stroke="#000000" points="283,-.5 283,-19.5 348,-19.5 348,-.5 283,-.5"/>
<text text-anchor="middle" x="315.5" y="-7.5" font-family="Helvetica,sans-Serif" font-size="10.00" fill="#000000">ABInertia.h</text>
</a>
</g>
</g>
<!-- Node7&#45;&gt;Node11 -->
<g id="edge14" class="edge">
<title>Node7&#45;&gt;Node11</title>
<path fill="none" stroke="#191970" d="M476.9783,-56.3733C444.0321,-46.9118 393.6361,-32.4391 357.9181,-22.1816"/>
<polygon fill="#191970" stroke="#191970" points="358.8373,-18.8042 348.2597,-19.4079 356.9051,-25.5322 358.8373,-18.8042"/>
</g>
<!-- Node12 -->
<g id="node13" class="node">
<title>Node12</title>
<g id="a_node13"><a doxygen="/usr/local/share/doc/SpaceVecAlg/doxygen-html/SpaceVecAlg.doxytag:/usr/local/share/doc/SpaceVecAlg/doxygen-html/" xlink:href="/usr/local/share/doc/SpaceVecAlg/doxygen-html/a00026.html" target="_top" xlink:title="AdmittanceVec.h">
<polygon fill="#ffffff" stroke="#000000" points="366.5,-.5 366.5,-19.5 458.5,-19.5 458.5,-.5 366.5,-.5"/>
<text text-anchor="middle" x="412.5" y="-7.5" font-family="Helvetica,sans-Serif" font-size="10.00" fill="#000000">AdmittanceVec.h</text>
</a>
</g>
</g>
<!-- Node7&#45;&gt;Node12 -->
<g id="edge15" class="edge">
<title>Node7&#45;&gt;Node12</title>
<path fill="none" stroke="#191970" d="M493.4297,-56.2455C478.253,-47.5731 455.8379,-34.7645 438.4437,-24.825"/>
<polygon fill="#191970" stroke="#191970" points="439.7936,-21.5653 429.3747,-19.6427 436.3206,-27.643 439.7936,-21.5653"/>
</g>
<!-- Node13 -->
<g id="node14" class="node">
<title>Node13</title>
<g id="a_node14"><a doxygen="/usr/local/share/doc/SpaceVecAlg/doxygen-html/SpaceVecAlg.doxytag:/usr/local/share/doc/SpaceVecAlg/doxygen-html/" xlink:href="/usr/local/share/doc/SpaceVecAlg/doxygen-html/a00038.html" target="_top" xlink:title="ForceVec.h">
<polygon fill="#ffffff" stroke="#000000" points="477,-.5 477,-19.5 544,-19.5 544,-.5 477,-.5"/>
<text text-anchor="middle" x="510.5" y="-7.5" font-family="Helvetica,sans-Serif" font-size="10.00" fill="#000000">ForceVec.h</text>
</a>
</g>
</g>
<!-- Node7&#45;&gt;Node13 -->
<g id="edge16" class="edge">
<title>Node7&#45;&gt;Node13</title>
<path fill="none" stroke="#191970" d="M510.5,-56.2455C510.5,-48.9382 510.5,-38.6944 510.5,-29.7046"/>
<polygon fill="#191970" stroke="#191970" points="514.0001,-29.6426 510.5,-19.6427 507.0001,-29.6427 514.0001,-29.6426"/>
</g>
<!-- Node14 -->
<g id="node15" class="node">
<title>Node14</title>
<g id="a_node15"><a doxygen="/usr/local/share/doc/SpaceVecAlg/doxygen-html/SpaceVecAlg.doxytag:/usr/local/share/doc/SpaceVecAlg/doxygen-html/" xlink:href="/usr/local/share/doc/SpaceVecAlg/doxygen-html/a00041.html" target="_top" xlink:title="ImpedanceVec.h">
<polygon fill="#ffffff" stroke="#000000" points="562.5,-.5 562.5,-19.5 652.5,-19.5 652.5,-.5 562.5,-.5"/>
<text text-anchor="middle" x="607.5" y="-7.5" font-family="Helvetica,sans-Serif" font-size="10.00" fill="#000000">ImpedanceVec.h</text>
</a>
</g>
</g>
<!-- Node7&#45;&gt;Node14 -->
<g id="edge17" class="edge">
<title>Node7&#45;&gt;Node14</title>
<path fill="none" stroke="#191970" d="M527.3961,-56.2455C542.418,-47.5731 564.6043,-34.7645 581.821,-24.825"/>
<polygon fill="#191970" stroke="#191970" points="583.8871,-27.6737 590.7975,-19.6427 580.3872,-21.6114 583.8871,-27.6737"/>
</g>
<!-- Node15 -->
<g id="node16" class="node">
<title>Node15</title>
<g id="a_node16"><a doxygen="/usr/local/share/doc/SpaceVecAlg/doxygen-html/SpaceVecAlg.doxytag:/usr/local/share/doc/SpaceVecAlg/doxygen-html/" xlink:href="/usr/local/share/doc/SpaceVecAlg/doxygen-html/a00047.html" target="_top" xlink:title="MotionVec.h">
<polygon fill="#ffffff" stroke="#000000" points="671,-.5 671,-19.5 742,-19.5 742,-.5 671,-.5"/>
<text text-anchor="middle" x="706.5" y="-7.5" font-family="Helvetica,sans-Serif" font-size="10.00" fill="#000000">MotionVec.h</text>
</a>
</g>
</g>
<!-- Node7&#45;&gt;Node15 -->
<g id="edge18" class="edge">
<title>Node7&#45;&gt;Node15</title>
<path fill="none" stroke="#191970" d="M544.1936,-56.3733C577.2087,-46.9404 627.6573,-32.5265 663.5386,-22.2747"/>
<polygon fill="#191970" stroke="#191970" points="664.5924,-25.6137 673.2461,-19.5011 662.6693,-18.8831 664.5924,-25.6137"/>
</g>
<!-- Node16 -->
<g id="node17" class="node">
<title>Node16</title>
<g id="a_node17"><a doxygen="/usr/local/share/doc/SpaceVecAlg/doxygen-html/SpaceVecAlg.doxytag:/usr/local/share/doc/SpaceVecAlg/doxygen-html/" xlink:href="/usr/local/share/doc/SpaceVecAlg/doxygen-html/a00053.html" target="_top" xlink:title="PTransform.h">
<polygon fill="#ffffff" stroke="#000000" points="760.5,-.5 760.5,-19.5 836.5,-19.5 836.5,-.5 760.5,-.5"/>
<text text-anchor="middle" x="798.5" y="-7.5" font-family="Helvetica,sans-Serif" font-size="10.00" fill="#000000">PTransform.h</text>
</a>
</g>
</g>
<!-- Node7&#45;&gt;Node16 -->
<g id="edge19" class="edge">
<title>Node7&#45;&gt;Node16</title>
<path fill="none" stroke="#191970" d="M562.2746,-56.4434C608.9257,-47.7589 679.6569,-34.4102 750.3257,-20.2083"/>
<polygon fill="#191970" stroke="#191970" points="751.1831,-23.6059 760.2944,-18.199 749.8,-16.7439 751.1831,-23.6059"/>
</g>
<!-- Node17 -->
<g id="node18" class="node">
<title>Node17</title>
<g id="a_node18"><a doxygen="/usr/local/share/doc/SpaceVecAlg/doxygen-html/SpaceVecAlg.doxytag:/usr/local/share/doc/SpaceVecAlg/doxygen-html/" xlink:href="/usr/local/share/doc/SpaceVecAlg/doxygen-html/a00056.html" target="_top" xlink:title="RBInertia.h">
<polygon fill="#ffffff" stroke="#000000" points="854.5,-.5 854.5,-19.5 920.5,-19.5 920.5,-.5 854.5,-.5"/>
<text text-anchor="middle" x="887.5" y="-7.5" font-family="Helvetica,sans-Serif" font-size="10.00" fill="#000000">RBInertia.h</text>
</a>
</g>
</g>
<!-- Node7&#45;&gt;Node17 -->
<g id="edge20" class="edge">
<title>Node7&#45;&gt;Node17</title>
<path fill="none" stroke="#191970" d="M579.6053,-56.8769C662.9576,-45.8208 796.9316,-27.8668 844.064,-20.0285"/>
<polygon fill="#191970" stroke="#191970" points="844.8499,-23.444 854.092,-18.264 843.6368,-16.55 844.8499,-23.444"/>
</g>
<!-- Node18 -->
<g id="node19" class="node">
<title>Node18</title>
<g id="a_node19"><a doxygen="/usr/local/share/doc/SpaceVecAlg/doxygen-html/SpaceVecAlg.doxytag:/usr/local/share/doc/SpaceVecAlg/doxygen-html/" xlink:href="/usr/local/share/doc/SpaceVecAlg/doxygen-html/a00050.html" target="_top" xlink:title="Operators.h">
<polygon fill="#ffffff" stroke="#000000" points="938.5,-.5 938.5,-19.5 1006.5,-19.5 1006.5,-.5 938.5,-.5"/>
<text text-anchor="middle" x="972.5" y="-7.5" font-family="Helvetica,sans-Serif" font-size="10.00" fill="#000000">Operators.h</text>
</a>
</g>
</g>
<!-- Node7&#45;&gt;Node18 -->
<g id="edge21" class="edge">
<title>Node7&#45;&gt;Node18</title>
<path fill="none" stroke="#191970" d="M579.8524,-57.1399C583.113,-56.7489 586.3416,-56.3671 589.5,-56 737.197,-38.8346 777.9213,-44.9768 928.2466,-20.0393"/>
<polygon fill="#191970" stroke="#191970" points="929.0259,-23.4576 938.309,-18.3512 927.8677,-16.5541 929.0259,-23.4576"/>
</g>
<!-- Node19&#45;&gt;Node6 -->
<g id="edge24" class="edge">
<title>Node19&#45;&gt;Node6</title>
<path fill="none" stroke="#191970" d="M535.8158,-168.2455C541.7179,-160.3761 550.1742,-149.101 557.2594,-139.6542"/>
<polygon fill="#191970" stroke="#191970" points="560.068,-141.7427 563.268,-131.6427 554.4679,-137.5427 560.068,-141.7427"/>
</g>
<!-- Node19&#45;&gt;Node7 -->
<g id="edge23" class="edge">
<title>Node19&#45;&gt;Node7</title>
<path fill="none" stroke="#191970" d="M526.9653,-168.4509C524.0296,-150.184 517.5642,-109.9553 513.6657,-85.6976"/>
<polygon fill="#191970" stroke="#191970" points="517.0733,-84.8428 512.0308,-75.5249 510.162,-85.9536 517.0733,-84.8428"/>
</g>
</g>
</svg>
