<?xml version="1.0" encoding="UTF-8" standalone="no"?>
<!DOCTYPE svg PUBLIC "-//W3C//DTD SVG 1.1//EN"
 "http://www.w3.org/Graphics/SVG/1.1/DTD/svg11.dtd">
<!-- Generated by graphviz version 2.40.1 (20161225.0304)
 -->
<!-- Title: QPMotionConstr.h Pages: 1 -->
<svg width="1015pt" height="308pt"
 viewBox="0.00 0.00 1014.50 308.00" xmlns="http://www.w3.org/2000/svg" xmlns:xlink="http://www.w3.org/1999/xlink">
<g id="graph0" class="graph" transform="scale(1 1) rotate(0) translate(4 304)">
<title>QPMotionConstr.h</title>
<polygon fill="#ffffff" stroke="transparent" points="-4,4 -4,-304 1010.5,-304 1010.5,4 -4,4"/>
<!-- Node0 -->
<g id="node1" class="node">
<title>Node0</title>
<polygon fill="#bfbfbf" stroke="#000000" points="448.5,-280.5 448.5,-299.5 546.5,-299.5 546.5,-280.5 448.5,-280.5"/>
<text text-anchor="middle" x="497.5" y="-287.5" font-family="Helvetica,sans-Serif" font-size="10.00" fill="#000000">QPMotionConstr.h</text>
</g>
<!-- Node1 -->
<g id="node2" class="node">
<title>Node1</title>
<polygon fill="#ffffff" stroke="#bfbfbf" points="290,-224.5 290,-243.5 325,-243.5 325,-224.5 290,-224.5"/>
<text text-anchor="middle" x="307.5" y="-231.5" font-family="Helvetica,sans-Serif" font-size="10.00" fill="#000000">map</text>
</g>
<!-- Node0&#45;&gt;Node1 -->
<g id="edge1" class="edge">
<title>Node0&#45;&gt;Node1</title>
<path fill="none" stroke="#191970" d="M459.7442,-280.4857C428.3967,-272.3476 382.4879,-259.8807 334.6344,-244.1847"/>
<polygon fill="#191970" stroke="#191970" points="335.6349,-240.8292 325.0415,-241.0028 333.4311,-247.4732 335.6349,-240.8292"/>
</g>
<!-- Node2 -->
<g id="node3" class="node">
<title>Node2</title>
<polygon fill="#ffffff" stroke="#bfbfbf" points="758,-56.5 758,-75.5 823,-75.5 823,-56.5 758,-56.5"/>
<text text-anchor="middle" x="790.5" y="-63.5" font-family="Helvetica,sans-Serif" font-size="10.00" fill="#000000">Eigen/Core</text>
</g>
<!-- Node0&#45;&gt;Node2 -->
<g id="edge2" class="edge">
<title>Node0&#45;&gt;Node2</title>
<path fill="none" stroke="#191970" d="M546.546,-286.5812C611.7018,-279.3863 726.1604,-257.0805 791.5,-188 815.2196,-162.9224 813.5778,-145.9789 807.5,-112 805.8557,-102.8071 802.4995,-93.047 799.2003,-84.8935"/>
<polygon fill="#191970" stroke="#191970" points="802.3606,-83.3833 795.1849,-75.5885 795.9335,-86.1569 802.3606,-83.3833"/>
</g>
<!-- Node3 -->
<g id="node4" class="node">
<title>Node3</title>
<g id="a_node4"><a doxygen="/usr/local/share/doc/RBDyn/doxygen-html/RBDyn.doxytag:/usr/local/share/doc/RBDyn/doxygen-html/" xlink:href="/usr/local/share/doc/RBDyn/doxygen-html/a00335.html" target="_top" xlink:title="RBDyn/FD.h">
<polygon fill="#ffffff" stroke="#000000" points="460.5,-224.5 460.5,-243.5 534.5,-243.5 534.5,-224.5 460.5,-224.5"/>
<text text-anchor="middle" x="497.5" y="-231.5" font-family="Helvetica,sans-Serif" font-size="10.00" fill="#000000">RBDyn/FD.h</text>
</a>
</g>
</g>
<!-- Node0&#45;&gt;Node3 -->
<g id="edge3" class="edge">
<title>Node0&#45;&gt;Node3</title>
<path fill="none" stroke="#191970" d="M497.5,-280.2455C497.5,-272.9382 497.5,-262.6944 497.5,-253.7046"/>
<polygon fill="#191970" stroke="#191970" points="501.0001,-253.6426 497.5,-243.6427 494.0001,-253.6427 501.0001,-253.6426"/>
</g>
<!-- Node4 -->
<g id="node5" class="node">
<title>Node4</title>
<g id="a_node5"><a doxygen="/usr/local/share/doc/RBDyn/doxygen-html/RBDyn.doxytag:/usr/local/share/doc/RBDyn/doxygen-html/" xlink:href="/usr/local/share/doc/RBDyn/doxygen-html/a00356.html" target="_top" xlink:title="RBDyn/Jacobian.h">
<polygon fill="#ffffff" stroke="#000000" points="343,-224.5 343,-243.5 442,-243.5 442,-224.5 343,-224.5"/>
<text text-anchor="middle" x="392.5" y="-231.5" font-family="Helvetica,sans-Serif" font-size="10.00" fill="#000000">RBDyn/Jacobian.h</text>
</a>
</g>
</g>
<!-- Node0&#45;&gt;Node4 -->
<g id="edge4" class="edge">
<title>Node0&#45;&gt;Node4</title>
<path fill="none" stroke="#191970" d="M479.2104,-280.2455C462.7238,-271.4527 438.2648,-258.4079 419.5235,-248.4125"/>
<polygon fill="#191970" stroke="#191970" points="421.0506,-245.2604 410.58,-243.6427 417.7565,-251.4368 421.0506,-245.2604"/>
</g>
<!-- Node8 -->
<g id="node9" class="node">
<title>Node8</title>
<g id="a_node9"><a xlink:href="a00050.html" target="_top" xlink:title="QPSolver.h">
<polygon fill="#ffffff" stroke="#000000" points="553,-224.5 553,-243.5 620,-243.5 620,-224.5 553,-224.5"/>
<text text-anchor="middle" x="586.5" y="-231.5" font-family="Helvetica,sans-Serif" font-size="10.00" fill="#000000">QPSolver.h</text>
</a>
</g>
</g>
<!-- Node0&#45;&gt;Node8 -->
<g id="edge8" class="edge">
<title>Node0&#45;&gt;Node8</title>
<path fill="none" stroke="#191970" d="M513.0026,-280.2455C526.658,-271.6534 546.7657,-259.0014 562.4989,-249.1018"/>
<polygon fill="#191970" stroke="#191970" points="564.5751,-251.9307 571.175,-243.6427 560.8471,-246.006 564.5751,-251.9307"/>
</g>
<!-- Node5 -->
<g id="node6" class="node">
<title>Node5</title>
<g id="a_node6"><a doxygen="/usr/local/share/doc/RBDyn/doxygen-html/RBDyn.doxytag:/usr/local/share/doc/RBDyn/doxygen-html/" xlink:href="/usr/local/share/doc/RBDyn/doxygen-html/a00365.html" target="_top" xlink:title="MultiBody.h">
<polygon fill="#ffffff" stroke="#000000" points="276.5,-168.5 276.5,-187.5 344.5,-187.5 344.5,-168.5 276.5,-168.5"/>
<text text-anchor="middle" x="310.5" y="-175.5" font-family="Helvetica,sans-Serif" font-size="10.00" fill="#000000">MultiBody.h</text>
</a>
</g>
</g>
<!-- Node4&#45;&gt;Node5 -->
<g id="edge5" class="edge">
<title>Node4&#45;&gt;Node5</title>
<path fill="none" stroke="#191970" d="M378.2167,-224.2455C365.753,-215.7337 347.4549,-203.2375 333.0208,-193.3801"/>
<polygon fill="#191970" stroke="#191970" points="334.8515,-190.392 324.6196,-187.6427 330.9038,-196.1726 334.8515,-190.392"/>
</g>
<!-- Node6 -->
<g id="node7" class="node">
<title>Node6</title>
<g id="a_node7"><a doxygen="/usr/local/share/doc/RBDyn/doxygen-html/RBDyn.doxytag:/usr/local/share/doc/RBDyn/doxygen-html/" xlink:href="/usr/local/share/doc/RBDyn/doxygen-html/a00320.html" target="_top" xlink:title="Body.h">
<polygon fill="#ffffff" stroke="#000000" points="228,-112.5 228,-131.5 275,-131.5 275,-112.5 228,-112.5"/>
<text text-anchor="middle" x="251.5" y="-119.5" font-family="Helvetica,sans-Serif" font-size="10.00" fill="#000000">Body.h</text>
</a>
</g>
</g>
<!-- Node5&#45;&gt;Node6 -->
<g id="edge6" class="edge">
<title>Node5&#45;&gt;Node6</title>
<path fill="none" stroke="#191970" d="M300.223,-168.2455C291.6782,-160.1352 279.3222,-148.4075 269.1915,-138.7919"/>
<polygon fill="#191970" stroke="#191970" points="271.3218,-135.9884 261.6592,-131.6427 266.5028,-141.0655 271.3218,-135.9884"/>
</g>
<!-- Node7 -->
<g id="node8" class="node">
<title>Node7</title>
<g id="a_node8"><a doxygen="/usr/local/share/doc/RBDyn/doxygen-html/RBDyn.doxytag:/usr/local/share/doc/RBDyn/doxygen-html/" xlink:href="/usr/local/share/doc/RBDyn/doxygen-html/a00359.html" target="_top" xlink:title="Joint.h">
<polygon fill="#ffffff" stroke="#000000" points="293.5,-112.5 293.5,-131.5 339.5,-131.5 339.5,-112.5 293.5,-112.5"/>
<text text-anchor="middle" x="316.5" y="-119.5" font-family="Helvetica,sans-Serif" font-size="10.00" fill="#000000">Joint.h</text>
</a>
</g>
</g>
<!-- Node5&#45;&gt;Node7 -->
<g id="edge7" class="edge">
<title>Node5&#45;&gt;Node7</title>
<path fill="none" stroke="#191970" d="M311.5451,-168.2455C312.328,-160.9382 313.4256,-150.6944 314.3888,-141.7046"/>
<polygon fill="#191970" stroke="#191970" points="317.8815,-141.9587 315.4669,-131.6427 310.9214,-141.2129 317.8815,-141.9587"/>
</g>
<!-- Node8&#45;&gt;Node2 -->
<g id="edge12" class="edge">
<title>Node8&#45;&gt;Node2</title>
<path fill="none" stroke="#191970" d="M620.0221,-230.1083C667.64,-223.8692 751.3421,-210.0415 771.5,-188 797.0695,-160.0412 796.3883,-112.533 793.5161,-85.7982"/>
<polygon fill="#191970" stroke="#191970" points="796.9683,-85.2016 792.2212,-75.7298 790.0255,-86.0946 796.9683,-85.2016"/>
</g>
<!-- Node9 -->
<g id="node10" class="node">
<title>Node9</title>
<polygon fill="#ffffff" stroke="#bfbfbf" points="506.5,-168.5 506.5,-187.5 558.5,-187.5 558.5,-168.5 506.5,-168.5"/>
<text text-anchor="middle" x="532.5" y="-175.5" font-family="Helvetica,sans-Serif" font-size="10.00" fill="#000000">memory</text>
</g>
<!-- Node8&#45;&gt;Node9 -->
<g id="edge9" class="edge">
<title>Node8&#45;&gt;Node9</title>
<path fill="none" stroke="#191970" d="M577.0939,-224.2455C569.3507,-216.2155 558.188,-204.6394 548.9682,-195.0781"/>
<polygon fill="#191970" stroke="#191970" points="551.2591,-192.4117 541.7983,-187.6427 546.2202,-197.2706 551.2591,-192.4117"/>
</g>
<!-- Node10 -->
<g id="node11" class="node">
<title>Node10</title>
<polygon fill="#ffffff" stroke="#bfbfbf" points="600.5,-56.5 600.5,-75.5 644.5,-75.5 644.5,-56.5 600.5,-56.5"/>
<text text-anchor="middle" x="622.5" y="-63.5" font-family="Helvetica,sans-Serif" font-size="10.00" fill="#000000">vector</text>
</g>
<!-- Node8&#45;&gt;Node10 -->
<g id="edge10" class="edge">
<title>Node8&#45;&gt;Node10</title>
<path fill="none" stroke="#191970" d="M588.5387,-224.4862C594.2541,-197.8144 610.5189,-121.9117 618.2796,-85.695"/>
<polygon fill="#191970" stroke="#191970" points="621.721,-86.3393 620.394,-75.8279 614.8763,-84.8725 621.721,-86.3393"/>
</g>
<!-- Node11 -->
<g id="node12" class="node">
<title>Node11</title>
<polygon fill="#ffffff" stroke="#bfbfbf" points="653,-168.5 653,-187.5 762,-187.5 762,-168.5 653,-168.5"/>
<text text-anchor="middle" x="707.5" y="-175.5" font-family="Helvetica,sans-Serif" font-size="10.00" fill="#000000">boost/timer/timer.hpp</text>
</g>
<!-- Node8&#45;&gt;Node11 -->
<g id="edge11" class="edge">
<title>Node8&#45;&gt;Node11</title>
<path fill="none" stroke="#191970" d="M607.3006,-224.3733C626.7243,-215.3838 655.9224,-201.8706 677.7964,-191.7471"/>
<polygon fill="#191970" stroke="#191970" points="679.3656,-194.8776 686.9708,-187.5011 676.4255,-188.5249 679.3656,-194.8776"/>
</g>
<!-- Node12 -->
<g id="node13" class="node">
<title>Node12</title>
<polygon fill="#ffffff" stroke="#bfbfbf" points="333,-56.5 333,-75.5 416,-75.5 416,-56.5 333,-56.5"/>
<text text-anchor="middle" x="374.5" y="-63.5" font-family="Helvetica,sans-Serif" font-size="10.00" fill="#000000">tasks/config.hh</text>
</g>
<!-- Node8&#45;&gt;Node12 -->
<g id="edge13" class="edge">
<title>Node8&#45;&gt;Node12</title>
<path fill="none" stroke="#191970" d="M552.6064,-226.0674C496.8476,-213.0088 391.844,-188.3777 391.5,-188 366.0467,-160.0564 367.6371,-112.5424 371.061,-85.8025"/>
<polygon fill="#191970" stroke="#191970" points="374.5494,-86.1398 372.5671,-75.7321 367.6264,-85.1043 374.5494,-86.1398"/>
</g>
<!-- Node13 -->
<g id="node14" class="node">
<title>Node13</title>
<g id="a_node14"><a xlink:href="a00044.html" target="_top" xlink:title="QPContacts.h">
<polygon fill="#ffffff" stroke="#000000" points="506,-112.5 506,-131.5 585,-131.5 585,-112.5 506,-112.5"/>
<text text-anchor="middle" x="545.5" y="-119.5" font-family="Helvetica,sans-Serif" font-size="10.00" fill="#000000">QPContacts.h</text>
</a>
</g>
</g>
<!-- Node8&#45;&gt;Node13 -->
<g id="edge14" class="edge">
<title>Node8&#45;&gt;Node13</title>
<path fill="none" stroke="#191970" d="M584.2775,-224.4395C581.1402,-211.4557 574.9556,-187.6167 567.5,-168 564.012,-158.8225 559.4171,-148.9634 555.329,-140.7357"/>
<polygon fill="#191970" stroke="#191970" points="558.3637,-138.9823 550.7023,-131.6643 552.128,-142.1627 558.3637,-138.9823"/>
</g>
<!-- Node26 -->
<g id="node27" class="node">
<title>Node26</title>
<g id="a_node27"><a xlink:href="a00053.html" target="_top" xlink:title="QPSolverData.h">
<polygon fill="#ffffff" stroke="#000000" points="400.5,-168.5 400.5,-187.5 488.5,-187.5 488.5,-168.5 400.5,-168.5"/>
<text text-anchor="middle" x="444.5" y="-175.5" font-family="Helvetica,sans-Serif" font-size="10.00" fill="#000000">QPSolverData.h</text>
</a>
</g>
</g>
<!-- Node8&#45;&gt;Node26 -->
<g id="edge30" class="edge">
<title>Node8&#45;&gt;Node26</title>
<path fill="none" stroke="#191970" d="M562.0893,-224.3733C538.8858,-215.2226 503.7962,-201.3844 477.9858,-191.2057"/>
<polygon fill="#191970" stroke="#191970" points="479.1789,-187.9139 468.5921,-187.5011 476.6108,-194.4258 479.1789,-187.9139"/>
</g>
<!-- Node13&#45;&gt;Node2 -->
<g id="edge16" class="edge">
<title>Node13&#45;&gt;Node2</title>
<path fill="none" stroke="#191970" d="M585.1358,-112.9404C629.8331,-102.7239 702.2387,-86.174 748.058,-75.701"/>
<polygon fill="#191970" stroke="#191970" points="749.0056,-79.0748 757.9743,-73.4344 747.4458,-72.2508 749.0056,-79.0748"/>
</g>
<!-- Node13&#45;&gt;Node10 -->
<g id="edge15" class="edge">
<title>Node13&#45;&gt;Node10</title>
<path fill="none" stroke="#191970" d="M558.9124,-112.2455C570.5057,-103.814 587.4748,-91.4729 600.9678,-81.6598"/>
<polygon fill="#191970" stroke="#191970" points="603.2126,-84.355 609.2413,-75.6427 599.0953,-78.6938 603.2126,-84.355"/>
</g>
<!-- Node13&#45;&gt;Node12 -->
<g id="edge17" class="edge">
<title>Node13&#45;&gt;Node12</title>
<path fill="none" stroke="#191970" d="M516.1041,-112.3733C487.6693,-103.0613 444.4123,-88.8953 413.1919,-78.671"/>
<polygon fill="#191970" stroke="#191970" points="414.105,-75.2872 403.5124,-75.5011 411.9264,-81.9396 414.105,-75.2872"/>
</g>
<!-- Node14 -->
<g id="node15" class="node">
<title>Node14</title>
<g id="a_node15"><a doxygen="/usr/local/share/doc/SpaceVecAlg/doxygen-html/SpaceVecAlg.doxytag:/usr/local/share/doc/SpaceVecAlg/doxygen-html/" xlink:href="/usr/local/share/doc/SpaceVecAlg/doxygen-html/a00059.html" target="_top" xlink:title="SpaceVecAlg/SpaceVecAlg">
<polygon fill="#ffffff" stroke="#000000" points="441.5,-56.5 441.5,-75.5 579.5,-75.5 579.5,-56.5 441.5,-56.5"/>
<text text-anchor="middle" x="510.5" y="-63.5" font-family="Helvetica,sans-Serif" font-size="10.00" fill="#000000">SpaceVecAlg/SpaceVecAlg</text>
</a>
</g>
</g>
<!-- Node13&#45;&gt;Node14 -->
<g id="edge18" class="edge">
<title>Node13&#45;&gt;Node14</title>
<path fill="none" stroke="#191970" d="M539.4035,-112.2455C534.5855,-104.5367 527.7249,-93.5598 521.8968,-84.2348"/>
<polygon fill="#191970" stroke="#191970" points="524.7947,-82.2677 516.5267,-75.6427 518.8587,-85.9777 524.7947,-82.2677"/>
</g>
<!-- Node15 -->
<g id="node16" class="node">
<title>Node15</title>
<g id="a_node16"><a doxygen="/usr/local/share/doc/SpaceVecAlg/doxygen-html/SpaceVecAlg.doxytag:/usr/local/share/doc/SpaceVecAlg/doxygen-html/" xlink:href="/usr/local/share/doc/SpaceVecAlg/doxygen-html/a00032.html" target="_top" xlink:title="EigenTypedef.h">
<polygon fill="#ffffff" stroke="#000000" points="0,-.5 0,-19.5 85,-19.5 85,-.5 0,-.5"/>
<text text-anchor="middle" x="42.5" y="-7.5" font-family="Helvetica,sans-Serif" font-size="10.00" fill="#000000">EigenTypedef.h</text>
</a>
</g>
</g>
<!-- Node14&#45;&gt;Node15 -->
<g id="edge19" class="edge">
<title>Node14&#45;&gt;Node15</title>
<path fill="none" stroke="#191970" d="M441.0375,-57.8782C435.4429,-57.2377 429.8773,-56.605 424.5,-56 280.7522,-39.8257 241.542,-42.1407 95.2832,-20.1739"/>
<polygon fill="#191970" stroke="#191970" points="95.4407,-16.6579 85.0293,-18.6207 94.3923,-23.5789 95.4407,-16.6579"/>
</g>
<!-- Node16 -->
<g id="node17" class="node">
<title>Node16</title>
<g id="a_node17"><a doxygen="/usr/local/share/doc/SpaceVecAlg/doxygen-html/SpaceVecAlg.doxytag:/usr/local/share/doc/SpaceVecAlg/doxygen-html/" xlink:href="/usr/local/share/doc/SpaceVecAlg/doxygen-html/a00035.html" target="_top" xlink:title="EigenUtility.h">
<polygon fill="#ffffff" stroke="#000000" points="103,-.5 103,-19.5 178,-19.5 178,-.5 103,-.5"/>
<text text-anchor="middle" x="140.5" y="-7.5" font-family="Helvetica,sans-Serif" font-size="10.00" fill="#000000">EigenUtility.h</text>
</a>
</g>
</g>
<!-- Node14&#45;&gt;Node16 -->
<g id="edge20" class="edge">
<title>Node14&#45;&gt;Node16</title>
<path fill="none" stroke="#191970" d="M441.289,-57.5311C377.9778,-49.4675 281.5124,-36.3892 188.0731,-20.0023"/>
<polygon fill="#191970" stroke="#191970" points="188.6226,-16.5452 178.1658,-18.2501 187.4035,-23.4382 188.6226,-16.5452"/>
</g>
<!-- Node17 -->
<g id="node18" class="node">
<title>Node17</title>
<g id="a_node18"><a doxygen="/usr/local/share/doc/SpaceVecAlg/doxygen-html/SpaceVecAlg.doxytag:/usr/local/share/doc/SpaceVecAlg/doxygen-html/" xlink:href="/usr/local/share/doc/SpaceVecAlg/doxygen-html/a00044.html" target="_top" xlink:title="MathFunc.h">
<polygon fill="#ffffff" stroke="#000000" points="196.5,-.5 196.5,-19.5 264.5,-19.5 264.5,-.5 196.5,-.5"/>
<text text-anchor="middle" x="230.5" y="-7.5" font-family="Helvetica,sans-Serif" font-size="10.00" fill="#000000">MathFunc.h</text>
</a>
</g>
</g>
<!-- Node14&#45;&gt;Node17 -->
<g id="edge21" class="edge">
<title>Node14&#45;&gt;Node17</title>
<path fill="none" stroke="#191970" d="M458.6079,-56.4965C412.7718,-47.9737 343.8705,-34.8513 274.9138,-20.2479"/>
<polygon fill="#191970" stroke="#191970" points="275.2517,-16.7415 264.7422,-18.0829 273.7944,-23.5881 275.2517,-16.7415"/>
</g>
<!-- Node18 -->
<g id="node19" class="node">
<title>Node18</title>
<g id="a_node19"><a doxygen="/usr/local/share/doc/SpaceVecAlg/doxygen-html/SpaceVecAlg.doxytag:/usr/local/share/doc/SpaceVecAlg/doxygen-html/" xlink:href="/usr/local/share/doc/SpaceVecAlg/doxygen-html/a00023.html" target="_top" xlink:title="ABInertia.h">
<polygon fill="#ffffff" stroke="#000000" points="283,-.5 283,-19.5 348,-19.5 348,-.5 283,-.5"/>
<text text-anchor="middle" x="315.5" y="-7.5" font-family="Helvetica,sans-Serif" font-size="10.00" fill="#000000">ABInertia.h</text>
</a>
</g>
</g>
<!-- Node14&#45;&gt;Node18 -->
<g id="edge22" class="edge">
<title>Node14&#45;&gt;Node18</title>
<path fill="none" stroke="#191970" d="M476.9783,-56.3733C444.0321,-46.9118 393.6361,-32.4391 357.9181,-22.1816"/>
<polygon fill="#191970" stroke="#191970" points="358.8373,-18.8042 348.2597,-19.4079 356.9051,-25.5322 358.8373,-18.8042"/>
</g>
<!-- Node19 -->
<g id="node20" class="node">
<title>Node19</title>
<g id="a_node20"><a doxygen="/usr/local/share/doc/SpaceVecAlg/doxygen-html/SpaceVecAlg.doxytag:/usr/local/share/doc/SpaceVecAlg/doxygen-html/" xlink:href="/usr/local/share/doc/SpaceVecAlg/doxygen-html/a00026.html" target="_top" xlink:title="AdmittanceVec.h">
<polygon fill="#ffffff" stroke="#000000" points="366.5,-.5 366.5,-19.5 458.5,-19.5 458.5,-.5 366.5,-.5"/>
<text text-anchor="middle" x="412.5" y="-7.5" font-family="Helvetica,sans-Serif" font-size="10.00" fill="#000000">AdmittanceVec.h</text>
</a>
</g>
</g>
<!-- Node14&#45;&gt;Node19 -->
<g id="edge23" class="edge">
<title>Node14&#45;&gt;Node19</title>
<path fill="none" stroke="#191970" d="M493.4297,-56.2455C478.253,-47.5731 455.8379,-34.7645 438.4437,-24.825"/>
<polygon fill="#191970" stroke="#191970" points="439.7936,-21.5653 429.3747,-19.6427 436.3206,-27.643 439.7936,-21.5653"/>
</g>
<!-- Node20 -->
<g id="node21" class="node">
<title>Node20</title>
<g id="a_node21"><a doxygen="/usr/local/share/doc/SpaceVecAlg/doxygen-html/SpaceVecAlg.doxytag:/usr/local/share/doc/SpaceVecAlg/doxygen-html/" xlink:href="/usr/local/share/doc/SpaceVecAlg/doxygen-html/a00038.html" target="_top" xlink:title="ForceVec.h">
<polygon fill="#ffffff" stroke="#000000" points="477,-.5 477,-19.5 544,-19.5 544,-.5 477,-.5"/>
<text text-anchor="middle" x="510.5" y="-7.5" font-family="Helvetica,sans-Serif" font-size="10.00" fill="#000000">ForceVec.h</text>
</a>
</g>
</g>
<!-- Node14&#45;&gt;Node20 -->
<g id="edge24" class="edge">
<title>Node14&#45;&gt;Node20</title>
<path fill="none" stroke="#191970" d="M510.5,-56.2455C510.5,-48.9382 510.5,-38.6944 510.5,-29.7046"/>
<polygon fill="#191970" stroke="#191970" points="514.0001,-29.6426 510.5,-19.6427 507.0001,-29.6427 514.0001,-29.6426"/>
</g>
<!-- Node21 -->
<g id="node22" class="node">
<title>Node21</title>
<g id="a_node22"><a doxygen="/usr/local/share/doc/SpaceVecAlg/doxygen-html/SpaceVecAlg.doxytag:/usr/local/share/doc/SpaceVecAlg/doxygen-html/" xlink:href="/usr/local/share/doc/SpaceVecAlg/doxygen-html/a00041.html" target="_top" xlink:title="ImpedanceVec.h">
<polygon fill="#ffffff" stroke="#000000" points="562.5,-.5 562.5,-19.5 652.5,-19.5 652.5,-.5 562.5,-.5"/>
<text text-anchor="middle" x="607.5" y="-7.5" font-family="Helvetica,sans-Serif" font-size="10.00" fill="#000000">ImpedanceVec.h</text>
</a>
</g>
</g>
<!-- Node14&#45;&gt;Node21 -->
<g id="edge25" class="edge">
<title>Node14&#45;&gt;Node21</title>
<path fill="none" stroke="#191970" d="M527.3961,-56.2455C542.418,-47.5731 564.6043,-34.7645 581.821,-24.825"/>
<polygon fill="#191970" stroke="#191970" points="583.8871,-27.6737 590.7975,-19.6427 580.3872,-21.6114 583.8871,-27.6737"/>
</g>
<!-- Node22 -->
<g id="node23" class="node">
<title>Node22</title>
<g id="a_node23"><a doxygen="/usr/local/share/doc/SpaceVecAlg/doxygen-html/SpaceVecAlg.doxytag:/usr/local/share/doc/SpaceVecAlg/doxygen-html/" xlink:href="/usr/local/share/doc/SpaceVecAlg/doxygen-html/a00047.html" target="_top" xlink:title="MotionVec.h">
<polygon fill="#ffffff" stroke="#000000" points="671,-.5 671,-19.5 742,-19.5 742,-.5 671,-.5"/>
<text text-anchor="middle" x="706.5" y="-7.5" font-family="Helvetica,sans-Serif" font-size="10.00" fill="#000000">MotionVec.h</text>
</a>
</g>
</g>
<!-- Node14&#45;&gt;Node22 -->
<g id="edge26" class="edge">
<title>Node14&#45;&gt;Node22</title>
<path fill="none" stroke="#191970" d="M544.1936,-56.3733C577.2087,-46.9404 627.6573,-32.5265 663.5386,-22.2747"/>
<polygon fill="#191970" stroke="#191970" points="664.5924,-25.6137 673.2461,-19.5011 662.6693,-18.8831 664.5924,-25.6137"/>
</g>
<!-- Node23 -->
<g id="node24" class="node">
<title>Node23</title>
<g id="a_node24"><a doxygen="/usr/local/share/doc/SpaceVecAlg/doxygen-html/SpaceVecAlg.doxytag:/usr/local/share/doc/SpaceVecAlg/doxygen-html/" xlink:href="/usr/local/share/doc/SpaceVecAlg/doxygen-html/a00053.html" target="_top" xlink:title="PTransform.h">
<polygon fill="#ffffff" stroke="#000000" points="760.5,-.5 760.5,-19.5 836.5,-19.5 836.5,-.5 760.5,-.5"/>
<text text-anchor="middle" x="798.5" y="-7.5" font-family="Helvetica,sans-Serif" font-size="10.00" fill="#000000">PTransform.h</text>
</a>
</g>
</g>
<!-- Node14&#45;&gt;Node23 -->
<g id="edge27" class="edge">
<title>Node14&#45;&gt;Node23</title>
<path fill="none" stroke="#191970" d="M562.2746,-56.4434C608.9257,-47.7589 679.6569,-34.4102 750.3257,-20.2083"/>
<polygon fill="#191970" stroke="#191970" points="751.1831,-23.6059 760.2944,-18.199 749.8,-16.7439 751.1831,-23.6059"/>
</g>
<!-- Node24 -->
<g id="node25" class="node">
<title>Node24</title>
<g id="a_node25"><a doxygen="/usr/local/share/doc/SpaceVecAlg/doxygen-html/SpaceVecAlg.doxytag:/usr/local/share/doc/SpaceVecAlg/doxygen-html/" xlink:href="/usr/local/share/doc/SpaceVecAlg/doxygen-html/a00056.html" target="_top" xlink:title="RBInertia.h">
<polygon fill="#ffffff" stroke="#000000" points="854.5,-.5 854.5,-19.5 920.5,-19.5 920.5,-.5 854.5,-.5"/>
<text text-anchor="middle" x="887.5" y="-7.5" font-family="Helvetica,sans-Serif" font-size="10.00" fill="#000000">RBInertia.h</text>
</a>
</g>
</g>
<!-- Node14&#45;&gt;Node24 -->
<g id="edge28" class="edge">
<title>Node14&#45;&gt;Node24</title>
<path fill="none" stroke="#191970" d="M579.7287,-57.3015C657.9631,-47.3373 781.5669,-31.1577 843.9082,-20.1249"/>
<polygon fill="#191970" stroke="#191970" points="844.8841,-23.5046 854.092,-18.264 843.6258,-16.6186 844.8841,-23.5046"/>
</g>
<!-- Node25 -->
<g id="node26" class="node">
<title>Node25</title>
<g id="a_node26"><a doxygen="/usr/local/share/doc/SpaceVecAlg/doxygen-html/SpaceVecAlg.doxytag:/usr/local/share/doc/SpaceVecAlg/doxygen-html/" xlink:href="/usr/local/share/doc/SpaceVecAlg/doxygen-html/a00050.html" target="_top" xlink:title="Operators.h">
<polygon fill="#ffffff" stroke="#000000" points="938.5,-.5 938.5,-19.5 1006.5,-19.5 1006.5,-.5 938.5,-.5"/>
<text text-anchor="middle" x="972.5" y="-7.5" font-family="Helvetica,sans-Serif" font-size="10.00" fill="#000000">Operators.h</text>
</a>
</g>
</g>
<!-- Node14&#45;&gt;Node25 -->
<g id="edge29" class="edge">
<title>Node14&#45;&gt;Node25</title>
<path fill="none" stroke="#191970" d="M579.8633,-57.3592C583.7994,-56.893 587.6993,-56.437 591.5,-56 738.3587,-39.115 778.8123,-44.8924 928.3021,-20.0317"/>
<polygon fill="#191970" stroke="#191970" points="929.0274,-23.459 938.3087,-18.3493 927.8668,-16.5558 929.0274,-23.459"/>
</g>
<!-- Node26&#45;&gt;Node13 -->
<g id="edge32" class="edge">
<title>Node26&#45;&gt;Node13</title>
<path fill="none" stroke="#191970" d="M462.0929,-168.2455C477.879,-159.4928 501.2639,-146.527 519.2587,-136.5496"/>
<polygon fill="#191970" stroke="#191970" points="521.0603,-139.5528 528.1087,-131.6427 517.6659,-133.4308 521.0603,-139.5528"/>
</g>
<!-- Node26&#45;&gt;Node14 -->
<g id="edge31" class="edge">
<title>Node26&#45;&gt;Node14</title>
<path fill="none" stroke="#191970" d="M450.1271,-168.4509C461.0864,-149.8533 485.4601,-108.4919 499.6593,-84.3964"/>
<polygon fill="#191970" stroke="#191970" points="502.8255,-85.9172 504.8871,-75.5249 496.7948,-82.3633 502.8255,-85.9172"/>
</g>
</g>
</svg>
