<?xml version="1.0" encoding="UTF-8" standalone="no"?>
<!DOCTYPE svg PUBLIC "-//W3C//DTD SVG 1.1//EN"
 "http://www.w3.org/Graphics/SVG/1.1/DTD/svg11.dtd">
<!-- Generated by graphviz version 2.40.1 (20161225.0304)
 -->
<!-- Title: QPSolverData.h Pages: 1 -->
<svg width="1015pt" height="196pt"
 viewBox="0.00 0.00 1014.50 196.00" xmlns="http://www.w3.org/2000/svg" xmlns:xlink="http://www.w3.org/1999/xlink">
<g id="graph0" class="graph" transform="scale(1 1) rotate(0) translate(4 192)">
<title>QPSolverData.h</title>
<polygon fill="#ffffff" stroke="transparent" points="-4,4 -4,-192 1010.5,-192 1010.5,4 -4,4"/>
<!-- Node0 -->
<g id="node1" class="node">
<title>Node0</title>
<polygon fill="#bfbfbf" stroke="#000000" points="521.5,-168.5 521.5,-187.5 609.5,-187.5 609.5,-168.5 521.5,-168.5"/>
<text text-anchor="middle" x="565.5" y="-175.5" font-family="Helvetica,sans-Serif" font-size="10.00" fill="#000000">QPSolverData.h</text>
</g>
<!-- Node1 -->
<g id="node2" class="node">
<title>Node1</title>
<g id="a_node2"><a doxygen="/usr/local/share/doc/SpaceVecAlg/doxygen-html/SpaceVecAlg.doxytag:/usr/local/share/doc/SpaceVecAlg/doxygen-html/" xlink:href="/usr/local/share/doc/SpaceVecAlg/doxygen-html/a00059.html" target="_top" xlink:title="SpaceVecAlg/SpaceVecAlg">
<polygon fill="#ffffff" stroke="#000000" points="441.5,-56.5 441.5,-75.5 579.5,-75.5 579.5,-56.5 441.5,-56.5"/>
<text text-anchor="middle" x="510.5" y="-63.5" font-family="Helvetica,sans-Serif" font-size="10.00" fill="#000000">SpaceVecAlg/SpaceVecAlg</text>
</a>
</g>
</g>
<!-- Node0&#45;&gt;Node1 -->
<g id="edge1" class="edge">
<title>Node0&#45;&gt;Node1</title>
<path fill="none" stroke="#191970" d="M560.8107,-168.4509C551.7186,-149.936 531.5469,-108.8591 519.6922,-84.7187"/>
<polygon fill="#191970" stroke="#191970" points="522.727,-82.9582 515.1774,-75.5249 516.4437,-86.0438 522.727,-82.9582"/>
</g>
<!-- Node13 -->
<g id="node14" class="node">
<title>Node13</title>
<g id="a_node14"><a xlink:href="a00044.html" target="_top" xlink:title="QPContacts.h">
<polygon fill="#ffffff" stroke="#000000" points="580,-112.5 580,-131.5 659,-131.5 659,-112.5 580,-112.5"/>
<text text-anchor="middle" x="619.5" y="-119.5" font-family="Helvetica,sans-Serif" font-size="10.00" fill="#000000">QPContacts.h</text>
</a>
</g>
</g>
<!-- Node0&#45;&gt;Node13 -->
<g id="edge13" class="edge">
<title>Node0&#45;&gt;Node13</title>
<path fill="none" stroke="#191970" d="M574.9061,-168.2455C582.6493,-160.2155 593.812,-148.6394 603.0318,-139.0781"/>
<polygon fill="#191970" stroke="#191970" points="605.7798,-141.2706 610.2017,-131.6427 600.7409,-136.4117 605.7798,-141.2706"/>
</g>
<!-- Node2 -->
<g id="node3" class="node">
<title>Node2</title>
<g id="a_node3"><a doxygen="/usr/local/share/doc/SpaceVecAlg/doxygen-html/SpaceVecAlg.doxytag:/usr/local/share/doc/SpaceVecAlg/doxygen-html/" xlink:href="/usr/local/share/doc/SpaceVecAlg/doxygen-html/a00032.html" target="_top" xlink:title="EigenTypedef.h">
<polygon fill="#ffffff" stroke="#000000" points="0,-.5 0,-19.5 85,-19.5 85,-.5 0,-.5"/>
<text text-anchor="middle" x="42.5" y="-7.5" font-family="Helvetica,sans-Serif" font-size="10.00" fill="#000000">EigenTypedef.h</text>
</a>
</g>
</g>
<!-- Node1&#45;&gt;Node2 -->
<g id="edge2" class="edge">
<title>Node1&#45;&gt;Node2</title>
<path fill="none" stroke="#191970" d="M441.2782,-60.1527C360.4612,-52.9239 222.5796,-39.3461 94.9806,-20.1292"/>
<polygon fill="#191970" stroke="#191970" points="95.4427,-16.6593 85.0301,-18.6158 94.3901,-23.5797 95.4427,-16.6593"/>
</g>
<!-- Node3 -->
<g id="node4" class="node">
<title>Node3</title>
<g id="a_node4"><a doxygen="/usr/local/share/doc/SpaceVecAlg/doxygen-html/SpaceVecAlg.doxytag:/usr/local/share/doc/SpaceVecAlg/doxygen-html/" xlink:href="/usr/local/share/doc/SpaceVecAlg/doxygen-html/a00035.html" target="_top" xlink:title="EigenUtility.h">
<polygon fill="#ffffff" stroke="#000000" points="103,-.5 103,-19.5 178,-19.5 178,-.5 103,-.5"/>
<text text-anchor="middle" x="140.5" y="-7.5" font-family="Helvetica,sans-Serif" font-size="10.00" fill="#000000">EigenUtility.h</text>
</a>
</g>
</g>
<!-- Node1&#45;&gt;Node3 -->
<g id="edge3" class="edge">
<title>Node1&#45;&gt;Node3</title>
<path fill="none" stroke="#191970" d="M441.289,-57.5311C377.9778,-49.4675 281.5124,-36.3892 188.0731,-20.0023"/>
<polygon fill="#191970" stroke="#191970" points="188.6226,-16.5452 178.1658,-18.2501 187.4035,-23.4382 188.6226,-16.5452"/>
</g>
<!-- Node4 -->
<g id="node5" class="node">
<title>Node4</title>
<g id="a_node5"><a doxygen="/usr/local/share/doc/SpaceVecAlg/doxygen-html/SpaceVecAlg.doxytag:/usr/local/share/doc/SpaceVecAlg/doxygen-html/" xlink:href="/usr/local/share/doc/SpaceVecAlg/doxygen-html/a00044.html" target="_top" xlink:title="MathFunc.h">
<polygon fill="#ffffff" stroke="#000000" points="196.5,-.5 196.5,-19.5 264.5,-19.5 264.5,-.5 196.5,-.5"/>
<text text-anchor="middle" x="230.5" y="-7.5" font-family="Helvetica,sans-Serif" font-size="10.00" fill="#000000">MathFunc.h</text>
</a>
</g>
</g>
<!-- Node1&#45;&gt;Node4 -->
<g id="edge4" class="edge">
<title>Node1&#45;&gt;Node4</title>
<path fill="none" stroke="#191970" d="M458.6079,-56.4965C412.7718,-47.9737 343.8705,-34.8513 274.9138,-20.2479"/>
<polygon fill="#191970" stroke="#191970" points="275.2517,-16.7415 264.7422,-18.0829 273.7944,-23.5881 275.2517,-16.7415"/>
</g>
<!-- Node5 -->
<g id="node6" class="node">
<title>Node5</title>
<g id="a_node6"><a doxygen="/usr/local/share/doc/SpaceVecAlg/doxygen-html/SpaceVecAlg.doxytag:/usr/local/share/doc/SpaceVecAlg/doxygen-html/" xlink:href="/usr/local/share/doc/SpaceVecAlg/doxygen-html/a00023.html" target="_top" xlink:title="ABInertia.h">
<polygon fill="#ffffff" stroke="#000000" points="283,-.5 283,-19.5 348,-19.5 348,-.5 283,-.5"/>
<text text-anchor="middle" x="315.5" y="-7.5" font-family="Helvetica,sans-Serif" font-size="10.00" fill="#000000">ABInertia.h</text>
</a>
</g>
</g>
<!-- Node1&#45;&gt;Node5 -->
<g id="edge5" class="edge">
<title>Node1&#45;&gt;Node5</title>
<path fill="none" stroke="#191970" d="M476.9783,-56.3733C444.0321,-46.9118 393.6361,-32.4391 357.9181,-22.1816"/>
<polygon fill="#191970" stroke="#191970" points="358.8373,-18.8042 348.2597,-19.4079 356.9051,-25.5322 358.8373,-18.8042"/>
</g>
<!-- Node6 -->
<g id="node7" class="node">
<title>Node6</title>
<g id="a_node7"><a doxygen="/usr/local/share/doc/SpaceVecAlg/doxygen-html/SpaceVecAlg.doxytag:/usr/local/share/doc/SpaceVecAlg/doxygen-html/" xlink:href="/usr/local/share/doc/SpaceVecAlg/doxygen-html/a00026.html" target="_top" xlink:title="AdmittanceVec.h">
<polygon fill="#ffffff" stroke="#000000" points="366.5,-.5 366.5,-19.5 458.5,-19.5 458.5,-.5 366.5,-.5"/>
<text text-anchor="middle" x="412.5" y="-7.5" font-family="Helvetica,sans-Serif" font-size="10.00" fill="#000000">AdmittanceVec.h</text>
</a>
</g>
</g>
<!-- Node1&#45;&gt;Node6 -->
<g id="edge6" class="edge">
<title>Node1&#45;&gt;Node6</title>
<path fill="none" stroke="#191970" d="M493.4297,-56.2455C478.253,-47.5731 455.8379,-34.7645 438.4437,-24.825"/>
<polygon fill="#191970" stroke="#191970" points="439.7936,-21.5653 429.3747,-19.6427 436.3206,-27.643 439.7936,-21.5653"/>
</g>
<!-- Node7 -->
<g id="node8" class="node">
<title>Node7</title>
<g id="a_node8"><a doxygen="/usr/local/share/doc/SpaceVecAlg/doxygen-html/SpaceVecAlg.doxytag:/usr/local/share/doc/SpaceVecAlg/doxygen-html/" xlink:href="/usr/local/share/doc/SpaceVecAlg/doxygen-html/a00038.html" target="_top" xlink:title="ForceVec.h">
<polygon fill="#ffffff" stroke="#000000" points="477,-.5 477,-19.5 544,-19.5 544,-.5 477,-.5"/>
<text text-anchor="middle" x="510.5" y="-7.5" font-family="Helvetica,sans-Serif" font-size="10.00" fill="#000000">ForceVec.h</text>
</a>
</g>
</g>
<!-- Node1&#45;&gt;Node7 -->
<g id="edge7" class="edge">
<title>Node1&#45;&gt;Node7</title>
<path fill="none" stroke="#191970" d="M510.5,-56.2455C510.5,-48.9382 510.5,-38.6944 510.5,-29.7046"/>
<polygon fill="#191970" stroke="#191970" points="514.0001,-29.6426 510.5,-19.6427 507.0001,-29.6427 514.0001,-29.6426"/>
</g>
<!-- Node8 -->
<g id="node9" class="node">
<title>Node8</title>
<g id="a_node9"><a doxygen="/usr/local/share/doc/SpaceVecAlg/doxygen-html/SpaceVecAlg.doxytag:/usr/local/share/doc/SpaceVecAlg/doxygen-html/" xlink:href="/usr/local/share/doc/SpaceVecAlg/doxygen-html/a00041.html" target="_top" xlink:title="ImpedanceVec.h">
<polygon fill="#ffffff" stroke="#000000" points="562.5,-.5 562.5,-19.5 652.5,-19.5 652.5,-.5 562.5,-.5"/>
<text text-anchor="middle" x="607.5" y="-7.5" font-family="Helvetica,sans-Serif" font-size="10.00" fill="#000000">ImpedanceVec.h</text>
</a>
</g>
</g>
<!-- Node1&#45;&gt;Node8 -->
<g id="edge8" class="edge">
<title>Node1&#45;&gt;Node8</title>
<path fill="none" stroke="#191970" d="M527.3961,-56.2455C542.418,-47.5731 564.6043,-34.7645 581.821,-24.825"/>
<polygon fill="#191970" stroke="#191970" points="583.8871,-27.6737 590.7975,-19.6427 580.3872,-21.6114 583.8871,-27.6737"/>
</g>
<!-- Node9 -->
<g id="node10" class="node">
<title>Node9</title>
<g id="a_node10"><a doxygen="/usr/local/share/doc/SpaceVecAlg/doxygen-html/SpaceVecAlg.doxytag:/usr/local/share/doc/SpaceVecAlg/doxygen-html/" xlink:href="/usr/local/share/doc/SpaceVecAlg/doxygen-html/a00047.html" target="_top" xlink:title="MotionVec.h">
<polygon fill="#ffffff" stroke="#000000" points="671,-.5 671,-19.5 742,-19.5 742,-.5 671,-.5"/>
<text text-anchor="middle" x="706.5" y="-7.5" font-family="Helvetica,sans-Serif" font-size="10.00" fill="#000000">MotionVec.h</text>
</a>
</g>
</g>
<!-- Node1&#45;&gt;Node9 -->
<g id="edge9" class="edge">
<title>Node1&#45;&gt;Node9</title>
<path fill="none" stroke="#191970" d="M544.1936,-56.3733C577.2087,-46.9404 627.6573,-32.5265 663.5386,-22.2747"/>
<polygon fill="#191970" stroke="#191970" points="664.5924,-25.6137 673.2461,-19.5011 662.6693,-18.8831 664.5924,-25.6137"/>
</g>
<!-- Node10 -->
<g id="node11" class="node">
<title>Node10</title>
<g id="a_node11"><a doxygen="/usr/local/share/doc/SpaceVecAlg/doxygen-html/SpaceVecAlg.doxytag:/usr/local/share/doc/SpaceVecAlg/doxygen-html/" xlink:href="/usr/local/share/doc/SpaceVecAlg/doxygen-html/a00053.html" target="_top" xlink:title="PTransform.h">
<polygon fill="#ffffff" stroke="#000000" points="760.5,-.5 760.5,-19.5 836.5,-19.5 836.5,-.5 760.5,-.5"/>
<text text-anchor="middle" x="798.5" y="-7.5" font-family="Helvetica,sans-Serif" font-size="10.00" fill="#000000">PTransform.h</text>
</a>
</g>
</g>
<!-- Node1&#45;&gt;Node10 -->
<g id="edge10" class="edge">
<title>Node1&#45;&gt;Node10</title>
<path fill="none" stroke="#191970" d="M562.2746,-56.4434C608.9257,-47.7589 679.6569,-34.4102 750.3257,-20.2083"/>
<polygon fill="#191970" stroke="#191970" points="751.1831,-23.6059 760.2944,-18.199 749.8,-16.7439 751.1831,-23.6059"/>
</g>
<!-- Node11 -->
<g id="node12" class="node">
<title>Node11</title>
<g id="a_node12"><a doxygen="/usr/local/share/doc/SpaceVecAlg/doxygen-html/SpaceVecAlg.doxytag:/usr/local/share/doc/SpaceVecAlg/doxygen-html/" xlink:href="/usr/local/share/doc/SpaceVecAlg/doxygen-html/a00056.html" target="_top" xlink:title="RBInertia.h">
<polygon fill="#ffffff" stroke="#000000" points="854.5,-.5 854.5,-19.5 920.5,-19.5 920.5,-.5 854.5,-.5"/>
<text text-anchor="middle" x="887.5" y="-7.5" font-family="Helvetica,sans-Serif" font-size="10.00" fill="#000000">RBInertia.h</text>
</a>
</g>
</g>
<!-- Node1&#45;&gt;Node11 -->
<g id="edge11" class="edge">
<title>Node1&#45;&gt;Node11</title>
<path fill="none" stroke="#191970" d="M579.6053,-56.8769C662.9576,-45.8208 796.9316,-27.8668 844.064,-20.0285"/>
<polygon fill="#191970" stroke="#191970" points="844.8499,-23.444 854.092,-18.264 843.6368,-16.55 844.8499,-23.444"/>
</g>
<!-- Node12 -->
<g id="node13" class="node">
<title>Node12</title>
<g id="a_node13"><a doxygen="/usr/local/share/doc/SpaceVecAlg/doxygen-html/SpaceVecAlg.doxytag:/usr/local/share/doc/SpaceVecAlg/doxygen-html/" xlink:href="/usr/local/share/doc/SpaceVecAlg/doxygen-html/a00050.html" target="_top" xlink:title="Operators.h">
<polygon fill="#ffffff" stroke="#000000" points="938.5,-.5 938.5,-19.5 1006.5,-19.5 1006.5,-.5 938.5,-.5"/>
<text text-anchor="middle" x="972.5" y="-7.5" font-family="Helvetica,sans-Serif" font-size="10.00" fill="#000000">Operators.h</text>
</a>
</g>
</g>
<!-- Node1&#45;&gt;Node12 -->
<g id="edge12" class="edge">
<title>Node1&#45;&gt;Node12</title>
<path fill="none" stroke="#191970" d="M579.8127,-57.0322C582.747,-56.6783 585.6524,-56.3328 588.5,-56 736.6155,-38.6892 777.4758,-45.0188 928.2188,-20.0431"/>
<polygon fill="#191970" stroke="#191970" points="929.0252,-23.4569 938.3092,-18.3522 927.8682,-16.5532 929.0252,-23.4569"/>
</g>
<!-- Node13&#45;&gt;Node1 -->
<g id="edge17" class="edge">
<title>Node13&#45;&gt;Node1</title>
<path fill="none" stroke="#191970" d="M600.5136,-112.2455C583.3208,-103.4125 557.7762,-90.2887 538.2868,-80.2758"/>
<polygon fill="#191970" stroke="#191970" points="539.763,-77.0993 529.2688,-75.6427 536.5641,-83.3257 539.763,-77.0993"/>
</g>
<!-- Node14 -->
<g id="node15" class="node">
<title>Node14</title>
<polygon fill="#ffffff" stroke="#bfbfbf" points="597.5,-56.5 597.5,-75.5 641.5,-75.5 641.5,-56.5 597.5,-56.5"/>
<text text-anchor="middle" x="619.5" y="-63.5" font-family="Helvetica,sans-Serif" font-size="10.00" fill="#000000">vector</text>
</g>
<!-- Node13&#45;&gt;Node14 -->
<g id="edge14" class="edge">
<title>Node13&#45;&gt;Node14</title>
<path fill="none" stroke="#191970" d="M619.5,-112.2455C619.5,-104.9382 619.5,-94.6944 619.5,-85.7046"/>
<polygon fill="#191970" stroke="#191970" points="623.0001,-85.6426 619.5,-75.6427 616.0001,-85.6427 623.0001,-85.6426"/>
</g>
<!-- Node15 -->
<g id="node16" class="node">
<title>Node15</title>
<polygon fill="#ffffff" stroke="#bfbfbf" points="660,-56.5 660,-75.5 725,-75.5 725,-56.5 660,-56.5"/>
<text text-anchor="middle" x="692.5" y="-63.5" font-family="Helvetica,sans-Serif" font-size="10.00" fill="#000000">Eigen/Core</text>
</g>
<!-- Node13&#45;&gt;Node15 -->
<g id="edge15" class="edge">
<title>Node13&#45;&gt;Node15</title>
<path fill="none" stroke="#191970" d="M632.2156,-112.2455C643.102,-103.8943 658.9883,-91.7076 671.72,-81.9408"/>
<polygon fill="#191970" stroke="#191970" points="674.1261,-84.5063 679.9301,-75.6427 669.8654,-78.9523 674.1261,-84.5063"/>
</g>
<!-- Node16 -->
<g id="node17" class="node">
<title>Node16</title>
<polygon fill="#ffffff" stroke="#bfbfbf" points="743,-56.5 743,-75.5 826,-75.5 826,-56.5 743,-56.5"/>
<text text-anchor="middle" x="784.5" y="-63.5" font-family="Helvetica,sans-Serif" font-size="10.00" fill="#000000">tasks/config.hh</text>
</g>
<!-- Node13&#45;&gt;Node16 -->
<g id="edge16" class="edge">
<title>Node13&#45;&gt;Node16</title>
<path fill="none" stroke="#191970" d="M647.8645,-112.3733C675.1827,-103.1016 716.6796,-89.0178 746.7738,-78.804"/>
<polygon fill="#191970" stroke="#191970" points="748.161,-82.0294 756.5056,-75.5011 745.9113,-75.4008 748.161,-82.0294"/>
</g>
</g>
</svg>
