<?xml version="1.0" encoding="UTF-8" standalone="no"?>
<!DOCTYPE svg PUBLIC "-//W3C//DTD SVG 1.1//EN"
 "http://www.w3.org/Graphics/SVG/1.1/DTD/svg11.dtd">
<!-- Generated by graphviz version 2.40.1 (20161225.0304)
 -->
<!-- Title: Tasks.h Pages: 1 -->
<svg width="628pt" height="252pt"
 viewBox="0.00 0.00 627.50 252.00" xmlns="http://www.w3.org/2000/svg" xmlns:xlink="http://www.w3.org/1999/xlink">
<g id="graph0" class="graph" transform="scale(1 1) rotate(0) translate(4 248)">
<title>Tasks.h</title>
<polygon fill="#ffffff" stroke="transparent" points="-4,4 -4,-248 623.5,-248 623.5,4 -4,4"/>
<!-- Node0 -->
<g id="node1" class="node">
<title>Node0</title>
<polygon fill="#bfbfbf" stroke="#000000" points="267.5,-224.5 267.5,-243.5 319.5,-243.5 319.5,-224.5 267.5,-224.5"/>
<text text-anchor="middle" x="293.5" y="-231.5" font-family="Helvetica,sans-Serif" font-size="10.00" fill="#000000">Tasks.h</text>
</g>
<!-- Node1 -->
<g id="node2" class="node">
<title>Node1</title>
<polygon fill="#ffffff" stroke="#bfbfbf" points="0,-168.5 0,-187.5 65,-187.5 65,-168.5 0,-168.5"/>
<text text-anchor="middle" x="32.5" y="-175.5" font-family="Helvetica,sans-Serif" font-size="10.00" fill="#000000">Eigen/Core</text>
</g>
<!-- Node0&#45;&gt;Node1 -->
<g id="edge1" class="edge">
<title>Node0&#45;&gt;Node1</title>
<path fill="none" stroke="#191970" d="M267.4932,-228.7714C228.1892,-220.8191 151.0677,-205.0194 75.2414,-188.1203"/>
<polygon fill="#191970" stroke="#191970" points="75.5624,-184.6057 65.0395,-185.8381 74.0342,-191.4368 75.5624,-184.6057"/>
</g>
<!-- Node2 -->
<g id="node3" class="node">
<title>Node2</title>
<polygon fill="#ffffff" stroke="#bfbfbf" points="83,-168.5 83,-187.5 166,-187.5 166,-168.5 83,-168.5"/>
<text text-anchor="middle" x="124.5" y="-175.5" font-family="Helvetica,sans-Serif" font-size="10.00" fill="#000000">tasks/config.hh</text>
</g>
<!-- Node0&#45;&gt;Node2 -->
<g id="edge2" class="edge">
<title>Node0&#45;&gt;Node2</title>
<path fill="none" stroke="#191970" d="M267.4641,-225.3727C239.6428,-216.1538 195.2366,-201.4393 163.2944,-190.8549"/>
<polygon fill="#191970" stroke="#191970" points="163.9917,-187.3989 153.3983,-187.5758 161.7898,-194.0436 163.9917,-187.3989"/>
</g>
<!-- Node3 -->
<g id="node4" class="node">
<title>Node3</title>
<g id="a_node4"><a doxygen="/usr/local/share/doc/RBDyn/doxygen-html/RBDyn.doxytag:/usr/local/share/doc/RBDyn/doxygen-html/" xlink:href="/usr/local/share/doc/RBDyn/doxygen-html/a00323.html" target="_top" xlink:title="RBDyn/CoM.h">
<polygon fill="#ffffff" stroke="#000000" points="184,-168.5 184,-187.5 265,-187.5 265,-168.5 184,-168.5"/>
<text text-anchor="middle" x="224.5" y="-175.5" font-family="Helvetica,sans-Serif" font-size="10.00" fill="#000000">RBDyn/CoM.h</text>
</a>
</g>
</g>
<!-- Node0&#45;&gt;Node3 -->
<g id="edge3" class="edge">
<title>Node0&#45;&gt;Node3</title>
<path fill="none" stroke="#191970" d="M281.4811,-224.2455C271.2902,-215.9746 256.4638,-203.9416 244.4893,-194.2232"/>
<polygon fill="#191970" stroke="#191970" points="246.3514,-191.2268 236.3812,-187.6427 241.9402,-196.662 246.3514,-191.2268"/>
</g>
<!-- Node4 -->
<g id="node5" class="node">
<title>Node4</title>
<g id="a_node5"><a doxygen="/usr/local/share/doc/RBDyn/doxygen-html/RBDyn.doxytag:/usr/local/share/doc/RBDyn/doxygen-html/" xlink:href="/usr/local/share/doc/RBDyn/doxygen-html/a00356.html" target="_top" xlink:title="Jacobian.h">
<polygon fill="#ffffff" stroke="#000000" points="226.5,-112.5 226.5,-131.5 290.5,-131.5 290.5,-112.5 226.5,-112.5"/>
<text text-anchor="middle" x="258.5" y="-119.5" font-family="Helvetica,sans-Serif" font-size="10.00" fill="#000000">Jacobian.h</text>
</a>
</g>
</g>
<!-- Node0&#45;&gt;Node4 -->
<g id="edge8" class="edge">
<title>Node0&#45;&gt;Node4</title>
<path fill="none" stroke="#191970" d="M290.8336,-224.1097C287.3007,-211.158 280.7801,-187.7739 274.5,-168 271.6927,-159.1606 268.3537,-149.4511 265.454,-141.2399"/>
<polygon fill="#191970" stroke="#191970" points="268.7488,-140.0588 262.0892,-131.8187 262.1566,-142.4133 268.7488,-140.0588"/>
</g>
<!-- Node8 -->
<g id="node9" class="node">
<title>Node8</title>
<g id="a_node9"><a doxygen="/usr/local/share/doc/RBDyn/doxygen-html/RBDyn.doxytag:/usr/local/share/doc/RBDyn/doxygen-html/" xlink:href="/usr/local/share/doc/RBDyn/doxygen-html/a00362.html" target="_top" xlink:title="RBDyn/Momentum.h">
<polygon fill="#ffffff" stroke="#000000" points="322,-168.5 322,-187.5 431,-187.5 431,-168.5 322,-168.5"/>
<text text-anchor="middle" x="376.5" y="-175.5" font-family="Helvetica,sans-Serif" font-size="10.00" fill="#000000">RBDyn/Momentum.h</text>
</a>
</g>
</g>
<!-- Node0&#45;&gt;Node8 -->
<g id="edge9" class="edge">
<title>Node0&#45;&gt;Node8</title>
<path fill="none" stroke="#191970" d="M307.9575,-224.2455C320.5732,-215.7337 339.0944,-203.2375 353.7045,-193.3801"/>
<polygon fill="#191970" stroke="#191970" points="355.8761,-196.1371 362.2082,-187.6427 351.9609,-190.3343 355.8761,-196.1371"/>
</g>
<!-- Node9 -->
<g id="node10" class="node">
<title>Node9</title>
<g id="a_node10"><a doxygen="/usr/local/share/doc/RBDyn/doxygen-html/RBDyn.doxytag:/usr/local/share/doc/RBDyn/doxygen-html/" xlink:href="/usr/local/share/doc/RBDyn/doxygen-html/a00374.html" target="_top" xlink:title="RBDyn/VisServo.h">
<polygon fill="#ffffff" stroke="#000000" points="449.5,-168.5 449.5,-187.5 549.5,-187.5 549.5,-168.5 449.5,-168.5"/>
<text text-anchor="middle" x="499.5" y="-175.5" font-family="Helvetica,sans-Serif" font-size="10.00" fill="#000000">RBDyn/VisServo.h</text>
</a>
</g>
</g>
<!-- Node0&#45;&gt;Node9 -->
<g id="edge10" class="edge">
<title>Node0&#45;&gt;Node9</title>
<path fill="none" stroke="#191970" d="M319.59,-226.9076C353.4963,-217.6903 413.236,-201.4504 454.5199,-190.2276"/>
<polygon fill="#191970" stroke="#191970" points="455.5989,-193.5614 464.3305,-187.5606 453.7626,-186.8065 455.5989,-193.5614"/>
</g>
<!-- Node10 -->
<g id="node11" class="node">
<title>Node10</title>
<polygon fill="#ffffff" stroke="#bfbfbf" points="567.5,-168.5 567.5,-187.5 619.5,-187.5 619.5,-168.5 567.5,-168.5"/>
<text text-anchor="middle" x="593.5" y="-175.5" font-family="Helvetica,sans-Serif" font-size="10.00" fill="#000000">memory</text>
</g>
<!-- Node0&#45;&gt;Node10 -->
<g id="edge11" class="edge">
<title>Node0&#45;&gt;Node10</title>
<path fill="none" stroke="#191970" d="M319.6375,-230.406C365.7543,-223.8633 464.7192,-208.9217 557.3919,-188.0732"/>
<polygon fill="#191970" stroke="#191970" points="558.2318,-191.4716 567.2045,-185.8376 556.6768,-184.6464 558.2318,-191.4716"/>
</g>
<!-- Node3&#45;&gt;Node4 -->
<g id="edge4" class="edge">
<title>Node3&#45;&gt;Node4</title>
<path fill="none" stroke="#191970" d="M230.4223,-168.2455C235.1027,-160.5367 241.7673,-149.5598 247.4289,-140.2348"/>
<polygon fill="#191970" stroke="#191970" points="250.4475,-142.007 252.6455,-131.6427 244.4639,-138.3741 250.4475,-142.007"/>
</g>
<!-- Node5 -->
<g id="node6" class="node">
<title>Node5</title>
<g id="a_node6"><a doxygen="/usr/local/share/doc/RBDyn/doxygen-html/RBDyn.doxytag:/usr/local/share/doc/RBDyn/doxygen-html/" xlink:href="/usr/local/share/doc/RBDyn/doxygen-html/a00365.html" target="_top" xlink:title="MultiBody.h">
<polygon fill="#ffffff" stroke="#000000" points="224.5,-56.5 224.5,-75.5 292.5,-75.5 292.5,-56.5 224.5,-56.5"/>
<text text-anchor="middle" x="258.5" y="-63.5" font-family="Helvetica,sans-Serif" font-size="10.00" fill="#000000">MultiBody.h</text>
</a>
</g>
</g>
<!-- Node4&#45;&gt;Node5 -->
<g id="edge5" class="edge">
<title>Node4&#45;&gt;Node5</title>
<path fill="none" stroke="#191970" d="M258.5,-112.2455C258.5,-104.9382 258.5,-94.6944 258.5,-85.7046"/>
<polygon fill="#191970" stroke="#191970" points="262.0001,-85.6426 258.5,-75.6427 255.0001,-85.6427 262.0001,-85.6426"/>
</g>
<!-- Node6 -->
<g id="node7" class="node">
<title>Node6</title>
<g id="a_node7"><a doxygen="/usr/local/share/doc/RBDyn/doxygen-html/RBDyn.doxytag:/usr/local/share/doc/RBDyn/doxygen-html/" xlink:href="/usr/local/share/doc/RBDyn/doxygen-html/a00320.html" target="_top" xlink:title="Body.h">
<polygon fill="#ffffff" stroke="#000000" points="203,-.5 203,-19.5 250,-19.5 250,-.5 203,-.5"/>
<text text-anchor="middle" x="226.5" y="-7.5" font-family="Helvetica,sans-Serif" font-size="10.00" fill="#000000">Body.h</text>
</a>
</g>
</g>
<!-- Node5&#45;&gt;Node6 -->
<g id="edge6" class="edge">
<title>Node5&#45;&gt;Node6</title>
<path fill="none" stroke="#191970" d="M252.926,-56.2455C248.5669,-48.617 242.3789,-37.7881 237.0867,-28.5267"/>
<polygon fill="#191970" stroke="#191970" points="240.0104,-26.5886 232.0101,-19.6427 233.9327,-30.0616 240.0104,-26.5886"/>
</g>
<!-- Node7 -->
<g id="node8" class="node">
<title>Node7</title>
<g id="a_node8"><a doxygen="/usr/local/share/doc/RBDyn/doxygen-html/RBDyn.doxytag:/usr/local/share/doc/RBDyn/doxygen-html/" xlink:href="/usr/local/share/doc/RBDyn/doxygen-html/a00359.html" target="_top" xlink:title="Joint.h">
<polygon fill="#ffffff" stroke="#000000" points="268.5,-.5 268.5,-19.5 314.5,-19.5 314.5,-.5 268.5,-.5"/>
<text text-anchor="middle" x="291.5" y="-7.5" font-family="Helvetica,sans-Serif" font-size="10.00" fill="#000000">Joint.h</text>
</a>
</g>
</g>
<!-- Node5&#45;&gt;Node7 -->
<g id="edge7" class="edge">
<title>Node5&#45;&gt;Node7</title>
<path fill="none" stroke="#191970" d="M264.2482,-56.2455C268.7435,-48.617 275.1248,-37.7881 280.5825,-28.5267"/>
<polygon fill="#191970" stroke="#191970" points="283.7561,-30.035 285.8177,-19.6427 277.7253,-26.4811 283.7561,-30.035"/>
</g>
</g>
</svg>
