<?xml version="1.0" encoding="UTF-8" standalone="no"?>
<!DOCTYPE svg PUBLIC "-//W3C//DTD SVG 1.1//EN"
 "http://www.w3.org/Graphics/SVG/1.1/DTD/svg11.dtd">
<!-- Generated by graphviz version 2.40.1 (20161225.0304)
 -->
<!-- Title: QPSolverData.h Pages: 1 -->
<svg width="432pt" height="196pt"
 viewBox="0.00 0.00 431.50 196.00" xmlns="http://www.w3.org/2000/svg" xmlns:xlink="http://www.w3.org/1999/xlink">
<g id="graph0" class="graph" transform="scale(1 1) rotate(0) translate(4 192)">
<title>QPSolverData.h</title>
<polygon fill="#ffffff" stroke="transparent" points="-4,4 -4,-192 427.5,-192 427.5,4 -4,4"/>
<!-- Node17 -->
<g id="node1" class="node">
<title>Node17</title>
<polygon fill="#bfbfbf" stroke="#000000" points="189.5,-168.5 189.5,-187.5 277.5,-187.5 277.5,-168.5 189.5,-168.5"/>
<text text-anchor="middle" x="233.5" y="-175.5" font-family="Helvetica,sans-Serif" font-size="10.00" fill="#000000">QPSolverData.h</text>
</g>
<!-- Node18 -->
<g id="node2" class="node">
<title>Node18</title>
<g id="a_node2"><a xlink:href="a00050.html" target="_top" xlink:title="QPSolver.h">
<polygon fill="#ffffff" stroke="#000000" points="200,-112.5 200,-131.5 267,-131.5 267,-112.5 200,-112.5"/>
<text text-anchor="middle" x="233.5" y="-119.5" font-family="Helvetica,sans-Serif" font-size="10.00" fill="#000000">QPSolver.h</text>
</a>
</g>
</g>
<!-- Node17&#45;&gt;Node18 -->
<g id="edge1" class="edge">
<title>Node17&#45;&gt;Node18</title>
<path fill="none" stroke="#191970" d="M233.5,-158.1575C233.5,-149.155 233.5,-138.9199 233.5,-131.6427"/>
<polygon fill="#191970" stroke="#191970" points="230.0001,-158.2455 233.5,-168.2455 237.0001,-158.2456 230.0001,-158.2455"/>
</g>
<!-- Node19 -->
<g id="node3" class="node">
<title>Node19</title>
<g id="a_node3"><a xlink:href="a00023.html" target="_top" xlink:title="GenQPUtils.h">
<polygon fill="#ffffff" stroke="#000000" points="0,-56.5 0,-75.5 77,-75.5 77,-56.5 0,-56.5"/>
<text text-anchor="middle" x="38.5" y="-63.5" font-family="Helvetica,sans-Serif" font-size="10.00" fill="#000000">GenQPUtils.h</text>
</a>
</g>
</g>
<!-- Node18&#45;&gt;Node19 -->
<g id="edge2" class="edge">
<title>Node18&#45;&gt;Node19</title>
<path fill="none" stroke="#191970" d="M190.2804,-109.5882C154.4538,-99.2996 104.2759,-84.8895 71.5843,-75.5011"/>
<polygon fill="#191970" stroke="#191970" points="189.4007,-112.977 199.9783,-112.3733 191.3329,-106.2489 189.4007,-112.977"/>
</g>
<!-- Node20 -->
<g id="node4" class="node">
<title>Node20</title>
<g id="a_node4"><a xlink:href="a00038.html" target="_top" xlink:title="QPConstr.h">
<polygon fill="#ffffff" stroke="#000000" points="95.5,-56.5 95.5,-75.5 163.5,-75.5 163.5,-56.5 95.5,-56.5"/>
<text text-anchor="middle" x="129.5" y="-63.5" font-family="Helvetica,sans-Serif" font-size="10.00" fill="#000000">QPConstr.h</text>
</a>
</g>
</g>
<!-- Node18&#45;&gt;Node20 -->
<g id="edge3" class="edge">
<title>Node18&#45;&gt;Node20</title>
<path fill="none" stroke="#191970" d="M206.4971,-107.46C187.8864,-97.4388 163.6701,-84.3993 147.4078,-75.6427"/>
<polygon fill="#191970" stroke="#191970" points="204.9205,-110.5861 215.3846,-112.2455 208.2392,-104.4228 204.9205,-110.5861"/>
</g>
<!-- Node21 -->
<g id="node5" class="node">
<title>Node21</title>
<g id="a_node5"><a xlink:href="a00041.html" target="_top" xlink:title="QPContactConstr.h">
<polygon fill="#ffffff" stroke="#000000" points="182,-56.5 182,-75.5 285,-75.5 285,-56.5 182,-56.5"/>
<text text-anchor="middle" x="233.5" y="-63.5" font-family="Helvetica,sans-Serif" font-size="10.00" fill="#000000">QPContactConstr.h</text>
</a>
</g>
</g>
<!-- Node18&#45;&gt;Node21 -->
<g id="edge4" class="edge">
<title>Node18&#45;&gt;Node21</title>
<path fill="none" stroke="#191970" d="M233.5,-102.1575C233.5,-93.155 233.5,-82.9199 233.5,-75.6427"/>
<polygon fill="#191970" stroke="#191970" points="230.0001,-102.2455 233.5,-112.2455 237.0001,-102.2456 230.0001,-102.2455"/>
</g>
<!-- Node22 -->
<g id="node6" class="node">
<title>Node22</title>
<g id="a_node6"><a xlink:href="a00047.html" target="_top" xlink:title="QPMotionConstr.h">
<polygon fill="#ffffff" stroke="#000000" points="303.5,-56.5 303.5,-75.5 401.5,-75.5 401.5,-56.5 303.5,-56.5"/>
<text text-anchor="middle" x="352.5" y="-63.5" font-family="Helvetica,sans-Serif" font-size="10.00" fill="#000000">QPMotionConstr.h</text>
</a>
</g>
</g>
<!-- Node18&#45;&gt;Node22 -->
<g id="edge5" class="edge">
<title>Node18&#45;&gt;Node22</title>
<path fill="none" stroke="#191970" d="M263.0144,-108.1109C284.5938,-97.9559 313.2976,-84.4482 332.3101,-75.5011"/>
<polygon fill="#191970" stroke="#191970" points="261.5147,-104.9484 253.9568,-112.3733 264.4953,-111.2821 261.5147,-104.9484"/>
</g>
<!-- Node23 -->
<g id="node7" class="node">
<title>Node23</title>
<g id="a_node7"><a xlink:href="a00056.html" target="_top" xlink:title="QPTasks.h">
<polygon fill="#ffffff" stroke="#000000" points="357.5,-.5 357.5,-19.5 423.5,-19.5 423.5,-.5 357.5,-.5"/>
<text text-anchor="middle" x="390.5" y="-7.5" font-family="Helvetica,sans-Serif" font-size="10.00" fill="#000000">QPTasks.h</text>
</a>
</g>
</g>
<!-- Node18&#45;&gt;Node23 -->
<g id="edge7" class="edge">
<title>Node18&#45;&gt;Node23</title>
<path fill="none" stroke="#191970" d="M277.1233,-116.7625C324.0996,-110.12 394.3048,-96.9421 410.5,-76 423.5374,-59.1413 408.7755,-33.8184 398.5696,-19.9523"/>
<polygon fill="#191970" stroke="#191970" points="276.6226,-113.2983 267.1883,-118.1196 277.5701,-120.2339 276.6226,-113.2983"/>
</g>
<!-- Node22&#45;&gt;Node23 -->
<g id="edge6" class="edge">
<title>Node22&#45;&gt;Node23</title>
<path fill="none" stroke="#191970" d="M364.7679,-47.9209C371.1488,-38.5176 378.6931,-27.3997 383.9568,-19.6427"/>
<polygon fill="#191970" stroke="#191970" points="361.838,-46.0055 359.1191,-56.2455 367.6303,-49.936 361.838,-46.0055"/>
</g>
</g>
</svg>
