<?xml version="1.0" encoding="UTF-8" standalone="no"?>
<!DOCTYPE svg PUBLIC "-//W3C//DTD SVG 1.1//EN"
 "http://www.w3.org/Graphics/SVG/1.1/DTD/svg11.dtd">
<!-- Generated by graphviz version 2.40.1 (20161225.0304)
 -->
<!-- Title: LSSOLQPSolver.h Pages: 1 -->
<svg width="333pt" height="140pt"
 viewBox="0.00 0.00 333.00 140.00" xmlns="http://www.w3.org/2000/svg" xmlns:xlink="http://www.w3.org/1999/xlink">
<g id="graph0" class="graph" transform="scale(1 1) rotate(0) translate(4 136)">
<title>LSSOLQPSolver.h</title>
<polygon fill="#ffffff" stroke="transparent" points="-4,4 -4,-136 329,-136 329,4 -4,4"/>
<!-- Node0 -->
<g id="node1" class="node">
<title>Node0</title>
<polygon fill="#bfbfbf" stroke="#000000" points="82.5,-112.5 82.5,-131.5 180.5,-131.5 180.5,-112.5 82.5,-112.5"/>
<text text-anchor="middle" x="131.5" y="-119.5" font-family="Helvetica,sans-Serif" font-size="10.00" fill="#000000">LSSOLQPSolver.h</text>
</g>
<!-- Node1 -->
<g id="node2" class="node">
<title>Node1</title>
<polygon fill="#ffffff" stroke="#bfbfbf" points="0,-56.5 0,-75.5 125,-75.5 125,-56.5 0,-56.5"/>
<text text-anchor="middle" x="62.5" y="-63.5" font-family="Helvetica,sans-Serif" font-size="10.00" fill="#000000">eigen&#45;lssol/LSSOL_QP.h</text>
</g>
<!-- Node0&#45;&gt;Node1 -->
<g id="edge1" class="edge">
<title>Node0&#45;&gt;Node1</title>
<path fill="none" stroke="#191970" d="M119.4811,-112.2455C109.2902,-103.9746 94.4638,-91.9416 82.4893,-82.2232"/>
<polygon fill="#191970" stroke="#191970" points="84.3514,-79.2268 74.3812,-75.6427 79.9402,-84.662 84.3514,-79.2268"/>
</g>
<!-- Node2 -->
<g id="node3" class="node">
<title>Node2</title>
<g id="a_node3"><a xlink:href="a00035.html" target="_top" xlink:title="Tasks/GenQPSolver.h">
<polygon fill="#ffffff" stroke="#000000" points="143,-56.5 143,-75.5 258,-75.5 258,-56.5 143,-56.5"/>
<text text-anchor="middle" x="200.5" y="-63.5" font-family="Helvetica,sans-Serif" font-size="10.00" fill="#000000">Tasks/GenQPSolver.h</text>
</a>
</g>
</g>
<!-- Node0&#45;&gt;Node2 -->
<g id="edge2" class="edge">
<title>Node0&#45;&gt;Node2</title>
<path fill="none" stroke="#191970" d="M143.5189,-112.2455C153.7098,-103.9746 168.5362,-91.9416 180.5107,-82.2232"/>
<polygon fill="#191970" stroke="#191970" points="183.0598,-84.662 188.6188,-75.6427 178.6486,-79.2268 183.0598,-84.662"/>
</g>
<!-- Node3 -->
<g id="node4" class="node">
<title>Node3</title>
<polygon fill="#ffffff" stroke="#bfbfbf" points="96.5,-.5 96.5,-19.5 140.5,-19.5 140.5,-.5 96.5,-.5"/>
<text text-anchor="middle" x="118.5" y="-7.5" font-family="Helvetica,sans-Serif" font-size="10.00" fill="#000000">vector</text>
</g>
<!-- Node2&#45;&gt;Node3 -->
<g id="edge3" class="edge">
<title>Node2&#45;&gt;Node3</title>
<path fill="none" stroke="#191970" d="M186.2167,-56.2455C173.753,-47.7337 155.4549,-35.2375 141.0208,-25.3801"/>
<polygon fill="#191970" stroke="#191970" points="142.8515,-22.392 132.6196,-19.6427 138.9038,-28.1726 142.8515,-22.392"/>
</g>
<!-- Node4 -->
<g id="node5" class="node">
<title>Node4</title>
<polygon fill="#ffffff" stroke="#bfbfbf" points="159,-.5 159,-19.5 242,-19.5 242,-.5 159,-.5"/>
<text text-anchor="middle" x="200.5" y="-7.5" font-family="Helvetica,sans-Serif" font-size="10.00" fill="#000000">tasks/config.hh</text>
</g>
<!-- Node2&#45;&gt;Node4 -->
<g id="edge4" class="edge">
<title>Node2&#45;&gt;Node4</title>
<path fill="none" stroke="#191970" d="M200.5,-56.2455C200.5,-48.9382 200.5,-38.6944 200.5,-29.7046"/>
<polygon fill="#191970" stroke="#191970" points="204.0001,-29.6426 200.5,-19.6427 197.0001,-29.6427 204.0001,-29.6426"/>
</g>
<!-- Node5 -->
<g id="node6" class="node">
<title>Node5</title>
<polygon fill="#ffffff" stroke="#bfbfbf" points="260,-.5 260,-19.5 325,-19.5 325,-.5 260,-.5"/>
<text text-anchor="middle" x="292.5" y="-7.5" font-family="Helvetica,sans-Serif" font-size="10.00" fill="#000000">Eigen/Core</text>
</g>
<!-- Node2&#45;&gt;Node5 -->
<g id="edge5" class="edge">
<title>Node2&#45;&gt;Node5</title>
<path fill="none" stroke="#191970" d="M216.5252,-56.2455C230.6408,-47.6534 251.4263,-35.0014 267.6899,-25.1018"/>
<polygon fill="#191970" stroke="#191970" points="269.9363,-27.8319 276.6585,-19.6427 266.2966,-21.8525 269.9363,-27.8319"/>
</g>
</g>
</svg>
