<?xml version="1.0" encoding="UTF-8" standalone="no"?>
<!DOCTYPE svg PUBLIC "-//W3C//DTD SVG 1.1//EN"
 "http://www.w3.org/Graphics/SVG/1.1/DTD/svg11.dtd">
<!-- Generated by graphviz version 2.40.1 (20161225.0304)
 -->
<!-- Title: QLDQPSolver.h Pages: 1 -->
<svg width="333pt" height="196pt"
 viewBox="0.00 0.00 332.50 196.00" xmlns="http://www.w3.org/2000/svg" xmlns:xlink="http://www.w3.org/1999/xlink">
<g id="graph0" class="graph" transform="scale(1 1) rotate(0) translate(4 192)">
<title>QLDQPSolver.h</title>
<polygon fill="#ffffff" stroke="transparent" points="-4,4 -4,-192 328.5,-192 328.5,4 -4,4"/>
<!-- Node0 -->
<g id="node1" class="node">
<title>Node0</title>
<polygon fill="#bfbfbf" stroke="#000000" points="76.5,-168.5 76.5,-187.5 163.5,-187.5 163.5,-168.5 76.5,-168.5"/>
<text text-anchor="middle" x="120" y="-175.5" font-family="Helvetica,sans-Serif" font-size="10.00" fill="#000000">QLDQPSolver.h</text>
</g>
<!-- Node1 -->
<g id="node2" class="node">
<title>Node1</title>
<g id="a_node2"><a doxygen="/usr/local/share/doc/eigen-qld/doxygen-html/eigen-qld.doxytag:/usr/local/share/doc/eigen-qld/doxygen-html/" xlink:href="/usr/local/share/doc/eigen-qld/doxygen-html/a00014.html" target="_top" xlink:title="eigen&#45;qld/QLD.h">
<polygon fill="#ffffff" stroke="#000000" points="17.5,-112.5 17.5,-131.5 104.5,-131.5 104.5,-112.5 17.5,-112.5"/>
<text text-anchor="middle" x="61" y="-119.5" font-family="Helvetica,sans-Serif" font-size="10.00" fill="#000000">eigen&#45;qld/QLD.h</text>
</a>
</g>
</g>
<!-- Node0&#45;&gt;Node1 -->
<g id="edge1" class="edge">
<title>Node0&#45;&gt;Node1</title>
<path fill="none" stroke="#191970" d="M109.723,-168.2455C101.1782,-160.1352 88.8222,-148.4075 78.6915,-138.7919"/>
<polygon fill="#191970" stroke="#191970" points="80.8218,-135.9884 71.1592,-131.6427 76.0028,-141.0655 80.8218,-135.9884"/>
</g>
<!-- Node4 -->
<g id="node5" class="node">
<title>Node4</title>
<g id="a_node5"><a xlink:href="a00035.html" target="_top" xlink:title="Tasks/GenQPSolver.h">
<polygon fill="#ffffff" stroke="#000000" points="132.5,-112.5 132.5,-131.5 247.5,-131.5 247.5,-112.5 132.5,-112.5"/>
<text text-anchor="middle" x="190" y="-119.5" font-family="Helvetica,sans-Serif" font-size="10.00" fill="#000000">Tasks/GenQPSolver.h</text>
</a>
</g>
</g>
<!-- Node0&#45;&gt;Node4 -->
<g id="edge4" class="edge">
<title>Node0&#45;&gt;Node4</title>
<path fill="none" stroke="#191970" d="M132.1931,-168.2455C142.6321,-159.8943 157.8655,-147.7076 170.074,-137.9408"/>
<polygon fill="#191970" stroke="#191970" points="172.3244,-140.6227 177.9467,-131.6427 167.9515,-135.1566 172.3244,-140.6227"/>
</g>
<!-- Node2 -->
<g id="node3" class="node">
<title>Node2</title>
<g id="a_node3"><a doxygen="/usr/local/share/doc/eigen-qld/doxygen-html/eigen-qld.doxytag:/usr/local/share/doc/eigen-qld/doxygen-html/" xlink:href="/usr/local/share/doc/eigen-qld/doxygen-html/a00017.html" target="_top" xlink:title="QLDDirect.h">
<polygon fill="#ffffff" stroke="#000000" points="6.5,-56.5 6.5,-75.5 77.5,-75.5 77.5,-56.5 6.5,-56.5"/>
<text text-anchor="middle" x="42" y="-63.5" font-family="Helvetica,sans-Serif" font-size="10.00" fill="#000000">QLDDirect.h</text>
</a>
</g>
</g>
<!-- Node1&#45;&gt;Node2 -->
<g id="edge2" class="edge">
<title>Node1&#45;&gt;Node2</title>
<path fill="none" stroke="#191970" d="M57.6905,-112.2455C55.1567,-104.7776 51.5823,-94.2427 48.485,-85.1137"/>
<polygon fill="#191970" stroke="#191970" points="51.7991,-83.9879 45.2716,-75.6427 45.1702,-86.237 51.7991,-83.9879"/>
</g>
<!-- Node3 -->
<g id="node4" class="node">
<title>Node3</title>
<g id="a_node4"><a doxygen="/usr/local/share/doc/eigen-qld/doxygen-html/eigen-qld.doxytag:/usr/local/share/doc/eigen-qld/doxygen-html/" xlink:href="/usr/local/share/doc/eigen-qld/doxygen-html/a00011.html" target="_top" xlink:title="eigen_qld_api.h">
<polygon fill="#ffffff" stroke="#000000" points="0,-.5 0,-19.5 84,-19.5 84,-.5 0,-.5"/>
<text text-anchor="middle" x="42" y="-7.5" font-family="Helvetica,sans-Serif" font-size="10.00" fill="#000000">eigen_qld_api.h</text>
</a>
</g>
</g>
<!-- Node2&#45;&gt;Node3 -->
<g id="edge3" class="edge">
<title>Node2&#45;&gt;Node3</title>
<path fill="none" stroke="#191970" d="M42,-56.2455C42,-48.9382 42,-38.6944 42,-29.7046"/>
<polygon fill="#191970" stroke="#191970" points="45.5001,-29.6426 42,-19.6427 38.5001,-29.6427 45.5001,-29.6426"/>
</g>
<!-- Node5 -->
<g id="node6" class="node">
<title>Node5</title>
<polygon fill="#ffffff" stroke="#bfbfbf" points="96,-56.5 96,-75.5 140,-75.5 140,-56.5 96,-56.5"/>
<text text-anchor="middle" x="118" y="-63.5" font-family="Helvetica,sans-Serif" font-size="10.00" fill="#000000">vector</text>
</g>
<!-- Node4&#45;&gt;Node5 -->
<g id="edge5" class="edge">
<title>Node4&#45;&gt;Node5</title>
<path fill="none" stroke="#191970" d="M177.4586,-112.2455C166.7213,-103.8943 151.0527,-91.7076 138.4953,-81.9408"/>
<polygon fill="#191970" stroke="#191970" points="140.4401,-79.0194 130.3977,-75.6427 136.1425,-84.5449 140.4401,-79.0194"/>
</g>
<!-- Node6 -->
<g id="node7" class="node">
<title>Node6</title>
<polygon fill="#ffffff" stroke="#bfbfbf" points="158.5,-56.5 158.5,-75.5 241.5,-75.5 241.5,-56.5 158.5,-56.5"/>
<text text-anchor="middle" x="200" y="-63.5" font-family="Helvetica,sans-Serif" font-size="10.00" fill="#000000">tasks/config.hh</text>
</g>
<!-- Node4&#45;&gt;Node6 -->
<g id="edge6" class="edge">
<title>Node4&#45;&gt;Node6</title>
<path fill="none" stroke="#191970" d="M191.7419,-112.2455C193.0467,-104.9382 194.876,-94.6944 196.4813,-85.7046"/>
<polygon fill="#191970" stroke="#191970" points="199.9656,-86.1022 198.2781,-75.6427 193.0746,-84.8717 199.9656,-86.1022"/>
</g>
<!-- Node7 -->
<g id="node8" class="node">
<title>Node7</title>
<polygon fill="#ffffff" stroke="#bfbfbf" points="259.5,-56.5 259.5,-75.5 324.5,-75.5 324.5,-56.5 259.5,-56.5"/>
<text text-anchor="middle" x="292" y="-63.5" font-family="Helvetica,sans-Serif" font-size="10.00" fill="#000000">Eigen/Core</text>
</g>
<!-- Node4&#45;&gt;Node7 -->
<g id="edge7" class="edge">
<title>Node4&#45;&gt;Node7</title>
<path fill="none" stroke="#191970" d="M207.767,-112.2455C223.7095,-103.4928 247.3259,-90.527 265.4989,-80.5496"/>
<polygon fill="#191970" stroke="#191970" points="267.3552,-83.5233 274.4366,-75.6427 263.9863,-77.3873 267.3552,-83.5233"/>
</g>
</g>
</svg>
