<?xml version="1.0" encoding="UTF-8" standalone="no"?>
<!DOCTYPE svg PUBLIC "-//W3C//DTD SVG 1.1//EN"
 "http://www.w3.org/Graphics/SVG/1.1/DTD/svg11.dtd">
<!-- Generated by graphviz version 2.40.1 (20161225.0304)
 -->
<!-- Title: QPConstr.h Pages: 1 -->
<svg width="1685pt" height="308pt"
 viewBox="0.00 0.00 1685.00 308.00" xmlns="http://www.w3.org/2000/svg" xmlns:xlink="http://www.w3.org/1999/xlink">
<g id="graph0" class="graph" transform="scale(1 1) rotate(0) translate(4 304)">
<title>QPConstr.h</title>
<polygon fill="#ffffff" stroke="transparent" points="-4,4 -4,-304 1681,-304 1681,4 -4,4"/>
<!-- Node0 -->
<g id="node1" class="node">
<title>Node0</title>
<polygon fill="#bfbfbf" stroke="#000000" points="729.5,-280.5 729.5,-299.5 797.5,-299.5 797.5,-280.5 729.5,-280.5"/>
<text text-anchor="middle" x="763.5" y="-287.5" font-family="Helvetica,sans-Serif" font-size="10.00" fill="#000000">QPConstr.h</text>
</g>
<!-- Node1 -->
<g id="node2" class="node">
<title>Node1</title>
<polygon fill="#ffffff" stroke="#bfbfbf" points="347,-56.5 347,-75.5 412,-75.5 412,-56.5 347,-56.5"/>
<text text-anchor="middle" x="379.5" y="-63.5" font-family="Helvetica,sans-Serif" font-size="10.00" fill="#000000">Eigen/Core</text>
</g>
<!-- Node0&#45;&gt;Node1 -->
<g id="edge1" class="edge">
<title>Node0&#45;&gt;Node1</title>
<path fill="none" stroke="#191970" d="M729.4908,-285.5944C645.1568,-273.9664 429.7935,-239.745 382.5,-188 357.1232,-160.2346 365.5018,-112.3035 373.0214,-85.531"/>
<polygon fill="#191970" stroke="#191970" points="376.4263,-86.3639 375.99,-75.7781 369.7297,-84.3255 376.4263,-86.3639"/>
</g>
<!-- Node2 -->
<g id="node3" class="node">
<title>Node2</title>
<polygon fill="#ffffff" stroke="#bfbfbf" points="719.5,-224.5 719.5,-243.5 807.5,-243.5 807.5,-224.5 719.5,-224.5"/>
<text text-anchor="middle" x="763.5" y="-231.5" font-family="Helvetica,sans-Serif" font-size="10.00" fill="#000000">Eigen/StdVector</text>
</g>
<!-- Node0&#45;&gt;Node2 -->
<g id="edge2" class="edge">
<title>Node0&#45;&gt;Node2</title>
<path fill="none" stroke="#191970" d="M763.5,-280.2455C763.5,-272.9382 763.5,-262.6944 763.5,-253.7046"/>
<polygon fill="#191970" stroke="#191970" points="767.0001,-253.6426 763.5,-243.6427 760.0001,-253.6427 767.0001,-253.6426"/>
</g>
<!-- Node3 -->
<g id="node4" class="node">
<title>Node3</title>
<g id="a_node4"><a doxygen="/usr/local/share/doc/RBDyn/doxygen-html/RBDyn.doxytag:/usr/local/share/doc/RBDyn/doxygen-html/" xlink:href="/usr/local/share/doc/RBDyn/doxygen-html/a00323.html" target="_top" xlink:title="RBDyn/CoM.h">
<polygon fill="#ffffff" stroke="#000000" points="864,-224.5 864,-243.5 945,-243.5 945,-224.5 864,-224.5"/>
<text text-anchor="middle" x="904.5" y="-231.5" font-family="Helvetica,sans-Serif" font-size="10.00" fill="#000000">RBDyn/CoM.h</text>
</a>
</g>
</g>
<!-- Node0&#45;&gt;Node3 -->
<g id="edge3" class="edge">
<title>Node0&#45;&gt;Node3</title>
<path fill="none" stroke="#191970" d="M787.7388,-280.3733C810.7789,-271.2226 845.6214,-257.3844 871.2501,-247.2057"/>
<polygon fill="#191970" stroke="#191970" points="872.5756,-250.4452 880.5775,-243.5011 869.9918,-243.9395 872.5756,-250.4452"/>
</g>
<!-- Node4 -->
<g id="node5" class="node">
<title>Node4</title>
<g id="a_node5"><a doxygen="/usr/local/share/doc/RBDyn/doxygen-html/RBDyn.doxytag:/usr/local/share/doc/RBDyn/doxygen-html/" xlink:href="/usr/local/share/doc/RBDyn/doxygen-html/a00356.html" target="_top" xlink:title="Jacobian.h">
<polygon fill="#ffffff" stroke="#000000" points="825.5,-168.5 825.5,-187.5 889.5,-187.5 889.5,-168.5 825.5,-168.5"/>
<text text-anchor="middle" x="857.5" y="-175.5" font-family="Helvetica,sans-Serif" font-size="10.00" fill="#000000">Jacobian.h</text>
</a>
</g>
</g>
<!-- Node0&#45;&gt;Node4 -->
<g id="edge8" class="edge">
<title>Node0&#45;&gt;Node4</title>
<path fill="none" stroke="#191970" d="M776.6858,-280.3708C788.0539,-271.6676 804.4858,-258.0933 816.5,-244 829.0345,-229.2963 840.3777,-210.385 847.9388,-196.5775"/>
<polygon fill="#191970" stroke="#191970" points="851.1302,-198.0306 852.739,-187.5586 844.9509,-194.7417 851.1302,-198.0306"/>
</g>
<!-- Node8 -->
<g id="node9" class="node">
<title>Node8</title>
<g id="a_node9"><a doxygen="/usr/local/share/doc/sch-core/doxygen-html/sch-core.doxytag:/usr/local/share/doc/sch-core/doxygen-html/" xlink:href="/usr/local/share/doc/sch-core/doxygen-html/a00035.html" target="_top" xlink:title="sch/Matrix/SCH_Types.h">
<polygon fill="#ffffff" stroke="#000000" points="1148.5,-224.5 1148.5,-243.5 1276.5,-243.5 1276.5,-224.5 1148.5,-224.5"/>
<text text-anchor="middle" x="1212.5" y="-231.5" font-family="Helvetica,sans-Serif" font-size="10.00" fill="#000000">sch/Matrix/SCH_Types.h</text>
</a>
</g>
</g>
<!-- Node0&#45;&gt;Node8 -->
<g id="edge9" class="edge">
<title>Node0&#45;&gt;Node8</title>
<path fill="none" stroke="#191970" d="M797.6165,-285.7449C869.8595,-276.7347 1039.7053,-255.5512 1138.2242,-243.2638"/>
<polygon fill="#191970" stroke="#191970" points="1138.9184,-246.7044 1148.4083,-241.9936 1138.052,-239.7582 1138.9184,-246.7044"/>
</g>
<!-- Node14 -->
<g id="node15" class="node">
<title>Node14</title>
<g id="a_node15"><a xlink:href="a00050.html" target="_top" xlink:title="QPSolver.h">
<polygon fill="#ffffff" stroke="#000000" points="584,-224.5 584,-243.5 651,-243.5 651,-224.5 584,-224.5"/>
<text text-anchor="middle" x="617.5" y="-231.5" font-family="Helvetica,sans-Serif" font-size="10.00" fill="#000000">QPSolver.h</text>
</a>
</g>
</g>
<!-- Node0&#45;&gt;Node14 -->
<g id="edge15" class="edge">
<title>Node0&#45;&gt;Node14</title>
<path fill="none" stroke="#191970" d="M738.4017,-280.3733C714.5445,-271.2226 678.4665,-257.3844 651.929,-247.2057"/>
<polygon fill="#191970" stroke="#191970" points="652.861,-243.8145 642.2708,-243.5011 650.3541,-250.3503 652.861,-243.8145"/>
</g>
<!-- Node15 -->
<g id="node16" class="node">
<title>Node15</title>
<polygon fill="#ffffff" stroke="#bfbfbf" points="755.5,-168.5 755.5,-187.5 807.5,-187.5 807.5,-168.5 755.5,-168.5"/>
<text text-anchor="middle" x="781.5" y="-175.5" font-family="Helvetica,sans-Serif" font-size="10.00" fill="#000000">memory</text>
</g>
<!-- Node0&#45;&gt;Node15 -->
<g id="edge40" class="edge">
<title>Node0&#45;&gt;Node15</title>
<path fill="none" stroke="#191970" d="M745.8815,-280.3052C726.1772,-268.109 698.4975,-246.0777 710.5,-224 718.1947,-209.8462 732.33,-199.3764 745.9741,-192.0321"/>
<polygon fill="#191970" stroke="#191970" points="747.8452,-195.0114 755.2564,-187.44 744.7412,-188.7372 747.8452,-195.0114"/>
</g>
<!-- Node3&#45;&gt;Node4 -->
<g id="edge4" class="edge">
<title>Node3&#45;&gt;Node4</title>
<path fill="none" stroke="#191970" d="M896.3132,-224.2455C889.6411,-216.2958 880.0521,-204.8706 872.0747,-195.3656"/>
<polygon fill="#191970" stroke="#191970" points="874.7026,-193.0524 865.593,-187.6427 869.3408,-197.5525 874.7026,-193.0524"/>
</g>
<!-- Node5 -->
<g id="node6" class="node">
<title>Node5</title>
<g id="a_node6"><a doxygen="/usr/local/share/doc/RBDyn/doxygen-html/RBDyn.doxytag:/usr/local/share/doc/RBDyn/doxygen-html/" xlink:href="/usr/local/share/doc/RBDyn/doxygen-html/a00365.html" target="_top" xlink:title="MultiBody.h">
<polygon fill="#ffffff" stroke="#000000" points="823.5,-112.5 823.5,-131.5 891.5,-131.5 891.5,-112.5 823.5,-112.5"/>
<text text-anchor="middle" x="857.5" y="-119.5" font-family="Helvetica,sans-Serif" font-size="10.00" fill="#000000">MultiBody.h</text>
</a>
</g>
</g>
<!-- Node4&#45;&gt;Node5 -->
<g id="edge5" class="edge">
<title>Node4&#45;&gt;Node5</title>
<path fill="none" stroke="#191970" d="M857.5,-168.2455C857.5,-160.9382 857.5,-150.6944 857.5,-141.7046"/>
<polygon fill="#191970" stroke="#191970" points="861.0001,-141.6426 857.5,-131.6427 854.0001,-141.6427 861.0001,-141.6426"/>
</g>
<!-- Node6 -->
<g id="node7" class="node">
<title>Node6</title>
<g id="a_node7"><a doxygen="/usr/local/share/doc/RBDyn/doxygen-html/RBDyn.doxytag:/usr/local/share/doc/RBDyn/doxygen-html/" xlink:href="/usr/local/share/doc/RBDyn/doxygen-html/a00320.html" target="_top" xlink:title="Body.h">
<polygon fill="#ffffff" stroke="#000000" points="804,-56.5 804,-75.5 851,-75.5 851,-56.5 804,-56.5"/>
<text text-anchor="middle" x="827.5" y="-63.5" font-family="Helvetica,sans-Serif" font-size="10.00" fill="#000000">Body.h</text>
</a>
</g>
</g>
<!-- Node5&#45;&gt;Node6 -->
<g id="edge6" class="edge">
<title>Node5&#45;&gt;Node6</title>
<path fill="none" stroke="#191970" d="M852.2744,-112.2455C848.1877,-104.617 842.3865,-93.7881 837.425,-84.5267"/>
<polygon fill="#191970" stroke="#191970" points="840.4732,-82.8047 832.6657,-75.6427 834.3028,-86.1103 840.4732,-82.8047"/>
</g>
<!-- Node7 -->
<g id="node8" class="node">
<title>Node7</title>
<g id="a_node8"><a doxygen="/usr/local/share/doc/RBDyn/doxygen-html/RBDyn.doxytag:/usr/local/share/doc/RBDyn/doxygen-html/" xlink:href="/usr/local/share/doc/RBDyn/doxygen-html/a00359.html" target="_top" xlink:title="Joint.h">
<polygon fill="#ffffff" stroke="#000000" points="869.5,-56.5 869.5,-75.5 915.5,-75.5 915.5,-56.5 869.5,-56.5"/>
<text text-anchor="middle" x="892.5" y="-63.5" font-family="Helvetica,sans-Serif" font-size="10.00" fill="#000000">Joint.h</text>
</a>
</g>
</g>
<!-- Node5&#45;&gt;Node7 -->
<g id="edge7" class="edge">
<title>Node5&#45;&gt;Node7</title>
<path fill="none" stroke="#191970" d="M863.5965,-112.2455C868.4145,-104.5367 875.2751,-93.5598 881.1032,-84.2348"/>
<polygon fill="#191970" stroke="#191970" points="884.1413,-85.9777 886.4733,-75.6427 878.2053,-82.2677 884.1413,-85.9777"/>
</g>
<!-- Node9 -->
<g id="node10" class="node">
<title>Node9</title>
<g id="a_node10"><a doxygen="/usr/local/share/doc/sch-core/doxygen-html/sch-core.doxytag:/usr/local/share/doc/sch-core/doxygen-html/" xlink:href="/usr/local/share/doc/sch-core/doxygen-html/a00038.html" target="_top" xlink:title="sch/Matrix/SmallMatrix3x3T.h">
<polygon fill="#ffffff" stroke="#000000" points="1530,-168.5 1530,-187.5 1677,-187.5 1677,-168.5 1530,-168.5"/>
<text text-anchor="middle" x="1603.5" y="-175.5" font-family="Helvetica,sans-Serif" font-size="10.00" fill="#000000">sch/Matrix/SmallMatrix3x3T.h</text>
</a>
</g>
</g>
<!-- Node8&#45;&gt;Node9 -->
<g id="edge10" class="edge">
<title>Node8&#45;&gt;Node9</title>
<path fill="none" stroke="#191970" d="M1276.6279,-224.8154C1345.2216,-214.9913 1453.9741,-199.4155 1526.9895,-188.958"/>
<polygon fill="#191970" stroke="#191970" points="1527.6445,-192.4 1537.0472,-187.5175 1526.652,-185.4707 1527.6445,-192.4"/>
</g>
<!-- Node10 -->
<g id="node11" class="node">
<title>Node10</title>
<g id="a_node11"><a doxygen="/usr/local/share/doc/sch-core/doxygen-html/sch-core.doxytag:/usr/local/share/doc/sch-core/doxygen-html/" xlink:href="/usr/local/share/doc/sch-core/doxygen-html/a00044.html" target="_top" xlink:title="sch/Matrix/SmallVector3T.h">
<polygon fill="#ffffff" stroke="#000000" points="907.5,-168.5 907.5,-187.5 1045.5,-187.5 1045.5,-168.5 907.5,-168.5"/>
<text text-anchor="middle" x="976.5" y="-175.5" font-family="Helvetica,sans-Serif" font-size="10.00" fill="#000000">sch/Matrix/SmallVector3T.h</text>
</a>
</g>
</g>
<!-- Node8&#45;&gt;Node10 -->
<g id="edge11" class="edge">
<title>Node8&#45;&gt;Node10</title>
<path fill="none" stroke="#191970" d="M1172.1983,-224.4369C1131.8936,-214.8731 1069.8179,-200.1432 1026.4182,-189.845"/>
<polygon fill="#191970" stroke="#191970" points="1027.1734,-186.4271 1016.6355,-187.5237 1025.5572,-193.238 1027.1734,-186.4271"/>
</g>
<!-- Node11 -->
<g id="node12" class="node">
<title>Node11</title>
<g id="a_node12"><a doxygen="/usr/local/share/doc/sch-core/doxygen-html/sch-core.doxytag:/usr/local/share/doc/sch-core/doxygen-html/" xlink:href="/usr/local/share/doc/sch-core/doxygen-html/a00047.html" target="_top" xlink:title="sch/Matrix/SmallVector4T.h">
<polygon fill="#ffffff" stroke="#000000" points="1063.5,-168.5 1063.5,-187.5 1201.5,-187.5 1201.5,-168.5 1063.5,-168.5"/>
<text text-anchor="middle" x="1132.5" y="-175.5" font-family="Helvetica,sans-Serif" font-size="10.00" fill="#000000">sch/Matrix/SmallVector4T.h</text>
</a>
</g>
</g>
<!-- Node8&#45;&gt;Node11 -->
<g id="edge12" class="edge">
<title>Node8&#45;&gt;Node11</title>
<path fill="none" stroke="#191970" d="M1198.5651,-224.2455C1186.4053,-215.7337 1168.5536,-203.2375 1154.4715,-193.3801"/>
<polygon fill="#191970" stroke="#191970" points="1156.4747,-190.51 1146.2752,-187.6427 1152.4605,-196.2447 1156.4747,-190.51"/>
</g>
<!-- Node12 -->
<g id="node13" class="node">
<title>Node12</title>
<g id="a_node13"><a doxygen="/usr/local/share/doc/sch-core/doxygen-html/sch-core.doxytag:/usr/local/share/doc/sch-core/doxygen-html/" xlink:href="/usr/local/share/doc/sch-core/doxygen-html/a00041.html" target="_top" xlink:title="sch/Matrix/SmallMatrix4x4T.h">
<polygon fill="#ffffff" stroke="#000000" points="1220,-168.5 1220,-187.5 1367,-187.5 1367,-168.5 1220,-168.5"/>
<text text-anchor="middle" x="1293.5" y="-175.5" font-family="Helvetica,sans-Serif" font-size="10.00" fill="#000000">sch/Matrix/SmallMatrix4x4T.h</text>
</a>
</g>
</g>
<!-- Node8&#45;&gt;Node12 -->
<g id="edge13" class="edge">
<title>Node8&#45;&gt;Node12</title>
<path fill="none" stroke="#191970" d="M1226.6091,-224.2455C1238.9209,-215.7337 1256.9958,-203.2375 1271.2538,-193.3801"/>
<polygon fill="#191970" stroke="#191970" points="1273.3174,-196.2085 1279.5526,-187.6427 1269.3366,-190.4506 1273.3174,-196.2085"/>
</g>
<!-- Node13 -->
<g id="node14" class="node">
<title>Node13</title>
<g id="a_node14"><a doxygen="/usr/local/share/doc/sch-core/doxygen-html/sch-core.doxytag:/usr/local/share/doc/sch-core/doxygen-html/" xlink:href="/usr/local/share/doc/sch-core/doxygen-html/a00032.html" target="_top" xlink:title="sch/Matrix/QuaternionT.h">
<polygon fill="#ffffff" stroke="#000000" points="1385,-168.5 1385,-187.5 1512,-187.5 1512,-168.5 1385,-168.5"/>
<text text-anchor="middle" x="1448.5" y="-175.5" font-family="Helvetica,sans-Serif" font-size="10.00" fill="#000000">sch/Matrix/QuaternionT.h</text>
</a>
</g>
</g>
<!-- Node8&#45;&gt;Node13 -->
<g id="edge14" class="edge">
<title>Node8&#45;&gt;Node13</title>
<path fill="none" stroke="#191970" d="M1252.8017,-224.4369C1293.1064,-214.8731 1355.1821,-200.1432 1398.5818,-189.845"/>
<polygon fill="#191970" stroke="#191970" points="1399.4428,-193.238 1408.3645,-187.5237 1397.8266,-186.4271 1399.4428,-193.238"/>
</g>
<!-- Node14&#45;&gt;Node1 -->
<g id="edge19" class="edge">
<title>Node14&#45;&gt;Node1</title>
<path fill="none" stroke="#191970" d="M583.7962,-231.5192C528.8328,-226.7501 423.5023,-214.3516 398.5,-188 372.4221,-160.5147 373.297,-112.8262 376.3378,-85.9343"/>
<polygon fill="#191970" stroke="#191970" points="379.8362,-86.1795 377.7013,-75.802 372.8988,-85.2458 379.8362,-86.1795"/>
</g>
<!-- Node14&#45;&gt;Node15 -->
<g id="edge16" class="edge">
<title>Node14&#45;&gt;Node15</title>
<path fill="none" stroke="#191970" d="M645.6926,-224.3733C673.3389,-214.933 715.5952,-200.5041 745.6227,-190.2508"/>
<polygon fill="#191970" stroke="#191970" points="746.9658,-193.4906 755.2983,-186.9469 744.7038,-186.8662 746.9658,-193.4906"/>
</g>
<!-- Node16 -->
<g id="node17" class="node">
<title>Node16</title>
<polygon fill="#ffffff" stroke="#bfbfbf" points="604.5,-56.5 604.5,-75.5 648.5,-75.5 648.5,-56.5 604.5,-56.5"/>
<text text-anchor="middle" x="626.5" y="-63.5" font-family="Helvetica,sans-Serif" font-size="10.00" fill="#000000">vector</text>
</g>
<!-- Node14&#45;&gt;Node16 -->
<g id="edge17" class="edge">
<title>Node14&#45;&gt;Node16</title>
<path fill="none" stroke="#191970" d="M634.5567,-224.377C646.8089,-216.4014 662.3708,-203.8248 669.5,-188 685.7667,-151.8923 659.2193,-107.6401 641.1236,-83.5973"/>
<polygon fill="#191970" stroke="#191970" points="643.8597,-81.4145 634.9341,-75.7062 638.3519,-85.7347 643.8597,-81.4145"/>
</g>
<!-- Node17 -->
<g id="node18" class="node">
<title>Node17</title>
<polygon fill="#ffffff" stroke="#bfbfbf" points="552,-168.5 552,-187.5 661,-187.5 661,-168.5 552,-168.5"/>
<text text-anchor="middle" x="606.5" y="-175.5" font-family="Helvetica,sans-Serif" font-size="10.00" fill="#000000">boost/timer/timer.hpp</text>
</g>
<!-- Node14&#45;&gt;Node17 -->
<g id="edge18" class="edge">
<title>Node14&#45;&gt;Node17</title>
<path fill="none" stroke="#191970" d="M615.5839,-224.2455C614.1486,-216.9382 612.1364,-206.6944 610.3705,-197.7046"/>
<polygon fill="#191970" stroke="#191970" points="613.756,-196.7805 608.3941,-187.6427 606.8873,-198.1298 613.756,-196.7805"/>
</g>
<!-- Node18 -->
<g id="node19" class="node">
<title>Node18</title>
<polygon fill="#ffffff" stroke="#bfbfbf" points="673,-56.5 673,-75.5 756,-75.5 756,-56.5 673,-56.5"/>
<text text-anchor="middle" x="714.5" y="-63.5" font-family="Helvetica,sans-Serif" font-size="10.00" fill="#000000">tasks/config.hh</text>
</g>
<!-- Node14&#45;&gt;Node18 -->
<g id="edge20" class="edge">
<title>Node14&#45;&gt;Node18</title>
<path fill="none" stroke="#191970" d="M640.1094,-224.4423C655.4868,-216.7898 675.0493,-204.5876 686.5,-188 708.0083,-156.8429 713.2098,-111.5905 714.3382,-85.8577"/>
<polygon fill="#191970" stroke="#191970" points="717.8378,-85.9165 714.6112,-75.825 710.8404,-85.726 717.8378,-85.9165"/>
</g>
<!-- Node19 -->
<g id="node20" class="node">
<title>Node19</title>
<g id="a_node20"><a xlink:href="a00044.html" target="_top" xlink:title="QPContacts.h">
<polygon fill="#ffffff" stroke="#000000" points="482,-112.5 482,-131.5 561,-131.5 561,-112.5 482,-112.5"/>
<text text-anchor="middle" x="521.5" y="-119.5" font-family="Helvetica,sans-Serif" font-size="10.00" fill="#000000">QPContacts.h</text>
</a>
</g>
</g>
<!-- Node14&#45;&gt;Node19 -->
<g id="edge21" class="edge">
<title>Node14&#45;&gt;Node19</title>
<path fill="none" stroke="#191970" d="M593.025,-224.4326C576.5766,-216.8414 555.5904,-204.7164 542.5,-188 532.0875,-174.7032 526.7793,-156.1301 524.1088,-142.0728"/>
<polygon fill="#191970" stroke="#191970" points="527.5254,-141.2737 522.4854,-131.9544 520.6138,-142.3826 527.5254,-141.2737"/>
</g>
<!-- Node32 -->
<g id="node33" class="node">
<title>Node32</title>
<g id="a_node33"><a xlink:href="a00053.html" target="_top" xlink:title="QPSolverData.h">
<polygon fill="#ffffff" stroke="#000000" points="407.5,-168.5 407.5,-187.5 495.5,-187.5 495.5,-168.5 407.5,-168.5"/>
<text text-anchor="middle" x="451.5" y="-175.5" font-family="Helvetica,sans-Serif" font-size="10.00" fill="#000000">QPSolverData.h</text>
</a>
</g>
</g>
<!-- Node14&#45;&gt;Node32 -->
<g id="edge37" class="edge">
<title>Node14&#45;&gt;Node32</title>
<path fill="none" stroke="#191970" d="M588.9636,-224.3733C561.4798,-215.1016 519.7314,-201.0178 489.4548,-190.804"/>
<polygon fill="#191970" stroke="#191970" points="490.2582,-187.3813 479.664,-187.5011 488.0206,-194.0141 490.2582,-187.3813"/>
</g>
<!-- Node19&#45;&gt;Node1 -->
<g id="edge23" class="edge">
<title>Node19&#45;&gt;Node1</title>
<path fill="none" stroke="#191970" d="M497.0893,-112.3733C473.8858,-103.2226 438.7962,-89.3844 412.9858,-79.2057"/>
<polygon fill="#191970" stroke="#191970" points="414.1789,-75.9139 403.5921,-75.5011 411.6108,-82.4258 414.1789,-75.9139"/>
</g>
<!-- Node19&#45;&gt;Node16 -->
<g id="edge22" class="edge">
<title>Node19&#45;&gt;Node16</title>
<path fill="none" stroke="#191970" d="M539.7896,-112.2455C556.2762,-103.4527 580.7352,-90.4079 599.4765,-80.4125"/>
<polygon fill="#191970" stroke="#191970" points="601.2435,-83.4368 608.42,-75.6427 597.9494,-77.2604 601.2435,-83.4368"/>
</g>
<!-- Node19&#45;&gt;Node18 -->
<g id="edge24" class="edge">
<title>Node19&#45;&gt;Node18</title>
<path fill="none" stroke="#191970" d="M554.6779,-112.3733C587.0487,-102.9807 636.4398,-88.6496 671.7424,-78.4064"/>
<polygon fill="#191970" stroke="#191970" points="673.1265,-81.6492 681.7551,-75.5011 671.1758,-74.9264 673.1265,-81.6492"/>
</g>
<!-- Node20 -->
<g id="node21" class="node">
<title>Node20</title>
<g id="a_node21"><a doxygen="/usr/local/share/doc/SpaceVecAlg/doxygen-html/SpaceVecAlg.doxytag:/usr/local/share/doc/SpaceVecAlg/doxygen-html/" xlink:href="/usr/local/share/doc/SpaceVecAlg/doxygen-html/a00059.html" target="_top" xlink:title="SpaceVecAlg/SpaceVecAlg">
<polygon fill="#ffffff" stroke="#000000" points="441.5,-56.5 441.5,-75.5 579.5,-75.5 579.5,-56.5 441.5,-56.5"/>
<text text-anchor="middle" x="510.5" y="-63.5" font-family="Helvetica,sans-Serif" font-size="10.00" fill="#000000">SpaceVecAlg/SpaceVecAlg</text>
</a>
</g>
</g>
<!-- Node19&#45;&gt;Node20 -->
<g id="edge25" class="edge">
<title>Node19&#45;&gt;Node20</title>
<path fill="none" stroke="#191970" d="M519.5839,-112.2455C518.1486,-104.9382 516.1364,-94.6944 514.3705,-85.7046"/>
<polygon fill="#191970" stroke="#191970" points="517.756,-84.7805 512.3941,-75.6427 510.8873,-86.1298 517.756,-84.7805"/>
</g>
<!-- Node21 -->
<g id="node22" class="node">
<title>Node21</title>
<g id="a_node22"><a doxygen="/usr/local/share/doc/SpaceVecAlg/doxygen-html/SpaceVecAlg.doxytag:/usr/local/share/doc/SpaceVecAlg/doxygen-html/" xlink:href="/usr/local/share/doc/SpaceVecAlg/doxygen-html/a00032.html" target="_top" xlink:title="EigenTypedef.h">
<polygon fill="#ffffff" stroke="#000000" points="0,-.5 0,-19.5 85,-19.5 85,-.5 0,-.5"/>
<text text-anchor="middle" x="42.5" y="-7.5" font-family="Helvetica,sans-Serif" font-size="10.00" fill="#000000">EigenTypedef.h</text>
</a>
</g>
</g>
<!-- Node20&#45;&gt;Node21 -->
<g id="edge26" class="edge">
<title>Node20&#45;&gt;Node21</title>
<path fill="none" stroke="#191970" d="M441.2191,-58.295C434.2203,-57.5188 427.2191,-56.7431 420.5,-56 278.4389,-40.2878 239.7567,-41.9983 95.167,-20.1596"/>
<polygon fill="#191970" stroke="#191970" points="95.4428,-16.6614 85.03,-18.6165 94.3893,-23.5816 95.4428,-16.6614"/>
</g>
<!-- Node22 -->
<g id="node23" class="node">
<title>Node22</title>
<g id="a_node23"><a doxygen="/usr/local/share/doc/SpaceVecAlg/doxygen-html/SpaceVecAlg.doxytag:/usr/local/share/doc/SpaceVecAlg/doxygen-html/" xlink:href="/usr/local/share/doc/SpaceVecAlg/doxygen-html/a00035.html" target="_top" xlink:title="EigenUtility.h">
<polygon fill="#ffffff" stroke="#000000" points="103,-.5 103,-19.5 178,-19.5 178,-.5 103,-.5"/>
<text text-anchor="middle" x="140.5" y="-7.5" font-family="Helvetica,sans-Serif" font-size="10.00" fill="#000000">EigenUtility.h</text>
</a>
</g>
</g>
<!-- Node20&#45;&gt;Node22 -->
<g id="edge27" class="edge">
<title>Node20&#45;&gt;Node22</title>
<path fill="none" stroke="#191970" d="M441.289,-57.5311C377.9778,-49.4675 281.5124,-36.3892 188.0731,-20.0023"/>
<polygon fill="#191970" stroke="#191970" points="188.6226,-16.5452 178.1658,-18.2501 187.4035,-23.4382 188.6226,-16.5452"/>
</g>
<!-- Node23 -->
<g id="node24" class="node">
<title>Node23</title>
<g id="a_node24"><a doxygen="/usr/local/share/doc/SpaceVecAlg/doxygen-html/SpaceVecAlg.doxytag:/usr/local/share/doc/SpaceVecAlg/doxygen-html/" xlink:href="/usr/local/share/doc/SpaceVecAlg/doxygen-html/a00044.html" target="_top" xlink:title="MathFunc.h">
<polygon fill="#ffffff" stroke="#000000" points="196.5,-.5 196.5,-19.5 264.5,-19.5 264.5,-.5 196.5,-.5"/>
<text text-anchor="middle" x="230.5" y="-7.5" font-family="Helvetica,sans-Serif" font-size="10.00" fill="#000000">MathFunc.h</text>
</a>
</g>
</g>
<!-- Node20&#45;&gt;Node23 -->
<g id="edge28" class="edge">
<title>Node20&#45;&gt;Node23</title>
<path fill="none" stroke="#191970" d="M458.6079,-56.4965C412.7718,-47.9737 343.8705,-34.8513 274.9138,-20.2479"/>
<polygon fill="#191970" stroke="#191970" points="275.2517,-16.7415 264.7422,-18.0829 273.7944,-23.5881 275.2517,-16.7415"/>
</g>
<!-- Node24 -->
<g id="node25" class="node">
<title>Node24</title>
<g id="a_node25"><a doxygen="/usr/local/share/doc/SpaceVecAlg/doxygen-html/SpaceVecAlg.doxytag:/usr/local/share/doc/SpaceVecAlg/doxygen-html/" xlink:href="/usr/local/share/doc/SpaceVecAlg/doxygen-html/a00023.html" target="_top" xlink:title="ABInertia.h">
<polygon fill="#ffffff" stroke="#000000" points="283,-.5 283,-19.5 348,-19.5 348,-.5 283,-.5"/>
<text text-anchor="middle" x="315.5" y="-7.5" font-family="Helvetica,sans-Serif" font-size="10.00" fill="#000000">ABInertia.h</text>
</a>
</g>
</g>
<!-- Node20&#45;&gt;Node24 -->
<g id="edge29" class="edge">
<title>Node20&#45;&gt;Node24</title>
<path fill="none" stroke="#191970" d="M476.9783,-56.3733C444.0321,-46.9118 393.6361,-32.4391 357.9181,-22.1816"/>
<polygon fill="#191970" stroke="#191970" points="358.8373,-18.8042 348.2597,-19.4079 356.9051,-25.5322 358.8373,-18.8042"/>
</g>
<!-- Node25 -->
<g id="node26" class="node">
<title>Node25</title>
<g id="a_node26"><a doxygen="/usr/local/share/doc/SpaceVecAlg/doxygen-html/SpaceVecAlg.doxytag:/usr/local/share/doc/SpaceVecAlg/doxygen-html/" xlink:href="/usr/local/share/doc/SpaceVecAlg/doxygen-html/a00026.html" target="_top" xlink:title="AdmittanceVec.h">
<polygon fill="#ffffff" stroke="#000000" points="366.5,-.5 366.5,-19.5 458.5,-19.5 458.5,-.5 366.5,-.5"/>
<text text-anchor="middle" x="412.5" y="-7.5" font-family="Helvetica,sans-Serif" font-size="10.00" fill="#000000">AdmittanceVec.h</text>
</a>
</g>
</g>
<!-- Node20&#45;&gt;Node25 -->
<g id="edge30" class="edge">
<title>Node20&#45;&gt;Node25</title>
<path fill="none" stroke="#191970" d="M493.4297,-56.2455C478.253,-47.5731 455.8379,-34.7645 438.4437,-24.825"/>
<polygon fill="#191970" stroke="#191970" points="439.7936,-21.5653 429.3747,-19.6427 436.3206,-27.643 439.7936,-21.5653"/>
</g>
<!-- Node26 -->
<g id="node27" class="node">
<title>Node26</title>
<g id="a_node27"><a doxygen="/usr/local/share/doc/SpaceVecAlg/doxygen-html/SpaceVecAlg.doxytag:/usr/local/share/doc/SpaceVecAlg/doxygen-html/" xlink:href="/usr/local/share/doc/SpaceVecAlg/doxygen-html/a00038.html" target="_top" xlink:title="ForceVec.h">
<polygon fill="#ffffff" stroke="#000000" points="477,-.5 477,-19.5 544,-19.5 544,-.5 477,-.5"/>
<text text-anchor="middle" x="510.5" y="-7.5" font-family="Helvetica,sans-Serif" font-size="10.00" fill="#000000">ForceVec.h</text>
</a>
</g>
</g>
<!-- Node20&#45;&gt;Node26 -->
<g id="edge31" class="edge">
<title>Node20&#45;&gt;Node26</title>
<path fill="none" stroke="#191970" d="M510.5,-56.2455C510.5,-48.9382 510.5,-38.6944 510.5,-29.7046"/>
<polygon fill="#191970" stroke="#191970" points="514.0001,-29.6426 510.5,-19.6427 507.0001,-29.6427 514.0001,-29.6426"/>
</g>
<!-- Node27 -->
<g id="node28" class="node">
<title>Node27</title>
<g id="a_node28"><a doxygen="/usr/local/share/doc/SpaceVecAlg/doxygen-html/SpaceVecAlg.doxytag:/usr/local/share/doc/SpaceVecAlg/doxygen-html/" xlink:href="/usr/local/share/doc/SpaceVecAlg/doxygen-html/a00041.html" target="_top" xlink:title="ImpedanceVec.h">
<polygon fill="#ffffff" stroke="#000000" points="562.5,-.5 562.5,-19.5 652.5,-19.5 652.5,-.5 562.5,-.5"/>
<text text-anchor="middle" x="607.5" y="-7.5" font-family="Helvetica,sans-Serif" font-size="10.00" fill="#000000">ImpedanceVec.h</text>
</a>
</g>
</g>
<!-- Node20&#45;&gt;Node27 -->
<g id="edge32" class="edge">
<title>Node20&#45;&gt;Node27</title>
<path fill="none" stroke="#191970" d="M527.3961,-56.2455C542.418,-47.5731 564.6043,-34.7645 581.821,-24.825"/>
<polygon fill="#191970" stroke="#191970" points="583.8871,-27.6737 590.7975,-19.6427 580.3872,-21.6114 583.8871,-27.6737"/>
</g>
<!-- Node28 -->
<g id="node29" class="node">
<title>Node28</title>
<g id="a_node29"><a doxygen="/usr/local/share/doc/SpaceVecAlg/doxygen-html/SpaceVecAlg.doxytag:/usr/local/share/doc/SpaceVecAlg/doxygen-html/" xlink:href="/usr/local/share/doc/SpaceVecAlg/doxygen-html/a00047.html" target="_top" xlink:title="MotionVec.h">
<polygon fill="#ffffff" stroke="#000000" points="671,-.5 671,-19.5 742,-19.5 742,-.5 671,-.5"/>
<text text-anchor="middle" x="706.5" y="-7.5" font-family="Helvetica,sans-Serif" font-size="10.00" fill="#000000">MotionVec.h</text>
</a>
</g>
</g>
<!-- Node20&#45;&gt;Node28 -->
<g id="edge33" class="edge">
<title>Node20&#45;&gt;Node28</title>
<path fill="none" stroke="#191970" d="M544.1936,-56.3733C577.2087,-46.9404 627.6573,-32.5265 663.5386,-22.2747"/>
<polygon fill="#191970" stroke="#191970" points="664.5924,-25.6137 673.2461,-19.5011 662.6693,-18.8831 664.5924,-25.6137"/>
</g>
<!-- Node29 -->
<g id="node30" class="node">
<title>Node29</title>
<g id="a_node30"><a doxygen="/usr/local/share/doc/SpaceVecAlg/doxygen-html/SpaceVecAlg.doxytag:/usr/local/share/doc/SpaceVecAlg/doxygen-html/" xlink:href="/usr/local/share/doc/SpaceVecAlg/doxygen-html/a00053.html" target="_top" xlink:title="PTransform.h">
<polygon fill="#ffffff" stroke="#000000" points="760.5,-.5 760.5,-19.5 836.5,-19.5 836.5,-.5 760.5,-.5"/>
<text text-anchor="middle" x="798.5" y="-7.5" font-family="Helvetica,sans-Serif" font-size="10.00" fill="#000000">PTransform.h</text>
</a>
</g>
</g>
<!-- Node20&#45;&gt;Node29 -->
<g id="edge34" class="edge">
<title>Node20&#45;&gt;Node29</title>
<path fill="none" stroke="#191970" d="M561.5783,-56.4555C608.0128,-47.7232 678.6916,-34.294 750.1703,-20.0407"/>
<polygon fill="#191970" stroke="#191970" points="751.139,-23.4164 760.2592,-18.0244 749.7671,-16.5521 751.139,-23.4164"/>
</g>
<!-- Node30 -->
<g id="node31" class="node">
<title>Node30</title>
<g id="a_node31"><a doxygen="/usr/local/share/doc/SpaceVecAlg/doxygen-html/SpaceVecAlg.doxytag:/usr/local/share/doc/SpaceVecAlg/doxygen-html/" xlink:href="/usr/local/share/doc/SpaceVecAlg/doxygen-html/a00056.html" target="_top" xlink:title="RBInertia.h">
<polygon fill="#ffffff" stroke="#000000" points="854.5,-.5 854.5,-19.5 920.5,-19.5 920.5,-.5 854.5,-.5"/>
<text text-anchor="middle" x="887.5" y="-7.5" font-family="Helvetica,sans-Serif" font-size="10.00" fill="#000000">RBInertia.h</text>
</a>
</g>
</g>
<!-- Node20&#45;&gt;Node30 -->
<g id="edge35" class="edge">
<title>Node20&#45;&gt;Node30</title>
<path fill="none" stroke="#191970" d="M579.7287,-57.3015C657.9631,-47.3373 781.5669,-31.1577 843.9082,-20.1249"/>
<polygon fill="#191970" stroke="#191970" points="844.8841,-23.5046 854.092,-18.264 843.6258,-16.6186 844.8841,-23.5046"/>
</g>
<!-- Node31 -->
<g id="node32" class="node">
<title>Node31</title>
<g id="a_node32"><a doxygen="/usr/local/share/doc/SpaceVecAlg/doxygen-html/SpaceVecAlg.doxytag:/usr/local/share/doc/SpaceVecAlg/doxygen-html/" xlink:href="/usr/local/share/doc/SpaceVecAlg/doxygen-html/a00050.html" target="_top" xlink:title="Operators.h">
<polygon fill="#ffffff" stroke="#000000" points="938.5,-.5 938.5,-19.5 1006.5,-19.5 1006.5,-.5 938.5,-.5"/>
<text text-anchor="middle" x="972.5" y="-7.5" font-family="Helvetica,sans-Serif" font-size="10.00" fill="#000000">Operators.h</text>
</a>
</g>
</g>
<!-- Node20&#45;&gt;Node31 -->
<g id="edge36" class="edge">
<title>Node20&#45;&gt;Node31</title>
<path fill="none" stroke="#191970" d="M579.6139,-57.8119C584.9886,-57.1926 590.3322,-56.5825 595.5,-56 740.6772,-39.6366 780.594,-44.7218 928.4131,-20.0163"/>
<polygon fill="#191970" stroke="#191970" points="929.0304,-23.4617 938.308,-18.3454 927.8648,-16.5594 929.0304,-23.4617"/>
</g>
<!-- Node32&#45;&gt;Node19 -->
<g id="edge39" class="edge">
<title>Node32&#45;&gt;Node19</title>
<path fill="none" stroke="#191970" d="M463.6931,-168.2455C474.1321,-159.8943 489.3655,-147.7076 501.574,-137.9408"/>
<polygon fill="#191970" stroke="#191970" points="503.8244,-140.6227 509.4467,-131.6427 499.4515,-135.1566 503.8244,-140.6227"/>
</g>
<!-- Node32&#45;&gt;Node20 -->
<g id="edge38" class="edge">
<title>Node32&#45;&gt;Node20</title>
<path fill="none" stroke="#191970" d="M453.4022,-168.1357C456.2417,-154.8077 462.3679,-130.5798 472.5,-112 478.1537,-101.6325 486.3076,-91.3766 493.6138,-83.1888"/>
<polygon fill="#191970" stroke="#191970" points="496.2708,-85.4712 500.5134,-75.7629 491.1426,-80.7065 496.2708,-85.4712"/>
</g>
</g>
</svg>
