<?xml version="1.0" encoding="UTF-8" standalone="no"?>
<!DOCTYPE svg PUBLIC "-//W3C//DTD SVG 1.1//EN"
 "http://www.w3.org/Graphics/SVG/1.1/DTD/svg11.dtd">
<!-- Generated by graphviz version 2.40.1 (20161225.0304)
 -->
<!-- Title: QPTasks.h Pages: 1 -->
<svg width="1522pt" height="364pt"
 viewBox="0.00 0.00 1521.50 364.00" xmlns="http://www.w3.org/2000/svg" xmlns:xlink="http://www.w3.org/1999/xlink">
<g id="graph0" class="graph" transform="scale(1 1) rotate(0) translate(4 360)">
<title>QPTasks.h</title>
<polygon fill="#ffffff" stroke="transparent" points="-4,4 -4,-360 1517.5,-360 1517.5,4 -4,4"/>
<!-- Node0 -->
<g id="node1" class="node">
<title>Node0</title>
<polygon fill="#bfbfbf" stroke="#000000" points="826.5,-336.5 826.5,-355.5 892.5,-355.5 892.5,-336.5 826.5,-336.5"/>
<text text-anchor="middle" x="859.5" y="-343.5" font-family="Helvetica,sans-Serif" font-size="10.00" fill="#000000">QPTasks.h</text>
</g>
<!-- Node1 -->
<g id="node2" class="node">
<title>Node1</title>
<polygon fill="#ffffff" stroke="#bfbfbf" points="755.5,-280.5 755.5,-299.5 793.5,-299.5 793.5,-280.5 755.5,-280.5"/>
<text text-anchor="middle" x="774.5" y="-287.5" font-family="Helvetica,sans-Serif" font-size="10.00" fill="#000000">array</text>
</g>
<!-- Node0&#45;&gt;Node1 -->
<g id="edge1" class="edge">
<title>Node0&#45;&gt;Node1</title>
<path fill="none" stroke="#191970" d="M844.6941,-336.2455C831.7744,-327.7337 812.8069,-315.2375 797.8448,-305.3801"/>
<polygon fill="#191970" stroke="#191970" points="799.4124,-302.2216 789.1362,-299.6427 795.5613,-308.067 799.4124,-302.2216"/>
</g>
<!-- Node2 -->
<g id="node3" class="node">
<title>Node2</title>
<polygon fill="#ffffff" stroke="#bfbfbf" points="827,-56.5 827,-75.5 892,-75.5 892,-56.5 827,-56.5"/>
<text text-anchor="middle" x="859.5" y="-63.5" font-family="Helvetica,sans-Serif" font-size="10.00" fill="#000000">Eigen/Core</text>
</g>
<!-- Node0&#45;&gt;Node2 -->
<g id="edge2" class="edge">
<title>Node0&#45;&gt;Node2</title>
<path fill="none" stroke="#191970" d="M859.5,-336.4116C859.5,-317.0538 859.5,-271.9167 859.5,-234 859.5,-234 859.5,-234 859.5,-178 859.5,-145.7116 859.5,-108.1872 859.5,-85.8048"/>
<polygon fill="#191970" stroke="#191970" points="863.0001,-85.5883 859.5,-75.5884 856.0001,-85.5884 863.0001,-85.5883"/>
</g>
<!-- Node3 -->
<g id="node4" class="node">
<title>Node3</title>
<g id="a_node4"><a xlink:href="a00047.html" target="_top" xlink:title="QPMotionConstr.h">
<polygon fill="#ffffff" stroke="#000000" points="1289.5,-280.5 1289.5,-299.5 1387.5,-299.5 1387.5,-280.5 1289.5,-280.5"/>
<text text-anchor="middle" x="1338.5" y="-287.5" font-family="Helvetica,sans-Serif" font-size="10.00" fill="#000000">QPMotionConstr.h</text>
</a>
</g>
</g>
<!-- Node0&#45;&gt;Node3 -->
<g id="edge3" class="edge">
<title>Node0&#45;&gt;Node3</title>
<path fill="none" stroke="#191970" d="M892.8021,-342.1066C973.0027,-332.7304 1177.7309,-308.7955 1279.3873,-296.9109"/>
<polygon fill="#191970" stroke="#191970" points="1279.9611,-300.3677 1289.487,-295.7301 1279.1482,-293.4151 1279.9611,-300.3677"/>
</g>
<!-- Node10 -->
<g id="node11" class="node">
<title>Node10</title>
<g id="a_node11"><a xlink:href="a00050.html" target="_top" xlink:title="QPSolver.h">
<polygon fill="#ffffff" stroke="#000000" points="642,-224.5 642,-243.5 709,-243.5 709,-224.5 642,-224.5"/>
<text text-anchor="middle" x="675.5" y="-231.5" font-family="Helvetica,sans-Serif" font-size="10.00" fill="#000000">QPSolver.h</text>
</a>
</g>
</g>
<!-- Node0&#45;&gt;Node10 -->
<g id="edge36" class="edge">
<title>Node0&#45;&gt;Node10</title>
<path fill="none" stroke="#191970" d="M853.3467,-336.0893C844.0074,-321.8055 824.9463,-295.4545 802.5,-280 777.349,-262.6833 744.926,-251.0815 719.1359,-243.8612"/>
<polygon fill="#191970" stroke="#191970" points="719.8137,-240.4194 709.2487,-241.2143 718.0035,-247.1813 719.8137,-240.4194"/>
</g>
<!-- Node29 -->
<g id="node30" class="node">
<title>Node29</title>
<g id="a_node30"><a xlink:href="a00059.html" target="_top" xlink:title="Tasks.h">
<polygon fill="#ffffff" stroke="#000000" points="920.5,-224.5 920.5,-243.5 972.5,-243.5 972.5,-224.5 920.5,-224.5"/>
<text text-anchor="middle" x="946.5" y="-231.5" font-family="Helvetica,sans-Serif" font-size="10.00" fill="#000000">Tasks.h</text>
</a>
</g>
</g>
<!-- Node0&#45;&gt;Node29 -->
<g id="edge37" class="edge">
<title>Node0&#45;&gt;Node29</title>
<path fill="none" stroke="#191970" d="M866.9176,-336.4509C881.5565,-317.6054 914.3528,-275.3849 932.9514,-251.4419"/>
<polygon fill="#191970" stroke="#191970" points="935.7307,-253.5693 939.1012,-243.5249 930.2026,-249.2751 935.7307,-253.5693"/>
</g>
<!-- Node3&#45;&gt;Node2 -->
<g id="edge5" class="edge">
<title>Node3&#45;&gt;Node2</title>
<path fill="none" stroke="#191970" d="M1342.4043,-280.3299C1353.6441,-250.7389 1382.5555,-160.489 1338.5,-112 1309.4516,-80.0283 1014.6791,-69.6919 902.5124,-66.9007"/>
<polygon fill="#191970" stroke="#191970" points="902.324,-63.3953 892.2427,-66.6537 902.1556,-70.3932 902.324,-63.3953"/>
</g>
<!-- Node4 -->
<g id="node5" class="node">
<title>Node4</title>
<polygon fill="#ffffff" stroke="#bfbfbf" points="1386,-224.5 1386,-243.5 1421,-243.5 1421,-224.5 1386,-224.5"/>
<text text-anchor="middle" x="1403.5" y="-231.5" font-family="Helvetica,sans-Serif" font-size="10.00" fill="#000000">map</text>
</g>
<!-- Node3&#45;&gt;Node4 -->
<g id="edge4" class="edge">
<title>Node3&#45;&gt;Node4</title>
<path fill="none" stroke="#191970" d="M1349.8221,-280.2455C1359.4223,-271.9746 1373.3892,-259.9416 1384.6695,-250.2232"/>
<polygon fill="#191970" stroke="#191970" points="1387.016,-252.8214 1392.3076,-243.6427 1382.447,-247.5182 1387.016,-252.8214"/>
</g>
<!-- Node5 -->
<g id="node6" class="node">
<title>Node5</title>
<g id="a_node6"><a doxygen="/usr/local/share/doc/RBDyn/doxygen-html/RBDyn.doxytag:/usr/local/share/doc/RBDyn/doxygen-html/" xlink:href="/usr/local/share/doc/RBDyn/doxygen-html/a00335.html" target="_top" xlink:title="RBDyn/FD.h">
<polygon fill="#ffffff" stroke="#000000" points="1439.5,-224.5 1439.5,-243.5 1513.5,-243.5 1513.5,-224.5 1439.5,-224.5"/>
<text text-anchor="middle" x="1476.5" y="-231.5" font-family="Helvetica,sans-Serif" font-size="10.00" fill="#000000">RBDyn/FD.h</text>
</a>
</g>
</g>
<!-- Node3&#45;&gt;Node5 -->
<g id="edge6" class="edge">
<title>Node3&#45;&gt;Node5</title>
<path fill="none" stroke="#191970" d="M1362.223,-280.3733C1384.6737,-271.2629 1418.5739,-257.5062 1443.6255,-247.3404"/>
<polygon fill="#191970" stroke="#191970" points="1445.1365,-250.5045 1453.0865,-243.5011 1442.5043,-244.0182 1445.1365,-250.5045"/>
</g>
<!-- Node6 -->
<g id="node7" class="node">
<title>Node6</title>
<g id="a_node7"><a doxygen="/usr/local/share/doc/RBDyn/doxygen-html/RBDyn.doxytag:/usr/local/share/doc/RBDyn/doxygen-html/" xlink:href="/usr/local/share/doc/RBDyn/doxygen-html/a00356.html" target="_top" xlink:title="RBDyn/Jacobian.h">
<polygon fill="#ffffff" stroke="#000000" points="1230,-112.5 1230,-131.5 1329,-131.5 1329,-112.5 1230,-112.5"/>
<text text-anchor="middle" x="1279.5" y="-119.5" font-family="Helvetica,sans-Serif" font-size="10.00" fill="#000000">RBDyn/Jacobian.h</text>
</a>
</g>
</g>
<!-- Node3&#45;&gt;Node6 -->
<g id="edge7" class="edge">
<title>Node3&#45;&gt;Node6</title>
<path fill="none" stroke="#191970" d="M1335.1589,-280.4862C1325.792,-253.8144 1299.1357,-177.9117 1286.4167,-141.695"/>
<polygon fill="#191970" stroke="#191970" points="1289.5673,-140.1032 1282.9515,-131.8279 1282.9628,-142.4227 1289.5673,-140.1032"/>
</g>
<!-- Node3&#45;&gt;Node10 -->
<g id="edge11" class="edge">
<title>Node3&#45;&gt;Node10</title>
<path fill="none" stroke="#191970" d="M1289.4788,-285.8594C1165.0172,-275.3469 838.2714,-247.7484 719.4786,-237.7146"/>
<polygon fill="#191970" stroke="#191970" points="719.5614,-234.2093 709.3023,-236.8551 718.9722,-241.1844 719.5614,-234.2093"/>
</g>
<!-- Node7 -->
<g id="node8" class="node">
<title>Node7</title>
<g id="a_node8"><a doxygen="/usr/local/share/doc/RBDyn/doxygen-html/RBDyn.doxytag:/usr/local/share/doc/RBDyn/doxygen-html/" xlink:href="/usr/local/share/doc/RBDyn/doxygen-html/a00365.html" target="_top" xlink:title="MultiBody.h">
<polygon fill="#ffffff" stroke="#000000" points="1245.5,-56.5 1245.5,-75.5 1313.5,-75.5 1313.5,-56.5 1245.5,-56.5"/>
<text text-anchor="middle" x="1279.5" y="-63.5" font-family="Helvetica,sans-Serif" font-size="10.00" fill="#000000">MultiBody.h</text>
</a>
</g>
</g>
<!-- Node6&#45;&gt;Node7 -->
<g id="edge8" class="edge">
<title>Node6&#45;&gt;Node7</title>
<path fill="none" stroke="#191970" d="M1279.5,-112.2455C1279.5,-104.9382 1279.5,-94.6944 1279.5,-85.7046"/>
<polygon fill="#191970" stroke="#191970" points="1283.0001,-85.6426 1279.5,-75.6427 1276.0001,-85.6427 1283.0001,-85.6426"/>
</g>
<!-- Node8 -->
<g id="node9" class="node">
<title>Node8</title>
<g id="a_node9"><a doxygen="/usr/local/share/doc/RBDyn/doxygen-html/RBDyn.doxytag:/usr/local/share/doc/RBDyn/doxygen-html/" xlink:href="/usr/local/share/doc/RBDyn/doxygen-html/a00320.html" target="_top" xlink:title="Body.h">
<polygon fill="#ffffff" stroke="#000000" points="1289,-.5 1289,-19.5 1336,-19.5 1336,-.5 1289,-.5"/>
<text text-anchor="middle" x="1312.5" y="-7.5" font-family="Helvetica,sans-Serif" font-size="10.00" fill="#000000">Body.h</text>
</a>
</g>
</g>
<!-- Node7&#45;&gt;Node8 -->
<g id="edge9" class="edge">
<title>Node7&#45;&gt;Node8</title>
<path fill="none" stroke="#191970" d="M1285.2482,-56.2455C1289.7435,-48.617 1296.1248,-37.7881 1301.5825,-28.5267"/>
<polygon fill="#191970" stroke="#191970" points="1304.7561,-30.035 1306.8177,-19.6427 1298.7253,-26.4811 1304.7561,-30.035"/>
</g>
<!-- Node9 -->
<g id="node10" class="node">
<title>Node9</title>
<g id="a_node10"><a doxygen="/usr/local/share/doc/RBDyn/doxygen-html/RBDyn.doxytag:/usr/local/share/doc/RBDyn/doxygen-html/" xlink:href="/usr/local/share/doc/RBDyn/doxygen-html/a00359.html" target="_top" xlink:title="Joint.h">
<polygon fill="#ffffff" stroke="#000000" points="1224.5,-.5 1224.5,-19.5 1270.5,-19.5 1270.5,-.5 1224.5,-.5"/>
<text text-anchor="middle" x="1247.5" y="-7.5" font-family="Helvetica,sans-Serif" font-size="10.00" fill="#000000">Joint.h</text>
</a>
</g>
</g>
<!-- Node7&#45;&gt;Node9 -->
<g id="edge10" class="edge">
<title>Node7&#45;&gt;Node9</title>
<path fill="none" stroke="#191970" d="M1273.926,-56.2455C1269.5669,-48.617 1263.3789,-37.7881 1258.0867,-28.5267"/>
<polygon fill="#191970" stroke="#191970" points="1261.0104,-26.5886 1253.0101,-19.6427 1254.9327,-30.0616 1261.0104,-26.5886"/>
</g>
<!-- Node10&#45;&gt;Node2 -->
<g id="edge15" class="edge">
<title>Node10&#45;&gt;Node2</title>
<path fill="none" stroke="#191970" d="M683.1025,-224.1131C693.5741,-210.7594 713.3248,-186.5026 732.5,-168 767.0558,-134.6563 811.6456,-100.6698 837.755,-81.5633"/>
<polygon fill="#191970" stroke="#191970" points="839.8256,-84.3852 845.8598,-75.6766 835.7119,-78.7214 839.8256,-84.3852"/>
</g>
<!-- Node11 -->
<g id="node12" class="node">
<title>Node11</title>
<polygon fill="#ffffff" stroke="#bfbfbf" points="741.5,-168.5 741.5,-187.5 793.5,-187.5 793.5,-168.5 741.5,-168.5"/>
<text text-anchor="middle" x="767.5" y="-175.5" font-family="Helvetica,sans-Serif" font-size="10.00" fill="#000000">memory</text>
</g>
<!-- Node10&#45;&gt;Node11 -->
<g id="edge12" class="edge">
<title>Node10&#45;&gt;Node11</title>
<path fill="none" stroke="#191970" d="M691.5252,-224.2455C705.6408,-215.6534 726.4263,-203.0014 742.6899,-193.1018"/>
<polygon fill="#191970" stroke="#191970" points="744.9363,-195.8319 751.6585,-187.6427 741.2966,-189.8525 744.9363,-195.8319"/>
</g>
<!-- Node12 -->
<g id="node13" class="node">
<title>Node12</title>
<polygon fill="#ffffff" stroke="#bfbfbf" points="361.5,-56.5 361.5,-75.5 405.5,-75.5 405.5,-56.5 361.5,-56.5"/>
<text text-anchor="middle" x="383.5" y="-63.5" font-family="Helvetica,sans-Serif" font-size="10.00" fill="#000000">vector</text>
</g>
<!-- Node10&#45;&gt;Node12 -->
<g id="edge13" class="edge">
<title>Node10&#45;&gt;Node12</title>
<path fill="none" stroke="#191970" d="M641.9404,-231.1162C568.9945,-224.5102 401.1706,-207.3517 384.5,-188 359.9562,-159.5089 368.9743,-111.8587 376.8077,-85.3265"/>
<polygon fill="#191970" stroke="#191970" points="380.184,-86.2585 379.8871,-75.6679 373.5148,-84.1322 380.184,-86.2585"/>
</g>
<!-- Node13 -->
<g id="node14" class="node">
<title>Node13</title>
<polygon fill="#ffffff" stroke="#bfbfbf" points="500,-168.5 500,-187.5 609,-187.5 609,-168.5 500,-168.5"/>
<text text-anchor="middle" x="554.5" y="-175.5" font-family="Helvetica,sans-Serif" font-size="10.00" fill="#000000">boost/timer/timer.hpp</text>
</g>
<!-- Node10&#45;&gt;Node13 -->
<g id="edge14" class="edge">
<title>Node10&#45;&gt;Node13</title>
<path fill="none" stroke="#191970" d="M654.6994,-224.3733C635.2757,-215.3838 606.0776,-201.8706 584.2036,-191.7471"/>
<polygon fill="#191970" stroke="#191970" points="585.5745,-188.5249 575.0292,-187.5011 582.6344,-194.8776 585.5745,-188.5249"/>
</g>
<!-- Node14 -->
<g id="node15" class="node">
<title>Node14</title>
<polygon fill="#ffffff" stroke="#bfbfbf" points="634,-56.5 634,-75.5 717,-75.5 717,-56.5 634,-56.5"/>
<text text-anchor="middle" x="675.5" y="-63.5" font-family="Helvetica,sans-Serif" font-size="10.00" fill="#000000">tasks/config.hh</text>
</g>
<!-- Node10&#45;&gt;Node14 -->
<g id="edge16" class="edge">
<title>Node10&#45;&gt;Node14</title>
<path fill="none" stroke="#191970" d="M675.5,-224.4862C675.5,-197.9293 675.5,-122.5651 675.5,-86.1655"/>
<polygon fill="#191970" stroke="#191970" points="679.0001,-85.8278 675.5,-75.8279 672.0001,-85.8279 679.0001,-85.8278"/>
</g>
<!-- Node15 -->
<g id="node16" class="node">
<title>Node15</title>
<g id="a_node16"><a xlink:href="a00044.html" target="_top" xlink:title="QPContacts.h">
<polygon fill="#ffffff" stroke="#000000" points="520,-112.5 520,-131.5 599,-131.5 599,-112.5 520,-112.5"/>
<text text-anchor="middle" x="559.5" y="-119.5" font-family="Helvetica,sans-Serif" font-size="10.00" fill="#000000">QPContacts.h</text>
</a>
</g>
</g>
<!-- Node10&#45;&gt;Node15 -->
<g id="edge17" class="edge">
<title>Node10&#45;&gt;Node15</title>
<path fill="none" stroke="#191970" d="M667.748,-224.112C657.0744,-210.7572 636.9566,-186.499 617.5,-168 606.07,-157.1326 592.2702,-146.1136 580.9993,-137.5856"/>
<polygon fill="#191970" stroke="#191970" points="583.065,-134.76 572.9544,-131.5936 578.8836,-140.374 583.065,-134.76"/>
</g>
<!-- Node28 -->
<g id="node29" class="node">
<title>Node28</title>
<g id="a_node29"><a xlink:href="a00053.html" target="_top" xlink:title="QPSolverData.h">
<polygon fill="#ffffff" stroke="#000000" points="393.5,-168.5 393.5,-187.5 481.5,-187.5 481.5,-168.5 393.5,-168.5"/>
<text text-anchor="middle" x="437.5" y="-175.5" font-family="Helvetica,sans-Serif" font-size="10.00" fill="#000000">QPSolverData.h</text>
</a>
</g>
</g>
<!-- Node10&#45;&gt;Node28 -->
<g id="edge33" class="edge">
<title>Node10&#45;&gt;Node28</title>
<path fill="none" stroke="#191970" d="M641.9052,-226.0953C601.7951,-216.6577 534.3248,-200.7823 487.9427,-189.8689"/>
<polygon fill="#191970" stroke="#191970" points="488.6284,-186.4347 478.0926,-187.5512 487.0251,-193.2486 488.6284,-186.4347"/>
</g>
<!-- Node15&#45;&gt;Node2 -->
<g id="edge19" class="edge">
<title>Node15&#45;&gt;Node2</title>
<path fill="none" stroke="#191970" d="M599.0283,-114.6214C655.4641,-104.0867 758.7165,-84.8129 816.8323,-73.9646"/>
<polygon fill="#191970" stroke="#191970" points="817.6044,-77.3811 826.7923,-72.1054 816.3198,-70.4999 817.6044,-77.3811"/>
</g>
<!-- Node15&#45;&gt;Node12 -->
<g id="edge18" class="edge">
<title>Node15&#45;&gt;Node12</title>
<path fill="none" stroke="#191970" d="M529.2445,-112.3733C497.4952,-102.2712 447.7915,-86.4564 415.4283,-76.159"/>
<polygon fill="#191970" stroke="#191970" points="416.1653,-72.7207 405.5748,-73.0238 414.0428,-79.3911 416.1653,-72.7207"/>
</g>
<!-- Node15&#45;&gt;Node14 -->
<g id="edge20" class="edge">
<title>Node15&#45;&gt;Node14</title>
<path fill="none" stroke="#191970" d="M579.4411,-112.3733C597.9786,-103.4241 625.8028,-89.9917 646.7413,-79.8835"/>
<polygon fill="#191970" stroke="#191970" points="648.3352,-83.0006 655.8191,-75.5011 645.2919,-76.6967 648.3352,-83.0006"/>
</g>
<!-- Node16 -->
<g id="node17" class="node">
<title>Node16</title>
<g id="a_node17"><a doxygen="/usr/local/share/doc/SpaceVecAlg/doxygen-html/SpaceVecAlg.doxytag:/usr/local/share/doc/SpaceVecAlg/doxygen-html/" xlink:href="/usr/local/share/doc/SpaceVecAlg/doxygen-html/a00059.html" target="_top" xlink:title="SpaceVecAlg/SpaceVecAlg">
<polygon fill="#ffffff" stroke="#000000" points="441.5,-56.5 441.5,-75.5 579.5,-75.5 579.5,-56.5 441.5,-56.5"/>
<text text-anchor="middle" x="510.5" y="-63.5" font-family="Helvetica,sans-Serif" font-size="10.00" fill="#000000">SpaceVecAlg/SpaceVecAlg</text>
</a>
</g>
</g>
<!-- Node15&#45;&gt;Node16 -->
<g id="edge21" class="edge">
<title>Node15&#45;&gt;Node16</title>
<path fill="none" stroke="#191970" d="M550.9649,-112.2455C544.0088,-104.2958 534.0117,-92.8706 525.6949,-83.3656"/>
<polygon fill="#191970" stroke="#191970" points="528.1564,-80.8637 518.9373,-75.6427 522.8884,-85.4732 528.1564,-80.8637"/>
</g>
<!-- Node17 -->
<g id="node18" class="node">
<title>Node17</title>
<g id="a_node18"><a doxygen="/usr/local/share/doc/SpaceVecAlg/doxygen-html/SpaceVecAlg.doxytag:/usr/local/share/doc/SpaceVecAlg/doxygen-html/" xlink:href="/usr/local/share/doc/SpaceVecAlg/doxygen-html/a00032.html" target="_top" xlink:title="EigenTypedef.h">
<polygon fill="#ffffff" stroke="#000000" points="0,-.5 0,-19.5 85,-19.5 85,-.5 0,-.5"/>
<text text-anchor="middle" x="42.5" y="-7.5" font-family="Helvetica,sans-Serif" font-size="10.00" fill="#000000">EigenTypedef.h</text>
</a>
</g>
</g>
<!-- Node16&#45;&gt;Node17 -->
<g id="edge22" class="edge">
<title>Node16&#45;&gt;Node17</title>
<path fill="none" stroke="#191970" d="M441.0829,-58.6643C338.4597,-47.7741 152.896,-27.8946 95.0895,-20.0572"/>
<polygon fill="#191970" stroke="#191970" points="95.4255,-16.5697 85.0301,-18.6158 94.4325,-23.4989 95.4255,-16.5697"/>
</g>
<!-- Node18 -->
<g id="node19" class="node">
<title>Node18</title>
<g id="a_node19"><a doxygen="/usr/local/share/doc/SpaceVecAlg/doxygen-html/SpaceVecAlg.doxytag:/usr/local/share/doc/SpaceVecAlg/doxygen-html/" xlink:href="/usr/local/share/doc/SpaceVecAlg/doxygen-html/a00035.html" target="_top" xlink:title="EigenUtility.h">
<polygon fill="#ffffff" stroke="#000000" points="103,-.5 103,-19.5 178,-19.5 178,-.5 103,-.5"/>
<text text-anchor="middle" x="140.5" y="-7.5" font-family="Helvetica,sans-Serif" font-size="10.00" fill="#000000">EigenUtility.h</text>
</a>
</g>
</g>
<!-- Node16&#45;&gt;Node18 -->
<g id="edge23" class="edge">
<title>Node16&#45;&gt;Node18</title>
<path fill="none" stroke="#191970" d="M441.289,-57.5311C377.9778,-49.4675 281.5124,-36.3892 188.0731,-20.0023"/>
<polygon fill="#191970" stroke="#191970" points="188.6226,-16.5452 178.1658,-18.2501 187.4035,-23.4382 188.6226,-16.5452"/>
</g>
<!-- Node19 -->
<g id="node20" class="node">
<title>Node19</title>
<g id="a_node20"><a doxygen="/usr/local/share/doc/SpaceVecAlg/doxygen-html/SpaceVecAlg.doxytag:/usr/local/share/doc/SpaceVecAlg/doxygen-html/" xlink:href="/usr/local/share/doc/SpaceVecAlg/doxygen-html/a00044.html" target="_top" xlink:title="MathFunc.h">
<polygon fill="#ffffff" stroke="#000000" points="196.5,-.5 196.5,-19.5 264.5,-19.5 264.5,-.5 196.5,-.5"/>
<text text-anchor="middle" x="230.5" y="-7.5" font-family="Helvetica,sans-Serif" font-size="10.00" fill="#000000">MathFunc.h</text>
</a>
</g>
</g>
<!-- Node16&#45;&gt;Node19 -->
<g id="edge24" class="edge">
<title>Node16&#45;&gt;Node19</title>
<path fill="none" stroke="#191970" d="M458.6079,-56.4965C412.7718,-47.9737 343.8705,-34.8513 274.9138,-20.2479"/>
<polygon fill="#191970" stroke="#191970" points="275.2517,-16.7415 264.7422,-18.0829 273.7944,-23.5881 275.2517,-16.7415"/>
</g>
<!-- Node20 -->
<g id="node21" class="node">
<title>Node20</title>
<g id="a_node21"><a doxygen="/usr/local/share/doc/SpaceVecAlg/doxygen-html/SpaceVecAlg.doxytag:/usr/local/share/doc/SpaceVecAlg/doxygen-html/" xlink:href="/usr/local/share/doc/SpaceVecAlg/doxygen-html/a00023.html" target="_top" xlink:title="ABInertia.h">
<polygon fill="#ffffff" stroke="#000000" points="283,-.5 283,-19.5 348,-19.5 348,-.5 283,-.5"/>
<text text-anchor="middle" x="315.5" y="-7.5" font-family="Helvetica,sans-Serif" font-size="10.00" fill="#000000">ABInertia.h</text>
</a>
</g>
</g>
<!-- Node16&#45;&gt;Node20 -->
<g id="edge25" class="edge">
<title>Node16&#45;&gt;Node20</title>
<path fill="none" stroke="#191970" d="M476.9783,-56.3733C444.0321,-46.9118 393.6361,-32.4391 357.9181,-22.1816"/>
<polygon fill="#191970" stroke="#191970" points="358.8373,-18.8042 348.2597,-19.4079 356.9051,-25.5322 358.8373,-18.8042"/>
</g>
<!-- Node21 -->
<g id="node22" class="node">
<title>Node21</title>
<g id="a_node22"><a doxygen="/usr/local/share/doc/SpaceVecAlg/doxygen-html/SpaceVecAlg.doxytag:/usr/local/share/doc/SpaceVecAlg/doxygen-html/" xlink:href="/usr/local/share/doc/SpaceVecAlg/doxygen-html/a00026.html" target="_top" xlink:title="AdmittanceVec.h">
<polygon fill="#ffffff" stroke="#000000" points="366.5,-.5 366.5,-19.5 458.5,-19.5 458.5,-.5 366.5,-.5"/>
<text text-anchor="middle" x="412.5" y="-7.5" font-family="Helvetica,sans-Serif" font-size="10.00" fill="#000000">AdmittanceVec.h</text>
</a>
</g>
</g>
<!-- Node16&#45;&gt;Node21 -->
<g id="edge26" class="edge">
<title>Node16&#45;&gt;Node21</title>
<path fill="none" stroke="#191970" d="M493.4297,-56.2455C478.253,-47.5731 455.8379,-34.7645 438.4437,-24.825"/>
<polygon fill="#191970" stroke="#191970" points="439.7936,-21.5653 429.3747,-19.6427 436.3206,-27.643 439.7936,-21.5653"/>
</g>
<!-- Node22 -->
<g id="node23" class="node">
<title>Node22</title>
<g id="a_node23"><a doxygen="/usr/local/share/doc/SpaceVecAlg/doxygen-html/SpaceVecAlg.doxytag:/usr/local/share/doc/SpaceVecAlg/doxygen-html/" xlink:href="/usr/local/share/doc/SpaceVecAlg/doxygen-html/a00038.html" target="_top" xlink:title="ForceVec.h">
<polygon fill="#ffffff" stroke="#000000" points="477,-.5 477,-19.5 544,-19.5 544,-.5 477,-.5"/>
<text text-anchor="middle" x="510.5" y="-7.5" font-family="Helvetica,sans-Serif" font-size="10.00" fill="#000000">ForceVec.h</text>
</a>
</g>
</g>
<!-- Node16&#45;&gt;Node22 -->
<g id="edge27" class="edge">
<title>Node16&#45;&gt;Node22</title>
<path fill="none" stroke="#191970" d="M510.5,-56.2455C510.5,-48.9382 510.5,-38.6944 510.5,-29.7046"/>
<polygon fill="#191970" stroke="#191970" points="514.0001,-29.6426 510.5,-19.6427 507.0001,-29.6427 514.0001,-29.6426"/>
</g>
<!-- Node23 -->
<g id="node24" class="node">
<title>Node23</title>
<g id="a_node24"><a doxygen="/usr/local/share/doc/SpaceVecAlg/doxygen-html/SpaceVecAlg.doxytag:/usr/local/share/doc/SpaceVecAlg/doxygen-html/" xlink:href="/usr/local/share/doc/SpaceVecAlg/doxygen-html/a00041.html" target="_top" xlink:title="ImpedanceVec.h">
<polygon fill="#ffffff" stroke="#000000" points="562.5,-.5 562.5,-19.5 652.5,-19.5 652.5,-.5 562.5,-.5"/>
<text text-anchor="middle" x="607.5" y="-7.5" font-family="Helvetica,sans-Serif" font-size="10.00" fill="#000000">ImpedanceVec.h</text>
</a>
</g>
</g>
<!-- Node16&#45;&gt;Node23 -->
<g id="edge28" class="edge">
<title>Node16&#45;&gt;Node23</title>
<path fill="none" stroke="#191970" d="M527.3961,-56.2455C542.418,-47.5731 564.6043,-34.7645 581.821,-24.825"/>
<polygon fill="#191970" stroke="#191970" points="583.8871,-27.6737 590.7975,-19.6427 580.3872,-21.6114 583.8871,-27.6737"/>
</g>
<!-- Node24 -->
<g id="node25" class="node">
<title>Node24</title>
<g id="a_node25"><a doxygen="/usr/local/share/doc/SpaceVecAlg/doxygen-html/SpaceVecAlg.doxytag:/usr/local/share/doc/SpaceVecAlg/doxygen-html/" xlink:href="/usr/local/share/doc/SpaceVecAlg/doxygen-html/a00047.html" target="_top" xlink:title="MotionVec.h">
<polygon fill="#ffffff" stroke="#000000" points="671,-.5 671,-19.5 742,-19.5 742,-.5 671,-.5"/>
<text text-anchor="middle" x="706.5" y="-7.5" font-family="Helvetica,sans-Serif" font-size="10.00" fill="#000000">MotionVec.h</text>
</a>
</g>
</g>
<!-- Node16&#45;&gt;Node24 -->
<g id="edge29" class="edge">
<title>Node16&#45;&gt;Node24</title>
<path fill="none" stroke="#191970" d="M544.1936,-56.3733C577.2087,-46.9404 627.6573,-32.5265 663.5386,-22.2747"/>
<polygon fill="#191970" stroke="#191970" points="664.5924,-25.6137 673.2461,-19.5011 662.6693,-18.8831 664.5924,-25.6137"/>
</g>
<!-- Node25 -->
<g id="node26" class="node">
<title>Node25</title>
<g id="a_node26"><a doxygen="/usr/local/share/doc/SpaceVecAlg/doxygen-html/SpaceVecAlg.doxytag:/usr/local/share/doc/SpaceVecAlg/doxygen-html/" xlink:href="/usr/local/share/doc/SpaceVecAlg/doxygen-html/a00053.html" target="_top" xlink:title="PTransform.h">
<polygon fill="#ffffff" stroke="#000000" points="760.5,-.5 760.5,-19.5 836.5,-19.5 836.5,-.5 760.5,-.5"/>
<text text-anchor="middle" x="798.5" y="-7.5" font-family="Helvetica,sans-Serif" font-size="10.00" fill="#000000">PTransform.h</text>
</a>
</g>
</g>
<!-- Node16&#45;&gt;Node25 -->
<g id="edge30" class="edge">
<title>Node16&#45;&gt;Node25</title>
<path fill="none" stroke="#191970" d="M561.5783,-56.4555C608.0128,-47.7232 678.6916,-34.294 750.1703,-20.0407"/>
<polygon fill="#191970" stroke="#191970" points="751.139,-23.4164 760.2592,-18.0244 749.7671,-16.5521 751.139,-23.4164"/>
</g>
<!-- Node26 -->
<g id="node27" class="node">
<title>Node26</title>
<g id="a_node27"><a doxygen="/usr/local/share/doc/SpaceVecAlg/doxygen-html/SpaceVecAlg.doxytag:/usr/local/share/doc/SpaceVecAlg/doxygen-html/" xlink:href="/usr/local/share/doc/SpaceVecAlg/doxygen-html/a00056.html" target="_top" xlink:title="RBInertia.h">
<polygon fill="#ffffff" stroke="#000000" points="854.5,-.5 854.5,-19.5 920.5,-19.5 920.5,-.5 854.5,-.5"/>
<text text-anchor="middle" x="887.5" y="-7.5" font-family="Helvetica,sans-Serif" font-size="10.00" fill="#000000">RBInertia.h</text>
</a>
</g>
</g>
<!-- Node16&#45;&gt;Node26 -->
<g id="edge31" class="edge">
<title>Node16&#45;&gt;Node26</title>
<path fill="none" stroke="#191970" d="M579.7874,-58.4802C645.4966,-50.8957 747.1602,-37.9908 844.1205,-20.1225"/>
<polygon fill="#191970" stroke="#191970" points="844.9027,-23.5371 854.092,-18.264 843.62,-16.6556 844.9027,-23.5371"/>
</g>
<!-- Node27 -->
<g id="node28" class="node">
<title>Node27</title>
<g id="a_node28"><a doxygen="/usr/local/share/doc/SpaceVecAlg/doxygen-html/SpaceVecAlg.doxytag:/usr/local/share/doc/SpaceVecAlg/doxygen-html/" xlink:href="/usr/local/share/doc/SpaceVecAlg/doxygen-html/a00050.html" target="_top" xlink:title="Operators.h">
<polygon fill="#ffffff" stroke="#000000" points="938.5,-.5 938.5,-19.5 1006.5,-19.5 1006.5,-.5 938.5,-.5"/>
<text text-anchor="middle" x="972.5" y="-7.5" font-family="Helvetica,sans-Serif" font-size="10.00" fill="#000000">Operators.h</text>
</a>
</g>
</g>
<!-- Node16&#45;&gt;Node27 -->
<g id="edge32" class="edge">
<title>Node16&#45;&gt;Node27</title>
<path fill="none" stroke="#191970" d="M579.6691,-59.4169C676.4381,-50.0416 848.4378,-32.735 928.1443,-20.0226"/>
<polygon fill="#191970" stroke="#191970" points="929.0134,-23.4264 938.307,-18.3392 927.8694,-16.5205 929.0134,-23.4264"/>
</g>
<!-- Node28&#45;&gt;Node15 -->
<g id="edge35" class="edge">
<title>Node28&#45;&gt;Node15</title>
<path fill="none" stroke="#191970" d="M458.4725,-168.3733C478.0567,-159.3838 507.4961,-145.8706 529.551,-135.7471"/>
<polygon fill="#191970" stroke="#191970" points="531.1729,-138.8538 538.8011,-131.5011 528.2527,-132.4919 531.1729,-138.8538"/>
</g>
<!-- Node28&#45;&gt;Node16 -->
<g id="edge34" class="edge">
<title>Node28&#45;&gt;Node16</title>
<path fill="none" stroke="#191970" d="M443.7239,-168.4509C455.8995,-149.7707 483.0443,-108.1238 498.7182,-84.0761"/>
<polygon fill="#191970" stroke="#191970" points="501.7635,-85.8137 504.2918,-75.5249 495.8992,-81.9913 501.7635,-85.8137"/>
</g>
<!-- Node29&#45;&gt;Node2 -->
<g id="edge38" class="edge">
<title>Node29&#45;&gt;Node2</title>
<path fill="none" stroke="#191970" d="M939.6522,-224.377C933.2873,-215.2371 923.7284,-200.9991 916.5,-188 896.9041,-152.7598 877.8397,-109.6265 867.4855,-85.2321"/>
<polygon fill="#191970" stroke="#191970" points="870.5888,-83.5824 863.4876,-75.7196 864.1356,-86.2946 870.5888,-83.5824"/>
</g>
<!-- Node29&#45;&gt;Node6 -->
<g id="edge42" class="edge">
<title>Node29&#45;&gt;Node6</title>
<path fill="none" stroke="#191970" d="M972.6208,-231.8527C1044.4366,-225.7218 1240.9717,-207.3292 1262.5,-188 1275.269,-176.5353 1279.0262,-156.8778 1279.8842,-141.99"/>
<polygon fill="#191970" stroke="#191970" points="1283.3881,-141.8136 1280.0765,-131.7497 1276.3893,-141.6822 1283.3881,-141.8136"/>
</g>
<!-- Node29&#45;&gt;Node11 -->
<g id="edge45" class="edge">
<title>Node29&#45;&gt;Node11</title>
<path fill="none" stroke="#191970" d="M920.4719,-225.8571C889.5837,-216.1938 837.9153,-200.0294 803.2816,-189.1942"/>
<polygon fill="#191970" stroke="#191970" points="804.1485,-185.7982 793.5596,-186.1527 802.0584,-192.4789 804.1485,-185.7982"/>
</g>
<!-- Node29&#45;&gt;Node14 -->
<g id="edge39" class="edge">
<title>Node29&#45;&gt;Node14</title>
<path fill="none" stroke="#191970" d="M931.1534,-224.4862C886.1688,-196.5991 754.3686,-114.8927 699.6966,-81.0001"/>
<polygon fill="#191970" stroke="#191970" points="701.3577,-77.9119 691.0142,-75.6177 697.6694,-83.8614 701.3577,-77.9119"/>
</g>
<!-- Node30 -->
<g id="node31" class="node">
<title>Node30</title>
<g id="a_node31"><a doxygen="/usr/local/share/doc/RBDyn/doxygen-html/RBDyn.doxytag:/usr/local/share/doc/RBDyn/doxygen-html/" xlink:href="/usr/local/share/doc/RBDyn/doxygen-html/a00323.html" target="_top" xlink:title="RBDyn/CoM.h">
<polygon fill="#ffffff" stroke="#000000" points="1172,-168.5 1172,-187.5 1253,-187.5 1253,-168.5 1172,-168.5"/>
<text text-anchor="middle" x="1212.5" y="-175.5" font-family="Helvetica,sans-Serif" font-size="10.00" fill="#000000">RBDyn/CoM.h</text>
</a>
</g>
</g>
<!-- Node29&#45;&gt;Node30 -->
<g id="edge40" class="edge">
<title>Node29&#45;&gt;Node30</title>
<path fill="none" stroke="#191970" d="M972.9776,-228.4258C1016.8945,-219.1801 1105.5303,-200.5199 1161.7948,-188.6748"/>
<polygon fill="#191970" stroke="#191970" points="1162.8414,-192.0312 1171.9059,-186.5461 1161.3993,-185.1814 1162.8414,-192.0312"/>
</g>
<!-- Node31 -->
<g id="node32" class="node">
<title>Node31</title>
<g id="a_node32"><a doxygen="/usr/local/share/doc/RBDyn/doxygen-html/RBDyn.doxytag:/usr/local/share/doc/RBDyn/doxygen-html/" xlink:href="/usr/local/share/doc/RBDyn/doxygen-html/a00362.html" target="_top" xlink:title="RBDyn/Momentum.h">
<polygon fill="#ffffff" stroke="#000000" points="926,-168.5 926,-187.5 1035,-187.5 1035,-168.5 926,-168.5"/>
<text text-anchor="middle" x="980.5" y="-175.5" font-family="Helvetica,sans-Serif" font-size="10.00" fill="#000000">RBDyn/Momentum.h</text>
</a>
</g>
</g>
<!-- Node29&#45;&gt;Node31 -->
<g id="edge43" class="edge">
<title>Node29&#45;&gt;Node31</title>
<path fill="none" stroke="#191970" d="M952.4223,-224.2455C957.1027,-216.5367 963.7673,-205.5598 969.4289,-196.2348"/>
<polygon fill="#191970" stroke="#191970" points="972.4475,-198.007 974.6455,-187.6427 966.4639,-194.3741 972.4475,-198.007"/>
</g>
<!-- Node32 -->
<g id="node33" class="node">
<title>Node32</title>
<g id="a_node33"><a doxygen="/usr/local/share/doc/RBDyn/doxygen-html/RBDyn.doxytag:/usr/local/share/doc/RBDyn/doxygen-html/" xlink:href="/usr/local/share/doc/RBDyn/doxygen-html/a00374.html" target="_top" xlink:title="RBDyn/VisServo.h">
<polygon fill="#ffffff" stroke="#000000" points="1053.5,-168.5 1053.5,-187.5 1153.5,-187.5 1153.5,-168.5 1053.5,-168.5"/>
<text text-anchor="middle" x="1103.5" y="-175.5" font-family="Helvetica,sans-Serif" font-size="10.00" fill="#000000">RBDyn/VisServo.h</text>
</a>
</g>
</g>
<!-- Node29&#45;&gt;Node32 -->
<g id="edge44" class="edge">
<title>Node29&#45;&gt;Node32</title>
<path fill="none" stroke="#191970" d="M972.7783,-224.6269C998.5468,-215.4355 1038.0552,-201.3434 1066.894,-191.0569"/>
<polygon fill="#191970" stroke="#191970" points="1068.3668,-194.2476 1076.6097,-187.5914 1066.0151,-187.6545 1068.3668,-194.2476"/>
</g>
<!-- Node30&#45;&gt;Node6 -->
<g id="edge41" class="edge">
<title>Node30&#45;&gt;Node6</title>
<path fill="none" stroke="#191970" d="M1224.1705,-168.2455C1234.0661,-159.9746 1248.4627,-147.9416 1260.0901,-138.2232"/>
<polygon fill="#191970" stroke="#191970" points="1262.535,-140.7413 1267.9632,-131.6427 1258.0458,-135.3703 1262.535,-140.7413"/>
</g>
</g>
</svg>
