<?xml version="1.0" encoding="UTF-8" standalone="no"?>
<!DOCTYPE svg PUBLIC "-//W3C//DTD SVG 1.1//EN"
 "http://www.w3.org/Graphics/SVG/1.1/DTD/svg11.dtd">
<!-- Generated by graphviz version 2.40.1 (20161225.0304)
 -->
<!-- Title: GenQPSolver.h Pages: 1 -->
<svg width="212pt" height="84pt"
 viewBox="0.00 0.00 211.50 84.00" xmlns="http://www.w3.org/2000/svg" xmlns:xlink="http://www.w3.org/1999/xlink">
<g id="graph0" class="graph" transform="scale(1 1) rotate(0) translate(4 80)">
<title>GenQPSolver.h</title>
<polygon fill="#ffffff" stroke="transparent" points="-4,4 -4,-80 207.5,-80 207.5,4 -4,4"/>
<!-- Node4 -->
<g id="node1" class="node">
<title>Node4</title>
<polygon fill="#bfbfbf" stroke="#000000" points="61.5,-56.5 61.5,-75.5 146.5,-75.5 146.5,-56.5 61.5,-56.5"/>
<text text-anchor="middle" x="104" y="-63.5" font-family="Helvetica,sans-Serif" font-size="10.00" fill="#000000">GenQPSolver.h</text>
</g>
<!-- Node5 -->
<g id="node2" class="node">
<title>Node5</title>
<g id="a_node2"><a xlink:href="a00026.html" target="_top" xlink:title="LSSOLQPSolver.h">
<polygon fill="#ffffff" stroke="#000000" points="0,-.5 0,-19.5 98,-19.5 98,-.5 0,-.5"/>
<text text-anchor="middle" x="49" y="-7.5" font-family="Helvetica,sans-Serif" font-size="10.00" fill="#000000">LSSOLQPSolver.h</text>
</a>
</g>
</g>
<!-- Node4&#45;&gt;Node5 -->
<g id="edge1" class="edge">
<title>Node4&#45;&gt;Node5</title>
<path fill="none" stroke="#191970" d="M87.3774,-49.0751C77.9145,-39.4402 66.4031,-27.7196 58.4705,-19.6427"/>
<polygon fill="#191970" stroke="#191970" points="84.9155,-51.5635 94.4197,-56.2455 89.9097,-46.6585 84.9155,-51.5635"/>
</g>
<!-- Node6 -->
<g id="node3" class="node">
<title>Node6</title>
<g id="a_node3"><a xlink:href="a00029.html" target="_top" xlink:title="QLDQPSolver.h">
<polygon fill="#ffffff" stroke="#000000" points="116.5,-.5 116.5,-19.5 203.5,-19.5 203.5,-.5 116.5,-.5"/>
<text text-anchor="middle" x="160" y="-7.5" font-family="Helvetica,sans-Serif" font-size="10.00" fill="#000000">QLDQPSolver.h</text>
</a>
</g>
</g>
<!-- Node4&#45;&gt;Node6 -->
<g id="edge2" class="edge">
<title>Node4&#45;&gt;Node6</title>
<path fill="none" stroke="#191970" d="M120.9249,-49.0751C130.5598,-39.4402 142.2804,-27.7196 150.3573,-19.6427"/>
<polygon fill="#191970" stroke="#191970" points="118.3507,-46.6996 113.7545,-56.2455 123.3004,-51.6493 118.3507,-46.6996"/>
</g>
</g>
</svg>
