<?xml version="1.0" encoding="UTF-8" standalone="no"?>
<!DOCTYPE svg PUBLIC "-//W3C//DTD SVG 1.1//EN"
 "http://www.w3.org/Graphics/SVG/1.1/DTD/svg11.dtd">
<!-- Generated by graphviz version 2.40.1 (20161225.0304)
 -->
<!-- Title: GenQPUtils.h Pages: 1 -->
<svg width="1015pt" height="308pt"
 viewBox="0.00 0.00 1014.50 308.00" xmlns="http://www.w3.org/2000/svg" xmlns:xlink="http://www.w3.org/1999/xlink">
<g id="graph0" class="graph" transform="scale(1 1) rotate(0) translate(4 304)">
<title>GenQPUtils.h</title>
<polygon fill="#ffffff" stroke="transparent" points="-4,4 -4,-304 1010.5,-304 1010.5,4 -4,4"/>
<!-- Node0 -->
<g id="node1" class="node">
<title>Node0</title>
<polygon fill="#bfbfbf" stroke="#000000" points="557,-280.5 557,-299.5 634,-299.5 634,-280.5 557,-280.5"/>
<text text-anchor="middle" x="595.5" y="-287.5" font-family="Helvetica,sans-Serif" font-size="10.00" fill="#000000">GenQPUtils.h</text>
</g>
<!-- Node1 -->
<g id="node2" class="node">
<title>Node1</title>
<polygon fill="#ffffff" stroke="#bfbfbf" points="375.5,-56.5 375.5,-75.5 419.5,-75.5 419.5,-56.5 375.5,-56.5"/>
<text text-anchor="middle" x="397.5" y="-63.5" font-family="Helvetica,sans-Serif" font-size="10.00" fill="#000000">vector</text>
</g>
<!-- Node0&#45;&gt;Node1 -->
<g id="edge1" class="edge">
<title>Node0&#45;&gt;Node1</title>
<path fill="none" stroke="#191970" d="M556.6291,-280.5912C511.7403,-267.6161 439.1326,-239.7353 400.5,-188 378.2049,-158.1432 385.1278,-111.7282 391.6455,-85.5983"/>
<polygon fill="#191970" stroke="#191970" points="395.0771,-86.3174 394.3276,-75.7491 388.323,-84.4781 395.0771,-86.3174"/>
</g>
<!-- Node2 -->
<g id="node3" class="node">
<title>Node2</title>
<polygon fill="#ffffff" stroke="#bfbfbf" points="783,-56.5 783,-75.5 848,-75.5 848,-56.5 783,-56.5"/>
<text text-anchor="middle" x="815.5" y="-63.5" font-family="Helvetica,sans-Serif" font-size="10.00" fill="#000000">Eigen/Core</text>
</g>
<!-- Node0&#45;&gt;Node2 -->
<g id="edge2" class="edge">
<title>Node0&#45;&gt;Node2</title>
<path fill="none" stroke="#191970" d="M634.1334,-282.3747C683.466,-270.6411 768.2073,-243.4452 816.5,-188 839.2333,-161.8998 839.9177,-146.0123 833.5,-112 831.7559,-102.7566 828.2019,-92.9893 824.7091,-84.844"/>
<polygon fill="#191970" stroke="#191970" points="827.8024,-83.1923 820.4585,-75.5556 821.4372,-86.1052 827.8024,-83.1923"/>
</g>
<!-- Node3 -->
<g id="node4" class="node">
<title>Node3</title>
<g id="a_node4"><a xlink:href="a00050.html" target="_top" xlink:title="Tasks/QPSolver.h">
<polygon fill="#ffffff" stroke="#000000" points="547,-224.5 547,-243.5 644,-243.5 644,-224.5 547,-224.5"/>
<text text-anchor="middle" x="595.5" y="-231.5" font-family="Helvetica,sans-Serif" font-size="10.00" fill="#000000">Tasks/QPSolver.h</text>
</a>
</g>
</g>
<!-- Node0&#45;&gt;Node3 -->
<g id="edge3" class="edge">
<title>Node0&#45;&gt;Node3</title>
<path fill="none" stroke="#191970" d="M595.5,-280.2455C595.5,-272.9382 595.5,-262.6944 595.5,-253.7046"/>
<polygon fill="#191970" stroke="#191970" points="599.0001,-253.6426 595.5,-243.6427 592.0001,-253.6427 599.0001,-253.6426"/>
</g>
<!-- Node3&#45;&gt;Node1 -->
<g id="edge5" class="edge">
<title>Node3&#45;&gt;Node1</title>
<path fill="none" stroke="#191970" d="M546.5782,-227.5327C499.7691,-220.3085 433.8028,-207.0691 416.5,-188 391.0402,-159.9413 391.6796,-112.4712 394.5154,-85.7694"/>
<polygon fill="#191970" stroke="#191970" points="398.0045,-86.0765 395.7956,-75.7145 391.0606,-85.1924 398.0045,-86.0765"/>
</g>
<!-- Node3&#45;&gt;Node2 -->
<g id="edge7" class="edge">
<title>Node3&#45;&gt;Node2</title>
<path fill="none" stroke="#191970" d="M644.1006,-229.1156C696.7945,-222.7805 776.1215,-209.868 796.5,-188 822.3302,-160.2819 821.5497,-112.682 818.591,-85.8673"/>
<polygon fill="#191970" stroke="#191970" points="822.0366,-85.2239 817.2609,-75.7665 815.0965,-86.1379 822.0366,-85.2239"/>
</g>
<!-- Node4 -->
<g id="node5" class="node">
<title>Node4</title>
<polygon fill="#ffffff" stroke="#bfbfbf" points="569.5,-168.5 569.5,-187.5 621.5,-187.5 621.5,-168.5 569.5,-168.5"/>
<text text-anchor="middle" x="595.5" y="-175.5" font-family="Helvetica,sans-Serif" font-size="10.00" fill="#000000">memory</text>
</g>
<!-- Node3&#45;&gt;Node4 -->
<g id="edge4" class="edge">
<title>Node3&#45;&gt;Node4</title>
<path fill="none" stroke="#191970" d="M595.5,-224.2455C595.5,-216.9382 595.5,-206.6944 595.5,-197.7046"/>
<polygon fill="#191970" stroke="#191970" points="599.0001,-197.6426 595.5,-187.6427 592.0001,-197.6427 599.0001,-197.6426"/>
</g>
<!-- Node5 -->
<g id="node6" class="node">
<title>Node5</title>
<polygon fill="#ffffff" stroke="#bfbfbf" points="678,-168.5 678,-187.5 787,-187.5 787,-168.5 678,-168.5"/>
<text text-anchor="middle" x="732.5" y="-175.5" font-family="Helvetica,sans-Serif" font-size="10.00" fill="#000000">boost/timer/timer.hpp</text>
</g>
<!-- Node3&#45;&gt;Node5 -->
<g id="edge6" class="edge">
<title>Node3&#45;&gt;Node5</title>
<path fill="none" stroke="#191970" d="M619.0511,-224.3733C641.3391,-215.2629 674.9937,-201.5062 699.8637,-191.3404"/>
<polygon fill="#191970" stroke="#191970" points="701.3239,-194.5247 709.2562,-187.5011 698.6753,-188.0451 701.3239,-194.5247"/>
</g>
<!-- Node6 -->
<g id="node7" class="node">
<title>Node6</title>
<polygon fill="#ffffff" stroke="#bfbfbf" points="601,-56.5 601,-75.5 684,-75.5 684,-56.5 601,-56.5"/>
<text text-anchor="middle" x="642.5" y="-63.5" font-family="Helvetica,sans-Serif" font-size="10.00" fill="#000000">tasks/config.hh</text>
</g>
<!-- Node3&#45;&gt;Node6 -->
<g id="edge8" class="edge">
<title>Node3&#45;&gt;Node6</title>
<path fill="none" stroke="#191970" d="M605.3751,-224.4223C613.6307,-215.7522 624.9241,-202.1974 630.5,-188 643.8657,-153.9682 644.6968,-110.6714 643.7974,-85.8699"/>
<polygon fill="#191970" stroke="#191970" points="647.2784,-85.4009 643.2829,-75.5883 640.2872,-85.7508 647.2784,-85.4009"/>
</g>
<!-- Node7 -->
<g id="node8" class="node">
<title>Node7</title>
<g id="a_node8"><a xlink:href="a00044.html" target="_top" xlink:title="QPContacts.h">
<polygon fill="#ffffff" stroke="#000000" points="500,-112.5 500,-131.5 579,-131.5 579,-112.5 500,-112.5"/>
<text text-anchor="middle" x="539.5" y="-119.5" font-family="Helvetica,sans-Serif" font-size="10.00" fill="#000000">QPContacts.h</text>
</a>
</g>
</g>
<!-- Node3&#45;&gt;Node7 -->
<g id="edge9" class="edge">
<title>Node3&#45;&gt;Node7</title>
<path fill="none" stroke="#191970" d="M586.6524,-224.4423C578.8441,-215.5738 567.6258,-201.7129 560.5,-188 552.8764,-173.329 547.384,-155.3778 543.9327,-141.9024"/>
<polygon fill="#191970" stroke="#191970" points="547.2471,-140.7142 541.5117,-131.806 540.44,-142.3465 547.2471,-140.7142"/>
</g>
<!-- Node20 -->
<g id="node21" class="node">
<title>Node20</title>
<g id="a_node21"><a xlink:href="a00053.html" target="_top" xlink:title="QPSolverData.h">
<polygon fill="#ffffff" stroke="#000000" points="425.5,-168.5 425.5,-187.5 513.5,-187.5 513.5,-168.5 425.5,-168.5"/>
<text text-anchor="middle" x="469.5" y="-175.5" font-family="Helvetica,sans-Serif" font-size="10.00" fill="#000000">QPSolverData.h</text>
</a>
</g>
</g>
<!-- Node3&#45;&gt;Node20 -->
<g id="edge25" class="edge">
<title>Node3&#45;&gt;Node20</title>
<path fill="none" stroke="#191970" d="M573.8398,-224.3733C553.5228,-215.3435 522.936,-201.7494 500.125,-191.6111"/>
<polygon fill="#191970" stroke="#191970" points="501.4372,-188.3642 490.8775,-187.5011 498.5941,-194.7609 501.4372,-188.3642"/>
</g>
<!-- Node7&#45;&gt;Node1 -->
<g id="edge10" class="edge">
<title>Node7&#45;&gt;Node1</title>
<path fill="none" stroke="#191970" d="M515.0893,-112.3733C491.3232,-103.0007 455.0879,-88.7107 429.1253,-78.472"/>
<polygon fill="#191970" stroke="#191970" points="430.3121,-75.1777 419.7253,-74.7649 427.744,-81.6896 430.3121,-75.1777"/>
</g>
<!-- Node7&#45;&gt;Node2 -->
<g id="edge11" class="edge">
<title>Node7&#45;&gt;Node2</title>
<path fill="none" stroke="#191970" d="M579.0441,-113.9766C630.4683,-103.5427 719.9518,-85.3866 772.8549,-74.6526"/>
<polygon fill="#191970" stroke="#191970" points="773.8213,-78.0279 782.9257,-72.6093 772.4294,-71.1677 773.8213,-78.0279"/>
</g>
<!-- Node7&#45;&gt;Node6 -->
<g id="edge12" class="edge">
<title>Node7&#45;&gt;Node6</title>
<path fill="none" stroke="#191970" d="M557.4412,-112.2455C573.54,-103.4928 597.3879,-90.527 615.7391,-80.5496"/>
<polygon fill="#191970" stroke="#191970" points="617.6507,-83.4942 624.7644,-75.6427 614.3071,-77.3444 617.6507,-83.4942"/>
</g>
<!-- Node8 -->
<g id="node9" class="node">
<title>Node8</title>
<g id="a_node9"><a doxygen="/usr/local/share/doc/SpaceVecAlg/doxygen-html/SpaceVecAlg.doxytag:/usr/local/share/doc/SpaceVecAlg/doxygen-html/" xlink:href="/usr/local/share/doc/SpaceVecAlg/doxygen-html/a00059.html" target="_top" xlink:title="SpaceVecAlg/SpaceVecAlg">
<polygon fill="#ffffff" stroke="#000000" points="441.5,-56.5 441.5,-75.5 579.5,-75.5 579.5,-56.5 441.5,-56.5"/>
<text text-anchor="middle" x="510.5" y="-63.5" font-family="Helvetica,sans-Serif" font-size="10.00" fill="#000000">SpaceVecAlg/SpaceVecAlg</text>
</a>
</g>
</g>
<!-- Node7&#45;&gt;Node8 -->
<g id="edge13" class="edge">
<title>Node7&#45;&gt;Node8</title>
<path fill="none" stroke="#191970" d="M534.4486,-112.2455C530.4981,-104.617 524.8903,-93.7881 520.0942,-84.5267"/>
<polygon fill="#191970" stroke="#191970" points="523.2001,-82.9131 515.4935,-75.6427 516.9841,-86.1321 523.2001,-82.9131"/>
</g>
<!-- Node9 -->
<g id="node10" class="node">
<title>Node9</title>
<g id="a_node10"><a doxygen="/usr/local/share/doc/SpaceVecAlg/doxygen-html/SpaceVecAlg.doxytag:/usr/local/share/doc/SpaceVecAlg/doxygen-html/" xlink:href="/usr/local/share/doc/SpaceVecAlg/doxygen-html/a00032.html" target="_top" xlink:title="EigenTypedef.h">
<polygon fill="#ffffff" stroke="#000000" points="0,-.5 0,-19.5 85,-19.5 85,-.5 0,-.5"/>
<text text-anchor="middle" x="42.5" y="-7.5" font-family="Helvetica,sans-Serif" font-size="10.00" fill="#000000">EigenTypedef.h</text>
</a>
</g>
</g>
<!-- Node8&#45;&gt;Node9 -->
<g id="edge14" class="edge">
<title>Node8&#45;&gt;Node9</title>
<path fill="none" stroke="#191970" d="M441.1649,-57.4738C436.8801,-56.9688 432.632,-56.4739 428.5,-56 282.9256,-39.3025 243.2483,-42.2871 94.9558,-20.1216"/>
<polygon fill="#191970" stroke="#191970" points="95.4388,-16.655 85.0287,-18.6248 94.3951,-23.5767 95.4388,-16.655"/>
</g>
<!-- Node10 -->
<g id="node11" class="node">
<title>Node10</title>
<g id="a_node11"><a doxygen="/usr/local/share/doc/SpaceVecAlg/doxygen-html/SpaceVecAlg.doxytag:/usr/local/share/doc/SpaceVecAlg/doxygen-html/" xlink:href="/usr/local/share/doc/SpaceVecAlg/doxygen-html/a00035.html" target="_top" xlink:title="EigenUtility.h">
<polygon fill="#ffffff" stroke="#000000" points="103,-.5 103,-19.5 178,-19.5 178,-.5 103,-.5"/>
<text text-anchor="middle" x="140.5" y="-7.5" font-family="Helvetica,sans-Serif" font-size="10.00" fill="#000000">EigenUtility.h</text>
</a>
</g>
</g>
<!-- Node8&#45;&gt;Node10 -->
<g id="edge15" class="edge">
<title>Node8&#45;&gt;Node10</title>
<path fill="none" stroke="#191970" d="M441.289,-57.5311C377.9778,-49.4675 281.5124,-36.3892 188.0731,-20.0023"/>
<polygon fill="#191970" stroke="#191970" points="188.6226,-16.5452 178.1658,-18.2501 187.4035,-23.4382 188.6226,-16.5452"/>
</g>
<!-- Node11 -->
<g id="node12" class="node">
<title>Node11</title>
<g id="a_node12"><a doxygen="/usr/local/share/doc/SpaceVecAlg/doxygen-html/SpaceVecAlg.doxytag:/usr/local/share/doc/SpaceVecAlg/doxygen-html/" xlink:href="/usr/local/share/doc/SpaceVecAlg/doxygen-html/a00044.html" target="_top" xlink:title="MathFunc.h">
<polygon fill="#ffffff" stroke="#000000" points="196.5,-.5 196.5,-19.5 264.5,-19.5 264.5,-.5 196.5,-.5"/>
<text text-anchor="middle" x="230.5" y="-7.5" font-family="Helvetica,sans-Serif" font-size="10.00" fill="#000000">MathFunc.h</text>
</a>
</g>
</g>
<!-- Node8&#45;&gt;Node11 -->
<g id="edge16" class="edge">
<title>Node8&#45;&gt;Node11</title>
<path fill="none" stroke="#191970" d="M458.6079,-56.4965C412.7718,-47.9737 343.8705,-34.8513 274.9138,-20.2479"/>
<polygon fill="#191970" stroke="#191970" points="275.2517,-16.7415 264.7422,-18.0829 273.7944,-23.5881 275.2517,-16.7415"/>
</g>
<!-- Node12 -->
<g id="node13" class="node">
<title>Node12</title>
<g id="a_node13"><a doxygen="/usr/local/share/doc/SpaceVecAlg/doxygen-html/SpaceVecAlg.doxytag:/usr/local/share/doc/SpaceVecAlg/doxygen-html/" xlink:href="/usr/local/share/doc/SpaceVecAlg/doxygen-html/a00023.html" target="_top" xlink:title="ABInertia.h">
<polygon fill="#ffffff" stroke="#000000" points="283,-.5 283,-19.5 348,-19.5 348,-.5 283,-.5"/>
<text text-anchor="middle" x="315.5" y="-7.5" font-family="Helvetica,sans-Serif" font-size="10.00" fill="#000000">ABInertia.h</text>
</a>
</g>
</g>
<!-- Node8&#45;&gt;Node12 -->
<g id="edge17" class="edge">
<title>Node8&#45;&gt;Node12</title>
<path fill="none" stroke="#191970" d="M476.9783,-56.3733C444.0321,-46.9118 393.6361,-32.4391 357.9181,-22.1816"/>
<polygon fill="#191970" stroke="#191970" points="358.8373,-18.8042 348.2597,-19.4079 356.9051,-25.5322 358.8373,-18.8042"/>
</g>
<!-- Node13 -->
<g id="node14" class="node">
<title>Node13</title>
<g id="a_node14"><a doxygen="/usr/local/share/doc/SpaceVecAlg/doxygen-html/SpaceVecAlg.doxytag:/usr/local/share/doc/SpaceVecAlg/doxygen-html/" xlink:href="/usr/local/share/doc/SpaceVecAlg/doxygen-html/a00026.html" target="_top" xlink:title="AdmittanceVec.h">
<polygon fill="#ffffff" stroke="#000000" points="366.5,-.5 366.5,-19.5 458.5,-19.5 458.5,-.5 366.5,-.5"/>
<text text-anchor="middle" x="412.5" y="-7.5" font-family="Helvetica,sans-Serif" font-size="10.00" fill="#000000">AdmittanceVec.h</text>
</a>
</g>
</g>
<!-- Node8&#45;&gt;Node13 -->
<g id="edge18" class="edge">
<title>Node8&#45;&gt;Node13</title>
<path fill="none" stroke="#191970" d="M493.4297,-56.2455C478.253,-47.5731 455.8379,-34.7645 438.4437,-24.825"/>
<polygon fill="#191970" stroke="#191970" points="439.7936,-21.5653 429.3747,-19.6427 436.3206,-27.643 439.7936,-21.5653"/>
</g>
<!-- Node14 -->
<g id="node15" class="node">
<title>Node14</title>
<g id="a_node15"><a doxygen="/usr/local/share/doc/SpaceVecAlg/doxygen-html/SpaceVecAlg.doxytag:/usr/local/share/doc/SpaceVecAlg/doxygen-html/" xlink:href="/usr/local/share/doc/SpaceVecAlg/doxygen-html/a00038.html" target="_top" xlink:title="ForceVec.h">
<polygon fill="#ffffff" stroke="#000000" points="477,-.5 477,-19.5 544,-19.5 544,-.5 477,-.5"/>
<text text-anchor="middle" x="510.5" y="-7.5" font-family="Helvetica,sans-Serif" font-size="10.00" fill="#000000">ForceVec.h</text>
</a>
</g>
</g>
<!-- Node8&#45;&gt;Node14 -->
<g id="edge19" class="edge">
<title>Node8&#45;&gt;Node14</title>
<path fill="none" stroke="#191970" d="M510.5,-56.2455C510.5,-48.9382 510.5,-38.6944 510.5,-29.7046"/>
<polygon fill="#191970" stroke="#191970" points="514.0001,-29.6426 510.5,-19.6427 507.0001,-29.6427 514.0001,-29.6426"/>
</g>
<!-- Node15 -->
<g id="node16" class="node">
<title>Node15</title>
<g id="a_node16"><a doxygen="/usr/local/share/doc/SpaceVecAlg/doxygen-html/SpaceVecAlg.doxytag:/usr/local/share/doc/SpaceVecAlg/doxygen-html/" xlink:href="/usr/local/share/doc/SpaceVecAlg/doxygen-html/a00041.html" target="_top" xlink:title="ImpedanceVec.h">
<polygon fill="#ffffff" stroke="#000000" points="562.5,-.5 562.5,-19.5 652.5,-19.5 652.5,-.5 562.5,-.5"/>
<text text-anchor="middle" x="607.5" y="-7.5" font-family="Helvetica,sans-Serif" font-size="10.00" fill="#000000">ImpedanceVec.h</text>
</a>
</g>
</g>
<!-- Node8&#45;&gt;Node15 -->
<g id="edge20" class="edge">
<title>Node8&#45;&gt;Node15</title>
<path fill="none" stroke="#191970" d="M527.3961,-56.2455C542.418,-47.5731 564.6043,-34.7645 581.821,-24.825"/>
<polygon fill="#191970" stroke="#191970" points="583.8871,-27.6737 590.7975,-19.6427 580.3872,-21.6114 583.8871,-27.6737"/>
</g>
<!-- Node16 -->
<g id="node17" class="node">
<title>Node16</title>
<g id="a_node17"><a doxygen="/usr/local/share/doc/SpaceVecAlg/doxygen-html/SpaceVecAlg.doxytag:/usr/local/share/doc/SpaceVecAlg/doxygen-html/" xlink:href="/usr/local/share/doc/SpaceVecAlg/doxygen-html/a00047.html" target="_top" xlink:title="MotionVec.h">
<polygon fill="#ffffff" stroke="#000000" points="671,-.5 671,-19.5 742,-19.5 742,-.5 671,-.5"/>
<text text-anchor="middle" x="706.5" y="-7.5" font-family="Helvetica,sans-Serif" font-size="10.00" fill="#000000">MotionVec.h</text>
</a>
</g>
</g>
<!-- Node8&#45;&gt;Node16 -->
<g id="edge21" class="edge">
<title>Node8&#45;&gt;Node16</title>
<path fill="none" stroke="#191970" d="M544.1936,-56.3733C577.2087,-46.9404 627.6573,-32.5265 663.5386,-22.2747"/>
<polygon fill="#191970" stroke="#191970" points="664.5924,-25.6137 673.2461,-19.5011 662.6693,-18.8831 664.5924,-25.6137"/>
</g>
<!-- Node17 -->
<g id="node18" class="node">
<title>Node17</title>
<g id="a_node18"><a doxygen="/usr/local/share/doc/SpaceVecAlg/doxygen-html/SpaceVecAlg.doxytag:/usr/local/share/doc/SpaceVecAlg/doxygen-html/" xlink:href="/usr/local/share/doc/SpaceVecAlg/doxygen-html/a00053.html" target="_top" xlink:title="PTransform.h">
<polygon fill="#ffffff" stroke="#000000" points="760.5,-.5 760.5,-19.5 836.5,-19.5 836.5,-.5 760.5,-.5"/>
<text text-anchor="middle" x="798.5" y="-7.5" font-family="Helvetica,sans-Serif" font-size="10.00" fill="#000000">PTransform.h</text>
</a>
</g>
</g>
<!-- Node8&#45;&gt;Node17 -->
<g id="edge22" class="edge">
<title>Node8&#45;&gt;Node17</title>
<path fill="none" stroke="#191970" d="M562.2746,-56.4434C608.9257,-47.7589 679.6569,-34.4102 750.3257,-20.2083"/>
<polygon fill="#191970" stroke="#191970" points="751.1831,-23.6059 760.2944,-18.199 749.8,-16.7439 751.1831,-23.6059"/>
</g>
<!-- Node18 -->
<g id="node19" class="node">
<title>Node18</title>
<g id="a_node19"><a doxygen="/usr/local/share/doc/SpaceVecAlg/doxygen-html/SpaceVecAlg.doxytag:/usr/local/share/doc/SpaceVecAlg/doxygen-html/" xlink:href="/usr/local/share/doc/SpaceVecAlg/doxygen-html/a00056.html" target="_top" xlink:title="RBInertia.h">
<polygon fill="#ffffff" stroke="#000000" points="854.5,-.5 854.5,-19.5 920.5,-19.5 920.5,-.5 854.5,-.5"/>
<text text-anchor="middle" x="887.5" y="-7.5" font-family="Helvetica,sans-Serif" font-size="10.00" fill="#000000">RBInertia.h</text>
</a>
</g>
</g>
<!-- Node8&#45;&gt;Node18 -->
<g id="edge23" class="edge">
<title>Node8&#45;&gt;Node18</title>
<path fill="none" stroke="#191970" d="M579.7287,-57.3015C657.9631,-47.3373 781.5669,-31.1577 843.9082,-20.1249"/>
<polygon fill="#191970" stroke="#191970" points="844.8841,-23.5046 854.092,-18.264 843.6258,-16.6186 844.8841,-23.5046"/>
</g>
<!-- Node19 -->
<g id="node20" class="node">
<title>Node19</title>
<g id="a_node20"><a doxygen="/usr/local/share/doc/SpaceVecAlg/doxygen-html/SpaceVecAlg.doxytag:/usr/local/share/doc/SpaceVecAlg/doxygen-html/" xlink:href="/usr/local/share/doc/SpaceVecAlg/doxygen-html/a00050.html" target="_top" xlink:title="Operators.h">
<polygon fill="#ffffff" stroke="#000000" points="938.5,-.5 938.5,-19.5 1006.5,-19.5 1006.5,-.5 938.5,-.5"/>
<text text-anchor="middle" x="972.5" y="-7.5" font-family="Helvetica,sans-Serif" font-size="10.00" fill="#000000">Operators.h</text>
</a>
</g>
</g>
<!-- Node8&#45;&gt;Node19 -->
<g id="edge24" class="edge">
<title>Node8&#45;&gt;Node19</title>
<path fill="none" stroke="#191970" d="M579.8347,-57.4708C584.1197,-56.9665 588.3679,-56.4726 592.5,-56 738.9389,-39.2501 779.2578,-44.8499 928.3299,-20.0279"/>
<polygon fill="#191970" stroke="#191970" points="929.0282,-23.4596 938.3085,-18.3483 927.8663,-16.5567 929.0282,-23.4596"/>
</g>
<!-- Node20&#45;&gt;Node7 -->
<g id="edge27" class="edge">
<title>Node20&#45;&gt;Node7</title>
<path fill="none" stroke="#191970" d="M481.6931,-168.2455C492.1321,-159.8943 507.3655,-147.7076 519.574,-137.9408"/>
<polygon fill="#191970" stroke="#191970" points="521.8244,-140.6227 527.4467,-131.6427 517.4515,-135.1566 521.8244,-140.6227"/>
</g>
<!-- Node20&#45;&gt;Node8 -->
<g id="edge26" class="edge">
<title>Node20&#45;&gt;Node8</title>
<path fill="none" stroke="#191970" d="M472.5667,-168.0847C476.635,-155.1061 484.1611,-131.6929 491.5,-112 494.8096,-103.1191 498.7712,-93.4037 502.2185,-85.1992"/>
<polygon fill="#191970" stroke="#191970" points="505.5267,-86.3636 506.2222,-75.7916 499.0857,-83.6224 505.5267,-86.3636"/>
</g>
</g>
</svg>
