<?xml version="1.0" encoding="UTF-8" standalone="no"?>
<!DOCTYPE svg PUBLIC "-//W3C//DTD SVG 1.1//EN"
 "http://www.w3.org/Graphics/SVG/1.1/DTD/svg11.dtd">
<!-- Generated by graphviz version 2.40.1 (20161225.0304)
 -->
<!-- Title: tasks::qp::QLDQPSolver Pages: 1 -->
<svg width="336pt" height="242pt"
 viewBox="0.00 0.00 336.00 242.00" xmlns="http://www.w3.org/2000/svg" xmlns:xlink="http://www.w3.org/1999/xlink">
<g id="graph0" class="graph" transform="scale(1 1) rotate(0) translate(4 238)">
<title>tasks::qp::QLDQPSolver</title>
<polygon fill="#ffffff" stroke="transparent" points="-4,4 -4,-238 332,-238 332,4 -4,4"/>
<!-- Node2 -->
<g id="node1" class="node">
<title>Node2</title>
<polygon fill="#bfbfbf" stroke="#000000" points="88,-.5 88,-19.5 213,-19.5 213,-.5 88,-.5"/>
<text text-anchor="middle" x="150.5" y="-7.5" font-family="Helvetica,sans-Serif" font-size="10.00" fill="#000000">tasks::qp::QLDQPSolver</text>
</g>
<!-- Node3 -->
<g id="node2" class="node">
<title>Node3</title>
<g id="a_node2"><a xlink:href="a00699.html" target="_top" xlink:title="Generic QP solver abstract interface. ">
<polygon fill="#ffffff" stroke="#000000" points="89,-57.5 89,-76.5 212,-76.5 212,-57.5 89,-57.5"/>
<text text-anchor="middle" x="150.5" y="-64.5" font-family="Helvetica,sans-Serif" font-size="10.00" fill="#000000">tasks::qp::GenQPSolver</text>
</a>
</g>
</g>
<!-- Node3&#45;&gt;Node2 -->
<g id="edge1" class="edge">
<title>Node3&#45;&gt;Node2</title>
<path fill="none" stroke="#191970" d="M150.5,-47.2342C150.5,-37.8491 150.5,-27.0651 150.5,-19.5265"/>
<polygon fill="#191970" stroke="#191970" points="147.0001,-47.3307 150.5,-57.3307 154.0001,-47.3308 147.0001,-47.3307"/>
</g>
<!-- Node4 -->
<g id="node3" class="node">
<title>Node4</title>
<g id="a_node3"><a xlink:title="STL class. ">
<polygon fill="#ffffff" stroke="#bfbfbf" points="17.5,-141 17.5,-160 77.5,-160 77.5,-141 17.5,-141"/>
<text text-anchor="middle" x="47.5" y="-148" font-family="Helvetica,sans-Serif" font-size="10.00" fill="#000000">std::string</text>
</a>
</g>
</g>
<!-- Node4&#45;&gt;Node3 -->
<g id="edge2" class="edge">
<title>Node4&#45;&gt;Node3</title>
<path fill="none" stroke="#9a32cd" stroke-dasharray="5,2" d="M49.8446,-130.6764C52.2126,-118.8965 56.9659,-104.4573 66.5,-95 75.0126,-86.5559 86.136,-80.6581 97.4889,-76.5388"/>
<polygon fill="#9a32cd" stroke="#9a32cd" points="46.3319,-130.4823 48.2269,-140.9063 53.2459,-131.5757 46.3319,-130.4823"/>
<text text-anchor="middle" x="106.5" y="-103.5" font-family="Helvetica,sans-Serif" font-size="10.00" fill="#000000"> default_qp_solver</text>
</g>
<!-- Node5 -->
<g id="node4" class="node">
<title>Node5</title>
<g id="a_node4"><a xlink:title="STL class. ">
<polygon fill="#ffffff" stroke="#bfbfbf" points="0,-203.5 0,-233.5 95,-233.5 95,-203.5 0,-203.5"/>
<text text-anchor="start" x="8" y="-221.5" font-family="Helvetica,sans-Serif" font-size="10.00" fill="#000000">std::basic_string&lt;</text>
<text text-anchor="middle" x="47.5" y="-210.5" font-family="Helvetica,sans-Serif" font-size="10.00" fill="#000000"> char &gt;</text>
</a>
</g>
</g>
<!-- Node5&#45;&gt;Node4 -->
<g id="edge3" class="edge">
<title>Node5&#45;&gt;Node4</title>
<path fill="none" stroke="#191970" d="M47.5,-193.0669C47.5,-181.6483 47.5,-168.8507 47.5,-160.297"/>
<polygon fill="#191970" stroke="#191970" points="44.0001,-193.4086 47.5,-203.4086 51.0001,-193.4086 44.0001,-193.4086"/>
</g>
<!-- Node6 -->
<g id="node5" class="node">
<title>Node6</title>
<polygon fill="#ffffff" stroke="#bfbfbf" points="104.5,-141 104.5,-160 196.5,-160 196.5,-141 104.5,-141"/>
<text text-anchor="middle" x="150.5" y="-148" font-family="Helvetica,sans-Serif" font-size="10.00" fill="#000000">std::vector&lt; int &gt;</text>
</g>
<!-- Node6&#45;&gt;Node3 -->
<g id="edge4" class="edge">
<title>Node6&#45;&gt;Node3</title>
<path fill="none" stroke="#9a32cd" stroke-dasharray="5,2" d="M150.5,-130.9172C150.5,-113.8939 150.5,-89.9456 150.5,-76.724"/>
<polygon fill="#9a32cd" stroke="#9a32cd" points="147.0001,-130.9215 150.5,-140.9215 154.0001,-130.9215 147.0001,-130.9215"/>
<text text-anchor="middle" x="186.5" y="-109" font-family="Helvetica,sans-Serif" font-size="10.00" fill="#000000"> fullToReduced_</text>
<text text-anchor="middle" x="186.5" y="-98" font-family="Helvetica,sans-Serif" font-size="10.00" fill="#000000">reducedToFull_</text>
</g>
<!-- Node7 -->
<g id="node6" class="node">
<title>Node7</title>
<polygon fill="#ffffff" stroke="#bfbfbf" points="215,-135.5 215,-165.5 328,-165.5 328,-135.5 215,-135.5"/>
<text text-anchor="start" x="223" y="-153.5" font-family="Helvetica,sans-Serif" font-size="10.00" fill="#000000">std::vector&lt; std::tuple</text>
<text text-anchor="middle" x="271.5" y="-142.5" font-family="Helvetica,sans-Serif" font-size="10.00" fill="#000000">&lt; int, int, double &gt; &gt;</text>
</g>
<!-- Node7&#45;&gt;Node3 -->
<g id="edge5" class="edge">
<title>Node7&#45;&gt;Node3</title>
<path fill="none" stroke="#9a32cd" stroke-dasharray="5,2" d="M256.8166,-127.0319C248.9572,-116.053 238.4388,-103.5457 226.5,-95 215.1802,-86.8974 201.2497,-80.8742 188.4205,-76.5339"/>
<polygon fill="#9a32cd" stroke="#9a32cd" points="254.0002,-129.1143 262.5259,-135.4043 259.7835,-125.1705 254.0002,-129.1143"/>
<text text-anchor="middle" x="283" y="-103.5" font-family="Helvetica,sans-Serif" font-size="10.00" fill="#000000"> dependencies_</text>
</g>
</g>
</svg>
