<?xml version="1.0" encoding="UTF-8" standalone="no"?>
<!DOCTYPE svg PUBLIC "-//W3C//DTD SVG 1.1//EN"
 "http://www.w3.org/Graphics/SVG/1.1/DTD/svg11.dtd">
<!-- Generated by graphviz version 2.40.1 (20161225.0304)
 -->
<!-- Title: tasks::qp::DamperJointLimitsConstr Pages: 1 -->
<svg width="179pt" height="162pt"
 viewBox="0.00 0.00 179.00 162.00" xmlns="http://www.w3.org/2000/svg" xmlns:xlink="http://www.w3.org/1999/xlink">
<g id="graph0" class="graph" transform="scale(1 1) rotate(0) translate(4 158)">
<title>tasks::qp::DamperJointLimitsConstr</title>
<polygon fill="#ffffff" stroke="transparent" points="-4,4 -4,-158 175,-158 175,4 -4,4"/>
<!-- Node4 -->
<g id="node1" class="node">
<title>Node4</title>
<polygon fill="#bfbfbf" stroke="#000000" points="25.5,-.5 25.5,-30.5 170.5,-30.5 170.5,-.5 25.5,-.5"/>
<text text-anchor="start" x="33.5" y="-18.5" font-family="Helvetica,sans-Serif" font-size="10.00" fill="#000000">tasks::qp::DamperJointLimits</text>
<text text-anchor="middle" x="98" y="-7.5" font-family="Helvetica,sans-Serif" font-size="10.00" fill="#000000">Constr</text>
</g>
<!-- Node5 -->
<g id="node2" class="node">
<title>Node5</title>
<g id="a_node2"><a xlink:href="a00798.html" target="_top" xlink:title="tasks::qp::ConstraintFunction\l\&lt; Bound \&gt;">
<polygon fill="#ffffff" stroke="#000000" points="25,-67.5 25,-97.5 171,-97.5 171,-67.5 25,-67.5"/>
<text text-anchor="start" x="33" y="-85.5" font-family="Helvetica,sans-Serif" font-size="10.00" fill="#000000">tasks::qp::ConstraintFunction</text>
<text text-anchor="middle" x="98" y="-74.5" font-family="Helvetica,sans-Serif" font-size="10.00" fill="#000000">&lt; Bound &gt;</text>
</a>
</g>
</g>
<!-- Node5&#45;&gt;Node4 -->
<g id="edge1" class="edge">
<title>Node5&#45;&gt;Node4</title>
<path fill="none" stroke="#191970" d="M98,-57.0249C98,-48.128 98,-38.4287 98,-30.6432"/>
<polygon fill="#191970" stroke="#191970" points="94.5001,-57.2966 98,-67.2967 101.5001,-57.2967 94.5001,-57.2966"/>
</g>
<!-- Node6 -->
<g id="node3" class="node">
<title>Node6</title>
<g id="a_node3"><a xlink:href="a00794.html" target="_top" xlink:title="tasks::qp::Constraint">
<polygon fill="#ffffff" stroke="#000000" points="0,-134.5 0,-153.5 108,-153.5 108,-134.5 0,-134.5"/>
<text text-anchor="middle" x="54" y="-141.5" font-family="Helvetica,sans-Serif" font-size="10.00" fill="#000000">tasks::qp::Constraint</text>
</a>
</g>
</g>
<!-- Node6&#45;&gt;Node5 -->
<g id="edge2" class="edge">
<title>Node6&#45;&gt;Node5</title>
<path fill="none" stroke="#191970" d="M66.8153,-126.0877C73.2951,-117.0307 81.0706,-106.1627 87.2364,-97.5446"/>
<polygon fill="#191970" stroke="#191970" points="63.8472,-124.2212 60.875,-134.3906 69.5402,-128.2943 63.8472,-124.2212"/>
</g>
<!-- Node7 -->
<g id="node4" class="node">
<title>Node7</title>
<polygon fill="#ffffff" stroke="#bfbfbf" points="126.5,-134.5 126.5,-153.5 159.5,-153.5 159.5,-134.5 126.5,-134.5"/>
<text text-anchor="middle" x="143" y="-141.5" font-family="Helvetica,sans-Serif" font-size="10.00" fill="#000000">Fun</text>
</g>
<!-- Node7&#45;&gt;Node5 -->
<g id="edge3" class="edge">
<title>Node7&#45;&gt;Node5</title>
<path fill="none" stroke="#191970" d="M129.8934,-126.0877C123.2664,-117.0307 115.3142,-106.1627 109.0082,-97.5446"/>
<polygon fill="#191970" stroke="#191970" points="127.239,-128.3871 135.9688,-134.3906 132.8882,-124.2535 127.239,-128.3871"/>
</g>
</g>
</svg>
