<?xml version="1.0" encoding="UTF-8" standalone="no"?>
<!DOCTYPE svg PUBLIC "-//W3C//DTD SVG 1.1//EN"
 "http://www.w3.org/Graphics/SVG/1.1/DTD/svg11.dtd">
<!-- Generated by graphviz version 2.40.1 (20161225.0304)
 -->
<!-- Title: tasks::qp::JointLimitsConstr Pages: 1 -->
<svg width="179pt" height="151pt"
 viewBox="0.00 0.00 179.00 151.00" xmlns="http://www.w3.org/2000/svg" xmlns:xlink="http://www.w3.org/1999/xlink">
<g id="graph0" class="graph" transform="scale(1 1) rotate(0) translate(4 147)">
<title>tasks::qp::JointLimitsConstr</title>
<polygon fill="#ffffff" stroke="transparent" points="-4,4 -4,-147 175,-147 175,4 -4,4"/>
<!-- Node0 -->
<g id="node1" class="node">
<title>Node0</title>
<polygon fill="#bfbfbf" stroke="#000000" points="28,-.5 28,-19.5 168,-19.5 168,-.5 28,-.5"/>
<text text-anchor="middle" x="98" y="-7.5" font-family="Helvetica,sans-Serif" font-size="10.00" fill="#000000">tasks::qp::JointLimitsConstr</text>
</g>
<!-- Node1 -->
<g id="node2" class="node">
<title>Node1</title>
<g id="a_node2"><a xlink:href="a00798.html" target="_top" xlink:title="tasks::qp::ConstraintFunction\l\&lt; Bound \&gt;">
<polygon fill="#ffffff" stroke="#000000" points="25,-56.5 25,-86.5 171,-86.5 171,-56.5 25,-56.5"/>
<text text-anchor="start" x="33" y="-74.5" font-family="Helvetica,sans-Serif" font-size="10.00" fill="#000000">tasks::qp::ConstraintFunction</text>
<text text-anchor="middle" x="98" y="-63.5" font-family="Helvetica,sans-Serif" font-size="10.00" fill="#000000">&lt; Bound &gt;</text>
</a>
</g>
</g>
<!-- Node1&#45;&gt;Node0 -->
<g id="edge1" class="edge">
<title>Node1&#45;&gt;Node0</title>
<path fill="none" stroke="#191970" d="M98,-46.2849C98,-36.9858 98,-26.9883 98,-19.8469"/>
<polygon fill="#191970" stroke="#191970" points="94.5001,-46.2977 98,-56.2977 101.5001,-46.2978 94.5001,-46.2977"/>
</g>
<!-- Node2 -->
<g id="node3" class="node">
<title>Node2</title>
<g id="a_node3"><a xlink:href="a00794.html" target="_top" xlink:title="tasks::qp::Constraint">
<polygon fill="#ffffff" stroke="#000000" points="0,-123.5 0,-142.5 108,-142.5 108,-123.5 0,-123.5"/>
<text text-anchor="middle" x="54" y="-130.5" font-family="Helvetica,sans-Serif" font-size="10.00" fill="#000000">tasks::qp::Constraint</text>
</a>
</g>
</g>
<!-- Node2&#45;&gt;Node1 -->
<g id="edge2" class="edge">
<title>Node2&#45;&gt;Node1</title>
<path fill="none" stroke="#191970" d="M66.8153,-115.0877C73.2951,-106.0307 81.0706,-95.1627 87.2364,-86.5446"/>
<polygon fill="#191970" stroke="#191970" points="63.8472,-113.2212 60.875,-123.3906 69.5402,-117.2943 63.8472,-113.2212"/>
</g>
<!-- Node3 -->
<g id="node4" class="node">
<title>Node3</title>
<polygon fill="#ffffff" stroke="#bfbfbf" points="126.5,-123.5 126.5,-142.5 159.5,-142.5 159.5,-123.5 126.5,-123.5"/>
<text text-anchor="middle" x="143" y="-130.5" font-family="Helvetica,sans-Serif" font-size="10.00" fill="#000000">Fun</text>
</g>
<!-- Node3&#45;&gt;Node1 -->
<g id="edge3" class="edge">
<title>Node3&#45;&gt;Node1</title>
<path fill="none" stroke="#191970" d="M129.8934,-115.0877C123.2664,-106.0307 115.3142,-95.1627 109.0082,-86.5446"/>
<polygon fill="#191970" stroke="#191970" points="127.239,-117.3871 135.9688,-123.3906 132.8882,-113.2535 127.239,-117.3871"/>
</g>
</g>
</svg>
