<?xml version="1.0" encoding="UTF-8" standalone="no"?>
<!DOCTYPE svg PUBLIC "-//W3C//DTD SVG 1.1//EN"
 "http://www.w3.org/Graphics/SVG/1.1/DTD/svg11.dtd">
<!-- Generated by graphviz version 2.40.1 (20161225.0304)
 -->
<!-- Title: tasks::qp::GenQPSolver Pages: 1 -->
<svg width="288pt" height="84pt"
 viewBox="0.00 0.00 288.00 84.00" xmlns="http://www.w3.org/2000/svg" xmlns:xlink="http://www.w3.org/1999/xlink">
<g id="graph0" class="graph" transform="scale(1 1) rotate(0) translate(4 80)">
<title>tasks::qp::GenQPSolver</title>
<polygon fill="#ffffff" stroke="transparent" points="-4,4 -4,-80 284,-80 284,4 -4,4"/>
<!-- Node0 -->
<g id="node1" class="node">
<title>Node0</title>
<polygon fill="#bfbfbf" stroke="#000000" points="81,-56.5 81,-75.5 204,-75.5 204,-56.5 81,-56.5"/>
<text text-anchor="middle" x="142.5" y="-63.5" font-family="Helvetica,sans-Serif" font-size="10.00" fill="#000000">tasks::qp::GenQPSolver</text>
</g>
<!-- Node1 -->
<g id="node2" class="node">
<title>Node1</title>
<g id="a_node2"><a xlink:href="a00618.html" target="_top" xlink:title="GenQPSolver interface implementation with the LSSOL QP solver. ">
<polygon fill="#ffffff" stroke="#000000" points="0,-.5 0,-19.5 137,-19.5 137,-.5 0,-.5"/>
<text text-anchor="middle" x="68.5" y="-7.5" font-family="Helvetica,sans-Serif" font-size="10.00" fill="#000000">tasks::qp::LSSOLQPSolver</text>
</a>
</g>
</g>
<!-- Node0&#45;&gt;Node1 -->
<g id="edge1" class="edge">
<title>Node0&#45;&gt;Node1</title>
<path fill="none" stroke="#191970" d="M121.6343,-50.2097C108.6375,-40.3743 92.3378,-28.0394 81.2421,-19.6427"/>
<polygon fill="#191970" stroke="#191970" points="119.524,-53.002 129.6102,-56.2455 123.7482,-47.4201 119.524,-53.002"/>
</g>
<!-- Node2 -->
<g id="node3" class="node">
<title>Node2</title>
<g id="a_node3"><a xlink:href="a00622.html" target="_top" xlink:title="GenQPSolver interface implementation with the QLD QP solver. ">
<polygon fill="#ffffff" stroke="#000000" points="155,-.5 155,-19.5 280,-19.5 280,-.5 155,-.5"/>
<text text-anchor="middle" x="217.5" y="-7.5" font-family="Helvetica,sans-Serif" font-size="10.00" fill="#000000">tasks::qp::QLDQPSolver</text>
</a>
</g>
</g>
<!-- Node0&#45;&gt;Node2 -->
<g id="edge2" class="edge">
<title>Node0&#45;&gt;Node2</title>
<path fill="none" stroke="#191970" d="M163.6477,-50.2097C176.8201,-40.3743 193.34,-28.0394 204.5857,-19.6427"/>
<polygon fill="#191970" stroke="#191970" points="161.4828,-47.4581 155.564,-56.2455 165.6709,-53.0671 161.4828,-47.4581"/>
</g>
</g>
</svg>
