<?xml version="1.0" encoding="UTF-8" standalone="no"?>
<!DOCTYPE svg PUBLIC "-//W3C//DTD SVG 1.1//EN"
 "http://www.w3.org/Graphics/SVG/1.1/DTD/svg11.dtd">
<!-- Generated by graphviz version 2.40.1 (20161225.0304)
 -->
<!-- Title: tasks::qp::ContactConstr::ContactData Pages: 1 -->
<svg width="250pt" height="285pt"
 viewBox="0.00 0.00 249.50 285.00" xmlns="http://www.w3.org/2000/svg" xmlns:xlink="http://www.w3.org/1999/xlink">
<g id="graph0" class="graph" transform="scale(1 1) rotate(0) translate(4 281)">
<title>tasks::qp::ContactConstr::ContactData</title>
<polygon fill="#ffffff" stroke="transparent" points="-4,4 -4,-281 245.5,-281 245.5,4 -4,4"/>
<!-- Node1 -->
<g id="node1" class="node">
<title>Node1</title>
<polygon fill="#bfbfbf" stroke="#000000" points="51.5,-.5 51.5,-30.5 178.5,-30.5 178.5,-.5 51.5,-.5"/>
<text text-anchor="start" x="59.5" y="-18.5" font-family="Helvetica,sans-Serif" font-size="10.00" fill="#000000">tasks::qp::ContactConstr</text>
<text text-anchor="middle" x="115" y="-7.5" font-family="Helvetica,sans-Serif" font-size="10.00" fill="#000000">::ContactData</text>
</g>
<!-- Node2 -->
<g id="node2" class="node">
<title>Node2</title>
<g id="a_node2"><a xlink:href="a00742.html" target="_top" xlink:title="Unique identifier for a contact. ">
<polygon fill="#ffffff" stroke="#000000" points="0,-89.5 0,-108.5 106,-108.5 106,-89.5 0,-89.5"/>
<text text-anchor="middle" x="53" y="-96.5" font-family="Helvetica,sans-Serif" font-size="10.00" fill="#000000">tasks::qp::ContactId</text>
</a>
</g>
</g>
<!-- Node2&#45;&gt;Node1 -->
<g id="edge1" class="edge">
<title>Node2&#45;&gt;Node1</title>
<path fill="none" stroke="#9a32cd" stroke-dasharray="5,2" d="M66.3872,-80.9705C77.5524,-65.9335 93.2794,-44.7527 103.7902,-30.597"/>
<polygon fill="#9a32cd" stroke="#9a32cd" points="63.2636,-79.3062 60.1122,-89.4215 68.8838,-83.4792 63.2636,-79.3062"/>
<text text-anchor="middle" x="112" y="-52" font-family="Helvetica,sans-Serif" font-size="10.00" fill="#000000"> contactId</text>
</g>
<!-- Node3 -->
<g id="node3" class="node">
<title>Node3</title>
<g id="a_node3"><a xlink:title="STL class. ">
<polygon fill="#ffffff" stroke="#bfbfbf" points="23,-184 23,-203 83,-203 83,-184 23,-184"/>
<text text-anchor="middle" x="53" y="-191" font-family="Helvetica,sans-Serif" font-size="10.00" fill="#000000">std::string</text>
</a>
</g>
</g>
<!-- Node3&#45;&gt;Node2 -->
<g id="edge2" class="edge">
<title>Node3&#45;&gt;Node2</title>
<path fill="none" stroke="#9a32cd" stroke-dasharray="5,2" d="M53,-173.5734C53,-153.608 53,-123.7264 53,-108.5634"/>
<polygon fill="#9a32cd" stroke="#9a32cd" points="49.5001,-173.7427 53,-183.7428 56.5001,-173.7428 49.5001,-173.7427"/>
<text text-anchor="middle" x="83.5" y="-152" font-family="Helvetica,sans-Serif" font-size="10.00" fill="#000000"> r2BodyName</text>
<text text-anchor="middle" x="83.5" y="-141" font-family="Helvetica,sans-Serif" font-size="10.00" fill="#000000">r1BodyName</text>
</g>
<!-- Node4 -->
<g id="node4" class="node">
<title>Node4</title>
<g id="a_node4"><a xlink:title="STL class. ">
<polygon fill="#ffffff" stroke="#bfbfbf" points="5.5,-246.5 5.5,-276.5 100.5,-276.5 100.5,-246.5 5.5,-246.5"/>
<text text-anchor="start" x="13.5" y="-264.5" font-family="Helvetica,sans-Serif" font-size="10.00" fill="#000000">std::basic_string&lt;</text>
<text text-anchor="middle" x="53" y="-253.5" font-family="Helvetica,sans-Serif" font-size="10.00" fill="#000000"> char &gt;</text>
</a>
</g>
</g>
<!-- Node4&#45;&gt;Node3 -->
<g id="edge3" class="edge">
<title>Node4&#45;&gt;Node3</title>
<path fill="none" stroke="#191970" d="M53,-236.0669C53,-224.6483 53,-211.8507 53,-203.297"/>
<polygon fill="#191970" stroke="#191970" points="49.5001,-236.4086 53,-246.4086 56.5001,-236.4086 49.5001,-236.4086"/>
</g>
<!-- Node5 -->
<g id="node5" class="node">
<title>Node5</title>
<polygon fill="#ffffff" stroke="#bfbfbf" points="124.5,-78.5 124.5,-119.5 231.5,-119.5 231.5,-78.5 124.5,-78.5"/>
<text text-anchor="start" x="132.5" y="-107.5" font-family="Helvetica,sans-Serif" font-size="10.00" fill="#000000">std::vector&lt; tasks</text>
<text text-anchor="start" x="132.5" y="-96.5" font-family="Helvetica,sans-Serif" font-size="10.00" fill="#000000">::qp::ContactConstr</text>
<text text-anchor="middle" x="178" y="-85.5" font-family="Helvetica,sans-Serif" font-size="10.00" fill="#000000">::ContactSideData &gt;</text>
</g>
<!-- Node5&#45;&gt;Node1 -->
<g id="edge4" class="edge">
<title>Node5&#45;&gt;Node1</title>
<path fill="none" stroke="#9a32cd" stroke-dasharray="5,2" d="M156.3997,-70.3711C146.3408,-57.039 134.7826,-41.7198 126.4396,-30.6621"/>
<polygon fill="#9a32cd" stroke="#9a32cd" points="153.61,-72.4848 162.427,-78.3595 159.198,-68.2687 153.61,-72.4848"/>
<text text-anchor="middle" x="169.5" y="-52" font-family="Helvetica,sans-Serif" font-size="10.00" fill="#000000"> contacts</text>
</g>
<!-- Node6 -->
<g id="node6" class="node">
<title>Node6</title>
<g id="a_node6"><a xlink:href="a00718.html" target="_top" xlink:title="tasks::qp::ContactConstr\l::ContactSideData">
<polygon fill="#ffffff" stroke="#000000" points="114.5,-178.5 114.5,-208.5 241.5,-208.5 241.5,-178.5 114.5,-178.5"/>
<text text-anchor="start" x="122.5" y="-196.5" font-family="Helvetica,sans-Serif" font-size="10.00" fill="#000000">tasks::qp::ContactConstr</text>
<text text-anchor="middle" x="178" y="-185.5" font-family="Helvetica,sans-Serif" font-size="10.00" fill="#000000">::ContactSideData</text>
</a>
</g>
</g>
<!-- Node6&#45;&gt;Node5 -->
<g id="edge5" class="edge">
<title>Node6&#45;&gt;Node5</title>
<path fill="none" stroke="#9a32cd" stroke-dasharray="5,2" d="M178,-168.1013C178,-152.9736 178,-134.0135 178,-119.7823"/>
<polygon fill="#9a32cd" stroke="#9a32cd" points="174.5001,-168.3169 178,-178.3169 181.5001,-168.317 174.5001,-168.3169"/>
<text text-anchor="middle" x="199.5" y="-146.5" font-family="Helvetica,sans-Serif" font-size="10.00" fill="#000000"> elements</text>
</g>
</g>
</svg>
