<?xml version="1.0" encoding="UTF-8" standalone="no"?>
<!DOCTYPE svg PUBLIC "-//W3C//DTD SVG 1.1//EN"
 "http://www.w3.org/Graphics/SVG/1.1/DTD/svg11.dtd">
<!-- Generated by graphviz version 2.40.1 (20161225.0304)
 -->
<!-- Title: tasks::qp::ContactConstr Pages: 1 -->
<svg width="652pt" height="110pt"
 viewBox="0.00 0.00 652.00 110.00" xmlns="http://www.w3.org/2000/svg" xmlns:xlink="http://www.w3.org/1999/xlink">
<g id="graph0" class="graph" transform="scale(1 1) rotate(0) translate(4 106)">
<title>tasks::qp::ContactConstr</title>
<polygon fill="#ffffff" stroke="transparent" points="-4,4 -4,-106 648,-106 648,4 -4,4"/>
<!-- Node0 -->
<g id="node1" class="node">
<title>Node0</title>
<polygon fill="#bfbfbf" stroke="#000000" points="326,-38.5 326,-57.5 453,-57.5 453,-38.5 326,-38.5"/>
<text text-anchor="middle" x="389.5" y="-45.5" font-family="Helvetica,sans-Serif" font-size="10.00" fill="#000000">tasks::qp::ContactConstr</text>
</g>
<!-- Node5 -->
<g id="node6" class="node">
<title>Node5</title>
<g id="a_node6"><a xlink:href="a00783.html" target="_top" xlink:title="Contact constraint by targeting a null acceleration. ">
<polygon fill="#ffffff" stroke="#000000" points="494.5,-76.5 494.5,-95.5 638.5,-95.5 638.5,-76.5 494.5,-76.5"/>
<text text-anchor="middle" x="566.5" y="-83.5" font-family="Helvetica,sans-Serif" font-size="10.00" fill="#000000">tasks::qp::ContactAccConstr</text>
</a>
</g>
</g>
<!-- Node0&#45;&gt;Node5 -->
<g id="edge5" class="edge">
<title>Node0&#45;&gt;Node5</title>
<path fill="none" stroke="#191970" d="M444.2423,-59.7526C469.27,-65.1258 498.5348,-71.4086 522.1566,-76.4799"/>
<polygon fill="#191970" stroke="#191970" points="444.6765,-56.2661 434.1646,-57.589 443.2071,-63.1102 444.6765,-56.2661"/>
</g>
<!-- Node6 -->
<g id="node7" class="node">
<title>Node6</title>
<g id="a_node7"><a xlink:href="a00791.html" target="_top" xlink:title="Contact constraint by targeting a constant frame. ">
<polygon fill="#ffffff" stroke="#000000" points="494.5,-38.5 494.5,-57.5 638.5,-57.5 638.5,-38.5 494.5,-38.5"/>
<text text-anchor="middle" x="566.5" y="-45.5" font-family="Helvetica,sans-Serif" font-size="10.00" fill="#000000">tasks::qp::ContactPosConstr</text>
</a>
</g>
</g>
<!-- Node0&#45;&gt;Node6 -->
<g id="edge6" class="edge">
<title>Node0&#45;&gt;Node6</title>
<path fill="none" stroke="#191970" d="M463.4823,-48C473.6724,-48 484.1264,-48 494.284,-48"/>
<polygon fill="#191970" stroke="#191970" points="463.4011,-44.5001 453.4011,-48 463.401,-51.5001 463.4011,-44.5001"/>
</g>
<!-- Node7 -->
<g id="node8" class="node">
<title>Node7</title>
<g id="a_node8"><a xlink:href="a00787.html" target="_top" xlink:title="Contact constraint by targeting a null velocity. ">
<polygon fill="#ffffff" stroke="#000000" points="489,-.5 489,-19.5 644,-19.5 644,-.5 489,-.5"/>
<text text-anchor="middle" x="566.5" y="-7.5" font-family="Helvetica,sans-Serif" font-size="10.00" fill="#000000">tasks::qp::ContactSpeedConstr</text>
</a>
</g>
</g>
<!-- Node0&#45;&gt;Node7 -->
<g id="edge7" class="edge">
<title>Node0&#45;&gt;Node7</title>
<path fill="none" stroke="#191970" d="M444.2423,-36.2474C469.27,-30.8742 498.5348,-24.5914 522.1566,-19.5201"/>
<polygon fill="#191970" stroke="#191970" points="443.2071,-32.8898 434.1646,-38.411 444.6765,-39.7339 443.2071,-32.8898"/>
</g>
<!-- Node1 -->
<g id="node2" class="node">
<title>Node1</title>
<g id="a_node2"><a xlink:href="a00855.html" target="_top" xlink:title="tasks::qp::ConstraintFunction\l\&lt; Equality \&gt;">
<polygon fill="#ffffff" stroke="#000000" points="144,-58 144,-88 290,-88 290,-58 144,-58"/>
<text text-anchor="start" x="152" y="-76" font-family="Helvetica,sans-Serif" font-size="10.00" fill="#000000">tasks::qp::ConstraintFunction</text>
<text text-anchor="middle" x="217" y="-65" font-family="Helvetica,sans-Serif" font-size="10.00" fill="#000000">&lt; Equality &gt;</text>
</a>
</g>
</g>
<!-- Node1&#45;&gt;Node0 -->
<g id="edge1" class="edge">
<title>Node1&#45;&gt;Node0</title>
<path fill="none" stroke="#191970" d="M300.2098,-60.9406C308.8077,-59.6945 317.446,-58.4426 325.7823,-57.2344"/>
<polygon fill="#191970" stroke="#191970" points="299.5501,-57.4996 290.1555,-62.3977 300.5542,-64.4272 299.5501,-57.4996"/>
</g>
<!-- Node2 -->
<g id="node3" class="node">
<title>Node2</title>
<g id="a_node3"><a xlink:href="a00851.html" target="_top" xlink:title="tasks::qp::Constraint">
<polygon fill="#ffffff" stroke="#000000" points="0,-82.5 0,-101.5 108,-101.5 108,-82.5 0,-82.5"/>
<text text-anchor="middle" x="54" y="-89.5" font-family="Helvetica,sans-Serif" font-size="10.00" fill="#000000">tasks::qp::Constraint</text>
</a>
</g>
</g>
<!-- Node2&#45;&gt;Node1 -->
<g id="edge2" class="edge">
<title>Node2&#45;&gt;Node1</title>
<path fill="none" stroke="#191970" d="M118.3307,-84.5013C126.6966,-83.5262 135.3154,-82.5215 143.8124,-81.5311"/>
<polygon fill="#191970" stroke="#191970" points="117.8041,-81.0389 108.2766,-85.6733 118.6147,-87.9918 117.8041,-81.0389"/>
</g>
<!-- Node3 -->
<g id="node4" class="node">
<title>Node3</title>
<polygon fill="#ffffff" stroke="#bfbfbf" points="37.5,-44.5 37.5,-63.5 70.5,-63.5 70.5,-44.5 37.5,-44.5"/>
<text text-anchor="middle" x="54" y="-51.5" font-family="Helvetica,sans-Serif" font-size="10.00" fill="#000000">Fun</text>
</g>
<!-- Node3&#45;&gt;Node1 -->
<g id="edge3" class="edge">
<title>Node3&#45;&gt;Node1</title>
<path fill="none" stroke="#191970" d="M80.9205,-57.138C98.1701,-59.1487 121.456,-61.863 143.8857,-64.4775"/>
<polygon fill="#191970" stroke="#191970" points="80.8643,-53.6078 70.5263,-55.9264 80.0538,-60.5607 80.8643,-53.6078"/>
</g>
<!-- Node4 -->
<g id="node5" class="node">
<title>Node4</title>
<g id="a_node5"><a xlink:href="a00763.html" target="_top" xlink:title="Manage modifier on contact constraint. ">
<polygon fill="#ffffff" stroke="#000000" points="153.5,-9 153.5,-39 280.5,-39 280.5,-9 153.5,-9"/>
<text text-anchor="start" x="161.5" y="-27" font-family="Helvetica,sans-Serif" font-size="10.00" fill="#000000">tasks::qp::ContactConstr</text>
<text text-anchor="middle" x="217" y="-16" font-family="Helvetica,sans-Serif" font-size="10.00" fill="#000000">Common</text>
</a>
</g>
</g>
<!-- Node4&#45;&gt;Node0 -->
<g id="edge4" class="edge">
<title>Node4&#45;&gt;Node0</title>
<path fill="none" stroke="#191970" d="M290.8455,-34.2742C302.4564,-35.8896 314.3736,-37.5476 325.7316,-39.1279"/>
<polygon fill="#191970" stroke="#191970" points="291.1295,-30.78 280.7425,-32.8685 290.1648,-37.7133 291.1295,-30.78"/>
</g>
</g>
</svg>
