<?xml version="1.0" encoding="UTF-8" standalone="no"?>
<!DOCTYPE svg PUBLIC "-//W3C//DTD SVG 1.1//EN"
 "http://www.w3.org/Graphics/SVG/1.1/DTD/svg11.dtd">
<!-- Generated by graphviz version 2.40.1 (20161225.0304)
 -->
<!-- Title: tasks::qp::MotionPolyConstr Pages: 1 -->
<svg width="1068pt" height="172pt"
 viewBox="0.00 0.00 1068.00 172.00" xmlns="http://www.w3.org/2000/svg" xmlns:xlink="http://www.w3.org/1999/xlink">
<g id="graph0" class="graph" transform="scale(1 1) rotate(0) translate(4 168)">
<title>tasks::qp::MotionPolyConstr</title>
<polygon fill="#ffffff" stroke="transparent" points="-4,4 -4,-168 1064,-168 1064,4 -4,4"/>
<!-- Node5 -->
<g id="node1" class="node">
<title>Node5</title>
<polygon fill="#bfbfbf" stroke="#000000" points="919,-44.5 919,-63.5 1060,-63.5 1060,-44.5 919,-44.5"/>
<text text-anchor="middle" x="989.5" y="-51.5" font-family="Helvetica,sans-Serif" font-size="10.00" fill="#000000">tasks::qp::MotionPolyConstr</text>
</g>
<!-- Node6 -->
<g id="node2" class="node">
<title>Node6</title>
<g id="a_node2"><a xlink:href="a00762.html" target="_top" xlink:title="tasks::qp::MotionConstrCommon">
<polygon fill="#ffffff" stroke="#000000" points="671,-88.5 671,-107.5 832,-107.5 832,-88.5 671,-88.5"/>
<text text-anchor="middle" x="751.5" y="-95.5" font-family="Helvetica,sans-Serif" font-size="10.00" fill="#000000">tasks::qp::MotionConstrCommon</text>
</a>
</g>
</g>
<!-- Node6&#45;&gt;Node5 -->
<g id="edge1" class="edge">
<title>Node6&#45;&gt;Node5</title>
<path fill="none" stroke="#191970" d="M842.2837,-89.5157C861.7534,-87.0149 882.1381,-83.8782 901,-80 921.5484,-75.775 944.241,-69.0658 961.5027,-63.5211"/>
<polygon fill="#191970" stroke="#191970" points="841.692,-86.0621 832.1986,-90.766 842.5533,-93.0089 841.692,-86.0621"/>
</g>
<!-- Node7 -->
<g id="node3" class="node">
<title>Node7</title>
<g id="a_node3"><a xlink:href="a00798.html" target="_top" xlink:title="tasks::qp::ConstraintFunction\l\&lt; GenInequality \&gt;">
<polygon fill="#ffffff" stroke="#000000" points="461,-107 461,-137 607,-137 607,-107 461,-107"/>
<text text-anchor="start" x="469" y="-125" font-family="Helvetica,sans-Serif" font-size="10.00" fill="#000000">tasks::qp::ConstraintFunction</text>
<text text-anchor="middle" x="534" y="-114" font-family="Helvetica,sans-Serif" font-size="10.00" fill="#000000">&lt; GenInequality &gt;</text>
</a>
</g>
</g>
<!-- Node7&#45;&gt;Node6 -->
<g id="edge2" class="edge">
<title>Node7&#45;&gt;Node6</title>
<path fill="none" stroke="#191970" d="M617.2511,-112.8137C634.8218,-110.8748 653.3336,-108.8322 670.808,-106.9039"/>
<polygon fill="#191970" stroke="#191970" points="616.5852,-109.3658 607.0294,-113.9416 617.353,-116.3236 616.5852,-109.3658"/>
</g>
<!-- Node8 -->
<g id="node4" class="node">
<title>Node8</title>
<g id="a_node4"><a xlink:href="a00794.html" target="_top" xlink:title="tasks::qp::Constraint">
<polygon fill="#ffffff" stroke="#000000" points="247.5,-144.5 247.5,-163.5 355.5,-163.5 355.5,-144.5 247.5,-144.5"/>
<text text-anchor="middle" x="301.5" y="-151.5" font-family="Helvetica,sans-Serif" font-size="10.00" fill="#000000">tasks::qp::Constraint</text>
</a>
</g>
</g>
<!-- Node8&#45;&gt;Node7 -->
<g id="edge3" class="edge">
<title>Node8&#45;&gt;Node7</title>
<path fill="none" stroke="#191970" d="M365.8757,-145.1397C395.2993,-141.09 430.3004,-136.2726 460.7291,-132.0846"/>
<polygon fill="#191970" stroke="#191970" points="365.1469,-141.7069 355.7175,-146.5378 366.1014,-148.6415 365.1469,-141.7069"/>
</g>
<!-- Node9 -->
<g id="node5" class="node">
<title>Node9</title>
<polygon fill="#ffffff" stroke="#bfbfbf" points="285,-106.5 285,-125.5 318,-125.5 318,-106.5 285,-106.5"/>
<text text-anchor="middle" x="301.5" y="-113.5" font-family="Helvetica,sans-Serif" font-size="10.00" fill="#000000">Fun</text>
</g>
<!-- Node9&#45;&gt;Node7 -->
<g id="edge4" class="edge">
<title>Node9&#45;&gt;Node7</title>
<path fill="none" stroke="#191970" d="M328.6033,-116.6994C360.7982,-117.5303 415.8079,-118.9499 460.7995,-120.111"/>
<polygon fill="#191970" stroke="#191970" points="328.3078,-113.1907 318.2208,-116.4315 328.1272,-120.1884 328.3078,-113.1907"/>
</g>
<!-- Node10 -->
<g id="node6" class="node">
<title>Node10</title>
<polygon fill="#ffffff" stroke="#bfbfbf" points="465.5,-46.5 465.5,-87.5 602.5,-87.5 602.5,-46.5 465.5,-46.5"/>
<text text-anchor="start" x="473.5" y="-75.5" font-family="Helvetica,sans-Serif" font-size="10.00" fill="#000000">std::vector&lt; tasks</text>
<text text-anchor="start" x="473.5" y="-64.5" font-family="Helvetica,sans-Serif" font-size="10.00" fill="#000000">::qp::MotionConstrCommon</text>
<text text-anchor="middle" x="534" y="-53.5" font-family="Helvetica,sans-Serif" font-size="10.00" fill="#000000">::ContactData &gt;</text>
</g>
<!-- Node10&#45;&gt;Node6 -->
<g id="edge5" class="edge">
<title>Node10&#45;&gt;Node6</title>
<path fill="none" stroke="#9a32cd" stroke-dasharray="5,2" d="M612.5287,-78.1926C636.2136,-81.5684 661.9759,-85.2403 684.8128,-88.4952"/>
<polygon fill="#9a32cd" stroke="#9a32cd" points="612.9137,-74.7122 602.5198,-76.766 611.9259,-81.6421 612.9137,-74.7122"/>
<text text-anchor="middle" x="639" y="-86" font-family="Helvetica,sans-Serif" font-size="10.00" fill="#000000"> cont_</text>
</g>
<!-- Node11 -->
<g id="node7" class="node">
<title>Node11</title>
<g id="a_node7"><a xlink:href="a00766.html" target="_top" xlink:title="tasks::qp::MotionConstrCommon\l::ContactData">
<polygon fill="#ffffff" stroke="#000000" points="221,-52 221,-82 382,-82 382,-52 221,-52"/>
<text text-anchor="start" x="229" y="-70" font-family="Helvetica,sans-Serif" font-size="10.00" fill="#000000">tasks::qp::MotionConstrCommon</text>
<text text-anchor="middle" x="301.5" y="-59" font-family="Helvetica,sans-Serif" font-size="10.00" fill="#000000">::ContactData</text>
</a>
</g>
</g>
<!-- Node11&#45;&gt;Node10 -->
<g id="edge6" class="edge">
<title>Node11&#45;&gt;Node10</title>
<path fill="none" stroke="#9a32cd" stroke-dasharray="5,2" d="M392.4668,-67C416.7568,-67 442.5945,-67 465.4545,-67"/>
<polygon fill="#9a32cd" stroke="#9a32cd" points="392.1647,-63.5001 382.1647,-67 392.1647,-70.5001 392.1647,-63.5001"/>
<text text-anchor="middle" x="421.5" y="-70" font-family="Helvetica,sans-Serif" font-size="10.00" fill="#000000"> elements</text>
</g>
<!-- Node12 -->
<g id="node8" class="node">
<title>Node12</title>
<polygon fill="#ffffff" stroke="#bfbfbf" points="0,-74.5 0,-115.5 107,-115.5 107,-74.5 0,-74.5"/>
<text text-anchor="start" x="8" y="-103.5" font-family="Helvetica,sans-Serif" font-size="10.00" fill="#000000">std::vector&lt; Eigen</text>
<text text-anchor="start" x="8" y="-92.5" font-family="Helvetica,sans-Serif" font-size="10.00" fill="#000000">::Matrix&lt; double, 3,</text>
<text text-anchor="middle" x="53.5" y="-81.5" font-family="Helvetica,sans-Serif" font-size="10.00" fill="#000000"> Eigen::Dynamic &gt; &gt;</text>
</g>
<!-- Node12&#45;&gt;Node11 -->
<g id="edge7" class="edge">
<title>Node12&#45;&gt;Node11</title>
<path fill="none" stroke="#9a32cd" stroke-dasharray="5,2" d="M117.0005,-87.8306C148.5768,-84.2655 187.0861,-79.9177 220.7385,-76.1182"/>
<polygon fill="#9a32cd" stroke="#9a32cd" points="116.5512,-84.359 107.007,-88.9589 117.3365,-91.3148 116.5512,-84.359"/>
<text text-anchor="middle" x="164" y="-89" font-family="Helvetica,sans-Serif" font-size="10.00" fill="#000000"> minusGenerators</text>
</g>
<!-- Node13 -->
<g id="node9" class="node">
<title>Node13</title>
<polygon fill="#ffffff" stroke="#bfbfbf" points="5,-25 5,-55 102,-55 102,-25 5,-25"/>
<text text-anchor="start" x="13" y="-43" font-family="Helvetica,sans-Serif" font-size="10.00" fill="#000000">std::vector&lt; Eigen</text>
<text text-anchor="middle" x="53.5" y="-32" font-family="Helvetica,sans-Serif" font-size="10.00" fill="#000000">::Vector3d &gt;</text>
</g>
<!-- Node13&#45;&gt;Node11 -->
<g id="edge8" class="edge">
<title>Node13&#45;&gt;Node11</title>
<path fill="none" stroke="#9a32cd" stroke-dasharray="5,2" d="M112.4028,-46.4128C144.7716,-49.9368 185.4006,-54.3601 220.6943,-58.2026"/>
<polygon fill="#9a32cd" stroke="#9a32cd" points="112.521,-42.9051 102.2009,-45.3021 111.7633,-49.864 112.521,-42.9051"/>
<text text-anchor="middle" x="164" y="-58" font-family="Helvetica,sans-Serif" font-size="10.00" fill="#000000"> points</text>
</g>
<!-- Node14 -->
<g id="node10" class="node">
<title>Node14</title>
<polygon fill="#ffffff" stroke="#bfbfbf" points="703,-39 703,-69 800,-69 800,-39 703,-39"/>
<text text-anchor="start" x="711" y="-57" font-family="Helvetica,sans-Serif" font-size="10.00" fill="#000000">std::vector&lt; Eigen</text>
<text text-anchor="middle" x="751.5" y="-46" font-family="Helvetica,sans-Serif" font-size="10.00" fill="#000000">::VectorXd &gt;</text>
</g>
<!-- Node14&#45;&gt;Node5 -->
<g id="edge9" class="edge">
<title>Node14&#45;&gt;Node5</title>
<path fill="none" stroke="#9a32cd" stroke-dasharray="5,2" d="M810.5629,-54C843.3103,-54 884.2532,-54 918.7076,-54"/>
<polygon fill="#9a32cd" stroke="#9a32cd" points="810.2372,-50.5001 800.2372,-54 810.2371,-57.5001 810.2372,-50.5001"/>
<text text-anchor="middle" x="875.5" y="-68" font-family="Helvetica,sans-Serif" font-size="10.00" fill="#000000"> torqueU_</text>
<text text-anchor="middle" x="875.5" y="-57" font-family="Helvetica,sans-Serif" font-size="10.00" fill="#000000">torqueL_</text>
</g>
<!-- Node15 -->
<g id="node11" class="node">
<title>Node15</title>
<polygon fill="#ffffff" stroke="#bfbfbf" points="705.5,-.5 705.5,-19.5 797.5,-19.5 797.5,-.5 705.5,-.5"/>
<text text-anchor="middle" x="751.5" y="-7.5" font-family="Helvetica,sans-Serif" font-size="10.00" fill="#000000">std::vector&lt; int &gt;</text>
</g>
<!-- Node15&#45;&gt;Node5 -->
<g id="edge10" class="edge">
<title>Node15&#45;&gt;Node5</title>
<path fill="none" stroke="#9a32cd" stroke-dasharray="5,2" d="M807.6787,-20.386C847.197,-27.6919 899.6736,-37.3934 938.0899,-44.4956"/>
<polygon fill="#9a32cd" stroke="#9a32cd" points="808.1407,-16.9121 797.671,-18.5358 806.8681,-23.7955 808.1407,-16.9121"/>
<text text-anchor="middle" x="875.5" y="-41" font-family="Helvetica,sans-Serif" font-size="10.00" fill="#000000"> jointIndex_</text>
</g>
</g>
</svg>
