<?xml version="1.0" encoding="UTF-8" standalone="no"?>
<!DOCTYPE svg PUBLIC "-//W3C//DTD SVG 1.1//EN"
 "http://www.w3.org/Graphics/SVG/1.1/DTD/svg11.dtd">
<!-- Generated by graphviz version 2.40.1 (20161225.0304)
 -->
<!-- Title: tasks::qp::ContactPosConstr Pages: 1 -->
<svg width="1307pt" height="231pt"
 viewBox="0.00 0.00 1307.00 231.00" xmlns="http://www.w3.org/2000/svg" xmlns:xlink="http://www.w3.org/1999/xlink">
<g id="graph0" class="graph" transform="scale(1 1) rotate(0) translate(4 227)">
<title>tasks::qp::ContactPosConstr</title>
<polygon fill="#ffffff" stroke="transparent" points="-4,4 -4,-227 1303,-227 1303,4 -4,4"/>
<!-- Node6 -->
<g id="node1" class="node">
<title>Node6</title>
<polygon fill="#bfbfbf" stroke="#000000" points="1155,-116.5 1155,-135.5 1299,-135.5 1299,-116.5 1155,-116.5"/>
<text text-anchor="middle" x="1227" y="-123.5" font-family="Helvetica,sans-Serif" font-size="10.00" fill="#000000">tasks::qp::ContactPosConstr</text>
</g>
<!-- Node7 -->
<g id="node2" class="node">
<title>Node7</title>
<g id="a_node2"><a xlink:href="a00714.html" target="_top" xlink:title="Common contact constraint computation. ">
<polygon fill="#ffffff" stroke="#000000" points="991,-116.5 991,-135.5 1118,-135.5 1118,-116.5 991,-116.5"/>
<text text-anchor="middle" x="1054.5" y="-123.5" font-family="Helvetica,sans-Serif" font-size="10.00" fill="#000000">tasks::qp::ContactConstr</text>
</a>
</g>
</g>
<!-- Node7&#45;&gt;Node6 -->
<g id="edge1" class="edge">
<title>Node7&#45;&gt;Node6</title>
<path fill="none" stroke="#191970" d="M1128.4076,-126C1137.1532,-126 1146.0716,-126 1154.7932,-126"/>
<polygon fill="#191970" stroke="#191970" points="1128.2426,-122.5001 1118.2425,-126 1128.2425,-129.5001 1128.2426,-122.5001"/>
</g>
<!-- Node8 -->
<g id="node3" class="node">
<title>Node8</title>
<g id="a_node3"><a xlink:href="a00798.html" target="_top" xlink:title="tasks::qp::ConstraintFunction\l\&lt; Equality \&gt;">
<polygon fill="#ffffff" stroke="#000000" points="781,-166 781,-196 927,-196 927,-166 781,-166"/>
<text text-anchor="start" x="789" y="-184" font-family="Helvetica,sans-Serif" font-size="10.00" fill="#000000">tasks::qp::ConstraintFunction</text>
<text text-anchor="middle" x="854" y="-173" font-family="Helvetica,sans-Serif" font-size="10.00" fill="#000000">&lt; Equality &gt;</text>
</a>
</g>
</g>
<!-- Node8&#45;&gt;Node7 -->
<g id="edge2" class="edge">
<title>Node8&#45;&gt;Node7</title>
<path fill="none" stroke="#191970" d="M918.5336,-163.2975C952.1099,-154.0871 991.8355,-143.1898 1019.6472,-135.5606"/>
<polygon fill="#191970" stroke="#191970" points="917.5053,-159.9502 908.7875,-165.971 919.3572,-166.7008 917.5053,-159.9502"/>
</g>
<!-- Node9 -->
<g id="node4" class="node">
<title>Node9</title>
<g id="a_node4"><a xlink:href="a00794.html" target="_top" xlink:title="tasks::qp::Constraint">
<polygon fill="#ffffff" stroke="#000000" points="552.5,-203.5 552.5,-222.5 660.5,-222.5 660.5,-203.5 552.5,-203.5"/>
<text text-anchor="middle" x="606.5" y="-210.5" font-family="Helvetica,sans-Serif" font-size="10.00" fill="#000000">tasks::qp::Constraint</text>
</a>
</g>
</g>
<!-- Node9&#45;&gt;Node8 -->
<g id="edge3" class="edge">
<title>Node9&#45;&gt;Node8</title>
<path fill="none" stroke="#191970" d="M670.7102,-204.6981C704.4322,-200.3381 745.8986,-194.9767 780.8561,-190.457"/>
<polygon fill="#191970" stroke="#191970" points="669.9777,-201.2636 660.5091,-206.017 670.8754,-208.2058 669.9777,-201.2636"/>
</g>
<!-- Node10 -->
<g id="node5" class="node">
<title>Node10</title>
<polygon fill="#ffffff" stroke="#bfbfbf" points="590,-165.5 590,-184.5 623,-184.5 623,-165.5 590,-165.5"/>
<text text-anchor="middle" x="606.5" y="-172.5" font-family="Helvetica,sans-Serif" font-size="10.00" fill="#000000">Fun</text>
</g>
<!-- Node10&#45;&gt;Node8 -->
<g id="edge4" class="edge">
<title>Node10&#45;&gt;Node8</title>
<path fill="none" stroke="#191970" d="M633.4989,-175.6545C668.5977,-176.5054 731.2652,-178.0246 780.8443,-179.2265"/>
<polygon fill="#191970" stroke="#191970" points="633.2054,-172.1465 623.1235,-175.403 633.0357,-179.1444 633.2054,-172.1465"/>
</g>
<!-- Node11 -->
<g id="node6" class="node">
<title>Node11</title>
<g id="a_node6"><a xlink:href="a00706.html" target="_top" xlink:title="Manage modifier on contact constraint. ">
<polygon fill="#ffffff" stroke="#000000" points="790.5,-56 790.5,-86 917.5,-86 917.5,-56 790.5,-56"/>
<text text-anchor="start" x="798.5" y="-74" font-family="Helvetica,sans-Serif" font-size="10.00" fill="#000000">tasks::qp::ContactConstr</text>
<text text-anchor="middle" x="854" y="-63" font-family="Helvetica,sans-Serif" font-size="10.00" fill="#000000">Common</text>
</a>
</g>
</g>
<!-- Node11&#45;&gt;Node7 -->
<g id="edge5" class="edge">
<title>Node11&#45;&gt;Node7</title>
<path fill="none" stroke="#191970" d="M918.5336,-88.7025C952.1099,-97.9129 991.8355,-108.8102 1019.6472,-116.4394"/>
<polygon fill="#191970" stroke="#191970" points="919.3572,-85.2992 908.7875,-86.029 917.5053,-92.0498 919.3572,-85.2992"/>
</g>
<!-- Node12 -->
<g id="node7" class="node">
<title>Node12</title>
<polygon fill="#ffffff" stroke="#bfbfbf" points="557,-61 557,-91 656,-91 656,-61 557,-61"/>
<text text-anchor="start" x="565" y="-79" font-family="Helvetica,sans-Serif" font-size="10.00" fill="#000000">std::set&lt; tasks::qp</text>
<text text-anchor="middle" x="606.5" y="-68" font-family="Helvetica,sans-Serif" font-size="10.00" fill="#000000">::ContactId &gt;</text>
</g>
<!-- Node12&#45;&gt;Node11 -->
<g id="edge6" class="edge">
<title>Node12&#45;&gt;Node11</title>
<path fill="none" stroke="#9a32cd" stroke-dasharray="5,2" d="M666.5405,-74.7871C703.9574,-74.0312 752.0589,-73.0594 790.1677,-72.2895"/>
<polygon fill="#9a32cd" stroke="#9a32cd" points="666.2148,-71.2928 656.2876,-74.9942 666.3563,-78.2914 666.2148,-71.2928"/>
<text text-anchor="middle" x="725.5" y="-78" font-family="Helvetica,sans-Serif" font-size="10.00" fill="#000000"> virtualContacts_</text>
</g>
<!-- Node13 -->
<g id="node8" class="node">
<title>Node13</title>
<g id="a_node8"><a xlink:href="a00742.html" target="_top" xlink:title="Unique identifier for a contact. ">
<polygon fill="#ffffff" stroke="#000000" points="356.5,-57.5 356.5,-76.5 462.5,-76.5 462.5,-57.5 356.5,-57.5"/>
<text text-anchor="middle" x="409.5" y="-64.5" font-family="Helvetica,sans-Serif" font-size="10.00" fill="#000000">tasks::qp::ContactId</text>
</a>
</g>
</g>
<!-- Node13&#45;&gt;Node12 -->
<g id="edge7" class="edge">
<title>Node13&#45;&gt;Node12</title>
<path fill="none" stroke="#9a32cd" stroke-dasharray="5,2" d="M473.0424,-66.5332C489.9383,-66.687 508.1685,-67.1028 525,-68 535.3639,-68.5524 546.4443,-69.4403 556.9897,-70.4274"/>
<polygon fill="#9a32cd" stroke="#9a32cd" points="472.7406,-63.0313 462.7191,-66.4693 472.6972,-70.0312 472.7406,-63.0313"/>
<text text-anchor="middle" x="503" y="-71" font-family="Helvetica,sans-Serif" font-size="10.00" fill="#000000"> keys</text>
</g>
<!-- Node16 -->
<g id="node11" class="node">
<title>Node16</title>
<polygon fill="#ffffff" stroke="#bfbfbf" points="554.5,-.5 554.5,-41.5 658.5,-41.5 658.5,-.5 554.5,-.5"/>
<text text-anchor="start" x="562.5" y="-29.5" font-family="Helvetica,sans-Serif" font-size="10.00" fill="#000000">std::map&lt; tasks::qp</text>
<text text-anchor="start" x="562.5" y="-18.5" font-family="Helvetica,sans-Serif" font-size="10.00" fill="#000000">::ContactId, Eigen::</text>
<text text-anchor="middle" x="606.5" y="-7.5" font-family="Helvetica,sans-Serif" font-size="10.00" fill="#000000">MatrixXd &gt;</text>
</g>
<!-- Node13&#45;&gt;Node16 -->
<g id="edge11" class="edge">
<title>Node13&#45;&gt;Node16</title>
<path fill="none" stroke="#9a32cd" stroke-dasharray="5,2" d="M460.2246,-55.1557C489.152,-48.401 525.3339,-39.9525 554.4748,-33.148"/>
<polygon fill="#9a32cd" stroke="#9a32cd" points="459.2607,-51.7865 450.3185,-57.4688 460.8525,-58.6032 459.2607,-51.7865"/>
<text text-anchor="middle" x="503" y="-53" font-family="Helvetica,sans-Serif" font-size="10.00" fill="#000000"> keys</text>
</g>
<!-- Node18 -->
<g id="node13" class="node">
<title>Node18</title>
<g id="a_node13"><a xlink:href="a00722.html" target="_top" xlink:title="tasks::qp::ContactConstr\l::ContactData">
<polygon fill="#ffffff" stroke="#000000" points="543,-111 543,-141 670,-141 670,-111 543,-111"/>
<text text-anchor="start" x="551" y="-129" font-family="Helvetica,sans-Serif" font-size="10.00" fill="#000000">tasks::qp::ContactConstr</text>
<text text-anchor="middle" x="606.5" y="-118" font-family="Helvetica,sans-Serif" font-size="10.00" fill="#000000">::ContactData</text>
</a>
</g>
</g>
<!-- Node13&#45;&gt;Node18 -->
<g id="edge14" class="edge">
<title>Node13&#45;&gt;Node18</title>
<path fill="none" stroke="#9a32cd" stroke-dasharray="5,2" d="M451.5388,-79.5903C482.2084,-88.7756 523.9044,-101.2632 556.3197,-110.9714"/>
<polygon fill="#9a32cd" stroke="#9a32cd" points="452.1737,-76.1269 441.5899,-76.6107 450.1653,-82.8326 452.1737,-76.1269"/>
<text text-anchor="middle" x="503" y="-104" font-family="Helvetica,sans-Serif" font-size="10.00" fill="#000000"> contactId</text>
</g>
<!-- Node14 -->
<g id="node9" class="node">
<title>Node14</title>
<g id="a_node9"><a xlink:title="STL class. ">
<polygon fill="#ffffff" stroke="#bfbfbf" points="165.5,-57.5 165.5,-76.5 225.5,-76.5 225.5,-57.5 165.5,-57.5"/>
<text text-anchor="middle" x="195.5" y="-64.5" font-family="Helvetica,sans-Serif" font-size="10.00" fill="#000000">std::string</text>
</a>
</g>
</g>
<!-- Node14&#45;&gt;Node13 -->
<g id="edge8" class="edge">
<title>Node14&#45;&gt;Node13</title>
<path fill="none" stroke="#9a32cd" stroke-dasharray="5,2" d="M235.7762,-67C269.8734,-67 319.0143,-67 356.3369,-67"/>
<polygon fill="#9a32cd" stroke="#9a32cd" points="235.7071,-63.5001 225.7071,-67 235.7071,-70.5001 235.7071,-63.5001"/>
<text text-anchor="middle" x="307.5" y="-81" font-family="Helvetica,sans-Serif" font-size="10.00" fill="#000000"> r2BodyName</text>
<text text-anchor="middle" x="307.5" y="-70" font-family="Helvetica,sans-Serif" font-size="10.00" fill="#000000">r1BodyName</text>
</g>
<!-- Node15 -->
<g id="node10" class="node">
<title>Node15</title>
<g id="a_node10"><a xlink:title="STL class. ">
<polygon fill="#ffffff" stroke="#bfbfbf" points="0,-52 0,-82 95,-82 95,-52 0,-52"/>
<text text-anchor="start" x="8" y="-70" font-family="Helvetica,sans-Serif" font-size="10.00" fill="#000000">std::basic_string&lt;</text>
<text text-anchor="middle" x="47.5" y="-59" font-family="Helvetica,sans-Serif" font-size="10.00" fill="#000000"> char &gt;</text>
</a>
</g>
</g>
<!-- Node15&#45;&gt;Node14 -->
<g id="edge9" class="edge">
<title>Node15&#45;&gt;Node14</title>
<path fill="none" stroke="#191970" d="M105.3212,-67C125.7588,-67 147.9275,-67 165.1705,-67"/>
<polygon fill="#191970" stroke="#191970" points="105.1428,-63.5001 95.1428,-67 105.1428,-70.5001 105.1428,-63.5001"/>
</g>
<!-- Node16&#45;&gt;Node11 -->
<g id="edge10" class="edge">
<title>Node16&#45;&gt;Node11</title>
<path fill="none" stroke="#9a32cd" stroke-dasharray="5,2" d="M668.8894,-33.6039C706.0522,-41.1116 753.0992,-50.616 790.4629,-58.1642"/>
<polygon fill="#9a32cd" stroke="#9a32cd" points="669.181,-30.0922 658.686,-31.5426 667.7948,-36.9536 669.181,-30.0922"/>
<text text-anchor="middle" x="725.5" y="-55" font-family="Helvetica,sans-Serif" font-size="10.00" fill="#000000"> dofContacts_</text>
</g>
<!-- Node17 -->
<g id="node12" class="node">
<title>Node17</title>
<polygon fill="#ffffff" stroke="#bfbfbf" points="802.5,-105.5 802.5,-146.5 905.5,-146.5 905.5,-105.5 802.5,-105.5"/>
<text text-anchor="start" x="810.5" y="-134.5" font-family="Helvetica,sans-Serif" font-size="10.00" fill="#000000">std::vector&lt; tasks</text>
<text text-anchor="start" x="810.5" y="-123.5" font-family="Helvetica,sans-Serif" font-size="10.00" fill="#000000">::qp::ContactConstr</text>
<text text-anchor="middle" x="854" y="-112.5" font-family="Helvetica,sans-Serif" font-size="10.00" fill="#000000">::ContactData &gt;</text>
</g>
<!-- Node17&#45;&gt;Node7 -->
<g id="edge12" class="edge">
<title>Node17&#45;&gt;Node7</title>
<path fill="none" stroke="#9a32cd" stroke-dasharray="5,2" d="M915.95,-126C939.7371,-126 966.9102,-126 990.854,-126"/>
<polygon fill="#9a32cd" stroke="#9a32cd" points="915.6338,-122.5001 905.6337,-126 915.6337,-129.5001 915.6338,-122.5001"/>
<text text-anchor="middle" x="959" y="-129" font-family="Helvetica,sans-Serif" font-size="10.00" fill="#000000"> cont_</text>
</g>
<!-- Node18&#45;&gt;Node17 -->
<g id="edge13" class="edge">
<title>Node18&#45;&gt;Node17</title>
<path fill="none" stroke="#9a32cd" stroke-dasharray="5,2" d="M680.2876,-126C719.5242,-126 766.814,-126 802.1394,-126"/>
<polygon fill="#9a32cd" stroke="#9a32cd" points="680.2374,-122.5001 670.2374,-126 680.2374,-129.5001 680.2374,-122.5001"/>
<text text-anchor="middle" x="725.5" y="-129" font-family="Helvetica,sans-Serif" font-size="10.00" fill="#000000"> elements</text>
</g>
<!-- Node19 -->
<g id="node14" class="node">
<title>Node19</title>
<polygon fill="#ffffff" stroke="#bfbfbf" points="356,-114.5 356,-155.5 463,-155.5 463,-114.5 356,-114.5"/>
<text text-anchor="start" x="364" y="-143.5" font-family="Helvetica,sans-Serif" font-size="10.00" fill="#000000">std::vector&lt; tasks</text>
<text text-anchor="start" x="364" y="-132.5" font-family="Helvetica,sans-Serif" font-size="10.00" fill="#000000">::qp::ContactConstr</text>
<text text-anchor="middle" x="409.5" y="-121.5" font-family="Helvetica,sans-Serif" font-size="10.00" fill="#000000">::ContactSideData &gt;</text>
</g>
<!-- Node19&#45;&gt;Node18 -->
<g id="edge15" class="edge">
<title>Node19&#45;&gt;Node18</title>
<path fill="none" stroke="#9a32cd" stroke-dasharray="5,2" d="M473.1089,-132.094C495.4192,-131.0748 520.472,-129.9302 542.7906,-128.9106"/>
<polygon fill="#9a32cd" stroke="#9a32cd" points="472.9007,-128.5998 463.0709,-132.5526 473.2202,-135.5925 472.9007,-128.5998"/>
<text text-anchor="middle" x="503" y="-134" font-family="Helvetica,sans-Serif" font-size="10.00" fill="#000000"> contacts</text>
</g>
<!-- Node20 -->
<g id="node15" class="node">
<title>Node20</title>
<g id="a_node15"><a xlink:href="a00718.html" target="_top" xlink:title="tasks::qp::ContactConstr\l::ContactSideData">
<polygon fill="#ffffff" stroke="#000000" points="132,-120 132,-150 259,-150 259,-120 132,-120"/>
<text text-anchor="start" x="140" y="-138" font-family="Helvetica,sans-Serif" font-size="10.00" fill="#000000">tasks::qp::ContactConstr</text>
<text text-anchor="middle" x="195.5" y="-127" font-family="Helvetica,sans-Serif" font-size="10.00" fill="#000000">::ContactSideData</text>
</a>
</g>
</g>
<!-- Node20&#45;&gt;Node19 -->
<g id="edge16" class="edge">
<title>Node20&#45;&gt;Node19</title>
<path fill="none" stroke="#9a32cd" stroke-dasharray="5,2" d="M269.4245,-135C297.8433,-135 329.7144,-135 355.8677,-135"/>
<polygon fill="#9a32cd" stroke="#9a32cd" points="269.1277,-131.5001 259.1277,-135 269.1276,-138.5001 269.1277,-131.5001"/>
<text text-anchor="middle" x="307.5" y="-138" font-family="Helvetica,sans-Serif" font-size="10.00" fill="#000000"> elements</text>
</g>
</g>
</svg>
