<?xml version="1.0" encoding="UTF-8" standalone="no"?>
<!DOCTYPE svg PUBLIC "-//W3C//DTD SVG 1.1//EN"
 "http://www.w3.org/Graphics/SVG/1.1/DTD/svg11.dtd">
<!-- Generated by graphviz version 2.40.1 (20161225.0304)
 -->
<!-- Title: tasks::qp::UnilateralContact Pages: 1 -->
<svg width="328pt" height="265pt"
 viewBox="0.00 0.00 327.50 265.00" xmlns="http://www.w3.org/2000/svg" xmlns:xlink="http://www.w3.org/1999/xlink">
<g id="graph0" class="graph" transform="scale(1 1) rotate(0) translate(4 261)">
<title>tasks::qp::UnilateralContact</title>
<polygon fill="#ffffff" stroke="transparent" points="-4,4 -4,-261 323.5,-261 323.5,4 -4,4"/>
<!-- Node1 -->
<g id="node1" class="node">
<title>Node1</title>
<polygon fill="#bfbfbf" stroke="#000000" points="72.5,-.5 72.5,-19.5 211.5,-19.5 211.5,-.5 72.5,-.5"/>
<text text-anchor="middle" x="142" y="-7.5" font-family="Helvetica,sans-Serif" font-size="10.00" fill="#000000">tasks::qp::UnilateralContact</text>
</g>
<!-- Node2 -->
<g id="node2" class="node">
<title>Node2</title>
<g id="a_node2"><a xlink:href="a00742.html" target="_top" xlink:title="Unique identifier for a contact. ">
<polygon fill="#ffffff" stroke="#000000" points="0,-79.5 0,-98.5 106,-98.5 106,-79.5 0,-79.5"/>
<text text-anchor="middle" x="53" y="-86.5" font-family="Helvetica,sans-Serif" font-size="10.00" fill="#000000">tasks::qp::ContactId</text>
</a>
</g>
</g>
<!-- Node2&#45;&gt;Node1 -->
<g id="edge1" class="edge">
<title>Node2&#45;&gt;Node1</title>
<path fill="none" stroke="#9a32cd" stroke-dasharray="5,2" d="M61.2211,-70.0168C66.5141,-59.5286 74.2335,-46.8675 84,-38 92.6094,-30.183 103.7959,-24.0963 114.0448,-19.624"/>
<polygon fill="#9a32cd" stroke="#9a32cd" points="57.9856,-68.6728 56.9023,-79.2121 64.3216,-71.6487 57.9856,-68.6728"/>
<text text-anchor="middle" x="106" y="-46.5" font-family="Helvetica,sans-Serif" font-size="10.00" fill="#000000"> contactId</text>
</g>
<!-- Node3 -->
<g id="node3" class="node">
<title>Node3</title>
<g id="a_node3"><a xlink:title="STL class. ">
<polygon fill="#ffffff" stroke="#bfbfbf" points="23,-164 23,-183 83,-183 83,-164 23,-164"/>
<text text-anchor="middle" x="53" y="-171" font-family="Helvetica,sans-Serif" font-size="10.00" fill="#000000">std::string</text>
</a>
</g>
</g>
<!-- Node3&#45;&gt;Node2 -->
<g id="edge2" class="edge">
<title>Node3&#45;&gt;Node2</title>
<path fill="none" stroke="#9a32cd" stroke-dasharray="5,2" d="M53,-153.6221C53,-136.2864 53,-111.8886 53,-98.5802"/>
<polygon fill="#9a32cd" stroke="#9a32cd" points="49.5001,-153.8067 53,-163.8068 56.5001,-153.8068 49.5001,-153.8067"/>
<text text-anchor="middle" x="83.5" y="-132" font-family="Helvetica,sans-Serif" font-size="10.00" fill="#000000"> r2BodyName</text>
<text text-anchor="middle" x="83.5" y="-121" font-family="Helvetica,sans-Serif" font-size="10.00" fill="#000000">r1BodyName</text>
</g>
<!-- Node4 -->
<g id="node4" class="node">
<title>Node4</title>
<g id="a_node4"><a xlink:title="STL class. ">
<polygon fill="#ffffff" stroke="#bfbfbf" points="5.5,-226.5 5.5,-256.5 100.5,-256.5 100.5,-226.5 5.5,-226.5"/>
<text text-anchor="start" x="13.5" y="-244.5" font-family="Helvetica,sans-Serif" font-size="10.00" fill="#000000">std::basic_string&lt;</text>
<text text-anchor="middle" x="53" y="-233.5" font-family="Helvetica,sans-Serif" font-size="10.00" fill="#000000"> char &gt;</text>
</a>
</g>
</g>
<!-- Node4&#45;&gt;Node3 -->
<g id="edge3" class="edge">
<title>Node4&#45;&gt;Node3</title>
<path fill="none" stroke="#191970" d="M53,-216.0669C53,-204.6483 53,-191.8507 53,-183.297"/>
<polygon fill="#191970" stroke="#191970" points="49.5001,-216.4086 53,-226.4086 56.5001,-216.4086 49.5001,-216.4086"/>
</g>
<!-- Node5 -->
<g id="node5" class="node">
<title>Node5</title>
<g id="a_node5"><a xlink:href="a00738.html" target="_top" xlink:title="Linearized friction cone generator. ">
<polygon fill="#ffffff" stroke="#000000" points="200.5,-79.5 200.5,-98.5 319.5,-98.5 319.5,-79.5 200.5,-79.5"/>
<text text-anchor="middle" x="260" y="-86.5" font-family="Helvetica,sans-Serif" font-size="10.00" fill="#000000">tasks::qp::FrictionCone</text>
</a>
</g>
</g>
<!-- Node5&#45;&gt;Node1 -->
<g id="edge4" class="edge">
<title>Node5&#45;&gt;Node1</title>
<path fill="none" stroke="#9a32cd" stroke-dasharray="5,2" d="M237.0397,-73.6283C213.0817,-57.5886 176.2715,-32.9445 156.2189,-19.5194"/>
<polygon fill="#9a32cd" stroke="#9a32cd" points="235.2741,-76.6581 245.5309,-79.313 239.1684,-70.8414 235.2741,-76.6581"/>
<text text-anchor="middle" x="232.5" y="-52" font-family="Helvetica,sans-Serif" font-size="10.00" fill="#000000"> r1Cone</text>
<text text-anchor="middle" x="232.5" y="-41" font-family="Helvetica,sans-Serif" font-size="10.00" fill="#000000">r2Cone</text>
</g>
<!-- Node6 -->
<g id="node6" class="node">
<title>Node6</title>
<polygon fill="#ffffff" stroke="#bfbfbf" points="113.5,-158.5 113.5,-188.5 210.5,-188.5 210.5,-158.5 113.5,-158.5"/>
<text text-anchor="start" x="121.5" y="-176.5" font-family="Helvetica,sans-Serif" font-size="10.00" fill="#000000">std::vector&lt; Eigen</text>
<text text-anchor="middle" x="162" y="-165.5" font-family="Helvetica,sans-Serif" font-size="10.00" fill="#000000">::Vector3d &gt;</text>
</g>
<!-- Node6&#45;&gt;Node1 -->
<g id="edge6" class="edge">
<title>Node6&#45;&gt;Node1</title>
<path fill="none" stroke="#9a32cd" stroke-dasharray="5,2" d="M157.9231,-148.3372C155.7047,-134.1626 153.0111,-116.1201 151,-100 147.3648,-70.8614 144.2382,-36.2699 142.8168,-19.7397"/>
<polygon fill="#9a32cd" stroke="#9a32cd" points="154.4842,-148.9987 159.5077,-158.3268 161.3977,-147.902 154.4842,-148.9987"/>
<text text-anchor="middle" x="171" y="-92" font-family="Helvetica,sans-Serif" font-size="10.00" fill="#000000"> r1Points</text>
<text text-anchor="middle" x="171" y="-81" font-family="Helvetica,sans-Serif" font-size="10.00" fill="#000000">r2Points</text>
</g>
<!-- Node6&#45;&gt;Node5 -->
<g id="edge5" class="edge">
<title>Node6&#45;&gt;Node5</title>
<path fill="none" stroke="#9a32cd" stroke-dasharray="5,2" d="M187.2878,-151.6957C207.1405,-134.5778 233.8361,-111.5597 248.7372,-98.7113"/>
<polygon fill="#9a32cd" stroke="#9a32cd" points="184.8083,-149.2122 179.5204,-158.3931 189.3795,-154.5136 184.8083,-149.2122"/>
<text text-anchor="middle" x="249.5" y="-126.5" font-family="Helvetica,sans-Serif" font-size="10.00" fill="#000000"> generators</text>
</g>
</g>
</svg>
