<?xml version="1.0" encoding="UTF-8" standalone="no"?>
<!DOCTYPE svg PUBLIC "-//W3C//DTD SVG 1.1//EN"
 "http://www.w3.org/Graphics/SVG/1.1/DTD/svg11.dtd">
<!-- Generated by graphviz version 2.40.1 (20161225.0304)
 -->
<!-- Title: tasks::qp::MotionSpringConstr Pages: 1 -->
<svg width="1269pt" height="148pt"
 viewBox="0.00 0.00 1269.00 147.50" xmlns="http://www.w3.org/2000/svg" xmlns:xlink="http://www.w3.org/1999/xlink">
<g id="graph0" class="graph" transform="scale(1 1) rotate(0) translate(4 143.5)">
<title>tasks::qp::MotionSpringConstr</title>
<polygon fill="#ffffff" stroke="transparent" points="-4,4 -4,-143.5 1265,-143.5 1265,4 -4,4"/>
<!-- Node6 -->
<g id="node1" class="node">
<title>Node6</title>
<polygon fill="#bfbfbf" stroke="#000000" points="1112,-39 1112,-58 1261,-58 1261,-39 1112,-39"/>
<text text-anchor="middle" x="1186.5" y="-46" font-family="Helvetica,sans-Serif" font-size="10.00" fill="#000000">tasks::qp::MotionSpringConstr</text>
</g>
<!-- Node7 -->
<g id="node2" class="node">
<title>Node7</title>
<g id="a_node2"><a xlink:href="a00770.html" target="_top" xlink:title="tasks::qp::MotionConstr">
<polygon fill="#ffffff" stroke="#000000" points="912.5,-64 912.5,-83 1034.5,-83 1034.5,-64 912.5,-64"/>
<text text-anchor="middle" x="973.5" y="-71" font-family="Helvetica,sans-Serif" font-size="10.00" fill="#000000">tasks::qp::MotionConstr</text>
</a>
</g>
</g>
<!-- Node7&#45;&gt;Node6 -->
<g id="edge1" class="edge">
<title>Node7&#45;&gt;Node6</title>
<path fill="none" stroke="#191970" d="M1044.6176,-65.1529C1066.2161,-62.6178 1090.005,-59.8257 1111.83,-57.2641"/>
<polygon fill="#191970" stroke="#191970" points="1044.061,-61.6941 1034.5373,-66.336 1044.8771,-68.6463 1044.061,-61.6941"/>
</g>
<!-- Node8 -->
<g id="node3" class="node">
<title>Node8</title>
<g id="a_node3"><a xlink:href="a00762.html" target="_top" xlink:title="tasks::qp::MotionConstrCommon">
<polygon fill="#ffffff" stroke="#000000" points="671,-64 671,-83 832,-83 832,-64 671,-64"/>
<text text-anchor="middle" x="751.5" y="-71" font-family="Helvetica,sans-Serif" font-size="10.00" fill="#000000">tasks::qp::MotionConstrCommon</text>
</a>
</g>
</g>
<!-- Node8&#45;&gt;Node7 -->
<g id="edge2" class="edge">
<title>Node8&#45;&gt;Node7</title>
<path fill="none" stroke="#191970" d="M842.2805,-73.5C865.8362,-73.5 890.6492,-73.5 912.2809,-73.5"/>
<polygon fill="#191970" stroke="#191970" points="842.2751,-70.0001 832.2751,-73.5 842.2751,-77.0001 842.2751,-70.0001"/>
</g>
<!-- Node9 -->
<g id="node4" class="node">
<title>Node9</title>
<g id="a_node4"><a xlink:href="a00798.html" target="_top" xlink:title="tasks::qp::ConstraintFunction\l\&lt; GenInequality \&gt;">
<polygon fill="#ffffff" stroke="#000000" points="461,-82.5 461,-112.5 607,-112.5 607,-82.5 461,-82.5"/>
<text text-anchor="start" x="469" y="-100.5" font-family="Helvetica,sans-Serif" font-size="10.00" fill="#000000">tasks::qp::ConstraintFunction</text>
<text text-anchor="middle" x="534" y="-89.5" font-family="Helvetica,sans-Serif" font-size="10.00" fill="#000000">&lt; GenInequality &gt;</text>
</a>
</g>
</g>
<!-- Node9&#45;&gt;Node8 -->
<g id="edge3" class="edge">
<title>Node9&#45;&gt;Node8</title>
<path fill="none" stroke="#191970" d="M617.2511,-88.3137C634.8218,-86.3748 653.3336,-84.3322 670.808,-82.4039"/>
<polygon fill="#191970" stroke="#191970" points="616.5852,-84.8658 607.0294,-89.4416 617.353,-91.8236 616.5852,-84.8658"/>
</g>
<!-- Node10 -->
<g id="node5" class="node">
<title>Node10</title>
<g id="a_node5"><a xlink:href="a00794.html" target="_top" xlink:title="tasks::qp::Constraint">
<polygon fill="#ffffff" stroke="#000000" points="247.5,-120 247.5,-139 355.5,-139 355.5,-120 247.5,-120"/>
<text text-anchor="middle" x="301.5" y="-127" font-family="Helvetica,sans-Serif" font-size="10.00" fill="#000000">tasks::qp::Constraint</text>
</a>
</g>
</g>
<!-- Node10&#45;&gt;Node9 -->
<g id="edge4" class="edge">
<title>Node10&#45;&gt;Node9</title>
<path fill="none" stroke="#191970" d="M365.8757,-120.6397C395.2993,-116.59 430.3004,-111.7726 460.7291,-107.5846"/>
<polygon fill="#191970" stroke="#191970" points="365.1469,-117.2069 355.7175,-122.0378 366.1014,-124.1415 365.1469,-117.2069"/>
</g>
<!-- Node11 -->
<g id="node6" class="node">
<title>Node11</title>
<polygon fill="#ffffff" stroke="#bfbfbf" points="285,-82 285,-101 318,-101 318,-82 285,-82"/>
<text text-anchor="middle" x="301.5" y="-89" font-family="Helvetica,sans-Serif" font-size="10.00" fill="#000000">Fun</text>
</g>
<!-- Node11&#45;&gt;Node9 -->
<g id="edge5" class="edge">
<title>Node11&#45;&gt;Node9</title>
<path fill="none" stroke="#191970" d="M328.6033,-92.1994C360.7982,-93.0303 415.8079,-94.4499 460.7995,-95.611"/>
<polygon fill="#191970" stroke="#191970" points="328.3078,-88.6907 318.2208,-91.9315 328.1272,-95.6884 328.3078,-88.6907"/>
</g>
<!-- Node12 -->
<g id="node7" class="node">
<title>Node12</title>
<polygon fill="#ffffff" stroke="#bfbfbf" points="465.5,-22 465.5,-63 602.5,-63 602.5,-22 465.5,-22"/>
<text text-anchor="start" x="473.5" y="-51" font-family="Helvetica,sans-Serif" font-size="10.00" fill="#000000">std::vector&lt; tasks</text>
<text text-anchor="start" x="473.5" y="-40" font-family="Helvetica,sans-Serif" font-size="10.00" fill="#000000">::qp::MotionConstrCommon</text>
<text text-anchor="middle" x="534" y="-29" font-family="Helvetica,sans-Serif" font-size="10.00" fill="#000000">::ContactData &gt;</text>
</g>
<!-- Node12&#45;&gt;Node8 -->
<g id="edge6" class="edge">
<title>Node12&#45;&gt;Node8</title>
<path fill="none" stroke="#9a32cd" stroke-dasharray="5,2" d="M612.5287,-53.6926C636.2136,-57.0684 661.9759,-60.7403 684.8128,-63.9952"/>
<polygon fill="#9a32cd" stroke="#9a32cd" points="612.9137,-50.2122 602.5198,-52.266 611.9259,-57.1421 612.9137,-50.2122"/>
<text text-anchor="middle" x="639" y="-61.5" font-family="Helvetica,sans-Serif" font-size="10.00" fill="#000000"> cont_</text>
</g>
<!-- Node13 -->
<g id="node8" class="node">
<title>Node13</title>
<g id="a_node8"><a xlink:href="a00766.html" target="_top" xlink:title="tasks::qp::MotionConstrCommon\l::ContactData">
<polygon fill="#ffffff" stroke="#000000" points="221,-27.5 221,-57.5 382,-57.5 382,-27.5 221,-27.5"/>
<text text-anchor="start" x="229" y="-45.5" font-family="Helvetica,sans-Serif" font-size="10.00" fill="#000000">tasks::qp::MotionConstrCommon</text>
<text text-anchor="middle" x="301.5" y="-34.5" font-family="Helvetica,sans-Serif" font-size="10.00" fill="#000000">::ContactData</text>
</a>
</g>
</g>
<!-- Node13&#45;&gt;Node12 -->
<g id="edge7" class="edge">
<title>Node13&#45;&gt;Node12</title>
<path fill="none" stroke="#9a32cd" stroke-dasharray="5,2" d="M392.4668,-42.5C416.7568,-42.5 442.5945,-42.5 465.4545,-42.5"/>
<polygon fill="#9a32cd" stroke="#9a32cd" points="392.1647,-39.0001 382.1647,-42.5 392.1647,-46.0001 392.1647,-39.0001"/>
<text text-anchor="middle" x="421.5" y="-45.5" font-family="Helvetica,sans-Serif" font-size="10.00" fill="#000000"> elements</text>
</g>
<!-- Node14 -->
<g id="node9" class="node">
<title>Node14</title>
<polygon fill="#ffffff" stroke="#bfbfbf" points="0,-50 0,-91 107,-91 107,-50 0,-50"/>
<text text-anchor="start" x="8" y="-79" font-family="Helvetica,sans-Serif" font-size="10.00" fill="#000000">std::vector&lt; Eigen</text>
<text text-anchor="start" x="8" y="-68" font-family="Helvetica,sans-Serif" font-size="10.00" fill="#000000">::Matrix&lt; double, 3,</text>
<text text-anchor="middle" x="53.5" y="-57" font-family="Helvetica,sans-Serif" font-size="10.00" fill="#000000"> Eigen::Dynamic &gt; &gt;</text>
</g>
<!-- Node14&#45;&gt;Node13 -->
<g id="edge8" class="edge">
<title>Node14&#45;&gt;Node13</title>
<path fill="none" stroke="#9a32cd" stroke-dasharray="5,2" d="M117.0005,-63.3306C148.5768,-59.7655 187.0861,-55.4177 220.7385,-51.6182"/>
<polygon fill="#9a32cd" stroke="#9a32cd" points="116.5512,-59.859 107.007,-64.4589 117.3365,-66.8148 116.5512,-59.859"/>
<text text-anchor="middle" x="164" y="-64.5" font-family="Helvetica,sans-Serif" font-size="10.00" fill="#000000"> minusGenerators</text>
</g>
<!-- Node15 -->
<g id="node10" class="node">
<title>Node15</title>
<polygon fill="#ffffff" stroke="#bfbfbf" points="5,-.5 5,-30.5 102,-30.5 102,-.5 5,-.5"/>
<text text-anchor="start" x="13" y="-18.5" font-family="Helvetica,sans-Serif" font-size="10.00" fill="#000000">std::vector&lt; Eigen</text>
<text text-anchor="middle" x="53.5" y="-7.5" font-family="Helvetica,sans-Serif" font-size="10.00" fill="#000000">::Vector3d &gt;</text>
</g>
<!-- Node15&#45;&gt;Node13 -->
<g id="edge9" class="edge">
<title>Node15&#45;&gt;Node13</title>
<path fill="none" stroke="#9a32cd" stroke-dasharray="5,2" d="M112.4028,-21.9128C144.7716,-25.4368 185.4006,-29.8601 220.6943,-33.7026"/>
<polygon fill="#9a32cd" stroke="#9a32cd" points="112.521,-18.4051 102.2009,-20.8021 111.7633,-25.364 112.521,-18.4051"/>
<text text-anchor="middle" x="164" y="-34.5" font-family="Helvetica,sans-Serif" font-size="10.00" fill="#000000"> points</text>
</g>
<!-- Node16 -->
<g id="node11" class="node">
<title>Node16</title>
<polygon fill="#ffffff" stroke="#bfbfbf" points="911,-4 911,-45 1036,-45 1036,-4 911,-4"/>
<text text-anchor="start" x="919" y="-33" font-family="Helvetica,sans-Serif" font-size="10.00" fill="#000000">std::vector&lt; tasks</text>
<text text-anchor="start" x="919" y="-22" font-family="Helvetica,sans-Serif" font-size="10.00" fill="#000000">::qp::MotionSpringConstr</text>
<text text-anchor="middle" x="973.5" y="-11" font-family="Helvetica,sans-Serif" font-size="10.00" fill="#000000">::SpringJointData &gt;</text>
</g>
<!-- Node16&#45;&gt;Node6 -->
<g id="edge10" class="edge">
<title>Node16&#45;&gt;Node6</title>
<path fill="none" stroke="#9a32cd" stroke-dasharray="5,2" d="M1046.4372,-32.7183C1067.5329,-35.0953 1090.5856,-37.6927 1111.7879,-40.0817"/>
<polygon fill="#9a32cd" stroke="#9a32cd" points="1046.584,-29.2128 1036.255,-31.571 1045.8002,-36.1687 1046.584,-29.2128"/>
<text text-anchor="middle" x="1074" y="-41.5" font-family="Helvetica,sans-Serif" font-size="10.00" fill="#000000"> springs_</text>
</g>
<!-- Node17 -->
<g id="node12" class="node">
<title>Node17</title>
<g id="a_node12"><a xlink:href="a00782.html" target="_top" xlink:title="tasks::qp::MotionSpringConstr\l::SpringJointData">
<polygon fill="#ffffff" stroke="#000000" points="677,-9.5 677,-39.5 826,-39.5 826,-9.5 677,-9.5"/>
<text text-anchor="start" x="685" y="-27.5" font-family="Helvetica,sans-Serif" font-size="10.00" fill="#000000">tasks::qp::MotionSpringConstr</text>
<text text-anchor="middle" x="751.5" y="-16.5" font-family="Helvetica,sans-Serif" font-size="10.00" fill="#000000">::SpringJointData</text>
</a>
</g>
</g>
<!-- Node17&#45;&gt;Node16 -->
<g id="edge11" class="edge">
<title>Node17&#45;&gt;Node16</title>
<path fill="none" stroke="#9a32cd" stroke-dasharray="5,2" d="M836.1964,-24.5C861.0591,-24.5 887.7899,-24.5 910.9994,-24.5"/>
<polygon fill="#9a32cd" stroke="#9a32cd" points="836.0404,-21.0001 826.0404,-24.5 836.0403,-28.0001 836.0404,-21.0001"/>
<text text-anchor="middle" x="871.5" y="-27.5" font-family="Helvetica,sans-Serif" font-size="10.00" fill="#000000"> elements</text>
</g>
</g>
</svg>
