<?xml version="1.0" encoding="UTF-8" standalone="no"?>
<!DOCTYPE svg PUBLIC "-//W3C//DTD SVG 1.1//EN"
 "http://www.w3.org/Graphics/SVG/1.1/DTD/svg11.dtd">
<!-- Generated by graphviz version 2.40.1 (20161225.0304)
 -->
<!-- Title: tasks::qp::SpringJoint Pages: 1 -->
<svg width="120pt" height="163pt"
 viewBox="0.00 0.00 120.00 163.00" xmlns="http://www.w3.org/2000/svg" xmlns:xlink="http://www.w3.org/1999/xlink">
<g id="graph0" class="graph" transform="scale(1 1) rotate(0) translate(4 159)">
<title>tasks::qp::SpringJoint</title>
<polygon fill="#ffffff" stroke="transparent" points="-4,4 -4,-159 116,-159 116,4 -4,4"/>
<!-- Node1 -->
<g id="node1" class="node">
<title>Node1</title>
<polygon fill="#bfbfbf" stroke="#000000" points="0,-.5 0,-19.5 112,-19.5 112,-.5 0,-.5"/>
<text text-anchor="middle" x="56" y="-7.5" font-family="Helvetica,sans-Serif" font-size="10.00" fill="#000000">tasks::qp::SpringJoint</text>
</g>
<!-- Node2 -->
<g id="node2" class="node">
<title>Node2</title>
<g id="a_node2"><a xlink:title="STL class. ">
<polygon fill="#ffffff" stroke="#bfbfbf" points="26,-67.5 26,-86.5 86,-86.5 86,-67.5 26,-67.5"/>
<text text-anchor="middle" x="56" y="-74.5" font-family="Helvetica,sans-Serif" font-size="10.00" fill="#000000">std::string</text>
</a>
</g>
</g>
<!-- Node2&#45;&gt;Node1 -->
<g id="edge1" class="edge">
<title>Node2&#45;&gt;Node1</title>
<path fill="none" stroke="#9a32cd" stroke-dasharray="5,2" d="M56,-57.1079C56,-44.714 56,-29.3263 56,-19.5817"/>
<polygon fill="#9a32cd" stroke="#9a32cd" points="52.5001,-57.4005 56,-67.4005 59.5001,-57.4006 52.5001,-57.4005"/>
<text text-anchor="middle" x="80" y="-41" font-family="Helvetica,sans-Serif" font-size="10.00" fill="#000000"> jointName</text>
</g>
<!-- Node3 -->
<g id="node3" class="node">
<title>Node3</title>
<g id="a_node3"><a xlink:title="STL class. ">
<polygon fill="#ffffff" stroke="#bfbfbf" points="8.5,-124.5 8.5,-154.5 103.5,-154.5 103.5,-124.5 8.5,-124.5"/>
<text text-anchor="start" x="16.5" y="-142.5" font-family="Helvetica,sans-Serif" font-size="10.00" fill="#000000">std::basic_string&lt;</text>
<text text-anchor="middle" x="56" y="-131.5" font-family="Helvetica,sans-Serif" font-size="10.00" fill="#000000"> char &gt;</text>
</a>
</g>
</g>
<!-- Node3&#45;&gt;Node2 -->
<g id="edge2" class="edge">
<title>Node3&#45;&gt;Node2</title>
<path fill="none" stroke="#191970" d="M56,-114.3498C56,-104.6481 56,-94.1303 56,-86.7356"/>
<polygon fill="#191970" stroke="#191970" points="52.5001,-114.3705 56,-124.3705 59.5001,-114.3705 52.5001,-114.3705"/>
</g>
</g>
</svg>
