<?xml version="1.0" encoding="UTF-8" standalone="no"?>
<!DOCTYPE svg PUBLIC "-//W3C//DTD SVG 1.1//EN"
 "http://www.w3.org/Graphics/SVG/1.1/DTD/svg11.dtd">
<!-- Generated by graphviz version 2.40.1 (20161225.0304)
 -->
<!-- Title: tasks::qp::ConstraintFunction&lt; Fun &gt; Pages: 1 -->
<svg width="179pt" height="95pt"
 viewBox="0.00 0.00 179.00 95.00" xmlns="http://www.w3.org/2000/svg" xmlns:xlink="http://www.w3.org/1999/xlink">
<g id="graph0" class="graph" transform="scale(1 1) rotate(0) translate(4 91)">
<title>tasks::qp::ConstraintFunction&lt; Fun &gt;</title>
<polygon fill="#ffffff" stroke="transparent" points="-4,4 -4,-91 175,-91 175,4 -4,4"/>
<!-- Node3 -->
<g id="node1" class="node">
<title>Node3</title>
<polygon fill="#bfbfbf" stroke="#000000" points="25,-.5 25,-30.5 171,-30.5 171,-.5 25,-.5"/>
<text text-anchor="start" x="33" y="-18.5" font-family="Helvetica,sans-Serif" font-size="10.00" fill="#000000">tasks::qp::ConstraintFunction</text>
<text text-anchor="middle" x="98" y="-7.5" font-family="Helvetica,sans-Serif" font-size="10.00" fill="#000000">&lt; Fun &gt;</text>
</g>
<!-- Node4 -->
<g id="node2" class="node">
<title>Node4</title>
<g id="a_node2"><a xlink:href="a00851.html" target="_top" xlink:title="tasks::qp::Constraint">
<polygon fill="#ffffff" stroke="#000000" points="0,-67.5 0,-86.5 108,-86.5 108,-67.5 0,-67.5"/>
<text text-anchor="middle" x="54" y="-74.5" font-family="Helvetica,sans-Serif" font-size="10.00" fill="#000000">tasks::qp::Constraint</text>
</a>
</g>
</g>
<!-- Node4&#45;&gt;Node3 -->
<g id="edge1" class="edge">
<title>Node4&#45;&gt;Node3</title>
<path fill="none" stroke="#191970" d="M66.8153,-59.0877C73.2951,-50.0307 81.0706,-39.1627 87.2364,-30.5446"/>
<polygon fill="#191970" stroke="#191970" points="63.8472,-57.2212 60.875,-67.3906 69.5402,-61.2943 63.8472,-57.2212"/>
</g>
<!-- Node5 -->
<g id="node3" class="node">
<title>Node5</title>
<polygon fill="#ffffff" stroke="#bfbfbf" points="126.5,-67.5 126.5,-86.5 159.5,-86.5 159.5,-67.5 126.5,-67.5"/>
<text text-anchor="middle" x="143" y="-74.5" font-family="Helvetica,sans-Serif" font-size="10.00" fill="#000000">Fun</text>
</g>
<!-- Node5&#45;&gt;Node3 -->
<g id="edge2" class="edge">
<title>Node5&#45;&gt;Node3</title>
<path fill="none" stroke="#191970" d="M129.8934,-59.0877C123.2664,-50.0307 115.3142,-39.1627 109.0082,-30.5446"/>
<polygon fill="#191970" stroke="#191970" points="127.239,-61.3871 135.9688,-67.3906 132.8882,-57.2535 127.239,-61.3871"/>
</g>
</g>
</svg>
