<?xml version="1.0" encoding="UTF-8" standalone="no"?>
<!DOCTYPE svg PUBLIC "-//W3C//DTD SVG 1.1//EN"
 "http://www.w3.org/Graphics/SVG/1.1/DTD/svg11.dtd">
<!-- Generated by graphviz version 2.40.1 (20161225.0304)
 -->
<!-- Title: tasks::qp::TrajectoryTask Pages: 1 -->
<svg width="240pt" height="152pt"
 viewBox="0.00 0.00 239.50 152.00" xmlns="http://www.w3.org/2000/svg" xmlns:xlink="http://www.w3.org/1999/xlink">
<g id="graph0" class="graph" transform="scale(1 1) rotate(0) translate(4 148)">
<title>tasks::qp::TrajectoryTask</title>
<polygon fill="#ffffff" stroke="transparent" points="-4,4 -4,-148 235.5,-148 235.5,4 -4,4"/>
<!-- Node3 -->
<g id="node1" class="node">
<title>Node3</title>
<polygon fill="#bfbfbf" stroke="#000000" points="40.5,-.5 40.5,-19.5 168.5,-19.5 168.5,-.5 40.5,-.5"/>
<text text-anchor="middle" x="104.5" y="-7.5" font-family="Helvetica,sans-Serif" font-size="10.00" fill="#000000">tasks::qp::TrajectoryTask</text>
</g>
<!-- Node4 -->
<g id="node2" class="node">
<title>Node4</title>
<g id="a_node2"><a xlink:href="a00846.html" target="_top" xlink:title="tasks::qp::SetPointTaskCommon">
<polygon fill="#ffffff" stroke="#000000" points="23.5,-57.5 23.5,-76.5 185.5,-76.5 185.5,-57.5 23.5,-57.5"/>
<text text-anchor="middle" x="104.5" y="-64.5" font-family="Helvetica,sans-Serif" font-size="10.00" fill="#000000">tasks::qp::SetPointTaskCommon</text>
</a>
</g>
</g>
<!-- Node4&#45;&gt;Node3 -->
<g id="edge1" class="edge">
<title>Node4&#45;&gt;Node3</title>
<path fill="none" stroke="#191970" d="M104.5,-47.2342C104.5,-37.8491 104.5,-27.0651 104.5,-19.5265"/>
<polygon fill="#191970" stroke="#191970" points="101.0001,-47.3307 104.5,-57.3307 108.0001,-47.3308 101.0001,-47.3307"/>
</g>
<!-- Node5 -->
<g id="node3" class="node">
<title>Node5</title>
<g id="a_node3"><a xlink:href="a00818.html" target="_top" xlink:title="tasks::qp::Task">
<polygon fill="#ffffff" stroke="#000000" points="0,-124.5 0,-143.5 85,-143.5 85,-124.5 0,-124.5"/>
<text text-anchor="middle" x="42.5" y="-131.5" font-family="Helvetica,sans-Serif" font-size="10.00" fill="#000000">tasks::qp::Task</text>
</a>
</g>
</g>
<!-- Node5&#45;&gt;Node4 -->
<g id="edge2" class="edge">
<title>Node5&#45;&gt;Node4</title>
<path fill="none" stroke="#191970" d="M58.4953,-116.7147C70.3158,-103.941 85.9718,-87.0224 95.6334,-76.5817"/>
<polygon fill="#191970" stroke="#191970" points="55.6061,-114.6837 51.3831,-124.4005 60.7439,-119.4381 55.6061,-114.6837"/>
</g>
<!-- Node6 -->
<g id="node4" class="node">
<title>Node6</title>
<g id="a_node4"><a xlink:href="a00822.html" target="_top" xlink:title="tasks::qp::HighLevelTask">
<polygon fill="#ffffff" stroke="#000000" points="103.5,-124.5 103.5,-143.5 231.5,-143.5 231.5,-124.5 103.5,-124.5"/>
<text text-anchor="middle" x="167.5" y="-131.5" font-family="Helvetica,sans-Serif" font-size="10.00" fill="#000000">tasks::qp::HighLevelTask</text>
</a>
</g>
</g>
<!-- Node6&#45;&gt;Node4 -->
<g id="edge3" class="edge">
<title>Node6&#45;&gt;Node4</title>
<path fill="none" stroke="#9a32cd" stroke-dasharray="5,2" d="M151.5888,-117.0785C139.5392,-104.2639 123.4205,-87.1218 113.5096,-76.5817"/>
<polygon fill="#9a32cd" stroke="#9a32cd" points="149.0735,-119.5129 158.4736,-124.4005 154.1732,-114.7177 149.0735,-119.5129"/>
<text text-anchor="middle" x="158.5" y="-98" font-family="Helvetica,sans-Serif" font-size="10.00" fill="#000000"> hlTask_</text>
</g>
</g>
</svg>
