<?xml version="1.0" encoding="UTF-8" standalone="no"?>
<!DOCTYPE svg PUBLIC "-//W3C//DTD SVG 1.1//EN"
 "http://www.w3.org/Graphics/SVG/1.1/DTD/svg11.dtd">
<!-- Generated by graphviz version 2.40.1 (20161225.0304)
 -->
<!-- Title: tasks::qp::SetPointTaskCommon Pages: 1 -->
<svg width="240pt" height="95pt"
 viewBox="0.00 0.00 239.50 95.00" xmlns="http://www.w3.org/2000/svg" xmlns:xlink="http://www.w3.org/1999/xlink">
<g id="graph0" class="graph" transform="scale(1 1) rotate(0) translate(4 91)">
<title>tasks::qp::SetPointTaskCommon</title>
<polygon fill="#ffffff" stroke="transparent" points="-4,4 -4,-91 235.5,-91 235.5,4 -4,4"/>
<!-- Node6 -->
<g id="node1" class="node">
<title>Node6</title>
<polygon fill="#bfbfbf" stroke="#000000" points="23.5,-.5 23.5,-19.5 185.5,-19.5 185.5,-.5 23.5,-.5"/>
<text text-anchor="middle" x="104.5" y="-7.5" font-family="Helvetica,sans-Serif" font-size="10.00" fill="#000000">tasks::qp::SetPointTaskCommon</text>
</g>
<!-- Node7 -->
<g id="node2" class="node">
<title>Node7</title>
<g id="a_node2"><a xlink:href="a00818.html" target="_top" xlink:title="tasks::qp::Task">
<polygon fill="#ffffff" stroke="#000000" points="0,-67.5 0,-86.5 85,-86.5 85,-67.5 0,-67.5"/>
<text text-anchor="middle" x="42.5" y="-74.5" font-family="Helvetica,sans-Serif" font-size="10.00" fill="#000000">tasks::qp::Task</text>
</a>
</g>
</g>
<!-- Node7&#45;&gt;Node6 -->
<g id="edge1" class="edge">
<title>Node7&#45;&gt;Node6</title>
<path fill="none" stroke="#191970" d="M58.4953,-59.7147C70.3158,-46.941 85.9718,-30.0224 95.6334,-19.5817"/>
<polygon fill="#191970" stroke="#191970" points="55.6061,-57.6837 51.3831,-67.4005 60.7439,-62.4381 55.6061,-57.6837"/>
</g>
<!-- Node8 -->
<g id="node3" class="node">
<title>Node8</title>
<g id="a_node3"><a xlink:href="a00822.html" target="_top" xlink:title="tasks::qp::HighLevelTask">
<polygon fill="#ffffff" stroke="#000000" points="103.5,-67.5 103.5,-86.5 231.5,-86.5 231.5,-67.5 103.5,-67.5"/>
<text text-anchor="middle" x="167.5" y="-74.5" font-family="Helvetica,sans-Serif" font-size="10.00" fill="#000000">tasks::qp::HighLevelTask</text>
</a>
</g>
</g>
<!-- Node8&#45;&gt;Node6 -->
<g id="edge2" class="edge">
<title>Node8&#45;&gt;Node6</title>
<path fill="none" stroke="#9a32cd" stroke-dasharray="5,2" d="M151.5888,-60.0785C139.5392,-47.2639 123.4205,-30.1218 113.5096,-19.5817"/>
<polygon fill="#9a32cd" stroke="#9a32cd" points="149.0735,-62.5129 158.4736,-67.4005 154.1732,-57.7177 149.0735,-62.5129"/>
<text text-anchor="middle" x="158.5" y="-41" font-family="Helvetica,sans-Serif" font-size="10.00" fill="#000000"> hlTask_</text>
</g>
</g>
</svg>
