<?xml version="1.0" encoding="UTF-8" standalone="no"?>
<!DOCTYPE svg PUBLIC "-//W3C//DTD SVG 1.1//EN"
 "http://www.w3.org/Graphics/SVG/1.1/DTD/svg11.dtd">
<!-- Generated by graphviz version 2.40.1 (20161225.0304)
 -->
<!-- Title: tasks::qp::MotionSpringConstr Pages: 1 -->
<svg width="1269pt" height="175pt"
 viewBox="0.00 0.00 1269.00 175.00" xmlns="http://www.w3.org/2000/svg" xmlns:xlink="http://www.w3.org/1999/xlink">
<g id="graph0" class="graph" transform="scale(1 1) rotate(0) translate(4 171)">
<title>tasks::qp::MotionSpringConstr</title>
<polygon fill="#ffffff" stroke="transparent" points="-4,4 -4,-171 1265,-171 1265,4 -4,4"/>
<!-- Node6 -->
<g id="node1" class="node">
<title>Node6</title>
<polygon fill="#bfbfbf" stroke="#000000" points="1112,-35.5 1112,-54.5 1261,-54.5 1261,-35.5 1112,-35.5"/>
<text text-anchor="middle" x="1186.5" y="-42.5" font-family="Helvetica,sans-Serif" font-size="10.00" fill="#000000">tasks::qp::MotionSpringConstr</text>
</g>
<!-- Node7 -->
<g id="node2" class="node">
<title>Node7</title>
<g id="a_node2"><a xlink:href="a00827.html" target="_top" xlink:title="tasks::qp::MotionConstr">
<polygon fill="#ffffff" stroke="#000000" points="912.5,-60.5 912.5,-79.5 1034.5,-79.5 1034.5,-60.5 912.5,-60.5"/>
<text text-anchor="middle" x="973.5" y="-67.5" font-family="Helvetica,sans-Serif" font-size="10.00" fill="#000000">tasks::qp::MotionConstr</text>
</a>
</g>
</g>
<!-- Node7&#45;&gt;Node6 -->
<g id="edge1" class="edge">
<title>Node7&#45;&gt;Node6</title>
<path fill="none" stroke="#191970" d="M1044.6176,-61.6529C1066.2161,-59.1178 1090.005,-56.3257 1111.83,-53.7641"/>
<polygon fill="#191970" stroke="#191970" points="1044.061,-58.1941 1034.5373,-62.836 1044.8771,-65.1463 1044.061,-58.1941"/>
</g>
<!-- Node8 -->
<g id="node3" class="node">
<title>Node8</title>
<g id="a_node3"><a xlink:href="a00819.html" target="_top" xlink:title="tasks::qp::MotionConstrCommon">
<polygon fill="#ffffff" stroke="#000000" points="671,-60.5 671,-79.5 832,-79.5 832,-60.5 671,-60.5"/>
<text text-anchor="middle" x="751.5" y="-67.5" font-family="Helvetica,sans-Serif" font-size="10.00" fill="#000000">tasks::qp::MotionConstrCommon</text>
</a>
</g>
</g>
<!-- Node8&#45;&gt;Node7 -->
<g id="edge2" class="edge">
<title>Node8&#45;&gt;Node7</title>
<path fill="none" stroke="#191970" d="M842.2805,-70C865.8362,-70 890.6492,-70 912.2809,-70"/>
<polygon fill="#191970" stroke="#191970" points="842.2751,-66.5001 832.2751,-70 842.2751,-73.5001 842.2751,-66.5001"/>
</g>
<!-- Node9 -->
<g id="node4" class="node">
<title>Node9</title>
<g id="a_node4"><a xlink:href="a00855.html" target="_top" xlink:title="tasks::qp::ConstraintFunction\l\&lt; GenInequality \&gt;">
<polygon fill="#ffffff" stroke="#000000" points="461,-110 461,-140 607,-140 607,-110 461,-110"/>
<text text-anchor="start" x="469" y="-128" font-family="Helvetica,sans-Serif" font-size="10.00" fill="#000000">tasks::qp::ConstraintFunction</text>
<text text-anchor="middle" x="534" y="-117" font-family="Helvetica,sans-Serif" font-size="10.00" fill="#000000">&lt; GenInequality &gt;</text>
</a>
</g>
</g>
<!-- Node9&#45;&gt;Node8 -->
<g id="edge3" class="edge">
<title>Node9&#45;&gt;Node8</title>
<path fill="none" stroke="#191970" d="M603.5367,-107.416C640.0583,-98.1807 683.3928,-87.2225 713.692,-79.5606"/>
<polygon fill="#191970" stroke="#191970" points="602.2696,-104.1262 593.4328,-109.971 603.9857,-110.9126 602.2696,-104.1262"/>
</g>
<!-- Node10 -->
<g id="node5" class="node">
<title>Node10</title>
<g id="a_node5"><a xlink:href="a00851.html" target="_top" xlink:title="tasks::qp::Constraint">
<polygon fill="#ffffff" stroke="#000000" points="247.5,-147.5 247.5,-166.5 355.5,-166.5 355.5,-147.5 247.5,-147.5"/>
<text text-anchor="middle" x="301.5" y="-154.5" font-family="Helvetica,sans-Serif" font-size="10.00" fill="#000000">tasks::qp::Constraint</text>
</a>
</g>
</g>
<!-- Node10&#45;&gt;Node9 -->
<g id="edge4" class="edge">
<title>Node10&#45;&gt;Node9</title>
<path fill="none" stroke="#191970" d="M365.8757,-148.1397C395.2993,-144.09 430.3004,-139.2726 460.7291,-135.0846"/>
<polygon fill="#191970" stroke="#191970" points="365.1469,-144.7069 355.7175,-149.5378 366.1014,-151.6415 365.1469,-144.7069"/>
</g>
<!-- Node11 -->
<g id="node6" class="node">
<title>Node11</title>
<polygon fill="#ffffff" stroke="#bfbfbf" points="285,-109.5 285,-128.5 318,-128.5 318,-109.5 285,-109.5"/>
<text text-anchor="middle" x="301.5" y="-116.5" font-family="Helvetica,sans-Serif" font-size="10.00" fill="#000000">Fun</text>
</g>
<!-- Node11&#45;&gt;Node9 -->
<g id="edge5" class="edge">
<title>Node11&#45;&gt;Node9</title>
<path fill="none" stroke="#191970" d="M328.6033,-119.6994C360.7982,-120.5303 415.8079,-121.9499 460.7995,-123.111"/>
<polygon fill="#191970" stroke="#191970" points="328.3078,-116.1907 318.2208,-119.4315 328.1272,-123.1884 328.3078,-116.1907"/>
</g>
<!-- Node12 -->
<g id="node7" class="node">
<title>Node12</title>
<polygon fill="#ffffff" stroke="#bfbfbf" points="465.5,-49.5 465.5,-90.5 602.5,-90.5 602.5,-49.5 465.5,-49.5"/>
<text text-anchor="start" x="473.5" y="-78.5" font-family="Helvetica,sans-Serif" font-size="10.00" fill="#000000">std::vector&lt; tasks</text>
<text text-anchor="start" x="473.5" y="-67.5" font-family="Helvetica,sans-Serif" font-size="10.00" fill="#000000">::qp::MotionConstrCommon</text>
<text text-anchor="middle" x="534" y="-56.5" font-family="Helvetica,sans-Serif" font-size="10.00" fill="#000000">::ContactData &gt;</text>
</g>
<!-- Node12&#45;&gt;Node8 -->
<g id="edge6" class="edge">
<title>Node12&#45;&gt;Node8</title>
<path fill="none" stroke="#9a32cd" stroke-dasharray="5,2" d="M612.5798,-70C631.5035,-70 651.7506,-70 670.7706,-70"/>
<polygon fill="#9a32cd" stroke="#9a32cd" points="612.5199,-66.5001 602.5198,-70 612.5198,-73.5001 612.5199,-66.5001"/>
<text text-anchor="middle" x="639" y="-73" font-family="Helvetica,sans-Serif" font-size="10.00" fill="#000000"> cont_</text>
</g>
<!-- Node13 -->
<g id="node8" class="node">
<title>Node13</title>
<g id="a_node8"><a xlink:href="a00823.html" target="_top" xlink:title="tasks::qp::MotionConstrCommon\l::ContactData">
<polygon fill="#ffffff" stroke="#000000" points="221,-55 221,-85 382,-85 382,-55 221,-55"/>
<text text-anchor="start" x="229" y="-73" font-family="Helvetica,sans-Serif" font-size="10.00" fill="#000000">tasks::qp::MotionConstrCommon</text>
<text text-anchor="middle" x="301.5" y="-62" font-family="Helvetica,sans-Serif" font-size="10.00" fill="#000000">::ContactData</text>
</a>
</g>
</g>
<!-- Node13&#45;&gt;Node12 -->
<g id="edge7" class="edge">
<title>Node13&#45;&gt;Node12</title>
<path fill="none" stroke="#9a32cd" stroke-dasharray="5,2" d="M392.4668,-70C416.7568,-70 442.5945,-70 465.4545,-70"/>
<polygon fill="#9a32cd" stroke="#9a32cd" points="392.1647,-66.5001 382.1647,-70 392.1647,-73.5001 392.1647,-66.5001"/>
<text text-anchor="middle" x="421.5" y="-73" font-family="Helvetica,sans-Serif" font-size="10.00" fill="#000000"> elements</text>
</g>
<!-- Node14 -->
<g id="node9" class="node">
<title>Node14</title>
<polygon fill="#ffffff" stroke="#bfbfbf" points="0,-98.5 0,-139.5 107,-139.5 107,-98.5 0,-98.5"/>
<text text-anchor="start" x="8" y="-127.5" font-family="Helvetica,sans-Serif" font-size="10.00" fill="#000000">std::vector&lt; Eigen</text>
<text text-anchor="start" x="8" y="-116.5" font-family="Helvetica,sans-Serif" font-size="10.00" fill="#000000">::Matrix&lt; double, 3,</text>
<text text-anchor="middle" x="53.5" y="-105.5" font-family="Helvetica,sans-Serif" font-size="10.00" fill="#000000"> Eigen::Dynamic &gt; &gt;</text>
</g>
<!-- Node14&#45;&gt;Node13 -->
<g id="edge8" class="edge">
<title>Node14&#45;&gt;Node13</title>
<path fill="none" stroke="#9a32cd" stroke-dasharray="5,2" d="M117.0128,-106.4511C150.0888,-99.9159 190.7694,-91.8782 225.5061,-85.0149"/>
<polygon fill="#9a32cd" stroke="#9a32cd" points="116.1389,-103.056 107.007,-108.4281 117.4958,-109.9233 116.1389,-103.056"/>
<text text-anchor="middle" x="164" y="-107" font-family="Helvetica,sans-Serif" font-size="10.00" fill="#000000"> minusGenerators</text>
</g>
<!-- Node15 -->
<g id="node10" class="node">
<title>Node15</title>
<g id="a_node10"><a doxygen="/usr/local/share/doc/RBDyn/doxygen-html/RBDyn.doxytag:/usr/local/share/doc/RBDyn/doxygen-html/" xlink:href="/usr/local/share/doc/RBDyn/doxygen-html/a00970.html" target="_top" xlink:title="rbd::Jacobian">
<polygon fill="#ffffff" stroke="#000000" points="16,-60.5 16,-79.5 91,-79.5 91,-60.5 16,-60.5"/>
<text text-anchor="middle" x="53.5" y="-67.5" font-family="Helvetica,sans-Serif" font-size="10.00" fill="#000000">rbd::Jacobian</text>
</a>
</g>
</g>
<!-- Node15&#45;&gt;Node13 -->
<g id="edge9" class="edge">
<title>Node15&#45;&gt;Node13</title>
<path fill="none" stroke="#9a32cd" stroke-dasharray="5,2" d="M101.2474,-70C135.0812,-70 181.295,-70 220.8021,-70"/>
<polygon fill="#9a32cd" stroke="#9a32cd" points="101.1659,-66.5001 91.1659,-70 101.1658,-73.5001 101.1659,-66.5001"/>
<text text-anchor="middle" x="164" y="-73" font-family="Helvetica,sans-Serif" font-size="10.00" fill="#000000"> jac</text>
</g>
<!-- Node16 -->
<g id="node11" class="node">
<title>Node16</title>
<polygon fill="#ffffff" stroke="#bfbfbf" points="5,-11 5,-41 102,-41 102,-11 5,-11"/>
<text text-anchor="start" x="13" y="-29" font-family="Helvetica,sans-Serif" font-size="10.00" fill="#000000">std::vector&lt; Eigen</text>
<text text-anchor="middle" x="53.5" y="-18" font-family="Helvetica,sans-Serif" font-size="10.00" fill="#000000">::Vector3d &gt;</text>
</g>
<!-- Node16&#45;&gt;Node13 -->
<g id="edge10" class="edge">
<title>Node16&#45;&gt;Node13</title>
<path fill="none" stroke="#9a32cd" stroke-dasharray="5,2" d="M112.4028,-36.4505C144.7716,-42.1933 185.4006,-49.4017 220.6943,-55.6635"/>
<polygon fill="#9a32cd" stroke="#9a32cd" points="112.6586,-32.9413 102.2009,-34.6405 111.4357,-39.8337 112.6586,-32.9413"/>
<text text-anchor="middle" x="164" y="-55" font-family="Helvetica,sans-Serif" font-size="10.00" fill="#000000"> points</text>
</g>
<!-- Node17 -->
<g id="node12" class="node">
<title>Node17</title>
<g id="a_node12"><a doxygen="/usr/local/share/doc/RBDyn/doxygen-html/RBDyn.doxytag:/usr/local/share/doc/RBDyn/doxygen-html/" xlink:href="/usr/local/share/doc/RBDyn/doxygen-html/a00946.html" target="_top" xlink:title="rbd::ForwardDynamics">
<polygon fill="#ffffff" stroke="#000000" points="476,-11.5 476,-30.5 592,-30.5 592,-11.5 476,-11.5"/>
<text text-anchor="middle" x="534" y="-18.5" font-family="Helvetica,sans-Serif" font-size="10.00" fill="#000000">rbd::ForwardDynamics</text>
</a>
</g>
</g>
<!-- Node17&#45;&gt;Node8 -->
<g id="edge11" class="edge">
<title>Node17&#45;&gt;Node8</title>
<path fill="none" stroke="#9a32cd" stroke-dasharray="5,2" d="M585.96,-32.7059C623.5885,-41.1832 673.8258,-52.501 709.0525,-60.4371"/>
<polygon fill="#9a32cd" stroke="#9a32cd" points="586.7188,-29.2892 576.1941,-30.5058 585.1803,-36.1181 586.7188,-29.2892"/>
<text text-anchor="middle" x="639" y="-50" font-family="Helvetica,sans-Serif" font-size="10.00" fill="#000000"> fd_</text>
</g>
<!-- Node18 -->
<g id="node13" class="node">
<title>Node18</title>
<polygon fill="#ffffff" stroke="#bfbfbf" points="911,-.5 911,-41.5 1036,-41.5 1036,-.5 911,-.5"/>
<text text-anchor="start" x="919" y="-29.5" font-family="Helvetica,sans-Serif" font-size="10.00" fill="#000000">std::vector&lt; tasks</text>
<text text-anchor="start" x="919" y="-18.5" font-family="Helvetica,sans-Serif" font-size="10.00" fill="#000000">::qp::MotionSpringConstr</text>
<text text-anchor="middle" x="973.5" y="-7.5" font-family="Helvetica,sans-Serif" font-size="10.00" fill="#000000">::SpringJointData &gt;</text>
</g>
<!-- Node18&#45;&gt;Node6 -->
<g id="edge12" class="edge">
<title>Node18&#45;&gt;Node6</title>
<path fill="none" stroke="#9a32cd" stroke-dasharray="5,2" d="M1046.4372,-29.2183C1067.5329,-31.5953 1090.5856,-34.1927 1111.7879,-36.5817"/>
<polygon fill="#9a32cd" stroke="#9a32cd" points="1046.584,-25.7128 1036.255,-28.071 1045.8002,-32.6687 1046.584,-25.7128"/>
<text text-anchor="middle" x="1074" y="-38" font-family="Helvetica,sans-Serif" font-size="10.00" fill="#000000"> springs_</text>
</g>
<!-- Node19 -->
<g id="node14" class="node">
<title>Node19</title>
<g id="a_node14"><a xlink:href="a00839.html" target="_top" xlink:title="tasks::qp::MotionSpringConstr\l::SpringJointData">
<polygon fill="#ffffff" stroke="#000000" points="677,-6 677,-36 826,-36 826,-6 677,-6"/>
<text text-anchor="start" x="685" y="-24" font-family="Helvetica,sans-Serif" font-size="10.00" fill="#000000">tasks::qp::MotionSpringConstr</text>
<text text-anchor="middle" x="751.5" y="-13" font-family="Helvetica,sans-Serif" font-size="10.00" fill="#000000">::SpringJointData</text>
</a>
</g>
</g>
<!-- Node19&#45;&gt;Node18 -->
<g id="edge13" class="edge">
<title>Node19&#45;&gt;Node18</title>
<path fill="none" stroke="#9a32cd" stroke-dasharray="5,2" d="M836.1964,-21C861.0591,-21 887.7899,-21 910.9994,-21"/>
<polygon fill="#9a32cd" stroke="#9a32cd" points="836.0404,-17.5001 826.0404,-21 836.0403,-24.5001 836.0404,-17.5001"/>
<text text-anchor="middle" x="871.5" y="-24" font-family="Helvetica,sans-Serif" font-size="10.00" fill="#000000"> elements</text>
</g>
</g>
</svg>
