<?xml version="1.0" encoding="UTF-8" standalone="no"?>
<!DOCTYPE svg PUBLIC "-//W3C//DTD SVG 1.1//EN"
 "http://www.w3.org/Graphics/SVG/1.1/DTD/svg11.dtd">
<!-- Generated by graphviz version 2.40.1 (20161225.0304)
 -->
<!-- Title: tasks::qp::ContactConstrCommon::ContactCommon Pages: 1 -->
<svg width="145pt" height="252pt"
 viewBox="0.00 0.00 145.00 252.00" xmlns="http://www.w3.org/2000/svg" xmlns:xlink="http://www.w3.org/1999/xlink">
<g id="graph0" class="graph" transform="scale(1 1) rotate(0) translate(4 248)">
<title>tasks::qp::ContactConstrCommon::ContactCommon</title>
<polygon fill="#ffffff" stroke="transparent" points="-4,4 -4,-248 141,-248 141,4 -4,4"/>
<!-- Node1 -->
<g id="node1" class="node">
<title>Node1</title>
<polygon fill="#bfbfbf" stroke="#000000" points="0,-.5 0,-30.5 137,-30.5 137,-.5 0,-.5"/>
<text text-anchor="start" x="8" y="-18.5" font-family="Helvetica,sans-Serif" font-size="10.00" fill="#000000">tasks::qp::ContactConstr</text>
<text text-anchor="middle" x="68.5" y="-7.5" font-family="Helvetica,sans-Serif" font-size="10.00" fill="#000000">Common::ContactCommon</text>
</g>
<!-- Node2 -->
<g id="node2" class="node">
<title>Node2</title>
<g id="a_node2"><a xlink:href="a01021.html" target="_top" xlink:title="Unique identifier for a contact. ">
<polygon fill="#ffffff" stroke="#000000" points="15.5,-78.5 15.5,-97.5 121.5,-97.5 121.5,-78.5 15.5,-78.5"/>
<text text-anchor="middle" x="68.5" y="-85.5" font-family="Helvetica,sans-Serif" font-size="10.00" fill="#000000">tasks::qp::ContactId</text>
</a>
</g>
</g>
<!-- Node2&#45;&gt;Node1 -->
<g id="edge1" class="edge">
<title>Node2&#45;&gt;Node1</title>
<path fill="none" stroke="#9a32cd" stroke-dasharray="5,2" d="M68.5,-68.0177C68.5,-56.2164 68.5,-41.513 68.5,-30.668"/>
<polygon fill="#9a32cd" stroke="#9a32cd" points="65.0001,-68.2223 68.5,-78.2223 72.0001,-68.2224 65.0001,-68.2223"/>
<text text-anchor="middle" x="77" y="-52" font-family="Helvetica,sans-Serif" font-size="10.00" fill="#000000"> cId</text>
</g>
<!-- Node3 -->
<g id="node3" class="node">
<title>Node3</title>
<g id="a_node3"><a xlink:title="STL class. ">
<polygon fill="#ffffff" stroke="#bfbfbf" points="38.5,-156.5 38.5,-175.5 98.5,-175.5 98.5,-156.5 38.5,-156.5"/>
<text text-anchor="middle" x="68.5" y="-163.5" font-family="Helvetica,sans-Serif" font-size="10.00" fill="#000000">std::string</text>
</a>
</g>
</g>
<!-- Node3&#45;&gt;Node2 -->
<g id="edge2" class="edge">
<title>Node3&#45;&gt;Node2</title>
<path fill="none" stroke="#9a32cd" stroke-dasharray="5,2" d="M68.5,-146.2866C68.5,-130.7395 68.5,-109.7276 68.5,-97.6426"/>
<polygon fill="#9a32cd" stroke="#9a32cd" points="65.0001,-146.4356 68.5,-156.4357 72.0001,-146.4357 65.0001,-146.4356"/>
<text text-anchor="middle" x="99" y="-130" font-family="Helvetica,sans-Serif" font-size="10.00" fill="#000000"> r2BodyName</text>
<text text-anchor="middle" x="99" y="-119" font-family="Helvetica,sans-Serif" font-size="10.00" fill="#000000">r1BodyName</text>
</g>
<!-- Node4 -->
<g id="node4" class="node">
<title>Node4</title>
<g id="a_node4"><a xlink:title="STL class. ">
<polygon fill="#ffffff" stroke="#bfbfbf" points="21,-213.5 21,-243.5 116,-243.5 116,-213.5 21,-213.5"/>
<text text-anchor="start" x="29" y="-231.5" font-family="Helvetica,sans-Serif" font-size="10.00" fill="#000000">std::basic_string&lt;</text>
<text text-anchor="middle" x="68.5" y="-220.5" font-family="Helvetica,sans-Serif" font-size="10.00" fill="#000000"> char &gt;</text>
</a>
</g>
</g>
<!-- Node4&#45;&gt;Node3 -->
<g id="edge3" class="edge">
<title>Node4&#45;&gt;Node3</title>
<path fill="none" stroke="#191970" d="M68.5,-203.3498C68.5,-193.6481 68.5,-183.1303 68.5,-175.7356"/>
<polygon fill="#191970" stroke="#191970" points="65.0001,-203.3705 68.5,-213.3705 72.0001,-203.3705 65.0001,-203.3705"/>
</g>
</g>
</svg>
