<?xml version="1.0" encoding="UTF-8" standalone="no"?>
<!DOCTYPE svg PUBLIC "-//W3C//DTD SVG 1.1//EN"
 "http://www.w3.org/Graphics/SVG/1.1/DTD/svg11.dtd">
<!-- Generated by graphviz version 2.40.1 (20161225.0304)
 -->
<!-- Title: tasks::qp::ContactConstrCommon Pages: 1 -->
<svg width="489pt" height="104pt"
 viewBox="0.00 0.00 489.00 104.00" xmlns="http://www.w3.org/2000/svg" xmlns:xlink="http://www.w3.org/1999/xlink">
<g id="graph0" class="graph" transform="scale(1 1) rotate(0) translate(4 100)">
<title>tasks::qp::ContactConstrCommon</title>
<polygon fill="#ffffff" stroke="transparent" points="-4,4 -4,-100 485,-100 485,4 -4,4"/>
<!-- Node0 -->
<g id="node1" class="node">
<title>Node0</title>
<polygon fill="#bfbfbf" stroke="#000000" points="0,-33 0,-63 127,-63 127,-33 0,-33"/>
<text text-anchor="start" x="8" y="-51" font-family="Helvetica,sans-Serif" font-size="10.00" fill="#000000">tasks::qp::ContactConstr</text>
<text text-anchor="middle" x="63.5" y="-40" font-family="Helvetica,sans-Serif" font-size="10.00" fill="#000000">Common</text>
</g>
<!-- Node1 -->
<g id="node2" class="node">
<title>Node1</title>
<g id="a_node2"><a xlink:href="a00993.html" target="_top" xlink:title="Common contact constraint computation. ">
<polygon fill="#ffffff" stroke="#000000" points="163,-38.5 163,-57.5 290,-57.5 290,-38.5 163,-38.5"/>
<text text-anchor="middle" x="226.5" y="-45.5" font-family="Helvetica,sans-Serif" font-size="10.00" fill="#000000">tasks::qp::ContactConstr</text>
</a>
</g>
</g>
<!-- Node0&#45;&gt;Node1 -->
<g id="edge1" class="edge">
<title>Node0&#45;&gt;Node1</title>
<path fill="none" stroke="#191970" d="M137.6881,-48C146.1415,-48 154.7005,-48 162.9977,-48"/>
<polygon fill="#191970" stroke="#191970" points="137.4541,-44.5001 127.4541,-48 137.4541,-51.5001 137.4541,-44.5001"/>
</g>
<!-- Node2 -->
<g id="node3" class="node">
<title>Node2</title>
<g id="a_node3"><a xlink:href="a01005.html" target="_top" xlink:title="Contact constraint by targeting a null acceleration. ">
<polygon fill="#ffffff" stroke="#000000" points="331.5,-76.5 331.5,-95.5 475.5,-95.5 475.5,-76.5 331.5,-76.5"/>
<text text-anchor="middle" x="403.5" y="-83.5" font-family="Helvetica,sans-Serif" font-size="10.00" fill="#000000">tasks::qp::ContactAccConstr</text>
</a>
</g>
</g>
<!-- Node1&#45;&gt;Node2 -->
<g id="edge2" class="edge">
<title>Node1&#45;&gt;Node2</title>
<path fill="none" stroke="#191970" d="M281.2423,-59.7526C306.27,-65.1258 335.5348,-71.4086 359.1566,-76.4799"/>
<polygon fill="#191970" stroke="#191970" points="281.6765,-56.2661 271.1646,-57.589 280.2071,-63.1102 281.6765,-56.2661"/>
</g>
<!-- Node3 -->
<g id="node4" class="node">
<title>Node3</title>
<g id="a_node4"><a xlink:href="a01013.html" target="_top" xlink:title="Contact constraint by targeting a constant frame. ">
<polygon fill="#ffffff" stroke="#000000" points="331.5,-38.5 331.5,-57.5 475.5,-57.5 475.5,-38.5 331.5,-38.5"/>
<text text-anchor="middle" x="403.5" y="-45.5" font-family="Helvetica,sans-Serif" font-size="10.00" fill="#000000">tasks::qp::ContactPosConstr</text>
</a>
</g>
</g>
<!-- Node1&#45;&gt;Node3 -->
<g id="edge3" class="edge">
<title>Node1&#45;&gt;Node3</title>
<path fill="none" stroke="#191970" d="M300.4823,-48C310.6724,-48 321.1264,-48 331.284,-48"/>
<polygon fill="#191970" stroke="#191970" points="300.4011,-44.5001 290.4011,-48 300.401,-51.5001 300.4011,-44.5001"/>
</g>
<!-- Node4 -->
<g id="node5" class="node">
<title>Node4</title>
<g id="a_node5"><a xlink:href="a01009.html" target="_top" xlink:title="Contact constraint by targeting a null velocity. ">
<polygon fill="#ffffff" stroke="#000000" points="326,-.5 326,-19.5 481,-19.5 481,-.5 326,-.5"/>
<text text-anchor="middle" x="403.5" y="-7.5" font-family="Helvetica,sans-Serif" font-size="10.00" fill="#000000">tasks::qp::ContactSpeedConstr</text>
</a>
</g>
</g>
<!-- Node1&#45;&gt;Node4 -->
<g id="edge4" class="edge">
<title>Node1&#45;&gt;Node4</title>
<path fill="none" stroke="#191970" d="M281.2423,-36.2474C306.27,-30.8742 335.5348,-24.5914 359.1566,-19.5201"/>
<polygon fill="#191970" stroke="#191970" points="280.2071,-32.8898 271.1646,-38.411 281.6765,-39.7339 280.2071,-32.8898"/>
</g>
</g>
</svg>
