<?xml version="1.0" encoding="UTF-8" standalone="no"?>
<!DOCTYPE svg PUBLIC "-//W3C//DTD SVG 1.1//EN"
 "http://www.w3.org/Graphics/SVG/1.1/DTD/svg11.dtd">
<!-- Generated by graphviz version 2.40.1 (20161225.0304)
 -->
<!-- Title: tasks::qp::GenQPSolver Pages: 1 -->
<svg width="336pt" height="185pt"
 viewBox="0.00 0.00 336.00 185.00" xmlns="http://www.w3.org/2000/svg" xmlns:xlink="http://www.w3.org/1999/xlink">
<g id="graph0" class="graph" transform="scale(1 1) rotate(0) translate(4 181)">
<title>tasks::qp::GenQPSolver</title>
<polygon fill="#ffffff" stroke="transparent" points="-4,4 -4,-181 332,-181 332,4 -4,4"/>
<!-- Node3 -->
<g id="node1" class="node">
<title>Node3</title>
<polygon fill="#bfbfbf" stroke="#000000" points="89,-.5 89,-19.5 212,-19.5 212,-.5 89,-.5"/>
<text text-anchor="middle" x="150.5" y="-7.5" font-family="Helvetica,sans-Serif" font-size="10.00" fill="#000000">tasks::qp::GenQPSolver</text>
</g>
<!-- Node4 -->
<g id="node2" class="node">
<title>Node4</title>
<g id="a_node2"><a xlink:title="STL class. ">
<polygon fill="#ffffff" stroke="#bfbfbf" points="17.5,-84 17.5,-103 77.5,-103 77.5,-84 17.5,-84"/>
<text text-anchor="middle" x="47.5" y="-91" font-family="Helvetica,sans-Serif" font-size="10.00" fill="#000000">std::string</text>
</a>
</g>
</g>
<!-- Node4&#45;&gt;Node3 -->
<g id="edge1" class="edge">
<title>Node4&#45;&gt;Node3</title>
<path fill="none" stroke="#9a32cd" stroke-dasharray="5,2" d="M49.8446,-73.6764C52.2126,-61.8965 56.9659,-47.4573 66.5,-38 75.0126,-29.5559 86.136,-23.6581 97.4889,-19.5388"/>
<polygon fill="#9a32cd" stroke="#9a32cd" points="46.3319,-73.4823 48.2269,-83.9063 53.2459,-74.5757 46.3319,-73.4823"/>
<text text-anchor="middle" x="106.5" y="-46.5" font-family="Helvetica,sans-Serif" font-size="10.00" fill="#000000"> default_qp_solver</text>
</g>
<!-- Node5 -->
<g id="node3" class="node">
<title>Node5</title>
<g id="a_node3"><a xlink:title="STL class. ">
<polygon fill="#ffffff" stroke="#bfbfbf" points="0,-146.5 0,-176.5 95,-176.5 95,-146.5 0,-146.5"/>
<text text-anchor="start" x="8" y="-164.5" font-family="Helvetica,sans-Serif" font-size="10.00" fill="#000000">std::basic_string&lt;</text>
<text text-anchor="middle" x="47.5" y="-153.5" font-family="Helvetica,sans-Serif" font-size="10.00" fill="#000000"> char &gt;</text>
</a>
</g>
</g>
<!-- Node5&#45;&gt;Node4 -->
<g id="edge2" class="edge">
<title>Node5&#45;&gt;Node4</title>
<path fill="none" stroke="#191970" d="M47.5,-136.0669C47.5,-124.6483 47.5,-111.8507 47.5,-103.297"/>
<polygon fill="#191970" stroke="#191970" points="44.0001,-136.4086 47.5,-146.4086 51.0001,-136.4086 44.0001,-136.4086"/>
</g>
<!-- Node6 -->
<g id="node4" class="node">
<title>Node6</title>
<polygon fill="#ffffff" stroke="#bfbfbf" points="104.5,-84 104.5,-103 196.5,-103 196.5,-84 104.5,-84"/>
<text text-anchor="middle" x="150.5" y="-91" font-family="Helvetica,sans-Serif" font-size="10.00" fill="#000000">std::vector&lt; int &gt;</text>
</g>
<!-- Node6&#45;&gt;Node3 -->
<g id="edge3" class="edge">
<title>Node6&#45;&gt;Node3</title>
<path fill="none" stroke="#9a32cd" stroke-dasharray="5,2" d="M150.5,-73.9172C150.5,-56.8939 150.5,-32.9456 150.5,-19.724"/>
<polygon fill="#9a32cd" stroke="#9a32cd" points="147.0001,-73.9215 150.5,-83.9215 154.0001,-73.9215 147.0001,-73.9215"/>
<text text-anchor="middle" x="186.5" y="-52" font-family="Helvetica,sans-Serif" font-size="10.00" fill="#000000"> fullToReduced_</text>
<text text-anchor="middle" x="186.5" y="-41" font-family="Helvetica,sans-Serif" font-size="10.00" fill="#000000">reducedToFull_</text>
</g>
<!-- Node7 -->
<g id="node5" class="node">
<title>Node7</title>
<polygon fill="#ffffff" stroke="#bfbfbf" points="215,-78.5 215,-108.5 328,-108.5 328,-78.5 215,-78.5"/>
<text text-anchor="start" x="223" y="-96.5" font-family="Helvetica,sans-Serif" font-size="10.00" fill="#000000">std::vector&lt; std::tuple</text>
<text text-anchor="middle" x="271.5" y="-85.5" font-family="Helvetica,sans-Serif" font-size="10.00" fill="#000000">&lt; int, int, double &gt; &gt;</text>
</g>
<!-- Node7&#45;&gt;Node3 -->
<g id="edge4" class="edge">
<title>Node7&#45;&gt;Node3</title>
<path fill="none" stroke="#9a32cd" stroke-dasharray="5,2" d="M256.8166,-70.0319C248.9572,-59.053 238.4388,-46.5457 226.5,-38 215.1802,-29.8974 201.2497,-23.8742 188.4205,-19.5339"/>
<polygon fill="#9a32cd" stroke="#9a32cd" points="254.0002,-72.1143 262.5259,-78.4043 259.7835,-68.1705 254.0002,-72.1143"/>
<text text-anchor="middle" x="283" y="-46.5" font-family="Helvetica,sans-Serif" font-size="10.00" fill="#000000"> dependencies_</text>
</g>
</g>
</svg>
