<?xml version="1.0" encoding="UTF-8" standalone="no"?>
<!DOCTYPE svg PUBLIC "-//W3C//DTD SVG 1.1//EN"
 "http://www.w3.org/Graphics/SVG/1.1/DTD/svg11.dtd">
<!-- Generated by graphviz version 2.40.1 (20161225.0304)
 -->
<!-- Title: tasks::qp::ContactConstrCommon Pages: 1 -->
<svg width="806pt" height="100pt"
 viewBox="0.00 0.00 806.00 99.50" xmlns="http://www.w3.org/2000/svg" xmlns:xlink="http://www.w3.org/1999/xlink">
<g id="graph0" class="graph" transform="scale(1 1) rotate(0) translate(4 95.5)">
<title>tasks::qp::ContactConstrCommon</title>
<polygon fill="#ffffff" stroke="transparent" points="-4,4 -4,-95.5 802,-95.5 802,4 -4,4"/>
<!-- Node5 -->
<g id="node1" class="node">
<title>Node5</title>
<polygon fill="#bfbfbf" stroke="#000000" points="671,-33 671,-63 798,-63 798,-33 671,-33"/>
<text text-anchor="start" x="679" y="-51" font-family="Helvetica,sans-Serif" font-size="10.00" fill="#000000">tasks::qp::ContactConstr</text>
<text text-anchor="middle" x="734.5" y="-40" font-family="Helvetica,sans-Serif" font-size="10.00" fill="#000000">Common</text>
</g>
<!-- Node6 -->
<g id="node2" class="node">
<title>Node6</title>
<polygon fill="#ffffff" stroke="#bfbfbf" points="458.5,-61 458.5,-91 557.5,-91 557.5,-61 458.5,-61"/>
<text text-anchor="start" x="466.5" y="-79" font-family="Helvetica,sans-Serif" font-size="10.00" fill="#000000">std::set&lt; tasks::qp</text>
<text text-anchor="middle" x="508" y="-68" font-family="Helvetica,sans-Serif" font-size="10.00" fill="#000000">::ContactId &gt;</text>
</g>
<!-- Node6&#45;&gt;Node5 -->
<g id="edge1" class="edge">
<title>Node6&#45;&gt;Node5</title>
<path fill="none" stroke="#9a32cd" stroke-dasharray="5,2" d="M567.7256,-68.6167C599.4255,-64.6979 638.3916,-59.8809 670.6853,-55.8888"/>
<polygon fill="#9a32cd" stroke="#9a32cd" points="567.2014,-65.1548 557.7064,-69.8553 568.0603,-72.1019 567.2014,-65.1548"/>
<text text-anchor="middle" x="615.5" y="-70" font-family="Helvetica,sans-Serif" font-size="10.00" fill="#000000"> virtualContacts_</text>
</g>
<!-- Node7 -->
<g id="node3" class="node">
<title>Node7</title>
<g id="a_node3"><a xlink:href="a01012.html" target="_top" xlink:title="Unique identifier for a contact. ">
<polygon fill="#ffffff" stroke="#000000" points="289,-38.5 289,-57.5 395,-57.5 395,-38.5 289,-38.5"/>
<text text-anchor="middle" x="342" y="-45.5" font-family="Helvetica,sans-Serif" font-size="10.00" fill="#000000">tasks::qp::ContactId</text>
</a>
</g>
</g>
<!-- Node7&#45;&gt;Node6 -->
<g id="edge2" class="edge">
<title>Node7&#45;&gt;Node6</title>
<path fill="none" stroke="#9a32cd" stroke-dasharray="5,2" d="M405.5649,-58.7218C423.0482,-61.6708 441.7505,-64.8254 458.3263,-67.6213"/>
<polygon fill="#9a32cd" stroke="#9a32cd" points="405.8801,-55.2256 395.4372,-57.0135 404.7157,-62.1281 405.8801,-55.2256"/>
<text text-anchor="middle" x="425.5" y="-67" font-family="Helvetica,sans-Serif" font-size="10.00" fill="#000000"> keys</text>
</g>
<!-- Node10 -->
<g id="node6" class="node">
<title>Node10</title>
<polygon fill="#ffffff" stroke="#bfbfbf" points="456,-.5 456,-41.5 560,-41.5 560,-.5 456,-.5"/>
<text text-anchor="start" x="464" y="-29.5" font-family="Helvetica,sans-Serif" font-size="10.00" fill="#000000">std::map&lt; tasks::qp</text>
<text text-anchor="start" x="464" y="-18.5" font-family="Helvetica,sans-Serif" font-size="10.00" fill="#000000">::ContactId, Eigen::</text>
<text text-anchor="middle" x="508" y="-7.5" font-family="Helvetica,sans-Serif" font-size="10.00" fill="#000000">MatrixXd &gt;</text>
</g>
<!-- Node7&#45;&gt;Node10 -->
<g id="edge6" class="edge">
<title>Node7&#45;&gt;Node10</title>
<path fill="none" stroke="#9a32cd" stroke-dasharray="5,2" d="M405.5994,-37.6555C422.189,-34.9572 439.874,-32.0807 455.7969,-29.4909"/>
<polygon fill="#9a32cd" stroke="#9a32cd" points="404.7456,-34.2483 395.4372,-39.3084 405.8694,-41.1575 404.7456,-34.2483"/>
<text text-anchor="middle" x="425.5" y="-40" font-family="Helvetica,sans-Serif" font-size="10.00" fill="#000000"> keys</text>
</g>
<!-- Node8 -->
<g id="node4" class="node">
<title>Node8</title>
<g id="a_node4"><a xlink:title="STL class. ">
<polygon fill="#ffffff" stroke="#bfbfbf" points="132,-38.5 132,-57.5 192,-57.5 192,-38.5 132,-38.5"/>
<text text-anchor="middle" x="162" y="-45.5" font-family="Helvetica,sans-Serif" font-size="10.00" fill="#000000">std::string</text>
</a>
</g>
</g>
<!-- Node8&#45;&gt;Node7 -->
<g id="edge3" class="edge">
<title>Node8&#45;&gt;Node7</title>
<path fill="none" stroke="#9a32cd" stroke-dasharray="5,2" d="M202.2049,-48C227.7455,-48 261.0937,-48 288.813,-48"/>
<polygon fill="#9a32cd" stroke="#9a32cd" points="202.128,-44.5001 192.128,-48 202.1279,-51.5001 202.128,-44.5001"/>
<text text-anchor="middle" x="240.5" y="-62" font-family="Helvetica,sans-Serif" font-size="10.00" fill="#000000"> r2BodyName</text>
<text text-anchor="middle" x="240.5" y="-51" font-family="Helvetica,sans-Serif" font-size="10.00" fill="#000000">r1BodyName</text>
</g>
<!-- Node9 -->
<g id="node5" class="node">
<title>Node9</title>
<g id="a_node5"><a xlink:title="STL class. ">
<polygon fill="#ffffff" stroke="#bfbfbf" points="0,-33 0,-63 95,-63 95,-33 0,-33"/>
<text text-anchor="start" x="8" y="-51" font-family="Helvetica,sans-Serif" font-size="10.00" fill="#000000">std::basic_string&lt;</text>
<text text-anchor="middle" x="47.5" y="-40" font-family="Helvetica,sans-Serif" font-size="10.00" fill="#000000"> char &gt;</text>
</a>
</g>
</g>
<!-- Node9&#45;&gt;Node8 -->
<g id="edge4" class="edge">
<title>Node9&#45;&gt;Node8</title>
<path fill="none" stroke="#191970" d="M105.3356,-48C114.4701,-48 123.5847,-48 131.7491,-48"/>
<polygon fill="#191970" stroke="#191970" points="105.0636,-44.5001 95.0636,-48 105.0636,-51.5001 105.0636,-44.5001"/>
</g>
<!-- Node10&#45;&gt;Node5 -->
<g id="edge5" class="edge">
<title>Node10&#45;&gt;Node5</title>
<path fill="none" stroke="#9a32cd" stroke-dasharray="5,2" d="M570.0288,-27.5101C595.7215,-30.2936 625.8146,-33.666 653,-37 658.8103,-37.7126 664.8499,-38.479 670.8965,-39.2639"/>
<polygon fill="#9a32cd" stroke="#9a32cd" points="570.3645,-24.0261 560.047,-26.4343 569.6143,-30.9858 570.3645,-24.0261"/>
<text text-anchor="middle" x="615.5" y="-40" font-family="Helvetica,sans-Serif" font-size="10.00" fill="#000000"> dofContacts_</text>
</g>
</g>
</svg>
