<?xml version="1.0" encoding="UTF-8" standalone="no"?>
<!DOCTYPE svg PUBLIC "-//W3C//DTD SVG 1.1//EN"
 "http://www.w3.org/Graphics/SVG/1.1/DTD/svg11.dtd">
<!-- Generated by graphviz version 2.40.1 (20161225.0304)
 -->
<!-- Title: tasks::qp::MotionConstrCommon Pages: 1 -->
<svg width="840pt" height="165pt"
 viewBox="0.00 0.00 840.00 164.50" xmlns="http://www.w3.org/2000/svg" xmlns:xlink="http://www.w3.org/1999/xlink">
<g id="graph0" class="graph" transform="scale(1 1) rotate(0) translate(4 160.5)">
<title>tasks::qp::MotionConstrCommon</title>
<polygon fill="#ffffff" stroke="transparent" points="-4,4 -4,-160.5 836,-160.5 836,4 -4,4"/>
<!-- Node7 -->
<g id="node1" class="node">
<title>Node7</title>
<polygon fill="#bfbfbf" stroke="#000000" points="671,-50 671,-69 832,-69 832,-50 671,-50"/>
<text text-anchor="middle" x="751.5" y="-57" font-family="Helvetica,sans-Serif" font-size="10.00" fill="#000000">tasks::qp::MotionConstrCommon</text>
</g>
<!-- Node8 -->
<g id="node2" class="node">
<title>Node8</title>
<g id="a_node2"><a xlink:href="a01071.html" target="_top" xlink:title="tasks::qp::ConstraintFunction\l\&lt; GenInequality \&gt;">
<polygon fill="#ffffff" stroke="#000000" points="461,-99.5 461,-129.5 607,-129.5 607,-99.5 461,-99.5"/>
<text text-anchor="start" x="469" y="-117.5" font-family="Helvetica,sans-Serif" font-size="10.00" fill="#000000">tasks::qp::ConstraintFunction</text>
<text text-anchor="middle" x="534" y="-106.5" font-family="Helvetica,sans-Serif" font-size="10.00" fill="#000000">&lt; GenInequality &gt;</text>
</a>
</g>
</g>
<!-- Node8&#45;&gt;Node7 -->
<g id="edge1" class="edge">
<title>Node8&#45;&gt;Node7</title>
<path fill="none" stroke="#191970" d="M603.5367,-96.916C640.0583,-87.6807 683.3928,-76.7225 713.692,-69.0606"/>
<polygon fill="#191970" stroke="#191970" points="602.2696,-93.6262 593.4328,-99.471 603.9857,-100.4126 602.2696,-93.6262"/>
</g>
<!-- Node9 -->
<g id="node3" class="node">
<title>Node9</title>
<g id="a_node3"><a xlink:href="a01067.html" target="_top" xlink:title="tasks::qp::Constraint">
<polygon fill="#ffffff" stroke="#000000" points="247.5,-137 247.5,-156 355.5,-156 355.5,-137 247.5,-137"/>
<text text-anchor="middle" x="301.5" y="-144" font-family="Helvetica,sans-Serif" font-size="10.00" fill="#000000">tasks::qp::Constraint</text>
</a>
</g>
</g>
<!-- Node9&#45;&gt;Node8 -->
<g id="edge2" class="edge">
<title>Node9&#45;&gt;Node8</title>
<path fill="none" stroke="#191970" d="M365.8757,-137.6397C395.2993,-133.59 430.3004,-128.7726 460.7291,-124.5846"/>
<polygon fill="#191970" stroke="#191970" points="365.1469,-134.2069 355.7175,-139.0378 366.1014,-141.1415 365.1469,-134.2069"/>
</g>
<!-- Node10 -->
<g id="node4" class="node">
<title>Node10</title>
<polygon fill="#ffffff" stroke="#bfbfbf" points="285,-99 285,-118 318,-118 318,-99 285,-99"/>
<text text-anchor="middle" x="301.5" y="-106" font-family="Helvetica,sans-Serif" font-size="10.00" fill="#000000">Fun</text>
</g>
<!-- Node10&#45;&gt;Node8 -->
<g id="edge3" class="edge">
<title>Node10&#45;&gt;Node8</title>
<path fill="none" stroke="#191970" d="M328.6033,-109.1994C360.7982,-110.0303 415.8079,-111.4499 460.7995,-112.611"/>
<polygon fill="#191970" stroke="#191970" points="328.3078,-105.6907 318.2208,-108.9315 328.1272,-112.6884 328.3078,-105.6907"/>
</g>
<!-- Node11 -->
<g id="node5" class="node">
<title>Node11</title>
<polygon fill="#ffffff" stroke="#bfbfbf" points="465.5,-39 465.5,-80 602.5,-80 602.5,-39 465.5,-39"/>
<text text-anchor="start" x="473.5" y="-68" font-family="Helvetica,sans-Serif" font-size="10.00" fill="#000000">std::vector&lt; tasks</text>
<text text-anchor="start" x="473.5" y="-57" font-family="Helvetica,sans-Serif" font-size="10.00" fill="#000000">::qp::MotionConstrCommon</text>
<text text-anchor="middle" x="534" y="-46" font-family="Helvetica,sans-Serif" font-size="10.00" fill="#000000">::ContactData &gt;</text>
</g>
<!-- Node11&#45;&gt;Node7 -->
<g id="edge4" class="edge">
<title>Node11&#45;&gt;Node7</title>
<path fill="none" stroke="#9a32cd" stroke-dasharray="5,2" d="M612.5798,-59.5C631.5035,-59.5 651.7506,-59.5 670.7706,-59.5"/>
<polygon fill="#9a32cd" stroke="#9a32cd" points="612.5199,-56.0001 602.5198,-59.5 612.5198,-63.0001 612.5199,-56.0001"/>
<text text-anchor="middle" x="639" y="-62.5" font-family="Helvetica,sans-Serif" font-size="10.00" fill="#000000"> cont_</text>
</g>
<!-- Node12 -->
<g id="node6" class="node">
<title>Node12</title>
<g id="a_node6"><a xlink:href="a01039.html" target="_top" xlink:title="tasks::qp::MotionConstrCommon\l::ContactData">
<polygon fill="#ffffff" stroke="#000000" points="221,-44.5 221,-74.5 382,-74.5 382,-44.5 221,-44.5"/>
<text text-anchor="start" x="229" y="-62.5" font-family="Helvetica,sans-Serif" font-size="10.00" fill="#000000">tasks::qp::MotionConstrCommon</text>
<text text-anchor="middle" x="301.5" y="-51.5" font-family="Helvetica,sans-Serif" font-size="10.00" fill="#000000">::ContactData</text>
</a>
</g>
</g>
<!-- Node12&#45;&gt;Node11 -->
<g id="edge5" class="edge">
<title>Node12&#45;&gt;Node11</title>
<path fill="none" stroke="#9a32cd" stroke-dasharray="5,2" d="M392.4668,-59.5C416.7568,-59.5 442.5945,-59.5 465.4545,-59.5"/>
<polygon fill="#9a32cd" stroke="#9a32cd" points="392.1647,-56.0001 382.1647,-59.5 392.1647,-63.0001 392.1647,-56.0001"/>
<text text-anchor="middle" x="421.5" y="-62.5" font-family="Helvetica,sans-Serif" font-size="10.00" fill="#000000"> elements</text>
</g>
<!-- Node13 -->
<g id="node7" class="node">
<title>Node13</title>
<polygon fill="#ffffff" stroke="#bfbfbf" points="0,-88 0,-129 107,-129 107,-88 0,-88"/>
<text text-anchor="start" x="8" y="-117" font-family="Helvetica,sans-Serif" font-size="10.00" fill="#000000">std::vector&lt; Eigen</text>
<text text-anchor="start" x="8" y="-106" font-family="Helvetica,sans-Serif" font-size="10.00" fill="#000000">::Matrix&lt; double, 3,</text>
<text text-anchor="middle" x="53.5" y="-95" font-family="Helvetica,sans-Serif" font-size="10.00" fill="#000000"> Eigen::Dynamic &gt; &gt;</text>
</g>
<!-- Node13&#45;&gt;Node12 -->
<g id="edge6" class="edge">
<title>Node13&#45;&gt;Node12</title>
<path fill="none" stroke="#9a32cd" stroke-dasharray="5,2" d="M117.0128,-95.9511C150.0888,-89.4159 190.7694,-81.3782 225.5061,-74.5149"/>
<polygon fill="#9a32cd" stroke="#9a32cd" points="116.1389,-92.556 107.007,-97.9281 117.4958,-99.4233 116.1389,-92.556"/>
<text text-anchor="middle" x="164" y="-96.5" font-family="Helvetica,sans-Serif" font-size="10.00" fill="#000000"> minusGenerators</text>
</g>
<!-- Node14 -->
<g id="node8" class="node">
<title>Node14</title>
<g id="a_node8"><a doxygen="/usr/local/share/doc/RBDyn/doxygen-html/RBDyn.doxytag:/usr/local/share/doc/RBDyn/doxygen-html/" xlink:href="/usr/local/share/doc/RBDyn/doxygen-html/a00991.html" target="_top" xlink:title="rbd::Jacobian">
<polygon fill="#ffffff" stroke="#000000" points="16,-50 16,-69 91,-69 91,-50 16,-50"/>
<text text-anchor="middle" x="53.5" y="-57" font-family="Helvetica,sans-Serif" font-size="10.00" fill="#000000">rbd::Jacobian</text>
</a>
</g>
</g>
<!-- Node14&#45;&gt;Node12 -->
<g id="edge7" class="edge">
<title>Node14&#45;&gt;Node12</title>
<path fill="none" stroke="#9a32cd" stroke-dasharray="5,2" d="M101.2474,-59.5C135.0812,-59.5 181.295,-59.5 220.8021,-59.5"/>
<polygon fill="#9a32cd" stroke="#9a32cd" points="101.1659,-56.0001 91.1659,-59.5 101.1658,-63.0001 101.1659,-56.0001"/>
<text text-anchor="middle" x="164" y="-62.5" font-family="Helvetica,sans-Serif" font-size="10.00" fill="#000000"> jac</text>
</g>
<!-- Node15 -->
<g id="node9" class="node">
<title>Node15</title>
<polygon fill="#ffffff" stroke="#bfbfbf" points="5,-.5 5,-30.5 102,-30.5 102,-.5 5,-.5"/>
<text text-anchor="start" x="13" y="-18.5" font-family="Helvetica,sans-Serif" font-size="10.00" fill="#000000">std::vector&lt; Eigen</text>
<text text-anchor="middle" x="53.5" y="-7.5" font-family="Helvetica,sans-Serif" font-size="10.00" fill="#000000">::Vector3d &gt;</text>
</g>
<!-- Node15&#45;&gt;Node12 -->
<g id="edge8" class="edge">
<title>Node15&#45;&gt;Node12</title>
<path fill="none" stroke="#9a32cd" stroke-dasharray="5,2" d="M112.4028,-25.9505C144.7716,-31.6933 185.4006,-38.9017 220.6943,-45.1635"/>
<polygon fill="#9a32cd" stroke="#9a32cd" points="112.6586,-22.4413 102.2009,-24.1405 111.4357,-29.3337 112.6586,-22.4413"/>
<text text-anchor="middle" x="164" y="-44.5" font-family="Helvetica,sans-Serif" font-size="10.00" fill="#000000"> points</text>
</g>
<!-- Node16 -->
<g id="node10" class="node">
<title>Node16</title>
<g id="a_node10"><a doxygen="/usr/local/share/doc/RBDyn/doxygen-html/RBDyn.doxytag:/usr/local/share/doc/RBDyn/doxygen-html/" xlink:href="/usr/local/share/doc/RBDyn/doxygen-html/a00967.html" target="_top" xlink:title="rbd::ForwardDynamics">
<polygon fill="#ffffff" stroke="#000000" points="476,-1 476,-20 592,-20 592,-1 476,-1"/>
<text text-anchor="middle" x="534" y="-8" font-family="Helvetica,sans-Serif" font-size="10.00" fill="#000000">rbd::ForwardDynamics</text>
</a>
</g>
</g>
<!-- Node16&#45;&gt;Node7 -->
<g id="edge9" class="edge">
<title>Node16&#45;&gt;Node7</title>
<path fill="none" stroke="#9a32cd" stroke-dasharray="5,2" d="M585.96,-22.2059C623.5885,-30.6832 673.8258,-42.001 709.0525,-49.9371"/>
<polygon fill="#9a32cd" stroke="#9a32cd" points="586.7188,-18.7892 576.1941,-20.0058 585.1803,-25.6181 586.7188,-18.7892"/>
<text text-anchor="middle" x="639" y="-39.5" font-family="Helvetica,sans-Serif" font-size="10.00" fill="#000000"> fd_</text>
</g>
</g>
</svg>
