<?xml version="1.0" encoding="UTF-8" standalone="no"?>
<!DOCTYPE svg PUBLIC "-//W3C//DTD SVG 1.1//EN"
 "http://www.w3.org/Graphics/SVG/1.1/DTD/svg11.dtd">
<!-- Generated by graphviz version 2.40.1 (20161225.0304)
 -->
<!-- Title: tasks::qp::MotionConstrCommon Pages: 1 -->
<svg width="303pt" height="263pt"
 viewBox="0.00 0.00 303.00 263.00" xmlns="http://www.w3.org/2000/svg" xmlns:xlink="http://www.w3.org/1999/xlink">
<g id="graph0" class="graph" transform="scale(1 1) rotate(0) translate(4 259)">
<title>tasks::qp::MotionConstrCommon</title>
<polygon fill="#ffffff" stroke="transparent" points="-4,4 -4,-259 299,-259 299,4 -4,4"/>
<!-- Node0 -->
<g id="node1" class="node">
<title>Node0</title>
<polygon fill="#bfbfbf" stroke="#000000" points="69,-112.5 69,-131.5 230,-131.5 230,-112.5 69,-112.5"/>
<text text-anchor="middle" x="149.5" y="-119.5" font-family="Helvetica,sans-Serif" font-size="10.00" fill="#000000">tasks::qp::MotionConstrCommon</text>
</g>
<!-- Node4 -->
<g id="node5" class="node">
<title>Node4</title>
<g id="a_node5"><a xlink:href="a01049.html" target="_top" xlink:title="tasks::qp::MotionConstr">
<polygon fill="#ffffff" stroke="#000000" points="13.5,-56.5 13.5,-75.5 135.5,-75.5 135.5,-56.5 13.5,-56.5"/>
<text text-anchor="middle" x="74.5" y="-63.5" font-family="Helvetica,sans-Serif" font-size="10.00" fill="#000000">tasks::qp::MotionConstr</text>
</a>
</g>
</g>
<!-- Node0&#45;&gt;Node4 -->
<g id="edge4" class="edge">
<title>Node0&#45;&gt;Node4</title>
<path fill="none" stroke="#191970" d="M128.3523,-106.2097C115.1799,-96.3743 98.66,-84.0394 87.4143,-75.6427"/>
<polygon fill="#191970" stroke="#191970" points="126.3291,-109.0671 136.436,-112.2455 130.5172,-103.4581 126.3291,-109.0671"/>
</g>
<!-- Node6 -->
<g id="node7" class="node">
<title>Node6</title>
<g id="a_node7"><a xlink:href="a01065.html" target="_top" xlink:title="Use polynome in function of q to compute torque limits. ">
<polygon fill="#ffffff" stroke="#000000" points="154,-56.5 154,-75.5 295,-75.5 295,-56.5 154,-56.5"/>
<text text-anchor="middle" x="224.5" y="-63.5" font-family="Helvetica,sans-Serif" font-size="10.00" fill="#000000">tasks::qp::MotionPolyConstr</text>
</a>
</g>
</g>
<!-- Node0&#45;&gt;Node6 -->
<g id="edge6" class="edge">
<title>Node0&#45;&gt;Node6</title>
<path fill="none" stroke="#191970" d="M170.6477,-106.2097C183.8201,-96.3743 200.34,-84.0394 211.5857,-75.6427"/>
<polygon fill="#191970" stroke="#191970" points="168.4828,-103.4581 162.564,-112.2455 172.6709,-109.0671 168.4828,-103.4581"/>
</g>
<!-- Node1 -->
<g id="node2" class="node">
<title>Node1</title>
<g id="a_node2"><a xlink:href="a01077.html" target="_top" xlink:title="tasks::qp::ConstraintFunction\l\&lt; GenInequality \&gt;">
<polygon fill="#ffffff" stroke="#000000" points="76.5,-168.5 76.5,-198.5 222.5,-198.5 222.5,-168.5 76.5,-168.5"/>
<text text-anchor="start" x="84.5" y="-186.5" font-family="Helvetica,sans-Serif" font-size="10.00" fill="#000000">tasks::qp::ConstraintFunction</text>
<text text-anchor="middle" x="149.5" y="-175.5" font-family="Helvetica,sans-Serif" font-size="10.00" fill="#000000">&lt; GenInequality &gt;</text>
</a>
</g>
</g>
<!-- Node1&#45;&gt;Node0 -->
<g id="edge1" class="edge">
<title>Node1&#45;&gt;Node0</title>
<path fill="none" stroke="#191970" d="M149.5,-158.2849C149.5,-148.9858 149.5,-138.9883 149.5,-131.8469"/>
<polygon fill="#191970" stroke="#191970" points="146.0001,-158.2977 149.5,-168.2977 153.0001,-158.2978 146.0001,-158.2977"/>
</g>
<!-- Node2 -->
<g id="node3" class="node">
<title>Node2</title>
<g id="a_node3"><a xlink:href="a01073.html" target="_top" xlink:title="tasks::qp::Constraint">
<polygon fill="#ffffff" stroke="#000000" points="51.5,-235.5 51.5,-254.5 159.5,-254.5 159.5,-235.5 51.5,-235.5"/>
<text text-anchor="middle" x="105.5" y="-242.5" font-family="Helvetica,sans-Serif" font-size="10.00" fill="#000000">tasks::qp::Constraint</text>
</a>
</g>
</g>
<!-- Node2&#45;&gt;Node1 -->
<g id="edge2" class="edge">
<title>Node2&#45;&gt;Node1</title>
<path fill="none" stroke="#191970" d="M118.3153,-227.0877C124.7951,-218.0307 132.5706,-207.1627 138.7364,-198.5446"/>
<polygon fill="#191970" stroke="#191970" points="115.3472,-225.2212 112.375,-235.3906 121.0402,-229.2943 115.3472,-225.2212"/>
</g>
<!-- Node3 -->
<g id="node4" class="node">
<title>Node3</title>
<polygon fill="#ffffff" stroke="#bfbfbf" points="178,-235.5 178,-254.5 211,-254.5 211,-235.5 178,-235.5"/>
<text text-anchor="middle" x="194.5" y="-242.5" font-family="Helvetica,sans-Serif" font-size="10.00" fill="#000000">Fun</text>
</g>
<!-- Node3&#45;&gt;Node1 -->
<g id="edge3" class="edge">
<title>Node3&#45;&gt;Node1</title>
<path fill="none" stroke="#191970" d="M181.3934,-227.0877C174.7664,-218.0307 166.8142,-207.1627 160.5082,-198.5446"/>
<polygon fill="#191970" stroke="#191970" points="178.739,-229.3871 187.4688,-235.3906 184.3882,-225.2535 178.739,-229.3871"/>
</g>
<!-- Node5 -->
<g id="node6" class="node">
<title>Node5</title>
<g id="a_node6"><a xlink:href="a01057.html" target="_top" xlink:title="tasks::qp::MotionSpringConstr">
<polygon fill="#ffffff" stroke="#000000" points="0,-.5 0,-19.5 149,-19.5 149,-.5 0,-.5"/>
<text text-anchor="middle" x="74.5" y="-7.5" font-family="Helvetica,sans-Serif" font-size="10.00" fill="#000000">tasks::qp::MotionSpringConstr</text>
</a>
</g>
</g>
<!-- Node4&#45;&gt;Node5 -->
<g id="edge5" class="edge">
<title>Node4&#45;&gt;Node5</title>
<path fill="none" stroke="#191970" d="M74.5,-46.1575C74.5,-37.155 74.5,-26.9199 74.5,-19.6427"/>
<polygon fill="#191970" stroke="#191970" points="71.0001,-46.2455 74.5,-56.2455 78.0001,-46.2456 71.0001,-46.2455"/>
</g>
</g>
</svg>
