<?xml version="1.0" encoding="UTF-8" standalone="no"?>
<!DOCTYPE svg PUBLIC "-//W3C//DTD SVG 1.1//EN"
 "http://www.w3.org/Graphics/SVG/1.1/DTD/svg11.dtd">
<!-- Generated by graphviz version 2.40.1 (20161225.0304)
 -->
<!-- Title: tasks::qp::MotionConstrCommon::ContactData Pages: 1 -->
<svg width="390pt" height="138pt"
 viewBox="0.00 0.00 390.00 137.50" xmlns="http://www.w3.org/2000/svg" xmlns:xlink="http://www.w3.org/1999/xlink">
<g id="graph0" class="graph" transform="scale(1 1) rotate(0) translate(4 133.5)">
<title>tasks::qp::MotionConstrCommon::ContactData</title>
<polygon fill="#ffffff" stroke="transparent" points="-4,4 -4,-133.5 386,-133.5 386,4 -4,4"/>
<!-- Node1 -->
<g id="node1" class="node">
<title>Node1</title>
<polygon fill="#bfbfbf" stroke="#000000" points="221,-44.5 221,-74.5 382,-74.5 382,-44.5 221,-44.5"/>
<text text-anchor="start" x="229" y="-62.5" font-family="Helvetica,sans-Serif" font-size="10.00" fill="#000000">tasks::qp::MotionConstrCommon</text>
<text text-anchor="middle" x="301.5" y="-51.5" font-family="Helvetica,sans-Serif" font-size="10.00" fill="#000000">::ContactData</text>
</g>
<!-- Node2 -->
<g id="node2" class="node">
<title>Node2</title>
<polygon fill="#ffffff" stroke="#bfbfbf" points="0,-88 0,-129 107,-129 107,-88 0,-88"/>
<text text-anchor="start" x="8" y="-117" font-family="Helvetica,sans-Serif" font-size="10.00" fill="#000000">std::vector&lt; Eigen</text>
<text text-anchor="start" x="8" y="-106" font-family="Helvetica,sans-Serif" font-size="10.00" fill="#000000">::Matrix&lt; double, 3,</text>
<text text-anchor="middle" x="53.5" y="-95" font-family="Helvetica,sans-Serif" font-size="10.00" fill="#000000"> Eigen::Dynamic &gt; &gt;</text>
</g>
<!-- Node2&#45;&gt;Node1 -->
<g id="edge1" class="edge">
<title>Node2&#45;&gt;Node1</title>
<path fill="none" stroke="#9a32cd" stroke-dasharray="5,2" d="M117.0128,-95.9511C150.0888,-89.4159 190.7694,-81.3782 225.5061,-74.5149"/>
<polygon fill="#9a32cd" stroke="#9a32cd" points="116.1389,-92.556 107.007,-97.9281 117.4958,-99.4233 116.1389,-92.556"/>
<text text-anchor="middle" x="164" y="-96.5" font-family="Helvetica,sans-Serif" font-size="10.00" fill="#000000"> minusGenerators</text>
</g>
<!-- Node3 -->
<g id="node3" class="node">
<title>Node3</title>
<g id="a_node3"><a doxygen="/usr/local/share/doc/RBDyn/doxygen-html/RBDyn.doxytag:/usr/local/share/doc/RBDyn/doxygen-html/" xlink:href="/usr/local/share/doc/RBDyn/doxygen-html/a00991.html" target="_top" xlink:title="rbd::Jacobian">
<polygon fill="#ffffff" stroke="#000000" points="16,-50 16,-69 91,-69 91,-50 16,-50"/>
<text text-anchor="middle" x="53.5" y="-57" font-family="Helvetica,sans-Serif" font-size="10.00" fill="#000000">rbd::Jacobian</text>
</a>
</g>
</g>
<!-- Node3&#45;&gt;Node1 -->
<g id="edge2" class="edge">
<title>Node3&#45;&gt;Node1</title>
<path fill="none" stroke="#9a32cd" stroke-dasharray="5,2" d="M101.2474,-59.5C135.0812,-59.5 181.295,-59.5 220.8021,-59.5"/>
<polygon fill="#9a32cd" stroke="#9a32cd" points="101.1659,-56.0001 91.1659,-59.5 101.1658,-63.0001 101.1659,-56.0001"/>
<text text-anchor="middle" x="164" y="-62.5" font-family="Helvetica,sans-Serif" font-size="10.00" fill="#000000"> jac</text>
</g>
<!-- Node4 -->
<g id="node4" class="node">
<title>Node4</title>
<polygon fill="#ffffff" stroke="#bfbfbf" points="5,-.5 5,-30.5 102,-30.5 102,-.5 5,-.5"/>
<text text-anchor="start" x="13" y="-18.5" font-family="Helvetica,sans-Serif" font-size="10.00" fill="#000000">std::vector&lt; Eigen</text>
<text text-anchor="middle" x="53.5" y="-7.5" font-family="Helvetica,sans-Serif" font-size="10.00" fill="#000000">::Vector3d &gt;</text>
</g>
<!-- Node4&#45;&gt;Node1 -->
<g id="edge3" class="edge">
<title>Node4&#45;&gt;Node1</title>
<path fill="none" stroke="#9a32cd" stroke-dasharray="5,2" d="M112.4028,-25.9505C144.7716,-31.6933 185.4006,-38.9017 220.6943,-45.1635"/>
<polygon fill="#9a32cd" stroke="#9a32cd" points="112.6586,-22.4413 102.2009,-24.1405 111.4357,-29.3337 112.6586,-22.4413"/>
<text text-anchor="middle" x="164" y="-44.5" font-family="Helvetica,sans-Serif" font-size="10.00" fill="#000000"> points</text>
</g>
</g>
</svg>
