<?xml version="1.0" encoding="UTF-8" standalone="no"?>
<!DOCTYPE svg PUBLIC "-//W3C//DTD SVG 1.1//EN"
 "http://www.w3.org/Graphics/SVG/1.1/DTD/svg11.dtd">
<!-- Generated by graphviz version 2.40.1 (20161225.0304)
 -->
<!-- Title: tasks::qp::Task Pages: 1 -->
<svg width="469pt" height="294pt"
 viewBox="0.00 0.00 469.00 294.00" xmlns="http://www.w3.org/2000/svg" xmlns:xlink="http://www.w3.org/1999/xlink">
<g id="graph0" class="graph" transform="scale(1 1) rotate(0) translate(4 290)">
<title>tasks::qp::Task</title>
<polygon fill="#ffffff" stroke="transparent" points="-4,4 -4,-290 465,-290 465,4 -4,4"/>
<!-- Node0 -->
<g id="node1" class="node">
<title>Node0</title>
<polygon fill="#bfbfbf" stroke="#000000" points="0,-133.5 0,-152.5 85,-152.5 85,-133.5 0,-133.5"/>
<text text-anchor="middle" x="42.5" y="-140.5" font-family="Helvetica,sans-Serif" font-size="10.00" fill="#000000">tasks::qp::Task</text>
</g>
<!-- Node1 -->
<g id="node2" class="node">
<title>Node1</title>
<g id="a_node2"><a xlink:href="a01219.html" target="_top" xlink:title="tasks::qp::ContactTask">
<polygon fill="#ffffff" stroke="#000000" points="149.5,-266.5 149.5,-285.5 268.5,-285.5 268.5,-266.5 149.5,-266.5"/>
<text text-anchor="middle" x="209" y="-273.5" font-family="Helvetica,sans-Serif" font-size="10.00" fill="#000000">tasks::qp::ContactTask</text>
</a>
</g>
</g>
<!-- Node0&#45;&gt;Node1 -->
<g id="edge1" class="edge">
<title>Node0&#45;&gt;Node1</title>
<path fill="none" stroke="#191970" d="M50.2833,-162.2545C61.7558,-188.068 85.7301,-233.3744 121,-257 129.4407,-262.654 139.2683,-266.6617 149.2344,-269.4947"/>
<polygon fill="#191970" stroke="#191970" points="53.3959,-160.6307 46.2564,-152.8027 46.956,-163.3744 53.3959,-160.6307"/>
</g>
<!-- Node2 -->
<g id="node3" class="node">
<title>Node2</title>
<g id="a_node3"><a xlink:href="a01223.html" target="_top" xlink:title="tasks::qp::GripperTorqueTask">
<polygon fill="#ffffff" stroke="#000000" points="136,-228.5 136,-247.5 282,-247.5 282,-228.5 136,-228.5"/>
<text text-anchor="middle" x="209" y="-235.5" font-family="Helvetica,sans-Serif" font-size="10.00" fill="#000000">tasks::qp::GripperTorqueTask</text>
</a>
</g>
</g>
<!-- Node0&#45;&gt;Node2 -->
<g id="edge2" class="edge">
<title>Node0&#45;&gt;Node2</title>
<path fill="none" stroke="#191970" d="M56.021,-160.9795C70.2333,-178.5503 94.2183,-204.6829 121,-219 128.3054,-222.9054 136.3578,-226.0081 144.5347,-228.473"/>
<polygon fill="#191970" stroke="#191970" points="58.4397,-158.3916 49.5166,-152.6794 52.93,-162.7094 58.4397,-158.3916"/>
</g>
<!-- Node3 -->
<g id="node4" class="node">
<title>Node3</title>
<g id="a_node4"><a xlink:href="a01207.html" target="_top" xlink:title="tasks::qp::MultiCoMTask">
<polygon fill="#ffffff" stroke="#000000" points="145.5,-190.5 145.5,-209.5 272.5,-209.5 272.5,-190.5 145.5,-190.5"/>
<text text-anchor="middle" x="209" y="-197.5" font-family="Helvetica,sans-Serif" font-size="10.00" fill="#000000">tasks::qp::MultiCoMTask</text>
</a>
</g>
</g>
<!-- Node0&#45;&gt;Node3 -->
<g id="edge3" class="edge">
<title>Node0&#45;&gt;Node3</title>
<path fill="none" stroke="#191970" d="M68.3077,-157.4243C83.3119,-165.3142 102.7977,-174.7299 121,-181 131.7877,-184.716 143.5787,-187.8577 154.9235,-190.4504"/>
<polygon fill="#191970" stroke="#191970" points="69.6195,-154.156 59.1536,-152.5082 66.3076,-160.323 69.6195,-154.156"/>
</g>
<!-- Node4 -->
<g id="node5" class="node">
<title>Node4</title>
<g id="a_node5"><a xlink:href="a01211.html" target="_top" xlink:title="tasks::qp::MultiRobotTransformTask">
<polygon fill="#ffffff" stroke="#000000" points="121,-152.5 121,-171.5 297,-171.5 297,-152.5 121,-152.5"/>
<text text-anchor="middle" x="209" y="-159.5" font-family="Helvetica,sans-Serif" font-size="10.00" fill="#000000">tasks::qp::MultiRobotTransformTask</text>
</a>
</g>
</g>
<!-- Node0&#45;&gt;Node4 -->
<g id="edge4" class="edge">
<title>Node0&#45;&gt;Node4</title>
<path fill="none" stroke="#191970" d="M95.507,-149.0488C105.0924,-150.1427 115.2968,-151.3071 125.5061,-152.4722"/>
<polygon fill="#191970" stroke="#191970" points="95.7103,-145.5494 85.3779,-147.893 94.9166,-152.5043 95.7103,-145.5494"/>
</g>
<!-- Node5 -->
<g id="node6" class="node">
<title>Node5</title>
<g id="a_node6"><a xlink:href="a01163.html" target="_top" xlink:title="tasks::qp::PostureTask">
<polygon fill="#ffffff" stroke="#000000" points="149.5,-114.5 149.5,-133.5 268.5,-133.5 268.5,-114.5 149.5,-114.5"/>
<text text-anchor="middle" x="209" y="-121.5" font-family="Helvetica,sans-Serif" font-size="10.00" fill="#000000">tasks::qp::PostureTask</text>
</a>
</g>
</g>
<!-- Node0&#45;&gt;Node5 -->
<g id="edge5" class="edge">
<title>Node0&#45;&gt;Node5</title>
<path fill="none" stroke="#191970" d="M95.727,-136.9261C112.8018,-134.9776 131.8222,-132.8071 149.3269,-130.8095"/>
<polygon fill="#191970" stroke="#191970" points="94.9166,-133.4957 85.3779,-138.107 95.7103,-140.4506 94.9166,-133.4957"/>
</g>
<!-- Node6 -->
<g id="node7" class="node">
<title>Node6</title>
<g id="a_node7"><a xlink:href="a01119.html" target="_top" xlink:title="tasks::qp::SetPointTaskCommon">
<polygon fill="#ffffff" stroke="#000000" points="128,-76.5 128,-95.5 290,-95.5 290,-76.5 128,-76.5"/>
<text text-anchor="middle" x="209" y="-83.5" font-family="Helvetica,sans-Serif" font-size="10.00" fill="#000000">tasks::qp::SetPointTaskCommon</text>
</a>
</g>
</g>
<!-- Node0&#45;&gt;Node6 -->
<g id="edge6" class="edge">
<title>Node0&#45;&gt;Node6</title>
<path fill="none" stroke="#191970" d="M68.3077,-128.5757C83.3119,-120.6858 102.7977,-111.2701 121,-105 131.7877,-101.284 143.5787,-98.1423 154.9235,-95.5496"/>
<polygon fill="#191970" stroke="#191970" points="66.3076,-125.677 59.1536,-133.4918 69.6195,-131.844 66.3076,-125.677"/>
</g>
<!-- Node11 -->
<g id="node12" class="node">
<title>Node11</title>
<g id="a_node12"><a xlink:href="a01139.html" target="_top" xlink:title="tasks::qp::TargetObjectiveTask">
<polygon fill="#ffffff" stroke="#000000" points="132,-38.5 132,-57.5 286,-57.5 286,-38.5 132,-38.5"/>
<text text-anchor="middle" x="209" y="-45.5" font-family="Helvetica,sans-Serif" font-size="10.00" fill="#000000">tasks::qp::TargetObjectiveTask</text>
</a>
</g>
</g>
<!-- Node0&#45;&gt;Node11 -->
<g id="edge11" class="edge">
<title>Node0&#45;&gt;Node11</title>
<path fill="none" stroke="#191970" d="M56.021,-125.0205C70.2333,-107.4497 94.2183,-81.3171 121,-67 128.3054,-63.0946 136.3578,-59.9919 144.5347,-57.527"/>
<polygon fill="#191970" stroke="#191970" points="52.93,-123.2906 49.5166,-133.3206 58.4397,-127.6084 52.93,-123.2906"/>
</g>
<!-- Node12 -->
<g id="node13" class="node">
<title>Node12</title>
<g id="a_node13"><a xlink:href="a01159.html" target="_top" xlink:title="tasks::qp::TorqueTask">
<polygon fill="#ffffff" stroke="#000000" points="151.5,-.5 151.5,-19.5 266.5,-19.5 266.5,-.5 151.5,-.5"/>
<text text-anchor="middle" x="209" y="-7.5" font-family="Helvetica,sans-Serif" font-size="10.00" fill="#000000">tasks::qp::TorqueTask</text>
</a>
</g>
</g>
<!-- Node0&#45;&gt;Node12 -->
<g id="edge12" class="edge">
<title>Node0&#45;&gt;Node12</title>
<path fill="none" stroke="#191970" d="M50.2833,-123.7455C61.7558,-97.932 85.7301,-52.6256 121,-29 129.9601,-22.998 140.4831,-18.8512 151.0756,-15.9955"/>
<polygon fill="#191970" stroke="#191970" points="46.956,-122.6256 46.2564,-133.1973 53.3959,-125.3693 46.956,-122.6256"/>
</g>
<!-- Node7 -->
<g id="node8" class="node">
<title>Node7</title>
<g id="a_node8"><a xlink:href="a01135.html" target="_top" xlink:title="tasks::qp::PIDTask">
<polygon fill="#ffffff" stroke="#000000" points="346,-133.5 346,-152.5 448,-152.5 448,-133.5 346,-133.5"/>
<text text-anchor="middle" x="397" y="-140.5" font-family="Helvetica,sans-Serif" font-size="10.00" fill="#000000">tasks::qp::PIDTask</text>
</a>
</g>
</g>
<!-- Node6&#45;&gt;Node7 -->
<g id="edge7" class="edge">
<title>Node6&#45;&gt;Node7</title>
<path fill="none" stroke="#191970" d="M274.3433,-98.0122C282.0694,-100.0464 289.7713,-102.3684 297,-105 314.0002,-111.1889 316.247,-117.1702 333,-124 341.6936,-127.5441 351.293,-130.7477 360.3546,-133.4713"/>
<polygon fill="#191970" stroke="#191970" points="275.1267,-94.6005 264.5779,-95.5879 273.44,-101.3943 275.1267,-94.6005"/>
</g>
<!-- Node8 -->
<g id="node9" class="node">
<title>Node8</title>
<g id="a_node9"><a xlink:href="a01123.html" target="_top" xlink:title="tasks::qp::SetPointTask">
<polygon fill="#ffffff" stroke="#000000" points="336,-95.5 336,-114.5 458,-114.5 458,-95.5 336,-95.5"/>
<text text-anchor="middle" x="397" y="-102.5" font-family="Helvetica,sans-Serif" font-size="10.00" fill="#000000">tasks::qp::SetPointTask</text>
</a>
</g>
</g>
<!-- Node6&#45;&gt;Node8 -->
<g id="edge8" class="edge">
<title>Node6&#45;&gt;Node8</title>
<path fill="none" stroke="#191970" d="M300.1859,-95.2156C312.2392,-96.4337 324.3543,-97.6581 335.7375,-98.8086"/>
<polygon fill="#191970" stroke="#191970" points="300.3943,-91.7189 290.093,-94.1956 299.6904,-98.6834 300.3943,-91.7189"/>
</g>
<!-- Node9 -->
<g id="node10" class="node">
<title>Node9</title>
<g id="a_node10"><a xlink:href="a01127.html" target="_top" xlink:title="tasks::qp::TrackingTask">
<polygon fill="#ffffff" stroke="#000000" points="336,-57.5 336,-76.5 458,-76.5 458,-57.5 336,-57.5"/>
<text text-anchor="middle" x="397" y="-64.5" font-family="Helvetica,sans-Serif" font-size="10.00" fill="#000000">tasks::qp::TrackingTask</text>
</a>
</g>
</g>
<!-- Node6&#45;&gt;Node9 -->
<g id="edge9" class="edge">
<title>Node6&#45;&gt;Node9</title>
<path fill="none" stroke="#191970" d="M300.1859,-76.7844C312.2392,-75.5663 324.3543,-74.3419 335.7375,-73.1914"/>
<polygon fill="#191970" stroke="#191970" points="299.6904,-73.3166 290.093,-77.8044 300.3943,-80.2811 299.6904,-73.3166"/>
</g>
<!-- Node10 -->
<g id="node11" class="node">
<title>Node10</title>
<g id="a_node11"><a xlink:href="a01131.html" target="_top" xlink:title="tasks::qp::TrajectoryTask">
<polygon fill="#ffffff" stroke="#000000" points="333,-19.5 333,-38.5 461,-38.5 461,-19.5 333,-19.5"/>
<text text-anchor="middle" x="397" y="-26.5" font-family="Helvetica,sans-Serif" font-size="10.00" fill="#000000">tasks::qp::TrajectoryTask</text>
</a>
</g>
</g>
<!-- Node6&#45;&gt;Node10 -->
<g id="edge10" class="edge">
<title>Node6&#45;&gt;Node10</title>
<path fill="none" stroke="#191970" d="M274.3433,-73.9878C282.0694,-71.9536 289.7713,-69.6316 297,-67 314.0002,-60.8111 316.247,-54.8298 333,-48 341.6936,-44.4559 351.293,-41.2523 360.3546,-38.5287"/>
<polygon fill="#191970" stroke="#191970" points="273.44,-70.6057 264.5779,-76.4121 275.1267,-77.3995 273.44,-70.6057"/>
</g>
</g>
</svg>
