<?xml version="1.0" encoding="UTF-8" standalone="no"?>
<!DOCTYPE svg PUBLIC "-//W3C//DTD SVG 1.1//EN"
 "http://www.w3.org/Graphics/SVG/1.1/DTD/svg11.dtd">
<!-- Generated by graphviz version 2.40.1 (20161225.0304)
 -->
<!-- Title: tasks::qp::MotionPolyConstr Pages: 1 -->
<svg width="1068pt" height="203pt"
 viewBox="0.00 0.00 1068.00 203.00" xmlns="http://www.w3.org/2000/svg" xmlns:xlink="http://www.w3.org/1999/xlink">
<g id="graph0" class="graph" transform="scale(1 1) rotate(0) translate(4 199)">
<title>tasks::qp::MotionPolyConstr</title>
<polygon fill="#ffffff" stroke="transparent" points="-4,4 -4,-199 1064,-199 1064,4 -4,4"/>
<!-- Node5 -->
<g id="node1" class="node">
<title>Node5</title>
<polygon fill="#bfbfbf" stroke="#000000" points="919,-44.5 919,-63.5 1060,-63.5 1060,-44.5 919,-44.5"/>
<text text-anchor="middle" x="989.5" y="-51.5" font-family="Helvetica,sans-Serif" font-size="10.00" fill="#000000">tasks::qp::MotionPolyConstr</text>
</g>
<!-- Node6 -->
<g id="node2" class="node">
<title>Node6</title>
<g id="a_node2"><a xlink:href="a01035.html" target="_top" xlink:title="tasks::qp::MotionConstrCommon">
<polygon fill="#ffffff" stroke="#000000" points="671,-88.5 671,-107.5 832,-107.5 832,-88.5 671,-88.5"/>
<text text-anchor="middle" x="751.5" y="-95.5" font-family="Helvetica,sans-Serif" font-size="10.00" fill="#000000">tasks::qp::MotionConstrCommon</text>
</a>
</g>
</g>
<!-- Node6&#45;&gt;Node5 -->
<g id="edge1" class="edge">
<title>Node6&#45;&gt;Node5</title>
<path fill="none" stroke="#191970" d="M842.2837,-89.5157C861.7534,-87.0149 882.1381,-83.8782 901,-80 921.5484,-75.775 944.241,-69.0658 961.5027,-63.5211"/>
<polygon fill="#191970" stroke="#191970" points="841.692,-86.0621 832.1986,-90.766 842.5533,-93.0089 841.692,-86.0621"/>
</g>
<!-- Node7 -->
<g id="node3" class="node">
<title>Node7</title>
<g id="a_node3"><a xlink:href="a01071.html" target="_top" xlink:title="tasks::qp::ConstraintFunction\l\&lt; GenInequality \&gt;">
<polygon fill="#ffffff" stroke="#000000" points="461,-138 461,-168 607,-168 607,-138 461,-138"/>
<text text-anchor="start" x="469" y="-156" font-family="Helvetica,sans-Serif" font-size="10.00" fill="#000000">tasks::qp::ConstraintFunction</text>
<text text-anchor="middle" x="534" y="-145" font-family="Helvetica,sans-Serif" font-size="10.00" fill="#000000">&lt; GenInequality &gt;</text>
</a>
</g>
</g>
<!-- Node7&#45;&gt;Node6 -->
<g id="edge2" class="edge">
<title>Node7&#45;&gt;Node6</title>
<path fill="none" stroke="#191970" d="M603.5367,-135.416C640.0583,-126.1807 683.3928,-115.2225 713.692,-107.5606"/>
<polygon fill="#191970" stroke="#191970" points="602.2696,-132.1262 593.4328,-137.971 603.9857,-138.9126 602.2696,-132.1262"/>
</g>
<!-- Node8 -->
<g id="node4" class="node">
<title>Node8</title>
<g id="a_node4"><a xlink:href="a01067.html" target="_top" xlink:title="tasks::qp::Constraint">
<polygon fill="#ffffff" stroke="#000000" points="247.5,-175.5 247.5,-194.5 355.5,-194.5 355.5,-175.5 247.5,-175.5"/>
<text text-anchor="middle" x="301.5" y="-182.5" font-family="Helvetica,sans-Serif" font-size="10.00" fill="#000000">tasks::qp::Constraint</text>
</a>
</g>
</g>
<!-- Node8&#45;&gt;Node7 -->
<g id="edge3" class="edge">
<title>Node8&#45;&gt;Node7</title>
<path fill="none" stroke="#191970" d="M365.8757,-176.1397C395.2993,-172.09 430.3004,-167.2726 460.7291,-163.0846"/>
<polygon fill="#191970" stroke="#191970" points="365.1469,-172.7069 355.7175,-177.5378 366.1014,-179.6415 365.1469,-172.7069"/>
</g>
<!-- Node9 -->
<g id="node5" class="node">
<title>Node9</title>
<polygon fill="#ffffff" stroke="#bfbfbf" points="285,-137.5 285,-156.5 318,-156.5 318,-137.5 285,-137.5"/>
<text text-anchor="middle" x="301.5" y="-144.5" font-family="Helvetica,sans-Serif" font-size="10.00" fill="#000000">Fun</text>
</g>
<!-- Node9&#45;&gt;Node7 -->
<g id="edge4" class="edge">
<title>Node9&#45;&gt;Node7</title>
<path fill="none" stroke="#191970" d="M328.6033,-147.6994C360.7982,-148.5303 415.8079,-149.9499 460.7995,-151.111"/>
<polygon fill="#191970" stroke="#191970" points="328.3078,-144.1907 318.2208,-147.4315 328.1272,-151.1884 328.3078,-144.1907"/>
</g>
<!-- Node10 -->
<g id="node6" class="node">
<title>Node10</title>
<polygon fill="#ffffff" stroke="#bfbfbf" points="465.5,-77.5 465.5,-118.5 602.5,-118.5 602.5,-77.5 465.5,-77.5"/>
<text text-anchor="start" x="473.5" y="-106.5" font-family="Helvetica,sans-Serif" font-size="10.00" fill="#000000">std::vector&lt; tasks</text>
<text text-anchor="start" x="473.5" y="-95.5" font-family="Helvetica,sans-Serif" font-size="10.00" fill="#000000">::qp::MotionConstrCommon</text>
<text text-anchor="middle" x="534" y="-84.5" font-family="Helvetica,sans-Serif" font-size="10.00" fill="#000000">::ContactData &gt;</text>
</g>
<!-- Node10&#45;&gt;Node6 -->
<g id="edge5" class="edge">
<title>Node10&#45;&gt;Node6</title>
<path fill="none" stroke="#9a32cd" stroke-dasharray="5,2" d="M612.5798,-98C631.5035,-98 651.7506,-98 670.7706,-98"/>
<polygon fill="#9a32cd" stroke="#9a32cd" points="612.5199,-94.5001 602.5198,-98 612.5198,-101.5001 612.5199,-94.5001"/>
<text text-anchor="middle" x="639" y="-101" font-family="Helvetica,sans-Serif" font-size="10.00" fill="#000000"> cont_</text>
</g>
<!-- Node11 -->
<g id="node7" class="node">
<title>Node11</title>
<g id="a_node7"><a xlink:href="a01039.html" target="_top" xlink:title="tasks::qp::MotionConstrCommon\l::ContactData">
<polygon fill="#ffffff" stroke="#000000" points="221,-83 221,-113 382,-113 382,-83 221,-83"/>
<text text-anchor="start" x="229" y="-101" font-family="Helvetica,sans-Serif" font-size="10.00" fill="#000000">tasks::qp::MotionConstrCommon</text>
<text text-anchor="middle" x="301.5" y="-90" font-family="Helvetica,sans-Serif" font-size="10.00" fill="#000000">::ContactData</text>
</a>
</g>
</g>
<!-- Node11&#45;&gt;Node10 -->
<g id="edge6" class="edge">
<title>Node11&#45;&gt;Node10</title>
<path fill="none" stroke="#9a32cd" stroke-dasharray="5,2" d="M392.4668,-98C416.7568,-98 442.5945,-98 465.4545,-98"/>
<polygon fill="#9a32cd" stroke="#9a32cd" points="392.1647,-94.5001 382.1647,-98 392.1647,-101.5001 392.1647,-94.5001"/>
<text text-anchor="middle" x="421.5" y="-101" font-family="Helvetica,sans-Serif" font-size="10.00" fill="#000000"> elements</text>
</g>
<!-- Node12 -->
<g id="node8" class="node">
<title>Node12</title>
<polygon fill="#ffffff" stroke="#bfbfbf" points="0,-126.5 0,-167.5 107,-167.5 107,-126.5 0,-126.5"/>
<text text-anchor="start" x="8" y="-155.5" font-family="Helvetica,sans-Serif" font-size="10.00" fill="#000000">std::vector&lt; Eigen</text>
<text text-anchor="start" x="8" y="-144.5" font-family="Helvetica,sans-Serif" font-size="10.00" fill="#000000">::Matrix&lt; double, 3,</text>
<text text-anchor="middle" x="53.5" y="-133.5" font-family="Helvetica,sans-Serif" font-size="10.00" fill="#000000"> Eigen::Dynamic &gt; &gt;</text>
</g>
<!-- Node12&#45;&gt;Node11 -->
<g id="edge7" class="edge">
<title>Node12&#45;&gt;Node11</title>
<path fill="none" stroke="#9a32cd" stroke-dasharray="5,2" d="M117.0128,-134.4511C150.0888,-127.9159 190.7694,-119.8782 225.5061,-113.0149"/>
<polygon fill="#9a32cd" stroke="#9a32cd" points="116.1389,-131.056 107.007,-136.4281 117.4958,-137.9233 116.1389,-131.056"/>
<text text-anchor="middle" x="164" y="-135" font-family="Helvetica,sans-Serif" font-size="10.00" fill="#000000"> minusGenerators</text>
</g>
<!-- Node13 -->
<g id="node9" class="node">
<title>Node13</title>
<g id="a_node9"><a doxygen="/usr/local/share/doc/RBDyn/doxygen-html/RBDyn.doxytag:/usr/local/share/doc/RBDyn/doxygen-html/" xlink:href="/usr/local/share/doc/RBDyn/doxygen-html/a00991.html" target="_top" xlink:title="rbd::Jacobian">
<polygon fill="#ffffff" stroke="#000000" points="16,-88.5 16,-107.5 91,-107.5 91,-88.5 16,-88.5"/>
<text text-anchor="middle" x="53.5" y="-95.5" font-family="Helvetica,sans-Serif" font-size="10.00" fill="#000000">rbd::Jacobian</text>
</a>
</g>
</g>
<!-- Node13&#45;&gt;Node11 -->
<g id="edge8" class="edge">
<title>Node13&#45;&gt;Node11</title>
<path fill="none" stroke="#9a32cd" stroke-dasharray="5,2" d="M101.2474,-98C135.0812,-98 181.295,-98 220.8021,-98"/>
<polygon fill="#9a32cd" stroke="#9a32cd" points="101.1659,-94.5001 91.1659,-98 101.1658,-101.5001 101.1659,-94.5001"/>
<text text-anchor="middle" x="164" y="-101" font-family="Helvetica,sans-Serif" font-size="10.00" fill="#000000"> jac</text>
</g>
<!-- Node14 -->
<g id="node10" class="node">
<title>Node14</title>
<polygon fill="#ffffff" stroke="#bfbfbf" points="5,-39 5,-69 102,-69 102,-39 5,-39"/>
<text text-anchor="start" x="13" y="-57" font-family="Helvetica,sans-Serif" font-size="10.00" fill="#000000">std::vector&lt; Eigen</text>
<text text-anchor="middle" x="53.5" y="-46" font-family="Helvetica,sans-Serif" font-size="10.00" fill="#000000">::Vector3d &gt;</text>
</g>
<!-- Node14&#45;&gt;Node11 -->
<g id="edge9" class="edge">
<title>Node14&#45;&gt;Node11</title>
<path fill="none" stroke="#9a32cd" stroke-dasharray="5,2" d="M112.4028,-64.4505C144.7716,-70.1933 185.4006,-77.4017 220.6943,-83.6635"/>
<polygon fill="#9a32cd" stroke="#9a32cd" points="112.6586,-60.9413 102.2009,-62.6405 111.4357,-67.8337 112.6586,-60.9413"/>
<text text-anchor="middle" x="164" y="-83" font-family="Helvetica,sans-Serif" font-size="10.00" fill="#000000"> points</text>
</g>
<!-- Node15 -->
<g id="node11" class="node">
<title>Node15</title>
<g id="a_node11"><a doxygen="/usr/local/share/doc/RBDyn/doxygen-html/RBDyn.doxytag:/usr/local/share/doc/RBDyn/doxygen-html/" xlink:href="/usr/local/share/doc/RBDyn/doxygen-html/a00967.html" target="_top" xlink:title="rbd::ForwardDynamics">
<polygon fill="#ffffff" stroke="#000000" points="476,-39.5 476,-58.5 592,-58.5 592,-39.5 476,-39.5"/>
<text text-anchor="middle" x="534" y="-46.5" font-family="Helvetica,sans-Serif" font-size="10.00" fill="#000000">rbd::ForwardDynamics</text>
</a>
</g>
</g>
<!-- Node15&#45;&gt;Node6 -->
<g id="edge10" class="edge">
<title>Node15&#45;&gt;Node6</title>
<path fill="none" stroke="#9a32cd" stroke-dasharray="5,2" d="M585.96,-60.7059C623.5885,-69.1832 673.8258,-80.501 709.0525,-88.4371"/>
<polygon fill="#9a32cd" stroke="#9a32cd" points="586.7188,-57.2892 576.1941,-58.5058 585.1803,-64.1181 586.7188,-57.2892"/>
<text text-anchor="middle" x="639" y="-78" font-family="Helvetica,sans-Serif" font-size="10.00" fill="#000000"> fd_</text>
</g>
<!-- Node16 -->
<g id="node12" class="node">
<title>Node16</title>
<polygon fill="#ffffff" stroke="#bfbfbf" points="703,-39 703,-69 800,-69 800,-39 703,-39"/>
<text text-anchor="start" x="711" y="-57" font-family="Helvetica,sans-Serif" font-size="10.00" fill="#000000">std::vector&lt; Eigen</text>
<text text-anchor="middle" x="751.5" y="-46" font-family="Helvetica,sans-Serif" font-size="10.00" fill="#000000">::VectorXd &gt;</text>
</g>
<!-- Node16&#45;&gt;Node5 -->
<g id="edge11" class="edge">
<title>Node16&#45;&gt;Node5</title>
<path fill="none" stroke="#9a32cd" stroke-dasharray="5,2" d="M810.5629,-54C843.3103,-54 884.2532,-54 918.7076,-54"/>
<polygon fill="#9a32cd" stroke="#9a32cd" points="810.2372,-50.5001 800.2372,-54 810.2371,-57.5001 810.2372,-50.5001"/>
<text text-anchor="middle" x="875.5" y="-68" font-family="Helvetica,sans-Serif" font-size="10.00" fill="#000000"> torqueU_</text>
<text text-anchor="middle" x="875.5" y="-57" font-family="Helvetica,sans-Serif" font-size="10.00" fill="#000000">torqueL_</text>
</g>
<!-- Node17 -->
<g id="node13" class="node">
<title>Node17</title>
<polygon fill="#ffffff" stroke="#bfbfbf" points="705.5,-.5 705.5,-19.5 797.5,-19.5 797.5,-.5 705.5,-.5"/>
<text text-anchor="middle" x="751.5" y="-7.5" font-family="Helvetica,sans-Serif" font-size="10.00" fill="#000000">std::vector&lt; int &gt;</text>
</g>
<!-- Node17&#45;&gt;Node5 -->
<g id="edge12" class="edge">
<title>Node17&#45;&gt;Node5</title>
<path fill="none" stroke="#9a32cd" stroke-dasharray="5,2" d="M807.6787,-20.386C847.197,-27.6919 899.6736,-37.3934 938.0899,-44.4956"/>
<polygon fill="#9a32cd" stroke="#9a32cd" points="808.1407,-16.9121 797.671,-18.5358 806.8681,-23.7955 808.1407,-16.9121"/>
<text text-anchor="middle" x="875.5" y="-41" font-family="Helvetica,sans-Serif" font-size="10.00" fill="#000000"> jointIndex_</text>
</g>
</g>
</svg>
