<?xml version="1.0" encoding="UTF-8" standalone="no"?>
<!DOCTYPE svg PUBLIC "-//W3C//DTD SVG 1.1//EN"
 "http://www.w3.org/Graphics/SVG/1.1/DTD/svg11.dtd">
<!-- Generated by graphviz version 2.40.1 (20161225.0304)
 -->
<!-- Title: tasks::qp::HighLevelTask Pages: 1 -->
<svg width="544pt" height="618pt"
 viewBox="0.00 0.00 544.00 617.50" xmlns="http://www.w3.org/2000/svg" xmlns:xlink="http://www.w3.org/1999/xlink">
<g id="graph0" class="graph" transform="scale(1 1) rotate(0) translate(4 613.5)">
<title>tasks::qp::HighLevelTask</title>
<polygon fill="#ffffff" stroke="transparent" points="-4,4 -4,-613.5 540,-613.5 540,4 -4,4"/>
<!-- Node0 -->
<g id="node1" class="node">
<title>Node0</title>
<polygon fill="#bfbfbf" stroke="#000000" points="0,-318 0,-337 128,-337 128,-318 0,-318"/>
<text text-anchor="middle" x="64" y="-325" font-family="Helvetica,sans-Serif" font-size="10.00" fill="#000000">tasks::qp::HighLevelTask</text>
</g>
<!-- Node1 -->
<g id="node2" class="node">
<title>Node1</title>
<g id="a_node2"><a xlink:href="a01203.html" target="_top" xlink:title="tasks::qp::CoMTask">
<polygon fill="#ffffff" stroke="#000000" points="197.5,-590 197.5,-609 303.5,-609 303.5,-590 197.5,-590"/>
<text text-anchor="middle" x="250.5" y="-597" font-family="Helvetica,sans-Serif" font-size="10.00" fill="#000000">tasks::qp::CoMTask</text>
</a>
</g>
</g>
<!-- Node0&#45;&gt;Node1 -->
<g id="edge1" class="edge">
<title>Node0&#45;&gt;Node1</title>
<path fill="none" stroke="#191970" d="M65.6456,-347.0746C70.76,-394.8655 90.7559,-518.1405 164,-580.5 173.3656,-588.4738 185.325,-593.3195 197.3424,-596.2134"/>
<polygon fill="#191970" stroke="#191970" points="69.1281,-346.7234 64.6828,-337.1062 62.1605,-347.3964 69.1281,-346.7234"/>
</g>
<!-- Node2 -->
<g id="node3" class="node">
<title>Node2</title>
<g id="a_node3"><a xlink:href="a01195.html" target="_top" xlink:title="tasks::qp::GazeTask">
<polygon fill="#ffffff" stroke="#000000" points="196.5,-552 196.5,-571 304.5,-571 304.5,-552 196.5,-552"/>
<text text-anchor="middle" x="250.5" y="-559" font-family="Helvetica,sans-Serif" font-size="10.00" fill="#000000">tasks::qp::GazeTask</text>
</a>
</g>
</g>
<!-- Node0&#45;&gt;Node2 -->
<g id="edge2" class="edge">
<title>Node0&#45;&gt;Node2</title>
<path fill="none" stroke="#191970" d="M67.1355,-346.9804C75.0621,-389.5599 100.0223,-491.2033 164,-542.5 173.2367,-549.9059 184.7425,-554.5756 196.3168,-557.485"/>
<polygon fill="#191970" stroke="#191970" points="70.571,-346.3073 65.4029,-337.0585 63.6754,-347.5115 70.571,-346.3073"/>
</g>
<!-- Node3 -->
<g id="node4" class="node">
<title>Node3</title>
<g id="a_node4"><a xlink:href="a01143.html" target="_top" xlink:title="tasks::qp::JointsSelector">
<polygon fill="#ffffff" stroke="#000000" points="188,-514 188,-533 313,-533 313,-514 188,-514"/>
<text text-anchor="middle" x="250.5" y="-521" font-family="Helvetica,sans-Serif" font-size="10.00" fill="#000000">tasks::qp::JointsSelector</text>
</a>
</g>
</g>
<!-- Node0&#45;&gt;Node3 -->
<g id="edge3" class="edge">
<title>Node0&#45;&gt;Node3</title>
<path fill="none" stroke="#191970" d="M69.229,-347.0096C80.189,-383.9473 109.2068,-464.012 164,-504.5 171.0485,-509.7083 179.2465,-513.5392 187.7327,-516.3479"/>
<polygon fill="#191970" stroke="#191970" points="72.4927,-345.6892 66.3988,-337.0223 65.7579,-347.5978 72.4927,-345.6892"/>
</g>
<!-- Node4 -->
<g id="node5" class="node">
<title>Node4</title>
<g id="a_node5"><a xlink:href="a01227.html" target="_top" xlink:title="tasks::qp::LinVelocityTask">
<polygon fill="#ffffff" stroke="#000000" points="184,-476 184,-495 317,-495 317,-476 184,-476"/>
<text text-anchor="middle" x="250.5" y="-483" font-family="Helvetica,sans-Serif" font-size="10.00" fill="#000000">tasks::qp::LinVelocityTask</text>
</a>
</g>
</g>
<!-- Node0&#45;&gt;Node4 -->
<g id="edge4" class="edge">
<title>Node0&#45;&gt;Node4</title>
<path fill="none" stroke="#191970" d="M72.1671,-346.589C86.2301,-377.0413 118.0063,-436.2554 164,-466.5 170.0379,-470.4704 176.7745,-473.6234 183.7495,-476.1252"/>
<polygon fill="#191970" stroke="#191970" points="75.2091,-344.8171 67.9373,-337.1118 68.8169,-347.6701 75.2091,-344.8171"/>
</g>
<!-- Node5 -->
<g id="node6" class="node">
<title>Node5</title>
<g id="a_node6"><a xlink:href="a01215.html" target="_top" xlink:title="tasks::qp::MomentumTask">
<polygon fill="#ffffff" stroke="#000000" points="183.5,-438 183.5,-457 317.5,-457 317.5,-438 183.5,-438"/>
<text text-anchor="middle" x="250.5" y="-445" font-family="Helvetica,sans-Serif" font-size="10.00" fill="#000000">tasks::qp::MomentumTask</text>
</a>
</g>
</g>
<!-- Node0&#45;&gt;Node5 -->
<g id="edge5" class="edge">
<title>Node0&#45;&gt;Node5</title>
<path fill="none" stroke="#191970" d="M76.3969,-345.2603C93.4086,-368.2147 126.2167,-407.6969 164,-428.5 171.0038,-432.3562 178.7312,-435.4298 186.5994,-437.8795"/>
<polygon fill="#191970" stroke="#191970" points="79.1763,-343.1308 70.4826,-337.0752 73.5025,-347.2306 79.1763,-343.1308"/>
</g>
<!-- Node6 -->
<g id="node7" class="node">
<title>Node6</title>
<g id="a_node7"><a xlink:href="a01175.html" target="_top" xlink:title="tasks::qp::OrientationTask">
<polygon fill="#ffffff" stroke="#000000" points="184.5,-400 184.5,-419 316.5,-419 316.5,-400 184.5,-400"/>
<text text-anchor="middle" x="250.5" y="-407" font-family="Helvetica,sans-Serif" font-size="10.00" fill="#000000">tasks::qp::OrientationTask</text>
</a>
</g>
</g>
<!-- Node0&#45;&gt;Node6 -->
<g id="edge6" class="edge">
<title>Node0&#45;&gt;Node6</title>
<path fill="none" stroke="#191970" d="M84.2633,-343.243C103.6919,-357.5916 134.3662,-378.3465 164,-390.5 173.2466,-394.2922 183.3741,-397.3836 193.3392,-399.8856"/>
<polygon fill="#191970" stroke="#191970" points="86.2672,-340.3707 76.1721,-337.1551 82.0586,-345.9642 86.2672,-340.3707"/>
</g>
<!-- Node7 -->
<g id="node8" class="node">
<title>Node7</title>
<g id="a_node8"><a xlink:href="a01231.html" target="_top" xlink:title="tasks::qp::OrientationTrackingTask">
<polygon fill="#ffffff" stroke="#000000" points="165.5,-362 165.5,-381 335.5,-381 335.5,-362 165.5,-362"/>
<text text-anchor="middle" x="250.5" y="-369" font-family="Helvetica,sans-Serif" font-size="10.00" fill="#000000">tasks::qp::OrientationTrackingTask</text>
</a>
</g>
</g>
<!-- Node0&#45;&gt;Node7 -->
<g id="edge7" class="edge">
<title>Node0&#45;&gt;Node7</title>
<path fill="none" stroke="#191970" d="M111.0513,-339.5588C127.7468,-343.7592 146.6872,-348.4354 164,-352.5 177.6212,-355.6979 192.4886,-359.0231 205.995,-361.981"/>
<polygon fill="#191970" stroke="#191970" points="111.5333,-336.0707 100.9807,-337.0147 109.8187,-342.8575 111.5333,-336.0707"/>
</g>
<!-- Node8 -->
<g id="node9" class="node">
<title>Node8</title>
<g id="a_node9"><a xlink:href="a01199.html" target="_top" xlink:title="tasks::qp::PositionBased\lVisServoTask">
<polygon fill="#ffffff" stroke="#000000" points="187.5,-312.5 187.5,-342.5 313.5,-342.5 313.5,-312.5 187.5,-312.5"/>
<text text-anchor="start" x="195.5" y="-330.5" font-family="Helvetica,sans-Serif" font-size="10.00" fill="#000000">tasks::qp::PositionBased</text>
<text text-anchor="middle" x="250.5" y="-319.5" font-family="Helvetica,sans-Serif" font-size="10.00" fill="#000000">VisServoTask</text>
</a>
</g>
</g>
<!-- Node0&#45;&gt;Node8 -->
<g id="edge8" class="edge">
<title>Node0&#45;&gt;Node8</title>
<path fill="none" stroke="#191970" d="M138.2134,-327.5C154.5219,-327.5 171.6418,-327.5 187.4612,-327.5"/>
<polygon fill="#191970" stroke="#191970" points="138.1828,-324.0001 128.1827,-327.5 138.1827,-331.0001 138.1828,-324.0001"/>
</g>
<!-- Node9 -->
<g id="node10" class="node">
<title>Node9</title>
<g id="a_node10"><a xlink:href="a01171.html" target="_top" xlink:title="tasks::qp::PositionTask">
<polygon fill="#ffffff" stroke="#000000" points="190.5,-274 190.5,-293 310.5,-293 310.5,-274 190.5,-274"/>
<text text-anchor="middle" x="250.5" y="-281" font-family="Helvetica,sans-Serif" font-size="10.00" fill="#000000">tasks::qp::PositionTask</text>
</a>
</g>
</g>
<!-- Node0&#45;&gt;Node9 -->
<g id="edge9" class="edge">
<title>Node0&#45;&gt;Node9</title>
<path fill="none" stroke="#191970" d="M113.1985,-315.6062C129.3743,-311.7188 147.4499,-307.3993 164,-303.5 178.5527,-300.0713 194.496,-296.3696 208.6867,-293.0939"/>
<polygon fill="#191970" stroke="#191970" points="112.3067,-312.2209 103.403,-317.9633 113.9443,-319.0266 112.3067,-312.2209"/>
</g>
<!-- Node10 -->
<g id="node11" class="node">
<title>Node10</title>
<g id="a_node11"><a xlink:href="a01235.html" target="_top" xlink:title="tasks::qp::RelativeDistTask">
<polygon fill="#ffffff" stroke="#000000" points="181,-236 181,-255 320,-255 320,-236 181,-236"/>
<text text-anchor="middle" x="250.5" y="-243" font-family="Helvetica,sans-Serif" font-size="10.00" fill="#000000">tasks::qp::RelativeDistTask</text>
</a>
</g>
</g>
<!-- Node0&#45;&gt;Node10 -->
<g id="edge10" class="edge">
<title>Node0&#45;&gt;Node10</title>
<path fill="none" stroke="#191970" d="M84.2633,-311.757C103.6919,-297.4084 134.3662,-276.6535 164,-264.5 173.2466,-260.7078 183.3741,-257.6164 193.3392,-255.1144"/>
<polygon fill="#191970" stroke="#191970" points="82.0586,-309.0358 76.1721,-317.8449 86.2672,-314.6293 82.0586,-309.0358"/>
</g>
<!-- Node11 -->
<g id="node12" class="node">
<title>Node11</title>
<g id="a_node12"><a xlink:href="a01191.html" target="_top" xlink:title="tasks::qp::SurfaceOrientationTask">
<polygon fill="#ffffff" stroke="#000000" points="167.5,-198 167.5,-217 333.5,-217 333.5,-198 167.5,-198"/>
<text text-anchor="middle" x="250.5" y="-205" font-family="Helvetica,sans-Serif" font-size="10.00" fill="#000000">tasks::qp::SurfaceOrientationTask</text>
</a>
</g>
</g>
<!-- Node0&#45;&gt;Node11 -->
<g id="edge11" class="edge">
<title>Node0&#45;&gt;Node11</title>
<path fill="none" stroke="#191970" d="M76.3969,-309.7397C93.4086,-286.7853 126.2167,-247.3031 164,-226.5 171.0038,-222.6438 178.7312,-219.5702 186.5994,-217.1205"/>
<polygon fill="#191970" stroke="#191970" points="73.5025,-307.7694 70.4826,-317.9248 79.1763,-311.8692 73.5025,-307.7694"/>
</g>
<!-- Node12 -->
<g id="node13" class="node">
<title>Node12</title>
<g id="a_node13"><a xlink:href="a01179.html" target="_top" xlink:title="tasks::qp::TransformTask\lCommon\&lt; transform_task_t \&gt;">
<polygon fill="#ffffff" stroke="#000000" points="176.5,-148.5 176.5,-178.5 324.5,-178.5 324.5,-148.5 176.5,-148.5"/>
<text text-anchor="start" x="184.5" y="-166.5" font-family="Helvetica,sans-Serif" font-size="10.00" fill="#000000">tasks::qp::TransformTask</text>
<text text-anchor="middle" x="250.5" y="-155.5" font-family="Helvetica,sans-Serif" font-size="10.00" fill="#000000">Common&lt; transform_task_t &gt;</text>
</a>
</g>
</g>
<!-- Node0&#45;&gt;Node12 -->
<g id="edge12" class="edge">
<title>Node0&#45;&gt;Node12</title>
<path fill="none" stroke="#191970" d="M72.6087,-308.3149C87.1002,-278.2135 119.2327,-220.0728 164,-188.5 169.4931,-184.6259 175.5813,-181.348 181.9097,-178.5752"/>
<polygon fill="#191970" stroke="#191970" points="69.2846,-307.1613 68.2267,-317.7032 75.6277,-310.1219 69.2846,-307.1613"/>
</g>
<!-- Node13 -->
<g id="node14" class="node">
<title>Node13</title>
<g id="a_node14"><a xlink:href="a01239.html" target="_top" xlink:title="tasks::qp::VectorOrientationTask">
<polygon fill="#ffffff" stroke="#000000" points="170,-110 170,-129 331,-129 331,-110 170,-110"/>
<text text-anchor="middle" x="250.5" y="-117" font-family="Helvetica,sans-Serif" font-size="10.00" fill="#000000">tasks::qp::VectorOrientationTask</text>
</a>
</g>
</g>
<!-- Node0&#45;&gt;Node13 -->
<g id="edge13" class="edge">
<title>Node0&#45;&gt;Node13</title>
<path fill="none" stroke="#191970" d="M68.6218,-307.9056C78.7897,-269.2969 106.8777,-183.3391 164,-139.5 169.6247,-135.1833 176.0209,-131.7721 182.7297,-129.0805"/>
<polygon fill="#191970" stroke="#191970" points="65.1609,-307.318 66.1238,-317.8689 71.9507,-309.0203 65.1609,-307.318"/>
</g>
<!-- Node14 -->
<g id="node15" class="node">
<title>Node14</title>
<g id="a_node15"><a xlink:href="a01179.html" target="_top" xlink:title="tasks::qp::TransformTask\lCommon\&lt; tasks::SurfaceTransform\lTask \&gt;">
<polygon fill="#ffffff" stroke="#000000" points="164,-50 164,-91 337,-91 337,-50 164,-50"/>
<text text-anchor="start" x="172" y="-79" font-family="Helvetica,sans-Serif" font-size="10.00" fill="#000000">tasks::qp::TransformTask</text>
<text text-anchor="start" x="172" y="-68" font-family="Helvetica,sans-Serif" font-size="10.00" fill="#000000">Common&lt; tasks::SurfaceTransform</text>
<text text-anchor="middle" x="250.5" y="-57" font-family="Helvetica,sans-Serif" font-size="10.00" fill="#000000">Task &gt;</text>
</a>
</g>
</g>
<!-- Node0&#45;&gt;Node14 -->
<g id="edge14" class="edge">
<title>Node0&#45;&gt;Node14</title>
<path fill="none" stroke="#191970" d="M67.2178,-307.8001C75.3577,-264.194 100.7981,-158.7728 164,-100.5 167.8563,-96.9444 172.1558,-93.807 176.7201,-91.0391"/>
<polygon fill="#191970" stroke="#191970" points="63.76,-307.255 65.4719,-317.7106 70.6539,-308.4695 63.76,-307.255"/>
</g>
<!-- Node16 -->
<g id="node17" class="node">
<title>Node16</title>
<g id="a_node17"><a xlink:href="a01179.html" target="_top" xlink:title="tasks::qp::TransformTask\lCommon\&lt; tasks::TransformTask \&gt;">
<polygon fill="#ffffff" stroke="#000000" points="165.5,-.5 165.5,-30.5 335.5,-30.5 335.5,-.5 165.5,-.5"/>
<text text-anchor="start" x="173.5" y="-18.5" font-family="Helvetica,sans-Serif" font-size="10.00" fill="#000000">tasks::qp::TransformTask</text>
<text text-anchor="middle" x="250.5" y="-7.5" font-family="Helvetica,sans-Serif" font-size="10.00" fill="#000000">Common&lt; tasks::TransformTask &gt;</text>
</a>
</g>
</g>
<!-- Node0&#45;&gt;Node16 -->
<g id="edge16" class="edge">
<title>Node0&#45;&gt;Node16</title>
<path fill="none" stroke="#191970" d="M64.9045,-307.7821C68.3634,-256.0736 84.9475,-115.4004 164,-40.5 168.0851,-36.6295 172.7318,-33.3531 177.7014,-30.5804"/>
<polygon fill="#191970" stroke="#191970" points="61.4014,-307.7368 64.3236,-317.9207 68.39,-308.1373 61.4014,-307.7368"/>
</g>
<!-- Node15 -->
<g id="node16" class="node">
<title>Node15</title>
<g id="a_node16"><a xlink:href="a01183.html" target="_top" xlink:title="TransformTask in surface frame. ">
<polygon fill="#ffffff" stroke="#000000" points="373,-61 373,-80 536,-80 536,-61 373,-61"/>
<text text-anchor="middle" x="454.5" y="-68" font-family="Helvetica,sans-Serif" font-size="10.00" fill="#000000">tasks::qp::SurfaceTransformTask</text>
</a>
</g>
</g>
<!-- Node14&#45;&gt;Node15 -->
<g id="edge15" class="edge">
<title>Node14&#45;&gt;Node15</title>
<path fill="none" stroke="#191970" d="M347.0546,-70.5C355.64,-70.5 364.2771,-70.5 372.7215,-70.5"/>
<polygon fill="#191970" stroke="#191970" points="347.0144,-67.0001 337.0144,-70.5 347.0143,-74.0001 347.0144,-67.0001"/>
</g>
<!-- Node17 -->
<g id="node18" class="node">
<title>Node17</title>
<g id="a_node18"><a xlink:href="a01187.html" target="_top" xlink:title="TransformTask in world or user frame. ">
<polygon fill="#ffffff" stroke="#000000" points="390,-6 390,-25 519,-25 519,-6 390,-6"/>
<text text-anchor="middle" x="454.5" y="-13" font-family="Helvetica,sans-Serif" font-size="10.00" fill="#000000">tasks::qp::TransformTask</text>
</a>
</g>
</g>
<!-- Node16&#45;&gt;Node17 -->
<g id="edge17" class="edge">
<title>Node16&#45;&gt;Node17</title>
<path fill="none" stroke="#191970" d="M345.8076,-15.5C360.7094,-15.5 375.8026,-15.5 389.8075,-15.5"/>
<polygon fill="#191970" stroke="#191970" points="345.5372,-12.0001 335.5372,-15.5 345.5371,-19.0001 345.5372,-12.0001"/>
</g>
</g>
</svg>
