<?xml version="1.0" encoding="UTF-8" standalone="no"?>
<!DOCTYPE svg PUBLIC "-//W3C//DTD SVG 1.1//EN"
 "http://www.w3.org/Graphics/SVG/1.1/DTD/svg11.dtd">
<!-- Generated by graphviz version 2.40.1 (20161225.0304)
 -->
<!-- Title: tasks::qp::BilateralContact Pages: 1 -->
<svg width="725pt" height="128pt"
 viewBox="0.00 0.00 725.00 127.50" xmlns="http://www.w3.org/2000/svg" xmlns:xlink="http://www.w3.org/1999/xlink">
<g id="graph0" class="graph" transform="scale(1 1) rotate(0) translate(4 123.5)">
<title>tasks::qp::BilateralContact</title>
<polygon fill="#ffffff" stroke="transparent" points="-4,4 -4,-123.5 721,-123.5 721,4 -4,4"/>
<!-- Node1 -->
<g id="node1" class="node">
<title>Node1</title>
<polygon fill="#bfbfbf" stroke="#000000" points="584,-50 584,-69 717,-69 717,-50 584,-50"/>
<text text-anchor="middle" x="650.5" y="-57" font-family="Helvetica,sans-Serif" font-size="10.00" fill="#000000">tasks::qp::BilateralContact</text>
</g>
<!-- Node2 -->
<g id="node2" class="node">
<title>Node2</title>
<polygon fill="#ffffff" stroke="#bfbfbf" points="399,-44.5 399,-74.5 503,-74.5 503,-44.5 399,-44.5"/>
<text text-anchor="start" x="407" y="-62.5" font-family="Helvetica,sans-Serif" font-size="10.00" fill="#000000">std::vector&lt; tasks</text>
<text text-anchor="middle" x="451" y="-51.5" font-family="Helvetica,sans-Serif" font-size="10.00" fill="#000000">::qp::FrictionCone &gt;</text>
</g>
<!-- Node2&#45;&gt;Node1 -->
<g id="edge1" class="edge">
<title>Node2&#45;&gt;Node1</title>
<path fill="none" stroke="#9a32cd" stroke-dasharray="5,2" d="M513.2487,-59.5C535.7145,-59.5 561.1506,-59.5 583.9687,-59.5"/>
<polygon fill="#9a32cd" stroke="#9a32cd" points="513.1557,-56.0001 503.1557,-59.5 513.1557,-63.0001 513.1557,-56.0001"/>
<text text-anchor="middle" x="544" y="-73.5" font-family="Helvetica,sans-Serif" font-size="10.00" fill="#000000"> r1Cones</text>
<text text-anchor="middle" x="544" y="-62.5" font-family="Helvetica,sans-Serif" font-size="10.00" fill="#000000">r2Cones</text>
</g>
<!-- Node3 -->
<g id="node3" class="node">
<title>Node3</title>
<g id="a_node3"><a xlink:href="a01011.html" target="_top" xlink:title="Linearized friction cone generator. ">
<polygon fill="#ffffff" stroke="#000000" points="182,-54 182,-73 301,-73 301,-54 182,-54"/>
<text text-anchor="middle" x="241.5" y="-61" font-family="Helvetica,sans-Serif" font-size="10.00" fill="#000000">tasks::qp::FrictionCone</text>
</a>
</g>
</g>
<!-- Node3&#45;&gt;Node2 -->
<g id="edge2" class="edge">
<title>Node3&#45;&gt;Node2</title>
<path fill="none" stroke="#9a32cd" stroke-dasharray="5,2" d="M311.5856,-62.1619C340.1547,-61.6164 372.6012,-60.9969 398.9995,-60.4928"/>
<polygon fill="#9a32cd" stroke="#9a32cd" points="311.1853,-58.6688 301.2539,-62.3591 311.3189,-65.6675 311.1853,-58.6688"/>
<text text-anchor="middle" x="349.5" y="-65.5" font-family="Helvetica,sans-Serif" font-size="10.00" fill="#000000"> elements</text>
</g>
<!-- Node4 -->
<g id="node4" class="node">
<title>Node4</title>
<polygon fill="#ffffff" stroke="#bfbfbf" points="0,-74.5 0,-104.5 97,-104.5 97,-74.5 0,-74.5"/>
<text text-anchor="start" x="8" y="-92.5" font-family="Helvetica,sans-Serif" font-size="10.00" fill="#000000">std::vector&lt; Eigen</text>
<text text-anchor="middle" x="48.5" y="-81.5" font-family="Helvetica,sans-Serif" font-size="10.00" fill="#000000">::Vector3d &gt;</text>
</g>
<!-- Node4&#45;&gt;Node1 -->
<g id="edge7" class="edge">
<title>Node4&#45;&gt;Node1</title>
<path fill="none" stroke="#9a32cd" stroke-dasharray="5,2" d="M107.2801,-89.613C125.4632,-89.6176 145.5598,-89.5917 164,-89.5 342.6733,-88.6111 389.4452,-112.947 566,-85.5 586.7784,-82.2698 609.5175,-75.0507 626.1681,-69.0372"/>
<polygon fill="#9a32cd" stroke="#9a32cd" points="107.1131,-86.113 97.1111,-89.6073 107.1091,-93.113 107.1131,-86.113"/>
<text text-anchor="middle" x="349.5" y="-111.5" font-family="Helvetica,sans-Serif" font-size="10.00" fill="#000000"> r1Points</text>
<text text-anchor="middle" x="349.5" y="-100.5" font-family="Helvetica,sans-Serif" font-size="10.00" fill="#000000">r2Points</text>
</g>
<!-- Node4&#45;&gt;Node3 -->
<g id="edge3" class="edge">
<title>Node4&#45;&gt;Node3</title>
<path fill="none" stroke="#9a32cd" stroke-dasharray="5,2" d="M107.2669,-79.6297C109.8787,-79.2382 112.4656,-78.8597 115,-78.5 136.7868,-75.408 160.7476,-72.4536 181.9012,-69.9969"/>
<polygon fill="#9a32cd" stroke="#9a32cd" points="106.4778,-76.2099 97.1274,-81.192 107.5438,-83.1283 106.4778,-76.2099"/>
<text text-anchor="middle" x="139.5" y="-81.5" font-family="Helvetica,sans-Serif" font-size="10.00" fill="#000000"> generators</text>
</g>
<!-- Node5 -->
<g id="node5" class="node">
<title>Node5</title>
<g id="a_node5"><a xlink:href="a01015.html" target="_top" xlink:title="Unique identifier for a contact. ">
<polygon fill="#ffffff" stroke="#000000" points="398,-6 398,-25 504,-25 504,-6 398,-6"/>
<text text-anchor="middle" x="451" y="-13" font-family="Helvetica,sans-Serif" font-size="10.00" fill="#000000">tasks::qp::ContactId</text>
</a>
</g>
</g>
<!-- Node5&#45;&gt;Node1 -->
<g id="edge4" class="edge">
<title>Node5&#45;&gt;Node1</title>
<path fill="none" stroke="#9a32cd" stroke-dasharray="5,2" d="M504.4302,-27.2841C536.6351,-34.3869 577.1202,-43.316 607.296,-49.9713"/>
<polygon fill="#9a32cd" stroke="#9a32cd" points="504.8077,-23.7833 494.2885,-25.0473 503.3,-30.619 504.8077,-23.7833"/>
<text text-anchor="middle" x="544" y="-43.5" font-family="Helvetica,sans-Serif" font-size="10.00" fill="#000000"> contactId</text>
</g>
<!-- Node6 -->
<g id="node6" class="node">
<title>Node6</title>
<g id="a_node6"><a xlink:title="STL class. ">
<polygon fill="#ffffff" stroke="#bfbfbf" points="211.5,-6 211.5,-25 271.5,-25 271.5,-6 211.5,-6"/>
<text text-anchor="middle" x="241.5" y="-13" font-family="Helvetica,sans-Serif" font-size="10.00" fill="#000000">std::string</text>
</a>
</g>
</g>
<!-- Node6&#45;&gt;Node5 -->
<g id="edge5" class="edge">
<title>Node6&#45;&gt;Node5</title>
<path fill="none" stroke="#9a32cd" stroke-dasharray="5,2" d="M281.7184,-15.5C314.7572,-15.5 361.8276,-15.5 397.9503,-15.5"/>
<polygon fill="#9a32cd" stroke="#9a32cd" points="281.5163,-12.0001 271.5162,-15.5 281.5162,-19.0001 281.5163,-12.0001"/>
<text text-anchor="middle" x="349.5" y="-29.5" font-family="Helvetica,sans-Serif" font-size="10.00" fill="#000000"> r2BodyName</text>
<text text-anchor="middle" x="349.5" y="-18.5" font-family="Helvetica,sans-Serif" font-size="10.00" fill="#000000">r1BodyName</text>
</g>
<!-- Node7 -->
<g id="node7" class="node">
<title>Node7</title>
<g id="a_node7"><a xlink:title="STL class. ">
<polygon fill="#ffffff" stroke="#bfbfbf" points="1,-.5 1,-30.5 96,-30.5 96,-.5 1,-.5"/>
<text text-anchor="start" x="9" y="-18.5" font-family="Helvetica,sans-Serif" font-size="10.00" fill="#000000">std::basic_string&lt;</text>
<text text-anchor="middle" x="48.5" y="-7.5" font-family="Helvetica,sans-Serif" font-size="10.00" fill="#000000"> char &gt;</text>
</a>
</g>
</g>
<!-- Node7&#45;&gt;Node6 -->
<g id="edge6" class="edge">
<title>Node7&#45;&gt;Node6</title>
<path fill="none" stroke="#191970" d="M106.649,-15.5C141.1814,-15.5 183.5393,-15.5 211.4613,-15.5"/>
<polygon fill="#191970" stroke="#191970" points="106.2079,-12.0001 96.2079,-15.5 106.2078,-19.0001 106.2079,-12.0001"/>
</g>
</g>
</svg>
