<?xml version="1.0" encoding="UTF-8" standalone="no"?>
<!DOCTYPE svg PUBLIC "-//W3C//DTD SVG 1.1//EN"
 "http://www.w3.org/Graphics/SVG/1.1/DTD/svg11.dtd">
<!-- Generated by graphviz version 2.40.1 (20161225.0304)
 -->
<!-- Title: tasks::qp::MotionSpringConstr Pages: 1 -->
<svg width="187pt" height="263pt"
 viewBox="0.00 0.00 186.50 263.00" xmlns="http://www.w3.org/2000/svg" xmlns:xlink="http://www.w3.org/1999/xlink">
<g id="graph0" class="graph" transform="scale(1 1) rotate(0) translate(4 259)">
<title>tasks::qp::MotionSpringConstr</title>
<polygon fill="#ffffff" stroke="transparent" points="-4,4 -4,-259 182.5,-259 182.5,4 -4,4"/>
<!-- Node0 -->
<g id="node1" class="node">
<title>Node0</title>
<polygon fill="#bfbfbf" stroke="#000000" points="23.5,-.5 23.5,-19.5 172.5,-19.5 172.5,-.5 23.5,-.5"/>
<text text-anchor="middle" x="98" y="-7.5" font-family="Helvetica,sans-Serif" font-size="10.00" fill="#000000">tasks::qp::MotionSpringConstr</text>
</g>
<!-- Node1 -->
<g id="node2" class="node">
<title>Node1</title>
<g id="a_node2"><a xlink:href="a01049.html" target="_top" xlink:title="tasks::qp::MotionConstr">
<polygon fill="#ffffff" stroke="#000000" points="37,-56.5 37,-75.5 159,-75.5 159,-56.5 37,-56.5"/>
<text text-anchor="middle" x="98" y="-63.5" font-family="Helvetica,sans-Serif" font-size="10.00" fill="#000000">tasks::qp::MotionConstr</text>
</a>
</g>
</g>
<!-- Node1&#45;&gt;Node0 -->
<g id="edge1" class="edge">
<title>Node1&#45;&gt;Node0</title>
<path fill="none" stroke="#191970" d="M98,-46.1575C98,-37.155 98,-26.9199 98,-19.6427"/>
<polygon fill="#191970" stroke="#191970" points="94.5001,-46.2455 98,-56.2455 101.5001,-46.2456 94.5001,-46.2455"/>
</g>
<!-- Node2 -->
<g id="node3" class="node">
<title>Node2</title>
<g id="a_node3"><a xlink:href="a01041.html" target="_top" xlink:title="tasks::qp::MotionConstrCommon">
<polygon fill="#ffffff" stroke="#000000" points="17.5,-112.5 17.5,-131.5 178.5,-131.5 178.5,-112.5 17.5,-112.5"/>
<text text-anchor="middle" x="98" y="-119.5" font-family="Helvetica,sans-Serif" font-size="10.00" fill="#000000">tasks::qp::MotionConstrCommon</text>
</a>
</g>
</g>
<!-- Node2&#45;&gt;Node1 -->
<g id="edge2" class="edge">
<title>Node2&#45;&gt;Node1</title>
<path fill="none" stroke="#191970" d="M98,-102.1575C98,-93.155 98,-82.9199 98,-75.6427"/>
<polygon fill="#191970" stroke="#191970" points="94.5001,-102.2455 98,-112.2455 101.5001,-102.2456 94.5001,-102.2455"/>
</g>
<!-- Node3 -->
<g id="node4" class="node">
<title>Node3</title>
<g id="a_node4"><a xlink:href="a01077.html" target="_top" xlink:title="tasks::qp::ConstraintFunction\l\&lt; GenInequality \&gt;">
<polygon fill="#ffffff" stroke="#000000" points="25,-168.5 25,-198.5 171,-198.5 171,-168.5 25,-168.5"/>
<text text-anchor="start" x="33" y="-186.5" font-family="Helvetica,sans-Serif" font-size="10.00" fill="#000000">tasks::qp::ConstraintFunction</text>
<text text-anchor="middle" x="98" y="-175.5" font-family="Helvetica,sans-Serif" font-size="10.00" fill="#000000">&lt; GenInequality &gt;</text>
</a>
</g>
</g>
<!-- Node3&#45;&gt;Node2 -->
<g id="edge3" class="edge">
<title>Node3&#45;&gt;Node2</title>
<path fill="none" stroke="#191970" d="M98,-158.2849C98,-148.9858 98,-138.9883 98,-131.8469"/>
<polygon fill="#191970" stroke="#191970" points="94.5001,-158.2977 98,-168.2977 101.5001,-158.2978 94.5001,-158.2977"/>
</g>
<!-- Node4 -->
<g id="node5" class="node">
<title>Node4</title>
<g id="a_node5"><a xlink:href="a01073.html" target="_top" xlink:title="tasks::qp::Constraint">
<polygon fill="#ffffff" stroke="#000000" points="0,-235.5 0,-254.5 108,-254.5 108,-235.5 0,-235.5"/>
<text text-anchor="middle" x="54" y="-242.5" font-family="Helvetica,sans-Serif" font-size="10.00" fill="#000000">tasks::qp::Constraint</text>
</a>
</g>
</g>
<!-- Node4&#45;&gt;Node3 -->
<g id="edge4" class="edge">
<title>Node4&#45;&gt;Node3</title>
<path fill="none" stroke="#191970" d="M66.8153,-227.0877C73.2951,-218.0307 81.0706,-207.1627 87.2364,-198.5446"/>
<polygon fill="#191970" stroke="#191970" points="63.8472,-225.2212 60.875,-235.3906 69.5402,-229.2943 63.8472,-225.2212"/>
</g>
<!-- Node5 -->
<g id="node6" class="node">
<title>Node5</title>
<polygon fill="#ffffff" stroke="#bfbfbf" points="126.5,-235.5 126.5,-254.5 159.5,-254.5 159.5,-235.5 126.5,-235.5"/>
<text text-anchor="middle" x="143" y="-242.5" font-family="Helvetica,sans-Serif" font-size="10.00" fill="#000000">Fun</text>
</g>
<!-- Node5&#45;&gt;Node3 -->
<g id="edge5" class="edge">
<title>Node5&#45;&gt;Node3</title>
<path fill="none" stroke="#191970" d="M129.8934,-227.0877C123.2664,-218.0307 115.3142,-207.1627 109.0082,-198.5446"/>
<polygon fill="#191970" stroke="#191970" points="127.239,-229.3871 135.9688,-235.3906 132.8882,-225.2535 127.239,-229.3871"/>
</g>
</g>
</svg>
