<?xml version="1.0" encoding="UTF-8" standalone="no"?>
<!DOCTYPE svg PUBLIC "-//W3C//DTD SVG 1.1//EN"
 "http://www.w3.org/Graphics/SVG/1.1/DTD/svg11.dtd">
<!-- Generated by graphviz version 2.40.1 (20161225.0304)
 -->
<!-- Title: tasks::qp::ContactPosConstr Pages: 1 -->
<svg width="325pt" height="207pt"
 viewBox="0.00 0.00 324.50 207.00" xmlns="http://www.w3.org/2000/svg" xmlns:xlink="http://www.w3.org/1999/xlink">
<g id="graph0" class="graph" transform="scale(1 1) rotate(0) translate(4 203)">
<title>tasks::qp::ContactPosConstr</title>
<polygon fill="#ffffff" stroke="transparent" points="-4,4 -4,-203 320.5,-203 320.5,4 -4,4"/>
<!-- Node0 -->
<g id="node1" class="node">
<title>Node0</title>
<polygon fill="#bfbfbf" stroke="#000000" points="103,-.5 103,-19.5 247,-19.5 247,-.5 103,-.5"/>
<text text-anchor="middle" x="175" y="-7.5" font-family="Helvetica,sans-Serif" font-size="10.00" fill="#000000">tasks::qp::ContactPosConstr</text>
</g>
<!-- Node1 -->
<g id="node2" class="node">
<title>Node1</title>
<g id="a_node2"><a xlink:href="a00987.html" target="_top" xlink:title="Common contact constraint computation. ">
<polygon fill="#ffffff" stroke="#000000" points="111.5,-56.5 111.5,-75.5 238.5,-75.5 238.5,-56.5 111.5,-56.5"/>
<text text-anchor="middle" x="175" y="-63.5" font-family="Helvetica,sans-Serif" font-size="10.00" fill="#000000">tasks::qp::ContactConstr</text>
</a>
</g>
</g>
<!-- Node1&#45;&gt;Node0 -->
<g id="edge1" class="edge">
<title>Node1&#45;&gt;Node0</title>
<path fill="none" stroke="#191970" d="M175,-46.1575C175,-37.155 175,-26.9199 175,-19.6427"/>
<polygon fill="#191970" stroke="#191970" points="171.5001,-46.2455 175,-56.2455 178.5001,-46.2456 171.5001,-46.2455"/>
</g>
<!-- Node2 -->
<g id="node3" class="node">
<title>Node2</title>
<g id="a_node3"><a xlink:href="a01071.html" target="_top" xlink:title="tasks::qp::ConstraintFunction\l\&lt; Equality \&gt;">
<polygon fill="#ffffff" stroke="#000000" points="25,-112.5 25,-142.5 171,-142.5 171,-112.5 25,-112.5"/>
<text text-anchor="start" x="33" y="-130.5" font-family="Helvetica,sans-Serif" font-size="10.00" fill="#000000">tasks::qp::ConstraintFunction</text>
<text text-anchor="middle" x="98" y="-119.5" font-family="Helvetica,sans-Serif" font-size="10.00" fill="#000000">&lt; Equality &gt;</text>
</a>
</g>
</g>
<!-- Node2&#45;&gt;Node1 -->
<g id="edge2" class="edge">
<title>Node2&#45;&gt;Node1</title>
<path fill="none" stroke="#191970" d="M125.1164,-105.8421C137.9232,-95.6133 152.5764,-83.9097 162.6713,-75.8469"/>
<polygon fill="#191970" stroke="#191970" points="122.6631,-103.3222 117.0337,-112.2977 127.0316,-108.7917 122.6631,-103.3222"/>
</g>
<!-- Node3 -->
<g id="node4" class="node">
<title>Node3</title>
<g id="a_node4"><a xlink:href="a01067.html" target="_top" xlink:title="tasks::qp::Constraint">
<polygon fill="#ffffff" stroke="#000000" points="0,-179.5 0,-198.5 108,-198.5 108,-179.5 0,-179.5"/>
<text text-anchor="middle" x="54" y="-186.5" font-family="Helvetica,sans-Serif" font-size="10.00" fill="#000000">tasks::qp::Constraint</text>
</a>
</g>
</g>
<!-- Node3&#45;&gt;Node2 -->
<g id="edge3" class="edge">
<title>Node3&#45;&gt;Node2</title>
<path fill="none" stroke="#191970" d="M66.8153,-171.0877C73.2951,-162.0307 81.0706,-151.1627 87.2364,-142.5446"/>
<polygon fill="#191970" stroke="#191970" points="63.8472,-169.2212 60.875,-179.3906 69.5402,-173.2943 63.8472,-169.2212"/>
</g>
<!-- Node4 -->
<g id="node5" class="node">
<title>Node4</title>
<polygon fill="#ffffff" stroke="#bfbfbf" points="126.5,-179.5 126.5,-198.5 159.5,-198.5 159.5,-179.5 126.5,-179.5"/>
<text text-anchor="middle" x="143" y="-186.5" font-family="Helvetica,sans-Serif" font-size="10.00" fill="#000000">Fun</text>
</g>
<!-- Node4&#45;&gt;Node2 -->
<g id="edge4" class="edge">
<title>Node4&#45;&gt;Node2</title>
<path fill="none" stroke="#191970" d="M129.8934,-171.0877C123.2664,-162.0307 115.3142,-151.1627 109.0082,-142.5446"/>
<polygon fill="#191970" stroke="#191970" points="127.239,-173.3871 135.9688,-179.3906 132.8882,-169.2535 127.239,-173.3871"/>
</g>
<!-- Node5 -->
<g id="node6" class="node">
<title>Node5</title>
<g id="a_node6"><a xlink:href="a00979.html" target="_top" xlink:title="Manage modifier on contact constraint. ">
<polygon fill="#ffffff" stroke="#000000" points="189.5,-112.5 189.5,-142.5 316.5,-142.5 316.5,-112.5 189.5,-112.5"/>
<text text-anchor="start" x="197.5" y="-130.5" font-family="Helvetica,sans-Serif" font-size="10.00" fill="#000000">tasks::qp::ContactConstr</text>
<text text-anchor="middle" x="253" y="-119.5" font-family="Helvetica,sans-Serif" font-size="10.00" fill="#000000">Common</text>
</a>
</g>
</g>
<!-- Node5&#45;&gt;Node1 -->
<g id="edge5" class="edge">
<title>Node5&#45;&gt;Node1</title>
<path fill="none" stroke="#191970" d="M225.5314,-105.8421C212.5584,-95.6133 197.7148,-83.9097 187.4888,-75.8469"/>
<polygon fill="#191970" stroke="#191970" points="223.6993,-108.8546 233.7191,-112.2977 228.0334,-103.3577 223.6993,-108.8546"/>
</g>
</g>
</svg>
