<?xml version="1.0" encoding="UTF-8" standalone="no"?>
<!DOCTYPE svg PUBLIC "-//W3C//DTD SVG 1.1//EN"
 "http://www.w3.org/Graphics/SVG/1.1/DTD/svg11.dtd">
<!-- Generated by graphviz version 2.40.1 (20161225.0304)
 -->
<!-- Title: tasks::qp::Constraint Pages: 1 -->
<svg width="871pt" height="394pt"
 viewBox="0.00 0.00 871.00 393.50" xmlns="http://www.w3.org/2000/svg" xmlns:xlink="http://www.w3.org/1999/xlink">
<g id="graph0" class="graph" transform="scale(1 1) rotate(0) translate(4 389.5)">
<title>tasks::qp::Constraint</title>
<polygon fill="#ffffff" stroke="transparent" points="-4,4 -4,-389.5 867,-389.5 867,4 -4,4"/>
<!-- Node0 -->
<g id="node1" class="node">
<title>Node0</title>
<polygon fill="#bfbfbf" stroke="#000000" points="0,-172.5 0,-191.5 108,-191.5 108,-172.5 0,-172.5"/>
<text text-anchor="middle" x="54" y="-179.5" font-family="Helvetica,sans-Serif" font-size="10.00" fill="#000000">tasks::qp::Constraint</text>
</g>
<!-- Node1 -->
<g id="node2" class="node">
<title>Node1</title>
<g id="a_node2"><a xlink:href="a01077.html" target="_top" xlink:title="tasks::qp::ConstraintFunction\l\&lt; Bound \&gt;">
<polygon fill="#ffffff" stroke="#000000" points="144,-282 144,-312 290,-312 290,-282 144,-282"/>
<text text-anchor="start" x="152" y="-300" font-family="Helvetica,sans-Serif" font-size="10.00" fill="#000000">tasks::qp::ConstraintFunction</text>
<text text-anchor="middle" x="217" y="-289" font-family="Helvetica,sans-Serif" font-size="10.00" fill="#000000">&lt; Bound &gt;</text>
</a>
</g>
</g>
<!-- Node0&#45;&gt;Node1 -->
<g id="edge1" class="edge">
<title>Node0&#45;&gt;Node1</title>
<path fill="none" stroke="#191970" d="M69.2433,-199.0968C86.1293,-217.2619 114.842,-245.9365 144,-265 153.8447,-271.4365 165.1998,-277.1266 175.977,-281.8564"/>
<polygon fill="#191970" stroke="#191970" points="71.6876,-196.5833 62.358,-191.5625 66.5203,-201.3055 71.6876,-196.5833"/>
</g>
<!-- Node5 -->
<g id="node6" class="node">
<title>Node5</title>
<g id="a_node6"><a xlink:href="a01077.html" target="_top" xlink:title="tasks::qp::ConstraintFunction\l\&lt; Equality \&gt;">
<polygon fill="#ffffff" stroke="#000000" points="144,-225 144,-255 290,-255 290,-225 144,-225"/>
<text text-anchor="start" x="152" y="-243" font-family="Helvetica,sans-Serif" font-size="10.00" fill="#000000">tasks::qp::ConstraintFunction</text>
<text text-anchor="middle" x="217" y="-232" font-family="Helvetica,sans-Serif" font-size="10.00" fill="#000000">&lt; Equality &gt;</text>
</a>
</g>
</g>
<!-- Node0&#45;&gt;Node5 -->
<g id="edge5" class="edge">
<title>Node0&#45;&gt;Node5</title>
<path fill="none" stroke="#191970" d="M90.3884,-194.948C115.3594,-203.8334 148.5788,-215.6538 174.7253,-224.9575"/>
<polygon fill="#191970" stroke="#191970" points="91.5108,-191.6325 80.9161,-191.5775 89.1641,-198.2274 91.5108,-191.6325"/>
</g>
<!-- Node10 -->
<g id="node11" class="node">
<title>Node10</title>
<g id="a_node11"><a xlink:href="a01077.html" target="_top" xlink:title="tasks::qp::ConstraintFunction\l\&lt; GenInequality \&gt;">
<polygon fill="#ffffff" stroke="#000000" points="144,-167 144,-197 290,-197 290,-167 144,-167"/>
<text text-anchor="start" x="152" y="-185" font-family="Helvetica,sans-Serif" font-size="10.00" fill="#000000">tasks::qp::ConstraintFunction</text>
<text text-anchor="middle" x="217" y="-174" font-family="Helvetica,sans-Serif" font-size="10.00" fill="#000000">&lt; GenInequality &gt;</text>
</a>
</g>
</g>
<!-- Node0&#45;&gt;Node10 -->
<g id="edge10" class="edge">
<title>Node0&#45;&gt;Node10</title>
<path fill="none" stroke="#191970" d="M118.3307,-182C126.6966,-182 135.3154,-182 143.8124,-182"/>
<polygon fill="#191970" stroke="#191970" points="118.2767,-178.5001 108.2766,-182 118.2766,-185.5001 118.2767,-178.5001"/>
</g>
<!-- Node16 -->
<g id="node17" class="node">
<title>Node16</title>
<g id="a_node17"><a xlink:href="a01077.html" target="_top" xlink:title="tasks::qp::ConstraintFunction\l\&lt; Inequality \&gt;">
<polygon fill="#ffffff" stroke="#000000" points="144,-105 144,-135 290,-135 290,-105 144,-105"/>
<text text-anchor="start" x="152" y="-123" font-family="Helvetica,sans-Serif" font-size="10.00" fill="#000000">tasks::qp::ConstraintFunction</text>
<text text-anchor="middle" x="217" y="-112" font-family="Helvetica,sans-Serif" font-size="10.00" fill="#000000">&lt; Inequality &gt;</text>
</a>
</g>
</g>
<!-- Node0&#45;&gt;Node16 -->
<g id="edge16" class="edge">
<title>Node0&#45;&gt;Node16</title>
<path fill="none" stroke="#191970" d="M88.5515,-168.8577C114.513,-158.9828 150.1195,-145.4392 177.2601,-135.1158"/>
<polygon fill="#191970" stroke="#191970" points="87.2139,-165.6218 79.1115,-172.4484 89.7026,-172.1645 87.2139,-165.6218"/>
</g>
<!-- Node21 -->
<g id="node22" class="node">
<title>Node21</title>
<g id="a_node22"><a xlink:href="a01077.html" target="_top" xlink:title="tasks::qp::ConstraintFunction\l\&lt; Fun \&gt;">
<polygon fill="#ffffff" stroke="#000000" points="144,-56 144,-86 290,-86 290,-56 144,-56"/>
<text text-anchor="start" x="152" y="-74" font-family="Helvetica,sans-Serif" font-size="10.00" fill="#000000">tasks::qp::ConstraintFunction</text>
<text text-anchor="middle" x="217" y="-63" font-family="Helvetica,sans-Serif" font-size="10.00" fill="#000000">&lt; Fun &gt;</text>
</a>
</g>
</g>
<!-- Node0&#45;&gt;Node21 -->
<g id="edge21" class="edge">
<title>Node0&#45;&gt;Node21</title>
<path fill="none" stroke="#191970" d="M68.0714,-164.6284C84.4731,-145.4057 113.2765,-114.6811 144,-96 150.181,-92.2417 157.0025,-88.9565 163.9193,-86.1122"/>
<polygon fill="#191970" stroke="#191970" points="65.3628,-162.4115 61.6387,-172.3303 70.7353,-166.8988 65.3628,-162.4115"/>
</g>
<!-- Node2 -->
<g id="node3" class="node">
<title>Node2</title>
<g id="a_node3"><a xlink:href="a00929.html" target="_top" xlink:title="Avoid to reach articular position and velocity limits based on a velocity damper. ...">
<polygon fill="#ffffff" stroke="#000000" points="334,-355 334,-385 479,-385 479,-355 334,-355"/>
<text text-anchor="start" x="342" y="-373" font-family="Helvetica,sans-Serif" font-size="10.00" fill="#000000">tasks::qp::DamperJointLimits</text>
<text text-anchor="middle" x="406.5" y="-362" font-family="Helvetica,sans-Serif" font-size="10.00" fill="#000000">Constr</text>
</a>
</g>
</g>
<!-- Node1&#45;&gt;Node2 -->
<g id="edge2" class="edge">
<title>Node1&#45;&gt;Node2</title>
<path fill="none" stroke="#191970" d="M257.813,-316.2911C278.0897,-325.5355 303.0953,-336.4318 326,-345 335.3204,-348.4866 345.3692,-351.8849 355.1017,-354.9957"/>
<polygon fill="#191970" stroke="#191970" points="259.1101,-313.0353 248.5623,-312.039 256.1866,-319.3956 259.1101,-313.0353"/>
</g>
<!-- Node3 -->
<g id="node4" class="node">
<title>Node3</title>
<g id="a_node4"><a xlink:href="a00925.html" target="_top" xlink:title="Avoid to reach articular position limits based on direct integration. ">
<polygon fill="#ffffff" stroke="#000000" points="336.5,-316.5 336.5,-335.5 476.5,-335.5 476.5,-316.5 336.5,-316.5"/>
<text text-anchor="middle" x="406.5" y="-323.5" font-family="Helvetica,sans-Serif" font-size="10.00" fill="#000000">tasks::qp::JointLimitsConstr</text>
</a>
</g>
</g>
<!-- Node1&#45;&gt;Node3 -->
<g id="edge3" class="edge">
<title>Node1&#45;&gt;Node3</title>
<path fill="none" stroke="#191970" d="M300.3786,-309.7598C315.0977,-312.0123 330.1881,-314.3217 344.2015,-316.4662"/>
<polygon fill="#191970" stroke="#191970" points="300.6801,-306.2652 290.2656,-308.2122 299.6211,-313.1847 300.6801,-306.2652"/>
</g>
<!-- Node4 -->
<g id="node5" class="node">
<title>Node4</title>
<g id="a_node5"><a xlink:href="a01033.html" target="_top" xlink:title="tasks::qp::PositiveLambda">
<polygon fill="#ffffff" stroke="#000000" points="340,-278.5 340,-297.5 473,-297.5 473,-278.5 340,-278.5"/>
<text text-anchor="middle" x="406.5" y="-285.5" font-family="Helvetica,sans-Serif" font-size="10.00" fill="#000000">tasks::qp::PositiveLambda</text>
</a>
</g>
</g>
<!-- Node1&#45;&gt;Node4 -->
<g id="edge4" class="edge">
<title>Node1&#45;&gt;Node4</title>
<path fill="none" stroke="#191970" d="M300.324,-293.0427C313.5773,-292.4132 327.1332,-291.7694 339.934,-291.1614"/>
<polygon fill="#191970" stroke="#191970" points="300.0883,-289.5498 290.2656,-293.5204 300.4205,-296.5419 300.0883,-289.5498"/>
</g>
<!-- Node6 -->
<g id="node7" class="node">
<title>Node6</title>
<g id="a_node7"><a xlink:href="a00993.html" target="_top" xlink:title="Common contact constraint computation. ">
<polygon fill="#ffffff" stroke="#000000" points="343,-240.5 343,-259.5 470,-259.5 470,-240.5 343,-240.5"/>
<text text-anchor="middle" x="406.5" y="-247.5" font-family="Helvetica,sans-Serif" font-size="10.00" fill="#000000">tasks::qp::ContactConstr</text>
</a>
</g>
</g>
<!-- Node5&#45;&gt;Node6 -->
<g id="edge6" class="edge">
<title>Node5&#45;&gt;Node6</title>
<path fill="none" stroke="#191970" d="M300.5549,-244.4092C314.7943,-245.1606 329.3757,-245.9301 342.9885,-246.6485"/>
<polygon fill="#191970" stroke="#191970" points="300.4362,-240.8982 290.2656,-243.8663 300.0673,-247.8885 300.4362,-240.8982"/>
</g>
<!-- Node7 -->
<g id="node8" class="node">
<title>Node7</title>
<g id="a_node8"><a xlink:href="a01005.html" target="_top" xlink:title="Contact constraint by targeting a null acceleration. ">
<polygon fill="#ffffff" stroke="#000000" points="528.5,-278.5 528.5,-297.5 672.5,-297.5 672.5,-278.5 528.5,-278.5"/>
<text text-anchor="middle" x="600.5" y="-285.5" font-family="Helvetica,sans-Serif" font-size="10.00" fill="#000000">tasks::qp::ContactAccConstr</text>
</a>
</g>
</g>
<!-- Node6&#45;&gt;Node7 -->
<g id="edge7" class="edge">
<title>Node6&#45;&gt;Node7</title>
<path fill="none" stroke="#191970" d="M465.4052,-261.5381C493.0751,-266.958 525.6619,-273.341 551.8976,-278.4799"/>
<polygon fill="#191970" stroke="#191970" points="465.9407,-258.0766 455.4544,-259.589 464.5951,-264.946 465.9407,-258.0766"/>
</g>
<!-- Node8 -->
<g id="node9" class="node">
<title>Node8</title>
<g id="a_node9"><a xlink:href="a01013.html" target="_top" xlink:title="Contact constraint by targeting a constant frame. ">
<polygon fill="#ffffff" stroke="#000000" points="528.5,-240.5 528.5,-259.5 672.5,-259.5 672.5,-240.5 528.5,-240.5"/>
<text text-anchor="middle" x="600.5" y="-247.5" font-family="Helvetica,sans-Serif" font-size="10.00" fill="#000000">tasks::qp::ContactPosConstr</text>
</a>
</g>
</g>
<!-- Node6&#45;&gt;Node8 -->
<g id="edge8" class="edge">
<title>Node6&#45;&gt;Node8</title>
<path fill="none" stroke="#191970" d="M480.2538,-250C496.0428,-250 512.705,-250 528.4296,-250"/>
<polygon fill="#191970" stroke="#191970" points="480.0229,-246.5001 470.0229,-250 480.0228,-253.5001 480.0229,-246.5001"/>
</g>
<!-- Node9 -->
<g id="node10" class="node">
<title>Node9</title>
<g id="a_node10"><a xlink:href="a01009.html" target="_top" xlink:title="Contact constraint by targeting a null velocity. ">
<polygon fill="#ffffff" stroke="#000000" points="523,-202.5 523,-221.5 678,-221.5 678,-202.5 523,-202.5"/>
<text text-anchor="middle" x="600.5" y="-209.5" font-family="Helvetica,sans-Serif" font-size="10.00" fill="#000000">tasks::qp::ContactSpeedConstr</text>
</a>
</g>
</g>
<!-- Node6&#45;&gt;Node9 -->
<g id="edge9" class="edge">
<title>Node6&#45;&gt;Node9</title>
<path fill="none" stroke="#191970" d="M465.4052,-238.4619C493.0751,-233.042 525.6619,-226.659 551.8976,-221.5201"/>
<polygon fill="#191970" stroke="#191970" points="464.5951,-235.054 455.4544,-240.411 465.9407,-241.9234 464.5951,-235.054"/>
</g>
<!-- Node11 -->
<g id="node12" class="node">
<title>Node11</title>
<g id="a_node12"><a xlink:href="a00965.html" target="_top" xlink:title="Constraint some link velocity in link frame by direct integration. ">
<polygon fill="#ffffff" stroke="#000000" points="327.5,-202.5 327.5,-221.5 485.5,-221.5 485.5,-202.5 327.5,-202.5"/>
<text text-anchor="middle" x="406.5" y="-209.5" font-family="Helvetica,sans-Serif" font-size="10.00" fill="#000000">tasks::qp::BoundedSpeedConstr</text>
</a>
</g>
</g>
<!-- Node10&#45;&gt;Node11 -->
<g id="edge11" class="edge">
<title>Node10&#45;&gt;Node11</title>
<path fill="none" stroke="#191970" d="M300.3538,-195.1958C315.8222,-197.6447 331.7019,-200.1586 346.3112,-202.4714"/>
<polygon fill="#191970" stroke="#191970" points="300.6899,-191.7056 290.2656,-193.5988 299.5953,-198.6195 300.6899,-191.7056"/>
</g>
<!-- Node12 -->
<g id="node13" class="node">
<title>Node12</title>
<g id="a_node13"><a xlink:href="a01041.html" target="_top" xlink:title="tasks::qp::MotionConstrCommon">
<polygon fill="#ffffff" stroke="#000000" points="326,-164.5 326,-183.5 487,-183.5 487,-164.5 326,-164.5"/>
<text text-anchor="middle" x="406.5" y="-171.5" font-family="Helvetica,sans-Serif" font-size="10.00" fill="#000000">tasks::qp::MotionConstrCommon</text>
</a>
</g>
</g>
<!-- Node10&#45;&gt;Node12 -->
<g id="edge12" class="edge">
<title>Node10&#45;&gt;Node12</title>
<path fill="none" stroke="#191970" d="M300.4779,-178.4759C308.9144,-178.1197 317.4717,-177.7584 325.8773,-177.4036"/>
<polygon fill="#191970" stroke="#191970" points="300.1091,-174.9882 290.2656,-178.907 300.4044,-181.982 300.1091,-174.9882"/>
</g>
<!-- Node13 -->
<g id="node14" class="node">
<title>Node13</title>
<g id="a_node14"><a xlink:href="a01049.html" target="_top" xlink:title="tasks::qp::MotionConstr">
<polygon fill="#ffffff" stroke="#000000" points="539.5,-164.5 539.5,-183.5 661.5,-183.5 661.5,-164.5 539.5,-164.5"/>
<text text-anchor="middle" x="600.5" y="-171.5" font-family="Helvetica,sans-Serif" font-size="10.00" fill="#000000">tasks::qp::MotionConstr</text>
</a>
</g>
</g>
<!-- Node12&#45;&gt;Node13 -->
<g id="edge13" class="edge">
<title>Node12&#45;&gt;Node13</title>
<path fill="none" stroke="#191970" d="M497.4021,-174C511.6335,-174 526.0407,-174 539.3918,-174"/>
<polygon fill="#191970" stroke="#191970" points="497.0881,-170.5001 487.0881,-174 497.088,-177.5001 497.0881,-170.5001"/>
</g>
<!-- Node15 -->
<g id="node16" class="node">
<title>Node15</title>
<g id="a_node16"><a xlink:href="a01065.html" target="_top" xlink:title="Use polynome in function of q to compute torque limits. ">
<polygon fill="#ffffff" stroke="#000000" points="530,-126.5 530,-145.5 671,-145.5 671,-126.5 530,-126.5"/>
<text text-anchor="middle" x="600.5" y="-133.5" font-family="Helvetica,sans-Serif" font-size="10.00" fill="#000000">tasks::qp::MotionPolyConstr</text>
</a>
</g>
</g>
<!-- Node12&#45;&gt;Node15 -->
<g id="edge15" class="edge">
<title>Node12&#45;&gt;Node15</title>
<path fill="none" stroke="#191970" d="M465.4052,-162.4619C493.0751,-157.042 525.6619,-150.659 551.8976,-145.5201"/>
<polygon fill="#191970" stroke="#191970" points="464.5951,-159.054 455.4544,-164.411 465.9407,-165.9234 464.5951,-159.054"/>
</g>
<!-- Node14 -->
<g id="node15" class="node">
<title>Node14</title>
<g id="a_node15"><a xlink:href="a01057.html" target="_top" xlink:title="tasks::qp::MotionSpringConstr">
<polygon fill="#ffffff" stroke="#000000" points="714,-164.5 714,-183.5 863,-183.5 863,-164.5 714,-164.5"/>
<text text-anchor="middle" x="788.5" y="-171.5" font-family="Helvetica,sans-Serif" font-size="10.00" fill="#000000">tasks::qp::MotionSpringConstr</text>
</a>
</g>
</g>
<!-- Node13&#45;&gt;Node14 -->
<g id="edge14" class="edge">
<title>Node13&#45;&gt;Node14</title>
<path fill="none" stroke="#191970" d="M671.9066,-174C685.6681,-174 700.1162,-174 713.9738,-174"/>
<polygon fill="#191970" stroke="#191970" points="671.5382,-170.5001 661.5382,-174 671.5382,-177.5001 671.5382,-170.5001"/>
</g>
<!-- Node17 -->
<g id="node18" class="node">
<title>Node17</title>
<g id="a_node18"><a xlink:href="a00937.html" target="_top" xlink:title="Avoid that too robot links enter into collision based on a velocity damper. ">
<polygon fill="#ffffff" stroke="#000000" points="341.5,-126.5 341.5,-145.5 471.5,-145.5 471.5,-126.5 341.5,-126.5"/>
<text text-anchor="middle" x="406.5" y="-133.5" font-family="Helvetica,sans-Serif" font-size="10.00" fill="#000000">tasks::qp::CollisionConstr</text>
</a>
</g>
</g>
<!-- Node16&#45;&gt;Node17 -->
<g id="edge17" class="edge">
<title>Node16&#45;&gt;Node17</title>
<path fill="none" stroke="#191970" d="M300.2445,-127.0286C314.0527,-128.1944 328.1917,-129.3882 341.4651,-130.5089"/>
<polygon fill="#191970" stroke="#191970" points="300.5247,-123.5399 290.2656,-126.186 299.9357,-130.515 300.5247,-123.5399"/>
</g>
<!-- Node18 -->
<g id="node19" class="node">
<title>Node18</title>
<g id="a_node19"><a xlink:href="a00949.html" target="_top" xlink:title="Prevent robot CoM to go out of a convex hull. ">
<polygon fill="#ffffff" stroke="#000000" points="330.5,-88.5 330.5,-107.5 482.5,-107.5 482.5,-88.5 330.5,-88.5"/>
<text text-anchor="middle" x="406.5" y="-95.5" font-family="Helvetica,sans-Serif" font-size="10.00" fill="#000000">tasks::qp::CoMIncPlaneConstr</text>
</a>
</g>
</g>
<!-- Node16&#45;&gt;Node18 -->
<g id="edge18" class="edge">
<title>Node16&#45;&gt;Node18</title>
<path fill="none" stroke="#191970" d="M300.1999,-110.3409C310.2091,-109.1789 320.393,-107.9966 330.2955,-106.847"/>
<polygon fill="#191970" stroke="#191970" points="299.7953,-106.8643 290.2656,-111.4942 300.6026,-113.8176 299.7953,-106.8643"/>
</g>
<!-- Node19 -->
<g id="node20" class="node">
<title>Node19</title>
<g id="a_node20"><a xlink:href="a00957.html" target="_top" xlink:title="tasks::qp::GripperTorque\lConstr">
<polygon fill="#ffffff" stroke="#000000" points="344,-39 344,-69 469,-69 469,-39 344,-39"/>
<text text-anchor="start" x="352" y="-57" font-family="Helvetica,sans-Serif" font-size="10.00" fill="#000000">tasks::qp::GripperTorque</text>
<text text-anchor="middle" x="406.5" y="-46" font-family="Helvetica,sans-Serif" font-size="10.00" fill="#000000">Constr</text>
</a>
</g>
</g>
<!-- Node16&#45;&gt;Node19 -->
<g id="edge19" class="edge">
<title>Node16&#45;&gt;Node19</title>
<path fill="none" stroke="#191970" d="M275.2546,-101.5693C280.2703,-99.7646 285.2425,-97.8969 290,-96 306.4359,-89.4466 309.5105,-85.4174 326,-79 335.0009,-75.497 344.7113,-72.1385 354.1672,-69.0829"/>
<polygon fill="#191970" stroke="#191970" points="273.8802,-98.3422 265.6008,-104.9529 276.1956,-104.9481 273.8802,-98.3422"/>
</g>
<!-- Node20 -->
<g id="node21" class="node">
<title>Node20</title>
<g id="a_node21"><a xlink:href="a00973.html" target="_top" xlink:title="Generalized Image Point Constraint This can be used as either a Field of View constraint or an Occlus...">
<polygon fill="#ffffff" stroke="#000000" points="347,-.5 347,-19.5 466,-19.5 466,-.5 347,-.5"/>
<text text-anchor="middle" x="406.5" y="-7.5" font-family="Helvetica,sans-Serif" font-size="10.00" fill="#000000">tasks::qp::ImageConstr</text>
</a>
</g>
</g>
<!-- Node16&#45;&gt;Node20 -->
<g id="edge20" class="edge">
<title>Node16&#45;&gt;Node20</title>
<path fill="none" stroke="#191970" d="M285.2002,-99.6557C286.862,-98.503 288.4665,-97.2856 290,-96 315.905,-74.2826 299.1869,-49.5857 326,-29 332.1506,-24.2779 339.2882,-20.7025 346.7228,-18.0002"/>
<polygon fill="#191970" stroke="#191970" points="283.2459,-96.7467 276.4763,-104.8968 286.8508,-102.7471 283.2459,-96.7467"/>
</g>
</g>
</svg>
