<?xml version="1.0" encoding="UTF-8" standalone="no"?>
<!DOCTYPE svg PUBLIC "-//W3C//DTD SVG 1.1//EN"
 "http://www.w3.org/Graphics/SVG/1.1/DTD/svg11.dtd">
<!-- Generated by graphviz version 2.40.1 (20161225.0304)
 -->
<!-- Title: tasks::qp::ContactPosConstr Pages: 1 -->
<svg width="1322pt" height="231pt"
 viewBox="0.00 0.00 1322.00 231.00" xmlns="http://www.w3.org/2000/svg" xmlns:xlink="http://www.w3.org/1999/xlink">
<g id="graph0" class="graph" transform="scale(1 1) rotate(0) translate(4 227)">
<title>tasks::qp::ContactPosConstr</title>
<polygon fill="#ffffff" stroke="transparent" points="-4,4 -4,-227 1318,-227 1318,4 -4,4"/>
<!-- Node6 -->
<g id="node1" class="node">
<title>Node6</title>
<polygon fill="#bfbfbf" stroke="#000000" points="1170,-116.5 1170,-135.5 1314,-135.5 1314,-116.5 1170,-116.5"/>
<text text-anchor="middle" x="1242" y="-123.5" font-family="Helvetica,sans-Serif" font-size="10.00" fill="#000000">tasks::qp::ContactPosConstr</text>
</g>
<!-- Node7 -->
<g id="node2" class="node">
<title>Node7</title>
<g id="a_node2"><a xlink:href="a00987.html" target="_top" xlink:title="Common contact constraint computation. ">
<polygon fill="#ffffff" stroke="#000000" points="1006,-116.5 1006,-135.5 1133,-135.5 1133,-116.5 1006,-116.5"/>
<text text-anchor="middle" x="1069.5" y="-123.5" font-family="Helvetica,sans-Serif" font-size="10.00" fill="#000000">tasks::qp::ContactConstr</text>
</a>
</g>
</g>
<!-- Node7&#45;&gt;Node6 -->
<g id="edge1" class="edge">
<title>Node7&#45;&gt;Node6</title>
<path fill="none" stroke="#191970" d="M1143.4076,-126C1152.1532,-126 1161.0716,-126 1169.7932,-126"/>
<polygon fill="#191970" stroke="#191970" points="1143.2426,-122.5001 1133.2425,-126 1143.2425,-129.5001 1143.2426,-122.5001"/>
</g>
<!-- Node8 -->
<g id="node3" class="node">
<title>Node8</title>
<g id="a_node3"><a xlink:href="a01071.html" target="_top" xlink:title="tasks::qp::ConstraintFunction\l\&lt; Equality \&gt;">
<polygon fill="#ffffff" stroke="#000000" points="796,-166 796,-196 942,-196 942,-166 796,-166"/>
<text text-anchor="start" x="804" y="-184" font-family="Helvetica,sans-Serif" font-size="10.00" fill="#000000">tasks::qp::ConstraintFunction</text>
<text text-anchor="middle" x="869" y="-173" font-family="Helvetica,sans-Serif" font-size="10.00" fill="#000000">&lt; Equality &gt;</text>
</a>
</g>
</g>
<!-- Node8&#45;&gt;Node7 -->
<g id="edge2" class="edge">
<title>Node8&#45;&gt;Node7</title>
<path fill="none" stroke="#191970" d="M933.5336,-163.2975C967.1099,-154.0871 1006.8355,-143.1898 1034.6472,-135.5606"/>
<polygon fill="#191970" stroke="#191970" points="932.5053,-159.9502 923.7875,-165.971 934.3572,-166.7008 932.5053,-159.9502"/>
</g>
<!-- Node9 -->
<g id="node4" class="node">
<title>Node9</title>
<g id="a_node4"><a xlink:href="a01067.html" target="_top" xlink:title="tasks::qp::Constraint">
<polygon fill="#ffffff" stroke="#000000" points="567.5,-203.5 567.5,-222.5 675.5,-222.5 675.5,-203.5 567.5,-203.5"/>
<text text-anchor="middle" x="621.5" y="-210.5" font-family="Helvetica,sans-Serif" font-size="10.00" fill="#000000">tasks::qp::Constraint</text>
</a>
</g>
</g>
<!-- Node9&#45;&gt;Node8 -->
<g id="edge3" class="edge">
<title>Node9&#45;&gt;Node8</title>
<path fill="none" stroke="#191970" d="M685.7102,-204.6981C719.4322,-200.3381 760.8986,-194.9767 795.8561,-190.457"/>
<polygon fill="#191970" stroke="#191970" points="684.9777,-201.2636 675.5091,-206.017 685.8754,-208.2058 684.9777,-201.2636"/>
</g>
<!-- Node10 -->
<g id="node5" class="node">
<title>Node10</title>
<polygon fill="#ffffff" stroke="#bfbfbf" points="605,-165.5 605,-184.5 638,-184.5 638,-165.5 605,-165.5"/>
<text text-anchor="middle" x="621.5" y="-172.5" font-family="Helvetica,sans-Serif" font-size="10.00" fill="#000000">Fun</text>
</g>
<!-- Node10&#45;&gt;Node8 -->
<g id="edge4" class="edge">
<title>Node10&#45;&gt;Node8</title>
<path fill="none" stroke="#191970" d="M648.4989,-175.6545C683.5977,-176.5054 746.2652,-178.0246 795.8443,-179.2265"/>
<polygon fill="#191970" stroke="#191970" points="648.2054,-172.1465 638.1235,-175.403 648.0357,-179.1444 648.2054,-172.1465"/>
</g>
<!-- Node11 -->
<g id="node6" class="node">
<title>Node11</title>
<g id="a_node6"><a xlink:href="a00979.html" target="_top" xlink:title="Manage modifier on contact constraint. ">
<polygon fill="#ffffff" stroke="#000000" points="805.5,-56 805.5,-86 932.5,-86 932.5,-56 805.5,-56"/>
<text text-anchor="start" x="813.5" y="-74" font-family="Helvetica,sans-Serif" font-size="10.00" fill="#000000">tasks::qp::ContactConstr</text>
<text text-anchor="middle" x="869" y="-63" font-family="Helvetica,sans-Serif" font-size="10.00" fill="#000000">Common</text>
</a>
</g>
</g>
<!-- Node11&#45;&gt;Node7 -->
<g id="edge5" class="edge">
<title>Node11&#45;&gt;Node7</title>
<path fill="none" stroke="#191970" d="M933.5336,-88.7025C967.1099,-97.9129 1006.8355,-108.8102 1034.6472,-116.4394"/>
<polygon fill="#191970" stroke="#191970" points="934.3572,-85.2992 923.7875,-86.029 932.5053,-92.0498 934.3572,-85.2992"/>
</g>
<!-- Node12 -->
<g id="node7" class="node">
<title>Node12</title>
<polygon fill="#ffffff" stroke="#bfbfbf" points="572,-61 572,-91 671,-91 671,-61 572,-61"/>
<text text-anchor="start" x="580" y="-79" font-family="Helvetica,sans-Serif" font-size="10.00" fill="#000000">std::set&lt; tasks::qp</text>
<text text-anchor="middle" x="621.5" y="-68" font-family="Helvetica,sans-Serif" font-size="10.00" fill="#000000">::ContactId &gt;</text>
</g>
<!-- Node12&#45;&gt;Node11 -->
<g id="edge6" class="edge">
<title>Node12&#45;&gt;Node11</title>
<path fill="none" stroke="#9a32cd" stroke-dasharray="5,2" d="M681.5405,-74.7871C718.9574,-74.0312 767.0589,-73.0594 805.1677,-72.2895"/>
<polygon fill="#9a32cd" stroke="#9a32cd" points="681.2148,-71.2928 671.2876,-74.9942 681.3563,-78.2914 681.2148,-71.2928"/>
<text text-anchor="middle" x="740.5" y="-78" font-family="Helvetica,sans-Serif" font-size="10.00" fill="#000000"> virtualContacts_</text>
</g>
<!-- Node13 -->
<g id="node8" class="node">
<title>Node13</title>
<g id="a_node8"><a xlink:href="a01015.html" target="_top" xlink:title="Unique identifier for a contact. ">
<polygon fill="#ffffff" stroke="#000000" points="371.5,-57.5 371.5,-76.5 477.5,-76.5 477.5,-57.5 371.5,-57.5"/>
<text text-anchor="middle" x="424.5" y="-64.5" font-family="Helvetica,sans-Serif" font-size="10.00" fill="#000000">tasks::qp::ContactId</text>
</a>
</g>
</g>
<!-- Node13&#45;&gt;Node12 -->
<g id="edge7" class="edge">
<title>Node13&#45;&gt;Node12</title>
<path fill="none" stroke="#9a32cd" stroke-dasharray="5,2" d="M488.0424,-66.5332C504.9383,-66.687 523.1685,-67.1028 540,-68 550.3639,-68.5524 561.4443,-69.4403 571.9897,-70.4274"/>
<polygon fill="#9a32cd" stroke="#9a32cd" points="487.7406,-63.0313 477.7191,-66.4693 487.6972,-70.0312 487.7406,-63.0313"/>
<text text-anchor="middle" x="518" y="-71" font-family="Helvetica,sans-Serif" font-size="10.00" fill="#000000"> keys</text>
</g>
<!-- Node16 -->
<g id="node11" class="node">
<title>Node16</title>
<polygon fill="#ffffff" stroke="#bfbfbf" points="569.5,-.5 569.5,-41.5 673.5,-41.5 673.5,-.5 569.5,-.5"/>
<text text-anchor="start" x="577.5" y="-29.5" font-family="Helvetica,sans-Serif" font-size="10.00" fill="#000000">std::map&lt; tasks::qp</text>
<text text-anchor="start" x="577.5" y="-18.5" font-family="Helvetica,sans-Serif" font-size="10.00" fill="#000000">::ContactId, Eigen::</text>
<text text-anchor="middle" x="621.5" y="-7.5" font-family="Helvetica,sans-Serif" font-size="10.00" fill="#000000">MatrixXd &gt;</text>
</g>
<!-- Node13&#45;&gt;Node16 -->
<g id="edge11" class="edge">
<title>Node13&#45;&gt;Node16</title>
<path fill="none" stroke="#9a32cd" stroke-dasharray="5,2" d="M475.2246,-55.1557C504.152,-48.401 540.3339,-39.9525 569.4748,-33.148"/>
<polygon fill="#9a32cd" stroke="#9a32cd" points="474.2607,-51.7865 465.3185,-57.4688 475.8525,-58.6032 474.2607,-51.7865"/>
<text text-anchor="middle" x="518" y="-53" font-family="Helvetica,sans-Serif" font-size="10.00" fill="#000000"> keys</text>
</g>
<!-- Node18 -->
<g id="node13" class="node">
<title>Node18</title>
<g id="a_node13"><a xlink:href="a00995.html" target="_top" xlink:title="tasks::qp::ContactConstr\l::ContactData">
<polygon fill="#ffffff" stroke="#000000" points="558,-111 558,-141 685,-141 685,-111 558,-111"/>
<text text-anchor="start" x="566" y="-129" font-family="Helvetica,sans-Serif" font-size="10.00" fill="#000000">tasks::qp::ContactConstr</text>
<text text-anchor="middle" x="621.5" y="-118" font-family="Helvetica,sans-Serif" font-size="10.00" fill="#000000">::ContactData</text>
</a>
</g>
</g>
<!-- Node13&#45;&gt;Node18 -->
<g id="edge14" class="edge">
<title>Node13&#45;&gt;Node18</title>
<path fill="none" stroke="#9a32cd" stroke-dasharray="5,2" d="M466.5388,-79.5903C497.2084,-88.7756 538.9044,-101.2632 571.3197,-110.9714"/>
<polygon fill="#9a32cd" stroke="#9a32cd" points="467.1737,-76.1269 456.5899,-76.6107 465.1653,-82.8326 467.1737,-76.1269"/>
<text text-anchor="middle" x="518" y="-103" font-family="Helvetica,sans-Serif" font-size="10.00" fill="#000000"> contactId</text>
</g>
<!-- Node14 -->
<g id="node9" class="node">
<title>Node14</title>
<g id="a_node9"><a xlink:title="STL class. ">
<polygon fill="#ffffff" stroke="#bfbfbf" points="180.5,-57.5 180.5,-76.5 240.5,-76.5 240.5,-57.5 180.5,-57.5"/>
<text text-anchor="middle" x="210.5" y="-64.5" font-family="Helvetica,sans-Serif" font-size="10.00" fill="#000000">std::string</text>
</a>
</g>
</g>
<!-- Node14&#45;&gt;Node13 -->
<g id="edge8" class="edge">
<title>Node14&#45;&gt;Node13</title>
<path fill="none" stroke="#9a32cd" stroke-dasharray="5,2" d="M250.7762,-67C284.8734,-67 334.0143,-67 371.3369,-67"/>
<polygon fill="#9a32cd" stroke="#9a32cd" points="250.7071,-63.5001 240.7071,-67 250.7071,-70.5001 250.7071,-63.5001"/>
<text text-anchor="middle" x="322.5" y="-81" font-family="Helvetica,sans-Serif" font-size="10.00" fill="#000000"> r2BodyName</text>
<text text-anchor="middle" x="322.5" y="-70" font-family="Helvetica,sans-Serif" font-size="10.00" fill="#000000">r1BodyName</text>
</g>
<!-- Node15 -->
<g id="node10" class="node">
<title>Node15</title>
<g id="a_node10"><a xlink:title="STL class. ">
<polygon fill="#ffffff" stroke="#bfbfbf" points="0,-52 0,-82 95,-82 95,-52 0,-52"/>
<text text-anchor="start" x="8" y="-70" font-family="Helvetica,sans-Serif" font-size="10.00" fill="#000000">std::basic_string&lt;</text>
<text text-anchor="middle" x="47.5" y="-59" font-family="Helvetica,sans-Serif" font-size="10.00" fill="#000000"> char &gt;</text>
</a>
</g>
</g>
<!-- Node15&#45;&gt;Node14 -->
<g id="edge9" class="edge">
<title>Node15&#45;&gt;Node14</title>
<path fill="none" stroke="#191970" d="M105.2986,-67C130.5366,-67 159.0958,-67 180.0829,-67"/>
<polygon fill="#191970" stroke="#191970" points="105.0846,-63.5001 95.0845,-67 105.0845,-70.5001 105.0846,-63.5001"/>
</g>
<!-- Node16&#45;&gt;Node11 -->
<g id="edge10" class="edge">
<title>Node16&#45;&gt;Node11</title>
<path fill="none" stroke="#9a32cd" stroke-dasharray="5,2" d="M683.8894,-33.6039C721.0522,-41.1116 768.0992,-50.616 805.4629,-58.1642"/>
<polygon fill="#9a32cd" stroke="#9a32cd" points="684.181,-30.0922 673.686,-31.5426 682.7948,-36.9536 684.181,-30.0922"/>
<text text-anchor="middle" x="740.5" y="-55" font-family="Helvetica,sans-Serif" font-size="10.00" fill="#000000"> dofContacts_</text>
</g>
<!-- Node17 -->
<g id="node12" class="node">
<title>Node17</title>
<polygon fill="#ffffff" stroke="#bfbfbf" points="817.5,-105.5 817.5,-146.5 920.5,-146.5 920.5,-105.5 817.5,-105.5"/>
<text text-anchor="start" x="825.5" y="-134.5" font-family="Helvetica,sans-Serif" font-size="10.00" fill="#000000">std::vector&lt; tasks</text>
<text text-anchor="start" x="825.5" y="-123.5" font-family="Helvetica,sans-Serif" font-size="10.00" fill="#000000">::qp::ContactConstr</text>
<text text-anchor="middle" x="869" y="-112.5" font-family="Helvetica,sans-Serif" font-size="10.00" fill="#000000">::ContactData &gt;</text>
</g>
<!-- Node17&#45;&gt;Node7 -->
<g id="edge12" class="edge">
<title>Node17&#45;&gt;Node7</title>
<path fill="none" stroke="#9a32cd" stroke-dasharray="5,2" d="M930.95,-126C954.7371,-126 981.9102,-126 1005.854,-126"/>
<polygon fill="#9a32cd" stroke="#9a32cd" points="930.6338,-122.5001 920.6337,-126 930.6337,-129.5001 930.6338,-122.5001"/>
<text text-anchor="middle" x="974" y="-129" font-family="Helvetica,sans-Serif" font-size="10.00" fill="#000000"> cont_</text>
</g>
<!-- Node18&#45;&gt;Node17 -->
<g id="edge13" class="edge">
<title>Node18&#45;&gt;Node17</title>
<path fill="none" stroke="#9a32cd" stroke-dasharray="5,2" d="M695.2876,-126C734.5242,-126 781.814,-126 817.1394,-126"/>
<polygon fill="#9a32cd" stroke="#9a32cd" points="695.2374,-122.5001 685.2374,-126 695.2374,-129.5001 695.2374,-122.5001"/>
<text text-anchor="middle" x="740.5" y="-129" font-family="Helvetica,sans-Serif" font-size="10.00" fill="#000000"> elements</text>
</g>
<!-- Node19 -->
<g id="node14" class="node">
<title>Node19</title>
<polygon fill="#ffffff" stroke="#bfbfbf" points="371,-114.5 371,-155.5 478,-155.5 478,-114.5 371,-114.5"/>
<text text-anchor="start" x="379" y="-143.5" font-family="Helvetica,sans-Serif" font-size="10.00" fill="#000000">std::vector&lt; tasks</text>
<text text-anchor="start" x="379" y="-132.5" font-family="Helvetica,sans-Serif" font-size="10.00" fill="#000000">::qp::ContactConstr</text>
<text text-anchor="middle" x="424.5" y="-121.5" font-family="Helvetica,sans-Serif" font-size="10.00" fill="#000000">::ContactSideData &gt;</text>
</g>
<!-- Node19&#45;&gt;Node18 -->
<g id="edge15" class="edge">
<title>Node19&#45;&gt;Node18</title>
<path fill="none" stroke="#9a32cd" stroke-dasharray="5,2" d="M488.1089,-132.094C510.4192,-131.0748 535.472,-129.9302 557.7906,-128.9106"/>
<polygon fill="#9a32cd" stroke="#9a32cd" points="487.9007,-128.5998 478.0709,-132.5526 488.2202,-135.5925 487.9007,-128.5998"/>
<text text-anchor="middle" x="518" y="-134" font-family="Helvetica,sans-Serif" font-size="10.00" fill="#000000"> contacts</text>
</g>
<!-- Node20 -->
<g id="node15" class="node">
<title>Node20</title>
<g id="a_node15"><a xlink:href="a00991.html" target="_top" xlink:title="tasks::qp::ContactConstr\l::ContactSideData">
<polygon fill="#ffffff" stroke="#000000" points="147,-120 147,-150 274,-150 274,-120 147,-120"/>
<text text-anchor="start" x="155" y="-138" font-family="Helvetica,sans-Serif" font-size="10.00" fill="#000000">tasks::qp::ContactConstr</text>
<text text-anchor="middle" x="210.5" y="-127" font-family="Helvetica,sans-Serif" font-size="10.00" fill="#000000">::ContactSideData</text>
</a>
</g>
</g>
<!-- Node20&#45;&gt;Node19 -->
<g id="edge16" class="edge">
<title>Node20&#45;&gt;Node19</title>
<path fill="none" stroke="#9a32cd" stroke-dasharray="5,2" d="M284.4245,-135C312.8433,-135 344.7144,-135 370.8677,-135"/>
<polygon fill="#9a32cd" stroke="#9a32cd" points="284.1277,-131.5001 274.1277,-135 284.1276,-138.5001 284.1277,-131.5001"/>
<text text-anchor="middle" x="322.5" y="-138" font-family="Helvetica,sans-Serif" font-size="10.00" fill="#000000"> elements</text>
</g>
<!-- Node21 -->
<g id="node16" class="node">
<title>Node21</title>
<g id="a_node16"><a doxygen="/usr/local/share/doc/RBDyn/doxygen-html/RBDyn.doxytag:/usr/local/share/doc/RBDyn/doxygen-html/" xlink:href="/usr/local/share/doc/RBDyn/doxygen-html/a00991.html" target="_top" xlink:title="rbd::Jacobian">
<polygon fill="#ffffff" stroke="#000000" points="10,-125.5 10,-144.5 85,-144.5 85,-125.5 10,-125.5"/>
<text text-anchor="middle" x="47.5" y="-132.5" font-family="Helvetica,sans-Serif" font-size="10.00" fill="#000000">rbd::Jacobian</text>
</a>
</g>
</g>
<!-- Node21&#45;&gt;Node20 -->
<g id="edge17" class="edge">
<title>Node21&#45;&gt;Node20</title>
<path fill="none" stroke="#9a32cd" stroke-dasharray="5,2" d="M95.5087,-135C111.5455,-135 129.6767,-135 146.7212,-135"/>
<polygon fill="#9a32cd" stroke="#9a32cd" points="95.3052,-131.5001 85.3052,-135 95.3051,-138.5001 95.3052,-131.5001"/>
<text text-anchor="middle" x="121" y="-138" font-family="Helvetica,sans-Serif" font-size="10.00" fill="#000000"> jac</text>
</g>
</g>
</svg>
