<?xml version="1.0" encoding="UTF-8" standalone="no"?>
<!DOCTYPE svg PUBLIC "-//W3C//DTD SVG 1.1//EN"
 "http://www.w3.org/Graphics/SVG/1.1/DTD/svg11.dtd">
<!-- Generated by graphviz version 2.40.1 (20161225.0304)
 -->
<!-- Title: tasks::qp::SurfaceTransformTask Pages: 1 -->
<svg width="303pt" height="298pt"
 viewBox="0.00 0.00 303.00 298.00" xmlns="http://www.w3.org/2000/svg" xmlns:xlink="http://www.w3.org/1999/xlink">
<g id="graph0" class="graph" transform="scale(1 1) rotate(0) translate(4 294)">
<title>tasks::qp::SurfaceTransformTask</title>
<polygon fill="#ffffff" stroke="transparent" points="-4,4 -4,-294 299,-294 299,4 -4,4"/>
<!-- Node3 -->
<g id="node1" class="node">
<title>Node3</title>
<polygon fill="#bfbfbf" stroke="#000000" points="29.5,-.5 29.5,-19.5 192.5,-19.5 192.5,-.5 29.5,-.5"/>
<text text-anchor="middle" x="111" y="-7.5" font-family="Helvetica,sans-Serif" font-size="10.00" fill="#000000">tasks::qp::SurfaceTransformTask</text>
</g>
<!-- Node4 -->
<g id="node2" class="node">
<title>Node4</title>
<g id="a_node2"><a xlink:href="a01185.html" target="_top" xlink:title="tasks::qp::TransformTask\lCommon\&lt; tasks::SurfaceTransform\lTask \&gt;">
<polygon fill="#ffffff" stroke="#000000" points="24.5,-57.5 24.5,-98.5 197.5,-98.5 197.5,-57.5 24.5,-57.5"/>
<text text-anchor="start" x="32.5" y="-86.5" font-family="Helvetica,sans-Serif" font-size="10.00" fill="#000000">tasks::qp::TransformTask</text>
<text text-anchor="start" x="32.5" y="-75.5" font-family="Helvetica,sans-Serif" font-size="10.00" fill="#000000">Common&lt; tasks::SurfaceTransform</text>
<text text-anchor="middle" x="111" y="-64.5" font-family="Helvetica,sans-Serif" font-size="10.00" fill="#000000">Task &gt;</text>
</a>
</g>
</g>
<!-- Node4&#45;&gt;Node3 -->
<g id="edge1" class="edge">
<title>Node4&#45;&gt;Node3</title>
<path fill="none" stroke="#191970" d="M111,-47.1423C111,-37.1999 111,-26.896 111,-19.6705"/>
<polygon fill="#191970" stroke="#191970" points="107.5001,-47.2282 111,-57.2283 114.5001,-47.2283 107.5001,-47.2282"/>
</g>
<!-- Node5 -->
<g id="node3" class="node">
<title>Node5</title>
<g id="a_node3"><a xlink:href="a01101.html" target="_top" xlink:title="tasks::qp::HighLevelTask">
<polygon fill="#ffffff" stroke="#000000" points="0,-146.5 0,-165.5 128,-165.5 128,-146.5 0,-146.5"/>
<text text-anchor="middle" x="64" y="-153.5" font-family="Helvetica,sans-Serif" font-size="10.00" fill="#000000">tasks::qp::HighLevelTask</text>
</a>
</g>
</g>
<!-- Node5&#45;&gt;Node4 -->
<g id="edge2" class="edge">
<title>Node5&#45;&gt;Node4</title>
<path fill="none" stroke="#191970" d="M75.086,-137.6019C82.1045,-125.9542 91.1952,-110.8675 98.4743,-98.7873"/>
<polygon fill="#191970" stroke="#191970" points="71.9264,-136.064 69.7631,-146.4357 77.9221,-139.6768 71.9264,-136.064"/>
</g>
<!-- Node6 -->
<g id="node4" class="node">
<title>Node6</title>
<g id="a_node4"><a xlink:href="a01265.html" target="_top" xlink:title="tasks::SurfaceTransformTask">
<polygon fill="#ffffff" stroke="#000000" points="146,-146.5 146,-165.5 292,-165.5 292,-146.5 146,-146.5"/>
<text text-anchor="middle" x="219" y="-153.5" font-family="Helvetica,sans-Serif" font-size="10.00" fill="#000000">tasks::SurfaceTransformTask</text>
</a>
</g>
</g>
<!-- Node6&#45;&gt;Node4 -->
<g id="edge3" class="edge">
<title>Node6&#45;&gt;Node4</title>
<path fill="none" stroke="#9a32cd" stroke-dasharray="5,2" d="M197.3004,-140.328C180.767,-128.3873 157.847,-111.8339 139.7824,-98.7873"/>
<polygon fill="#9a32cd" stroke="#9a32cd" points="195.601,-143.4181 205.7571,-146.4357 199.6995,-137.7433 195.601,-143.4181"/>
<text text-anchor="middle" x="184.5" y="-120" font-family="Helvetica,sans-Serif" font-size="10.00" fill="#000000"> tt_</text>
</g>
<!-- Node7 -->
<g id="node5" class="node">
<title>Node7</title>
<g id="a_node5"><a xlink:href="a01261.html" target="_top" xlink:title="tasks::TransformTaskCommon">
<polygon fill="#ffffff" stroke="#000000" points="143,-203.5 143,-222.5 295,-222.5 295,-203.5 143,-203.5"/>
<text text-anchor="middle" x="219" y="-210.5" font-family="Helvetica,sans-Serif" font-size="10.00" fill="#000000">tasks::TransformTaskCommon</text>
</a>
</g>
</g>
<!-- Node7&#45;&gt;Node6 -->
<g id="edge4" class="edge">
<title>Node7&#45;&gt;Node6</title>
<path fill="none" stroke="#191970" d="M219,-193.2342C219,-183.8491 219,-173.0651 219,-165.5265"/>
<polygon fill="#191970" stroke="#191970" points="215.5001,-193.3307 219,-203.3307 222.5001,-193.3308 215.5001,-193.3307"/>
</g>
<!-- Node8 -->
<g id="node6" class="node">
<title>Node8</title>
<g id="a_node6"><a doxygen="/usr/local/share/doc/RBDyn/doxygen-html/RBDyn.doxytag:/usr/local/share/doc/RBDyn/doxygen-html/" xlink:href="/usr/local/share/doc/RBDyn/doxygen-html/a00991.html" target="_top" xlink:title="rbd::Jacobian">
<polygon fill="#ffffff" stroke="#000000" points="181.5,-270.5 181.5,-289.5 256.5,-289.5 256.5,-270.5 181.5,-270.5"/>
<text text-anchor="middle" x="219" y="-277.5" font-family="Helvetica,sans-Serif" font-size="10.00" fill="#000000">rbd::Jacobian</text>
</a>
</g>
</g>
<!-- Node8&#45;&gt;Node7 -->
<g id="edge5" class="edge">
<title>Node8&#45;&gt;Node7</title>
<path fill="none" stroke="#9a32cd" stroke-dasharray="5,2" d="M219,-260.1079C219,-247.714 219,-232.3263 219,-222.5817"/>
<polygon fill="#9a32cd" stroke="#9a32cd" points="215.5001,-260.4005 219,-270.4005 222.5001,-260.4006 215.5001,-260.4005"/>
<text text-anchor="middle" x="230" y="-244" font-family="Helvetica,sans-Serif" font-size="10.00" fill="#000000"> jac_</text>
</g>
</g>
</svg>
