<?xml version="1.0" encoding="UTF-8" standalone="no"?>
<!DOCTYPE svg PUBLIC "-//W3C//DTD SVG 1.1//EN"
 "http://www.w3.org/Graphics/SVG/1.1/DTD/svg11.dtd">
<!-- Generated by graphviz version 2.40.1 (20161225.0304)
 -->
<!-- Title: tasks::qp::TransformTask Pages: 1 -->
<svg width="292pt" height="287pt"
 viewBox="0.00 0.00 292.00 287.00" xmlns="http://www.w3.org/2000/svg" xmlns:xlink="http://www.w3.org/1999/xlink">
<g id="graph0" class="graph" transform="scale(1 1) rotate(0) translate(4 283)">
<title>tasks::qp::TransformTask</title>
<polygon fill="#ffffff" stroke="transparent" points="-4,4 -4,-283 288,-283 288,4 -4,4"/>
<!-- Node3 -->
<g id="node1" class="node">
<title>Node3</title>
<polygon fill="#bfbfbf" stroke="#000000" points="20.5,-.5 20.5,-19.5 149.5,-19.5 149.5,-.5 20.5,-.5"/>
<text text-anchor="middle" x="85" y="-7.5" font-family="Helvetica,sans-Serif" font-size="10.00" fill="#000000">tasks::qp::TransformTask</text>
</g>
<!-- Node4 -->
<g id="node2" class="node">
<title>Node4</title>
<g id="a_node2"><a xlink:href="a01185.html" target="_top" xlink:title="tasks::qp::TransformTask\lCommon\&lt; tasks::TransformTask \&gt;">
<polygon fill="#ffffff" stroke="#000000" points="0,-57.5 0,-87.5 170,-87.5 170,-57.5 0,-57.5"/>
<text text-anchor="start" x="8" y="-75.5" font-family="Helvetica,sans-Serif" font-size="10.00" fill="#000000">tasks::qp::TransformTask</text>
<text text-anchor="middle" x="85" y="-64.5" font-family="Helvetica,sans-Serif" font-size="10.00" fill="#000000">Common&lt; tasks::TransformTask &gt;</text>
</a>
</g>
</g>
<!-- Node4&#45;&gt;Node3 -->
<g id="edge1" class="edge">
<title>Node4&#45;&gt;Node3</title>
<path fill="none" stroke="#191970" d="M85,-47.3498C85,-37.6481 85,-27.1303 85,-19.7356"/>
<polygon fill="#191970" stroke="#191970" points="81.5001,-47.3705 85,-57.3705 88.5001,-47.3705 81.5001,-47.3705"/>
</g>
<!-- Node5 -->
<g id="node3" class="node">
<title>Node5</title>
<g id="a_node3"><a xlink:href="a01101.html" target="_top" xlink:title="tasks::qp::HighLevelTask">
<polygon fill="#ffffff" stroke="#000000" points="5,-135.5 5,-154.5 133,-154.5 133,-135.5 5,-135.5"/>
<text text-anchor="middle" x="69" y="-142.5" font-family="Helvetica,sans-Serif" font-size="10.00" fill="#000000">tasks::qp::HighLevelTask</text>
</a>
</g>
</g>
<!-- Node5&#45;&gt;Node4 -->
<g id="edge2" class="edge">
<title>Node5&#45;&gt;Node4</title>
<path fill="none" stroke="#191970" d="M73.3296,-125.3817C75.9473,-113.52 79.2345,-98.6248 81.6526,-87.668"/>
<polygon fill="#191970" stroke="#191970" points="69.8952,-124.703 71.1578,-135.2223 76.7307,-126.2116 69.8952,-124.703"/>
</g>
<!-- Node6 -->
<g id="node4" class="node">
<title>Node6</title>
<g id="a_node4"><a xlink:href="a01269.html" target="_top" xlink:title="tasks::TransformTask">
<polygon fill="#ffffff" stroke="#000000" points="151.5,-135.5 151.5,-154.5 264.5,-154.5 264.5,-135.5 151.5,-135.5"/>
<text text-anchor="middle" x="208" y="-142.5" font-family="Helvetica,sans-Serif" font-size="10.00" fill="#000000">tasks::TransformTask</text>
</a>
</g>
</g>
<!-- Node6&#45;&gt;Node4 -->
<g id="edge3" class="edge">
<title>Node6&#45;&gt;Node4</title>
<path fill="none" stroke="#9a32cd" stroke-dasharray="5,2" d="M182.9828,-130.2541C161.9786,-117.8736 132.0825,-100.2519 110.8481,-87.7357"/>
<polygon fill="#9a32cd" stroke="#9a32cd" points="181.2744,-133.3099 191.6665,-135.3726 184.829,-127.2795 181.2744,-133.3099"/>
<text text-anchor="middle" x="164.5" y="-109" font-family="Helvetica,sans-Serif" font-size="10.00" fill="#000000"> tt_</text>
</g>
<!-- Node7 -->
<g id="node5" class="node">
<title>Node7</title>
<g id="a_node5"><a xlink:href="a01261.html" target="_top" xlink:title="tasks::TransformTaskCommon">
<polygon fill="#ffffff" stroke="#000000" points="132,-192.5 132,-211.5 284,-211.5 284,-192.5 132,-192.5"/>
<text text-anchor="middle" x="208" y="-199.5" font-family="Helvetica,sans-Serif" font-size="10.00" fill="#000000">tasks::TransformTaskCommon</text>
</a>
</g>
</g>
<!-- Node7&#45;&gt;Node6 -->
<g id="edge4" class="edge">
<title>Node7&#45;&gt;Node6</title>
<path fill="none" stroke="#191970" d="M208,-182.2342C208,-172.8491 208,-162.0651 208,-154.5265"/>
<polygon fill="#191970" stroke="#191970" points="204.5001,-182.3307 208,-192.3307 211.5001,-182.3308 204.5001,-182.3307"/>
</g>
<!-- Node8 -->
<g id="node6" class="node">
<title>Node8</title>
<g id="a_node6"><a doxygen="/usr/local/share/doc/RBDyn/doxygen-html/RBDyn.doxytag:/usr/local/share/doc/RBDyn/doxygen-html/" xlink:href="/usr/local/share/doc/RBDyn/doxygen-html/a00991.html" target="_top" xlink:title="rbd::Jacobian">
<polygon fill="#ffffff" stroke="#000000" points="170.5,-259.5 170.5,-278.5 245.5,-278.5 245.5,-259.5 170.5,-259.5"/>
<text text-anchor="middle" x="208" y="-266.5" font-family="Helvetica,sans-Serif" font-size="10.00" fill="#000000">rbd::Jacobian</text>
</a>
</g>
</g>
<!-- Node8&#45;&gt;Node7 -->
<g id="edge5" class="edge">
<title>Node8&#45;&gt;Node7</title>
<path fill="none" stroke="#9a32cd" stroke-dasharray="5,2" d="M208,-249.1079C208,-236.714 208,-221.3263 208,-211.5817"/>
<polygon fill="#9a32cd" stroke="#9a32cd" points="204.5001,-249.4005 208,-259.4005 211.5001,-249.4006 204.5001,-249.4005"/>
<text text-anchor="middle" x="219" y="-233" font-family="Helvetica,sans-Serif" font-size="10.00" fill="#000000"> jac_</text>
</g>
</g>
</svg>
