<?xml version="1.0" encoding="UTF-8" standalone="no"?>
<!DOCTYPE svg PUBLIC "-//W3C//DTD SVG 1.1//EN"
 "http://www.w3.org/Graphics/SVG/1.1/DTD/svg11.dtd">
<!-- Generated by graphviz version 2.40.1 (20161225.0304)
 -->
<!-- Title: tasks::qp::SurfaceTransformTask Pages: 1 -->
<svg width="181pt" height="162pt"
 viewBox="0.00 0.00 181.00 162.00" xmlns="http://www.w3.org/2000/svg" xmlns:xlink="http://www.w3.org/1999/xlink">
<g id="graph0" class="graph" transform="scale(1 1) rotate(0) translate(4 158)">
<title>tasks::qp::SurfaceTransformTask</title>
<polygon fill="#ffffff" stroke="transparent" points="-4,4 -4,-158 177,-158 177,4 -4,4"/>
<!-- Node0 -->
<g id="node1" class="node">
<title>Node0</title>
<polygon fill="#bfbfbf" stroke="#000000" points="5,-.5 5,-19.5 168,-19.5 168,-.5 5,-.5"/>
<text text-anchor="middle" x="86.5" y="-7.5" font-family="Helvetica,sans-Serif" font-size="10.00" fill="#000000">tasks::qp::SurfaceTransformTask</text>
</g>
<!-- Node1 -->
<g id="node2" class="node">
<title>Node1</title>
<g id="a_node2"><a xlink:href="a01179.html" target="_top" xlink:title="tasks::qp::TransformTask\lCommon\&lt; tasks::SurfaceTransform\lTask \&gt;">
<polygon fill="#ffffff" stroke="#000000" points="0,-56.5 0,-97.5 173,-97.5 173,-56.5 0,-56.5"/>
<text text-anchor="start" x="8" y="-85.5" font-family="Helvetica,sans-Serif" font-size="10.00" fill="#000000">tasks::qp::TransformTask</text>
<text text-anchor="start" x="8" y="-74.5" font-family="Helvetica,sans-Serif" font-size="10.00" fill="#000000">Common&lt; tasks::SurfaceTransform</text>
<text text-anchor="middle" x="86.5" y="-63.5" font-family="Helvetica,sans-Serif" font-size="10.00" fill="#000000">Task &gt;</text>
</a>
</g>
</g>
<!-- Node1&#45;&gt;Node0 -->
<g id="edge1" class="edge">
<title>Node1&#45;&gt;Node0</title>
<path fill="none" stroke="#191970" d="M86.5,-46.0909C86.5,-36.5672 86.5,-26.7625 86.5,-19.7805"/>
<polygon fill="#191970" stroke="#191970" points="83.0001,-46.168 86.5,-56.168 90.0001,-46.1681 83.0001,-46.168"/>
</g>
<!-- Node2 -->
<g id="node3" class="node">
<title>Node2</title>
<g id="a_node3"><a xlink:href="a01095.html" target="_top" xlink:title="tasks::qp::HighLevelTask">
<polygon fill="#ffffff" stroke="#000000" points="22.5,-134.5 22.5,-153.5 150.5,-153.5 150.5,-134.5 22.5,-134.5"/>
<text text-anchor="middle" x="86.5" y="-141.5" font-family="Helvetica,sans-Serif" font-size="10.00" fill="#000000">tasks::qp::HighLevelTask</text>
</a>
</g>
</g>
<!-- Node2&#45;&gt;Node1 -->
<g id="edge2" class="edge">
<title>Node2&#45;&gt;Node1</title>
<path fill="none" stroke="#191970" d="M86.5,-124.3919C86.5,-115.9817 86.5,-106.1519 86.5,-97.6318"/>
<polygon fill="#191970" stroke="#191970" points="83.0001,-124.4005 86.5,-134.4005 90.0001,-124.4006 83.0001,-124.4005"/>
</g>
</g>
</svg>
