<?xml version="1.0" encoding="UTF-8" standalone="no"?>
<!DOCTYPE svg PUBLIC "-//W3C//DTD SVG 1.1//EN"
 "http://www.w3.org/Graphics/SVG/1.1/DTD/svg11.dtd">
<!-- Generated by graphviz version 2.40.1 (20161225.0304)
 -->
<!-- Title: tasks::qp::SetPointTaskCommon Pages: 1 -->
<svg width="455pt" height="142pt"
 viewBox="0.00 0.00 455.00 142.00" xmlns="http://www.w3.org/2000/svg" xmlns:xlink="http://www.w3.org/1999/xlink">
<g id="graph0" class="graph" transform="scale(1 1) rotate(0) translate(4 138)">
<title>tasks::qp::SetPointTaskCommon</title>
<polygon fill="#ffffff" stroke="transparent" points="-4,4 -4,-138 451,-138 451,4 -4,4"/>
<!-- Node0 -->
<g id="node1" class="node">
<title>Node0</title>
<polygon fill="#bfbfbf" stroke="#000000" points="121,-57.5 121,-76.5 283,-76.5 283,-57.5 121,-57.5"/>
<text text-anchor="middle" x="202" y="-64.5" font-family="Helvetica,sans-Serif" font-size="10.00" fill="#000000">tasks::qp::SetPointTaskCommon</text>
</g>
<!-- Node2 -->
<g id="node3" class="node">
<title>Node2</title>
<g id="a_node3"><a xlink:href="a01141.html" target="_top" xlink:title="tasks::qp::PIDTask">
<polygon fill="#ffffff" stroke="#000000" points="332,-114.5 332,-133.5 434,-133.5 434,-114.5 332,-114.5"/>
<text text-anchor="middle" x="383" y="-121.5" font-family="Helvetica,sans-Serif" font-size="10.00" fill="#000000">tasks::qp::PIDTask</text>
</a>
</g>
</g>
<!-- Node0&#45;&gt;Node2 -->
<g id="edge2" class="edge">
<title>Node0&#45;&gt;Node2</title>
<path fill="none" stroke="#191970" d="M240.431,-79.7542C263.2232,-87.2502 292.7066,-96.8287 319,-105 329.1828,-108.1646 340.3123,-111.5084 350.393,-114.4941"/>
<polygon fill="#191970" stroke="#191970" points="241.3772,-76.3809 230.7842,-76.5745 239.1859,-83.0291 241.3772,-76.3809"/>
</g>
<!-- Node3 -->
<g id="node4" class="node">
<title>Node3</title>
<g id="a_node4"><a xlink:href="a01129.html" target="_top" xlink:title="tasks::qp::SetPointTask">
<polygon fill="#ffffff" stroke="#000000" points="322,-76.5 322,-95.5 444,-95.5 444,-76.5 322,-76.5"/>
<text text-anchor="middle" x="383" y="-83.5" font-family="Helvetica,sans-Serif" font-size="10.00" fill="#000000">tasks::qp::SetPointTask</text>
</a>
</g>
</g>
<!-- Node0&#45;&gt;Node3 -->
<g id="edge3" class="edge">
<title>Node0&#45;&gt;Node3</title>
<path fill="none" stroke="#191970" d="M293.2981,-76.5838C302.9685,-77.5989 312.6267,-78.6128 321.8311,-79.579"/>
<polygon fill="#191970" stroke="#191970" points="293.5455,-73.0906 283.2347,-75.5274 292.8146,-80.0523 293.5455,-73.0906"/>
</g>
<!-- Node4 -->
<g id="node5" class="node">
<title>Node4</title>
<g id="a_node5"><a xlink:href="a01133.html" target="_top" xlink:title="tasks::qp::TrackingTask">
<polygon fill="#ffffff" stroke="#000000" points="322,-38.5 322,-57.5 444,-57.5 444,-38.5 322,-38.5"/>
<text text-anchor="middle" x="383" y="-45.5" font-family="Helvetica,sans-Serif" font-size="10.00" fill="#000000">tasks::qp::TrackingTask</text>
</a>
</g>
</g>
<!-- Node0&#45;&gt;Node4 -->
<g id="edge4" class="edge">
<title>Node0&#45;&gt;Node4</title>
<path fill="none" stroke="#191970" d="M293.2981,-57.4162C302.9685,-56.4011 312.6267,-55.3872 321.8311,-54.421"/>
<polygon fill="#191970" stroke="#191970" points="292.8146,-53.9477 283.2347,-58.4726 293.5455,-60.9094 292.8146,-53.9477"/>
</g>
<!-- Node5 -->
<g id="node6" class="node">
<title>Node5</title>
<g id="a_node6"><a xlink:href="a01137.html" target="_top" xlink:title="tasks::qp::TrajectoryTask">
<polygon fill="#ffffff" stroke="#000000" points="319,-.5 319,-19.5 447,-19.5 447,-.5 319,-.5"/>
<text text-anchor="middle" x="383" y="-7.5" font-family="Helvetica,sans-Serif" font-size="10.00" fill="#000000">tasks::qp::TrajectoryTask</text>
</a>
</g>
</g>
<!-- Node0&#45;&gt;Node5 -->
<g id="edge5" class="edge">
<title>Node0&#45;&gt;Node5</title>
<path fill="none" stroke="#191970" d="M240.431,-54.2458C263.2232,-46.7498 292.7066,-37.1713 319,-29 329.1828,-25.8354 340.3123,-22.4916 350.393,-19.5059"/>
<polygon fill="#191970" stroke="#191970" points="239.1859,-50.9709 230.7842,-57.4255 241.3772,-57.6191 239.1859,-50.9709"/>
</g>
<!-- Node1 -->
<g id="node2" class="node">
<title>Node1</title>
<g id="a_node2"><a xlink:href="a01097.html" target="_top" xlink:title="tasks::qp::Task">
<polygon fill="#ffffff" stroke="#000000" points="0,-57.5 0,-76.5 85,-76.5 85,-57.5 0,-57.5"/>
<text text-anchor="middle" x="42.5" y="-64.5" font-family="Helvetica,sans-Serif" font-size="10.00" fill="#000000">tasks::qp::Task</text>
</a>
</g>
</g>
<!-- Node1&#45;&gt;Node0 -->
<g id="edge1" class="edge">
<title>Node1&#45;&gt;Node0</title>
<path fill="none" stroke="#191970" d="M95.3976,-67C103.6209,-67 112.2754,-67 120.9504,-67"/>
<polygon fill="#191970" stroke="#191970" points="95.2431,-63.5001 85.2431,-67 95.243,-70.5001 95.2431,-63.5001"/>
</g>
</g>
</svg>
