<?xml version="1.0" encoding="UTF-8" standalone="no"?>
<!DOCTYPE svg PUBLIC "-//W3C//DTD SVG 1.1//EN"
 "http://www.w3.org/Graphics/SVG/1.1/DTD/svg11.dtd">
<!-- Generated by graphviz version 2.40.1 (20161225.0304)
 -->
<!-- Title: tasks::TransformTaskCommon Pages: 1 -->
<svg width="286pt" height="84pt"
 viewBox="0.00 0.00 285.50 84.00" xmlns="http://www.w3.org/2000/svg" xmlns:xlink="http://www.w3.org/1999/xlink">
<g id="graph0" class="graph" transform="scale(1 1) rotate(0) translate(4 80)">
<title>tasks::TransformTaskCommon</title>
<polygon fill="#ffffff" stroke="transparent" points="-4,4 -4,-80 281.5,-80 281.5,4 -4,4"/>
<!-- Node0 -->
<g id="node1" class="node">
<title>Node0</title>
<polygon fill="#bfbfbf" stroke="#000000" points="71,-56.5 71,-75.5 223,-75.5 223,-56.5 71,-56.5"/>
<text text-anchor="middle" x="147" y="-63.5" font-family="Helvetica,sans-Serif" font-size="10.00" fill="#000000">tasks::TransformTaskCommon</text>
</g>
<!-- Node1 -->
<g id="node2" class="node">
<title>Node1</title>
<g id="a_node2"><a xlink:href="a01255.html" target="_top" xlink:title="tasks::SurfaceTransformTask">
<polygon fill="#ffffff" stroke="#000000" points="0,-.5 0,-19.5 146,-19.5 146,-.5 0,-.5"/>
<text text-anchor="middle" x="73" y="-7.5" font-family="Helvetica,sans-Serif" font-size="10.00" fill="#000000">tasks::SurfaceTransformTask</text>
</a>
</g>
</g>
<!-- Node0&#45;&gt;Node1 -->
<g id="edge1" class="edge">
<title>Node0&#45;&gt;Node1</title>
<path fill="none" stroke="#191970" d="M126.1343,-50.2097C113.1375,-40.3743 96.8378,-28.0394 85.7421,-19.6427"/>
<polygon fill="#191970" stroke="#191970" points="124.024,-53.002 134.1102,-56.2455 128.2482,-47.4201 124.024,-53.002"/>
</g>
<!-- Node2 -->
<g id="node3" class="node">
<title>Node2</title>
<g id="a_node3"><a xlink:href="a01259.html" target="_top" xlink:title="tasks::TransformTask">
<polygon fill="#ffffff" stroke="#000000" points="164.5,-.5 164.5,-19.5 277.5,-19.5 277.5,-.5 164.5,-.5"/>
<text text-anchor="middle" x="221" y="-7.5" font-family="Helvetica,sans-Serif" font-size="10.00" fill="#000000">tasks::TransformTask</text>
</a>
</g>
</g>
<!-- Node0&#45;&gt;Node2 -->
<g id="edge2" class="edge">
<title>Node0&#45;&gt;Node2</title>
<path fill="none" stroke="#191970" d="M167.8657,-50.2097C180.8625,-40.3743 197.1622,-28.0394 208.2579,-19.6427"/>
<polygon fill="#191970" stroke="#191970" points="165.7518,-47.4201 159.8898,-56.2455 169.976,-53.002 165.7518,-47.4201"/>
</g>
</g>
</svg>
