<?xml version="1.0" encoding="UTF-8" standalone="no"?>
<!DOCTYPE svg PUBLIC "-//W3C//DTD SVG 1.1//EN"
 "http://www.w3.org/Graphics/SVG/1.1/DTD/svg11.dtd">
<!-- Generated by graphviz version 2.40.1 (20161225.0304)
 -->
<!-- Title: tasks::TransformTask Pages: 1 -->
<svg width="160pt" height="152pt"
 viewBox="0.00 0.00 160.00 152.00" xmlns="http://www.w3.org/2000/svg" xmlns:xlink="http://www.w3.org/1999/xlink">
<g id="graph0" class="graph" transform="scale(1 1) rotate(0) translate(4 148)">
<title>tasks::TransformTask</title>
<polygon fill="#ffffff" stroke="transparent" points="-4,4 -4,-148 156,-148 156,4 -4,4"/>
<!-- Node2 -->
<g id="node1" class="node">
<title>Node2</title>
<polygon fill="#bfbfbf" stroke="#000000" points="19.5,-.5 19.5,-19.5 132.5,-19.5 132.5,-.5 19.5,-.5"/>
<text text-anchor="middle" x="76" y="-7.5" font-family="Helvetica,sans-Serif" font-size="10.00" fill="#000000">tasks::TransformTask</text>
</g>
<!-- Node3 -->
<g id="node2" class="node">
<title>Node3</title>
<g id="a_node2"><a xlink:href="a01251.html" target="_top" xlink:title="tasks::TransformTaskCommon">
<polygon fill="#ffffff" stroke="#000000" points="0,-57.5 0,-76.5 152,-76.5 152,-57.5 0,-57.5"/>
<text text-anchor="middle" x="76" y="-64.5" font-family="Helvetica,sans-Serif" font-size="10.00" fill="#000000">tasks::TransformTaskCommon</text>
</a>
</g>
</g>
<!-- Node3&#45;&gt;Node2 -->
<g id="edge1" class="edge">
<title>Node3&#45;&gt;Node2</title>
<path fill="none" stroke="#191970" d="M76,-47.2342C76,-37.8491 76,-27.0651 76,-19.5265"/>
<polygon fill="#191970" stroke="#191970" points="72.5001,-47.3307 76,-57.3307 79.5001,-47.3308 72.5001,-47.3307"/>
</g>
<!-- Node4 -->
<g id="node3" class="node">
<title>Node4</title>
<g id="a_node3"><a doxygen="/usr/local/share/doc/RBDyn/doxygen-html/RBDyn.doxytag:/usr/local/share/doc/RBDyn/doxygen-html/" xlink:href="/usr/local/share/doc/RBDyn/doxygen-html/a00991.html" target="_top" xlink:title="rbd::Jacobian">
<polygon fill="#ffffff" stroke="#000000" points="38.5,-124.5 38.5,-143.5 113.5,-143.5 113.5,-124.5 38.5,-124.5"/>
<text text-anchor="middle" x="76" y="-131.5" font-family="Helvetica,sans-Serif" font-size="10.00" fill="#000000">rbd::Jacobian</text>
</a>
</g>
</g>
<!-- Node4&#45;&gt;Node3 -->
<g id="edge2" class="edge">
<title>Node4&#45;&gt;Node3</title>
<path fill="none" stroke="#9a32cd" stroke-dasharray="5,2" d="M76,-114.1079C76,-101.714 76,-86.3263 76,-76.5817"/>
<polygon fill="#9a32cd" stroke="#9a32cd" points="72.5001,-114.4005 76,-124.4005 79.5001,-114.4006 72.5001,-114.4005"/>
<text text-anchor="middle" x="87" y="-98" font-family="Helvetica,sans-Serif" font-size="10.00" fill="#000000"> jac_</text>
</g>
</g>
</svg>
