<?xml version="1.0" encoding="UTF-8" standalone="no"?>
<!DOCTYPE svg PUBLIC "-//W3C//DTD SVG 1.1//EN"
 "http://www.w3.org/Graphics/SVG/1.1/DTD/svg11.dtd">
<!-- Generated by graphviz version 2.40.1 (20161225.0304)
 -->
<!-- Title: Graphical Class Hierarchy Pages: 1 -->
<svg width="871pt" height="394pt"
 viewBox="0.00 0.00 871.00 394.00" xmlns="http://www.w3.org/2000/svg" xmlns:xlink="http://www.w3.org/1999/xlink">
<g id="graph0" class="graph" transform="scale(1 1) rotate(0) translate(4 390)">
<title>Graphical Class Hierarchy</title>
<polygon fill="#ffffff" stroke="transparent" points="-4,4 -4,-390 867,-390 867,4 -4,4"/>
<!-- Node95 -->
<g id="node1" class="node">
<title>Node95</title>
<g id="a_node1"><a xlink:href="a01073.html" target="_top" xlink:title="tasks::qp::Constraint">
<polygon fill="#ffffff" stroke="#000000" points="0,-145.5 0,-164.5 108,-164.5 108,-145.5 0,-145.5"/>
<text text-anchor="middle" x="54" y="-152.5" font-family="Helvetica,sans-Serif" font-size="10.00" fill="#000000">tasks::qp::Constraint</text>
</a>
</g>
</g>
<!-- Node0 -->
<g id="node2" class="node">
<title>Node0</title>
<g id="a_node2"><a xlink:href="a01077.html" target="_top" xlink:title="tasks::qp::ConstraintFunction\l\&lt; Bound \&gt;">
<polygon fill="#ffffff" stroke="#000000" points="144,-72 144,-102 290,-102 290,-72 144,-72"/>
<text text-anchor="start" x="152" y="-90" font-family="Helvetica,sans-Serif" font-size="10.00" fill="#000000">tasks::qp::ConstraintFunction</text>
<text text-anchor="middle" x="217" y="-79" font-family="Helvetica,sans-Serif" font-size="10.00" fill="#000000">&lt; Bound &gt;</text>
</a>
</g>
</g>
<!-- Node95&#45;&gt;Node0 -->
<g id="edge1" class="edge">
<title>Node95&#45;&gt;Node0</title>
<path fill="none" stroke="#191970" d="M95.273,-141.783C99.6405,-140.0002 103.9586,-138.0664 108,-136 125.3439,-127.1318 126.5652,-119.6883 144,-111 150.5673,-107.7273 157.6822,-104.7531 164.8063,-102.1001"/>
<polygon fill="#191970" stroke="#191970" points="93.8104,-138.5951 85.7213,-145.4374 96.3117,-145.133 93.8104,-138.5951"/>
</g>
<!-- Node70 -->
<g id="node6" class="node">
<title>Node70</title>
<g id="a_node6"><a xlink:href="a01077.html" target="_top" xlink:title="tasks::qp::ConstraintFunction\l\&lt; Equality \&gt;">
<polygon fill="#ffffff" stroke="#000000" points="144,-121 144,-151 290,-151 290,-121 144,-121"/>
<text text-anchor="start" x="152" y="-139" font-family="Helvetica,sans-Serif" font-size="10.00" fill="#000000">tasks::qp::ConstraintFunction</text>
<text text-anchor="middle" x="217" y="-128" font-family="Helvetica,sans-Serif" font-size="10.00" fill="#000000">&lt; Equality &gt;</text>
</a>
</g>
</g>
<!-- Node95&#45;&gt;Node70 -->
<g id="edge5" class="edge">
<title>Node95&#45;&gt;Node70</title>
<path fill="none" stroke="#191970" d="M118.3307,-147.5013C126.6966,-146.5262 135.3154,-145.5215 143.8124,-144.5311"/>
<polygon fill="#191970" stroke="#191970" points="117.8041,-144.0389 108.2766,-148.6733 118.6147,-150.9918 117.8041,-144.0389"/>
</g>
<!-- Node75 -->
<g id="node11" class="node">
<title>Node75</title>
<g id="a_node11"><a xlink:href="a01077.html" target="_top" xlink:title="tasks::qp::ConstraintFunction\l\&lt; GenInequality \&gt;">
<polygon fill="#ffffff" stroke="#000000" points="144,-295 144,-325 290,-325 290,-295 144,-295"/>
<text text-anchor="start" x="152" y="-313" font-family="Helvetica,sans-Serif" font-size="10.00" fill="#000000">tasks::qp::ConstraintFunction</text>
<text text-anchor="middle" x="217" y="-302" font-family="Helvetica,sans-Serif" font-size="10.00" fill="#000000">&lt; GenInequality &gt;</text>
</a>
</g>
</g>
<!-- Node95&#45;&gt;Node75 -->
<g id="edge10" class="edge">
<title>Node95&#45;&gt;Node75</title>
<path fill="none" stroke="#191970" d="M67.0348,-172.5937C83.5688,-194.2739 113.6041,-231.5993 144,-259 158.928,-272.457 177.5195,-285.3983 192.2043,-294.8775"/>
<polygon fill="#191970" stroke="#191970" points="69.8174,-170.4705 61.004,-164.5904 64.2269,-174.6831 69.8174,-170.4705"/>
</g>
<!-- Node81 -->
<g id="node17" class="node">
<title>Node81</title>
<g id="a_node17"><a xlink:href="a01077.html" target="_top" xlink:title="tasks::qp::ConstraintFunction\l\&lt; Inequality \&gt;">
<polygon fill="#ffffff" stroke="#000000" points="144,-219 144,-249 290,-249 290,-219 144,-219"/>
<text text-anchor="start" x="152" y="-237" font-family="Helvetica,sans-Serif" font-size="10.00" fill="#000000">tasks::qp::ConstraintFunction</text>
<text text-anchor="middle" x="217" y="-226" font-family="Helvetica,sans-Serif" font-size="10.00" fill="#000000">&lt; Inequality &gt;</text>
</a>
</g>
</g>
<!-- Node95&#45;&gt;Node81 -->
<g id="edge16" class="edge">
<title>Node95&#45;&gt;Node81</title>
<path fill="none" stroke="#191970" d="M76.3483,-170.2219C94.131,-181.8816 119.9392,-197.8139 144,-209 151.653,-212.5579 159.9603,-215.8788 168.1364,-218.8637"/>
<polygon fill="#191970" stroke="#191970" points="78.098,-167.1823 67.8324,-164.5618 74.2233,-173.0121 78.098,-167.1823"/>
</g>
<!-- Node86 -->
<g id="node22" class="node">
<title>Node86</title>
<g id="a_node22"><a xlink:href="a01077.html" target="_top" xlink:title="tasks::qp::ConstraintFunction\l\&lt; Fun \&gt;">
<polygon fill="#ffffff" stroke="#000000" points="144,-23 144,-53 290,-53 290,-23 144,-23"/>
<text text-anchor="start" x="152" y="-41" font-family="Helvetica,sans-Serif" font-size="10.00" fill="#000000">tasks::qp::ConstraintFunction</text>
<text text-anchor="middle" x="217" y="-30" font-family="Helvetica,sans-Serif" font-size="10.00" fill="#000000">&lt; Fun &gt;</text>
</a>
</g>
</g>
<!-- Node95&#45;&gt;Node86 -->
<g id="edge21" class="edge">
<title>Node95&#45;&gt;Node86</title>
<path fill="none" stroke="#191970" d="M101.8194,-140.6815C104.0076,-139.2634 106.0852,-137.7073 108,-136 135.2988,-111.6596 116.4509,-86.0567 144,-62 147.9191,-58.5777 152.3383,-55.6412 157.0143,-53.1218"/>
<polygon fill="#191970" stroke="#191970" points="100.0647,-137.6515 92.9422,-145.495 103.4014,-143.8051 100.0647,-137.6515"/>
</g>
<!-- Node1 -->
<g id="node3" class="node">
<title>Node1</title>
<g id="a_node3"><a xlink:href="a00929.html" target="_top" xlink:title="Avoid to reach articular position and velocity limits based on a velocity damper. ...">
<polygon fill="#ffffff" stroke="#000000" points="334,-39 334,-69 479,-69 479,-39 334,-39"/>
<text text-anchor="start" x="342" y="-57" font-family="Helvetica,sans-Serif" font-size="10.00" fill="#000000">tasks::qp::DamperJointLimits</text>
<text text-anchor="middle" x="406.5" y="-46" font-family="Helvetica,sans-Serif" font-size="10.00" fill="#000000">Constr</text>
</a>
</g>
</g>
<!-- Node0&#45;&gt;Node1 -->
<g id="edge2" class="edge">
<title>Node0&#45;&gt;Node1</title>
<path fill="none" stroke="#191970" d="M300.3935,-72.4776C311.5058,-70.5425 322.8295,-68.5706 333.7414,-66.6704"/>
<polygon fill="#191970" stroke="#191970" points="299.5169,-69.0775 290.2656,-74.2413 300.7179,-75.9738 299.5169,-69.0775"/>
</g>
<!-- Node2 -->
<g id="node4" class="node">
<title>Node2</title>
<g id="a_node4"><a xlink:href="a00925.html" target="_top" xlink:title="Avoid to reach articular position limits based on direct integration. ">
<polygon fill="#ffffff" stroke="#000000" points="336.5,-.5 336.5,-19.5 476.5,-19.5 476.5,-.5 336.5,-.5"/>
<text text-anchor="middle" x="406.5" y="-7.5" font-family="Helvetica,sans-Serif" font-size="10.00" fill="#000000">tasks::qp::JointLimitsConstr</text>
</a>
</g>
</g>
<!-- Node0&#45;&gt;Node2 -->
<g id="edge3" class="edge">
<title>Node0&#45;&gt;Node2</title>
<path fill="none" stroke="#191970" d="M278.7969,-67.9144C282.6684,-66.0864 286.4367,-64.1164 290,-62 308.6617,-50.9162 306.817,-39.1549 326,-29 333.3609,-25.1034 341.5185,-21.9972 349.7339,-19.5232"/>
<polygon fill="#191970" stroke="#191970" points="277.3845,-64.7119 269.6236,-71.9244 280.1883,-71.1259 277.3845,-64.7119"/>
</g>
<!-- Node3 -->
<g id="node5" class="node">
<title>Node3</title>
<g id="a_node5"><a xlink:href="a01033.html" target="_top" xlink:title="tasks::qp::PositiveLambda">
<polygon fill="#ffffff" stroke="#000000" points="340,-88.5 340,-107.5 473,-107.5 473,-88.5 340,-88.5"/>
<text text-anchor="middle" x="406.5" y="-95.5" font-family="Helvetica,sans-Serif" font-size="10.00" fill="#000000">tasks::qp::PositiveLambda</text>
</a>
</g>
</g>
<!-- Node0&#45;&gt;Node3 -->
<g id="edge4" class="edge">
<title>Node0&#45;&gt;Node3</title>
<path fill="none" stroke="#191970" d="M300.324,-91.8367C313.5773,-92.6061 327.1332,-93.393 339.934,-94.136"/>
<polygon fill="#191970" stroke="#191970" points="300.4517,-88.3384 290.2656,-91.2529 300.046,-95.3266 300.4517,-88.3384"/>
</g>
<!-- Node71 -->
<g id="node7" class="node">
<title>Node71</title>
<g id="a_node7"><a xlink:href="a00993.html" target="_top" xlink:title="Common contact constraint computation. ">
<polygon fill="#ffffff" stroke="#000000" points="343,-126.5 343,-145.5 470,-145.5 470,-126.5 343,-126.5"/>
<text text-anchor="middle" x="406.5" y="-133.5" font-family="Helvetica,sans-Serif" font-size="10.00" fill="#000000">tasks::qp::ContactConstr</text>
</a>
</g>
</g>
<!-- Node70&#45;&gt;Node71 -->
<g id="edge6" class="edge">
<title>Node70&#45;&gt;Node71</title>
<path fill="none" stroke="#191970" d="M300.5549,-136C314.7943,-136 329.3757,-136 342.9885,-136"/>
<polygon fill="#191970" stroke="#191970" points="300.2657,-132.5001 290.2656,-136 300.2656,-139.5001 300.2657,-132.5001"/>
</g>
<!-- Node72 -->
<g id="node8" class="node">
<title>Node72</title>
<g id="a_node8"><a xlink:href="a01005.html" target="_top" xlink:title="Contact constraint by targeting a null acceleration. ">
<polygon fill="#ffffff" stroke="#000000" points="528.5,-126.5 528.5,-145.5 672.5,-145.5 672.5,-126.5 528.5,-126.5"/>
<text text-anchor="middle" x="600.5" y="-133.5" font-family="Helvetica,sans-Serif" font-size="10.00" fill="#000000">tasks::qp::ContactAccConstr</text>
</a>
</g>
</g>
<!-- Node71&#45;&gt;Node72 -->
<g id="edge7" class="edge">
<title>Node71&#45;&gt;Node72</title>
<path fill="none" stroke="#191970" d="M480.2538,-136C496.0428,-136 512.705,-136 528.4296,-136"/>
<polygon fill="#191970" stroke="#191970" points="480.0229,-132.5001 470.0229,-136 480.0228,-139.5001 480.0229,-132.5001"/>
</g>
<!-- Node73 -->
<g id="node9" class="node">
<title>Node73</title>
<g id="a_node9"><a xlink:href="a01013.html" target="_top" xlink:title="Contact constraint by targeting a constant frame. ">
<polygon fill="#ffffff" stroke="#000000" points="528.5,-88.5 528.5,-107.5 672.5,-107.5 672.5,-88.5 528.5,-88.5"/>
<text text-anchor="middle" x="600.5" y="-95.5" font-family="Helvetica,sans-Serif" font-size="10.00" fill="#000000">tasks::qp::ContactPosConstr</text>
</a>
</g>
</g>
<!-- Node71&#45;&gt;Node73 -->
<g id="edge8" class="edge">
<title>Node71&#45;&gt;Node73</title>
<path fill="none" stroke="#191970" d="M465.4052,-124.4619C493.0751,-119.042 525.6619,-112.659 551.8976,-107.5201"/>
<polygon fill="#191970" stroke="#191970" points="464.5951,-121.054 455.4544,-126.411 465.9407,-127.9234 464.5951,-121.054"/>
</g>
<!-- Node74 -->
<g id="node10" class="node">
<title>Node74</title>
<g id="a_node10"><a xlink:href="a01009.html" target="_top" xlink:title="Contact constraint by targeting a null velocity. ">
<polygon fill="#ffffff" stroke="#000000" points="523,-164.5 523,-183.5 678,-183.5 678,-164.5 523,-164.5"/>
<text text-anchor="middle" x="600.5" y="-171.5" font-family="Helvetica,sans-Serif" font-size="10.00" fill="#000000">tasks::qp::ContactSpeedConstr</text>
</a>
</g>
</g>
<!-- Node71&#45;&gt;Node74 -->
<g id="edge9" class="edge">
<title>Node71&#45;&gt;Node74</title>
<path fill="none" stroke="#191970" d="M465.4052,-147.5381C493.0751,-152.958 525.6619,-159.341 551.8976,-164.4799"/>
<polygon fill="#191970" stroke="#191970" points="465.9407,-144.0766 455.4544,-145.589 464.5951,-150.946 465.9407,-144.0766"/>
</g>
<!-- Node76 -->
<g id="node12" class="node">
<title>Node76</title>
<g id="a_node12"><a xlink:href="a00965.html" target="_top" xlink:title="Constraint some link velocity in link frame by direct integration. ">
<polygon fill="#ffffff" stroke="#000000" points="327.5,-366.5 327.5,-385.5 485.5,-385.5 485.5,-366.5 327.5,-366.5"/>
<text text-anchor="middle" x="406.5" y="-373.5" font-family="Helvetica,sans-Serif" font-size="10.00" fill="#000000">tasks::qp::BoundedSpeedConstr</text>
</a>
</g>
</g>
<!-- Node75&#45;&gt;Node76 -->
<g id="edge11" class="edge">
<title>Node75&#45;&gt;Node76</title>
<path fill="none" stroke="#191970" d="M257.1667,-329.3267C277.4713,-338.5776 302.6913,-349.2901 326,-357 336.7703,-360.5625 348.5593,-363.7356 359.7126,-366.4205"/>
<polygon fill="#191970" stroke="#191970" points="258.4631,-326.0704 247.9167,-325.0592 255.5307,-332.4266 258.4631,-326.0704"/>
</g>
<!-- Node77 -->
<g id="node13" class="node">
<title>Node77</title>
<g id="a_node13"><a xlink:href="a01041.html" target="_top" xlink:title="tasks::qp::MotionConstrCommon">
<polygon fill="#ffffff" stroke="#000000" points="326,-328.5 326,-347.5 487,-347.5 487,-328.5 326,-328.5"/>
<text text-anchor="middle" x="406.5" y="-335.5" font-family="Helvetica,sans-Serif" font-size="10.00" fill="#000000">tasks::qp::MotionConstrCommon</text>
</a>
</g>
</g>
<!-- Node75&#45;&gt;Node77 -->
<g id="edge12" class="edge">
<title>Node75&#45;&gt;Node77</title>
<path fill="none" stroke="#191970" d="M300.3687,-322.3183C314.3493,-324.3841 328.6653,-326.4994 342.0754,-328.4808"/>
<polygon fill="#191970" stroke="#191970" points="300.6699,-318.8249 290.2656,-320.8255 299.6466,-325.7497 300.6699,-318.8249"/>
</g>
<!-- Node78 -->
<g id="node14" class="node">
<title>Node78</title>
<g id="a_node14"><a xlink:href="a01049.html" target="_top" xlink:title="tasks::qp::MotionConstr">
<polygon fill="#ffffff" stroke="#000000" points="539.5,-309.5 539.5,-328.5 661.5,-328.5 661.5,-309.5 539.5,-309.5"/>
<text text-anchor="middle" x="600.5" y="-316.5" font-family="Helvetica,sans-Serif" font-size="10.00" fill="#000000">tasks::qp::MotionConstr</text>
</a>
</g>
</g>
<!-- Node77&#45;&gt;Node78 -->
<g id="edge13" class="edge">
<title>Node77&#45;&gt;Node78</title>
<path fill="none" stroke="#191970" d="M497.4021,-329.0972C511.6335,-327.7034 526.0407,-326.2924 539.3918,-324.9848"/>
<polygon fill="#191970" stroke="#191970" points="496.6993,-325.6492 487.0881,-330.1074 497.3816,-332.6159 496.6993,-325.6492"/>
</g>
<!-- Node80 -->
<g id="node16" class="node">
<title>Node80</title>
<g id="a_node16"><a xlink:href="a01065.html" target="_top" xlink:title="Use polynome in function of q to compute torque limits. ">
<polygon fill="#ffffff" stroke="#000000" points="530,-347.5 530,-366.5 671,-366.5 671,-347.5 530,-347.5"/>
<text text-anchor="middle" x="600.5" y="-354.5" font-family="Helvetica,sans-Serif" font-size="10.00" fill="#000000">tasks::qp::MotionPolyConstr</text>
</a>
</g>
</g>
<!-- Node77&#45;&gt;Node80 -->
<g id="edge15" class="edge">
<title>Node77&#45;&gt;Node80</title>
<path fill="none" stroke="#191970" d="M497.1061,-346.8738C508.0656,-347.9471 519.1344,-349.0312 529.7497,-350.0708"/>
<polygon fill="#191970" stroke="#191970" points="497.3816,-343.3841 487.0881,-345.8926 496.6993,-350.3508 497.3816,-343.3841"/>
</g>
<!-- Node79 -->
<g id="node15" class="node">
<title>Node79</title>
<g id="a_node15"><a xlink:href="a01057.html" target="_top" xlink:title="tasks::qp::MotionSpringConstr">
<polygon fill="#ffffff" stroke="#000000" points="714,-309.5 714,-328.5 863,-328.5 863,-309.5 714,-309.5"/>
<text text-anchor="middle" x="788.5" y="-316.5" font-family="Helvetica,sans-Serif" font-size="10.00" fill="#000000">tasks::qp::MotionSpringConstr</text>
</a>
</g>
</g>
<!-- Node78&#45;&gt;Node79 -->
<g id="edge14" class="edge">
<title>Node78&#45;&gt;Node79</title>
<path fill="none" stroke="#191970" d="M671.9066,-319C685.6681,-319 700.1162,-319 713.9738,-319"/>
<polygon fill="#191970" stroke="#191970" points="671.5382,-315.5001 661.5382,-319 671.5382,-322.5001 671.5382,-315.5001"/>
</g>
<!-- Node82 -->
<g id="node18" class="node">
<title>Node82</title>
<g id="a_node18"><a xlink:href="a00937.html" target="_top" xlink:title="Avoid that too robot links enter into collision based on a velocity damper. ">
<polygon fill="#ffffff" stroke="#000000" points="341.5,-290.5 341.5,-309.5 471.5,-309.5 471.5,-290.5 341.5,-290.5"/>
<text text-anchor="middle" x="406.5" y="-297.5" font-family="Helvetica,sans-Serif" font-size="10.00" fill="#000000">tasks::qp::CollisionConstr</text>
</a>
</g>
</g>
<!-- Node81&#45;&gt;Node82 -->
<g id="edge17" class="edge">
<title>Node81&#45;&gt;Node82</title>
<path fill="none" stroke="#191970" d="M257.1667,-253.3267C277.4713,-262.5776 302.6913,-273.2901 326,-281 336.7703,-284.5625 348.5593,-287.7356 359.7126,-290.4205"/>
<polygon fill="#191970" stroke="#191970" points="258.4631,-250.0704 247.9167,-249.0592 255.5307,-256.4266 258.4631,-250.0704"/>
</g>
<!-- Node83 -->
<g id="node19" class="node">
<title>Node83</title>
<g id="a_node19"><a xlink:href="a00949.html" target="_top" xlink:title="Prevent robot CoM to go out of a convex hull. ">
<polygon fill="#ffffff" stroke="#000000" points="330.5,-252.5 330.5,-271.5 482.5,-271.5 482.5,-252.5 330.5,-252.5"/>
<text text-anchor="middle" x="406.5" y="-259.5" font-family="Helvetica,sans-Serif" font-size="10.00" fill="#000000">tasks::qp::CoMIncPlaneConstr</text>
</a>
</g>
</g>
<!-- Node81&#45;&gt;Node83 -->
<g id="edge18" class="edge">
<title>Node81&#45;&gt;Node83</title>
<path fill="none" stroke="#191970" d="M300.3687,-246.3183C314.3493,-248.3841 328.6653,-250.4994 342.0754,-252.4808"/>
<polygon fill="#191970" stroke="#191970" points="300.6699,-242.8249 290.2656,-244.8255 299.6466,-249.7497 300.6699,-242.8249"/>
</g>
<!-- Node84 -->
<g id="node20" class="node">
<title>Node84</title>
<g id="a_node20"><a xlink:href="a00957.html" target="_top" xlink:title="tasks::qp::GripperTorque\lConstr">
<polygon fill="#ffffff" stroke="#000000" points="344,-203 344,-233 469,-233 469,-203 344,-203"/>
<text text-anchor="start" x="352" y="-221" font-family="Helvetica,sans-Serif" font-size="10.00" fill="#000000">tasks::qp::GripperTorque</text>
<text text-anchor="middle" x="406.5" y="-210" font-family="Helvetica,sans-Serif" font-size="10.00" fill="#000000">Constr</text>
</a>
</g>
</g>
<!-- Node81&#45;&gt;Node84 -->
<g id="edge19" class="edge">
<title>Node81&#45;&gt;Node84</title>
<path fill="none" stroke="#191970" d="M300.319,-226.9651C314.951,-225.7297 329.952,-224.4632 343.8987,-223.2856"/>
<polygon fill="#191970" stroke="#191970" points="299.9357,-223.485 290.2656,-227.814 300.5247,-230.4601 299.9357,-223.485"/>
</g>
<!-- Node85 -->
<g id="node21" class="node">
<title>Node85</title>
<g id="a_node21"><a xlink:href="a00973.html" target="_top" xlink:title="Generalized Image Point Constraint This can be used as either a Field of View constraint or an Occlus...">
<polygon fill="#ffffff" stroke="#000000" points="347,-164.5 347,-183.5 466,-183.5 466,-164.5 347,-164.5"/>
<text text-anchor="middle" x="406.5" y="-171.5" font-family="Helvetica,sans-Serif" font-size="10.00" fill="#000000">tasks::qp::ImageConstr</text>
</a>
</g>
</g>
<!-- Node81&#45;&gt;Node85 -->
<g id="edge20" class="edge">
<title>Node81&#45;&gt;Node85</title>
<path fill="none" stroke="#191970" d="M271.9098,-215.6246C278.0334,-213.448 284.1635,-211.2127 290,-209 306.2077,-202.8555 309.542,-199.4386 326,-194 337.8958,-190.069 351.0034,-186.5 363.1253,-183.5009"/>
<polygon fill="#191970" stroke="#191970" points="270.6123,-212.3706 262.3356,-218.9847 272.9305,-218.9756 270.6123,-212.3706"/>
</g>
<!-- Node93 -->
<g id="node23" class="node">
<title>Node93</title>
<g id="a_node23"><a xlink:href="a00985.html" target="_top" xlink:title="Manage modifier on contact constraint. ">
<polygon fill="#ffffff" stroke="#000000" points="153.5,-170 153.5,-200 280.5,-200 280.5,-170 153.5,-170"/>
<text text-anchor="start" x="161.5" y="-188" font-family="Helvetica,sans-Serif" font-size="10.00" fill="#000000">tasks::qp::ContactConstr</text>
<text text-anchor="middle" x="217" y="-177" font-family="Helvetica,sans-Serif" font-size="10.00" fill="#000000">Common</text>
</a>
</g>
</g>
<!-- Node93&#45;&gt;Node71 -->
<g id="edge22" class="edge">
<title>Node93&#45;&gt;Node71</title>
<path fill="none" stroke="#191970" d="M279.8652,-167.2735C294.9483,-163.1379 311.0247,-158.8267 326,-155 338.5214,-151.8004 352.1882,-148.5021 364.6474,-145.5701"/>
<polygon fill="#191970" stroke="#191970" points="278.8295,-163.9283 270.1185,-169.9589 280.6889,-170.6769 278.8295,-163.9283"/>
</g>
<!-- Node65 -->
<g id="node24" class="node">
<title>Node65</title>
<polygon fill="#ffffff" stroke="#bfbfbf" points="37.5,-107.5 37.5,-126.5 70.5,-126.5 70.5,-107.5 37.5,-107.5"/>
<text text-anchor="middle" x="54" y="-114.5" font-family="Helvetica,sans-Serif" font-size="10.00" fill="#000000">Fun</text>
</g>
<!-- Node65&#45;&gt;Node0 -->
<g id="edge23" class="edge">
<title>Node65&#45;&gt;Node0</title>
<path fill="none" stroke="#191970" d="M80.4293,-112.1357C97.7265,-108.9522 121.2424,-104.6241 143.8857,-100.4566"/>
<polygon fill="#191970" stroke="#191970" points="79.7276,-108.706 70.5263,-113.9583 80.9947,-115.5904 79.7276,-108.706"/>
</g>
<!-- Node65&#45;&gt;Node70 -->
<g id="edge24" class="edge">
<title>Node65&#45;&gt;Node70</title>
<path fill="none" stroke="#191970" d="M80.9205,-120.138C98.1701,-122.1487 121.456,-124.863 143.8857,-127.4775"/>
<polygon fill="#191970" stroke="#191970" points="80.8643,-116.6078 70.5263,-118.9264 80.0538,-123.5607 80.8643,-116.6078"/>
</g>
<!-- Node65&#45;&gt;Node75 -->
<g id="edge25" class="edge">
<title>Node65&#45;&gt;Node75</title>
<path fill="none" stroke="#191970" d="M80.3914,-121.0396C90.2231,-123.7708 100.744,-128.3444 108,-136 147.1832,-177.3415 110.7718,-212.7363 144,-259 154.8226,-274.0683 171.5391,-286.2162 186.2459,-294.8705"/>
<polygon fill="#191970" stroke="#191970" points="81.0878,-117.6087 70.5611,-118.8084 79.5384,-124.4351 81.0878,-117.6087"/>
</g>
<!-- Node65&#45;&gt;Node81 -->
<g id="edge26" class="edge">
<title>Node65&#45;&gt;Node81</title>
<path fill="none" stroke="#191970" d="M80.6545,-121.9852C90.1411,-124.8218 100.3552,-129.2205 108,-136 135.0655,-160.0021 116.8342,-185.1115 144,-209 148.4264,-212.8924 153.4876,-216.1853 158.8349,-218.9698"/>
<polygon fill="#191970" stroke="#191970" points="81.3561,-118.5524 70.8021,-119.4815 79.632,-125.3367 81.3561,-118.5524"/>
</g>
<!-- Node65&#45;&gt;Node86 -->
<g id="edge27" class="edge">
<title>Node65&#45;&gt;Node86</title>
<path fill="none" stroke="#191970" d="M75.9586,-101.5922C93.7067,-89.6362 119.6555,-73.2562 144,-62 151.0234,-58.7526 158.6114,-55.7448 166.1477,-53.0346"/>
<polygon fill="#191970" stroke="#191970" points="73.7569,-98.8576 67.4769,-107.3906 77.7075,-104.6363 73.7569,-98.8576"/>
</g>
</g>
</svg>
