<?xml version="1.0" encoding="UTF-8" standalone="no"?>
<!DOCTYPE svg PUBLIC "-//W3C//DTD SVG 1.1//EN"
 "http://www.w3.org/Graphics/SVG/1.1/DTD/svg11.dtd">
<!-- Generated by graphviz version 2.40.1 (20161225.0304)
 -->
<!-- Title: Graphical Class Hierarchy Pages: 1 -->
<svg width="544pt" height="656pt"
 viewBox="0.00 0.00 544.00 655.50" xmlns="http://www.w3.org/2000/svg" xmlns:xlink="http://www.w3.org/1999/xlink">
<g id="graph0" class="graph" transform="scale(1 1) rotate(0) translate(4 651.5)">
<title>Graphical Class Hierarchy</title>
<polygon fill="#ffffff" stroke="transparent" points="-4,4 -4,-651.5 540,-651.5 540,4 -4,4"/>
<!-- Node0 -->
<g id="node1" class="node">
<title>Node0</title>
<g id="a_node1"><a xlink:href="a01101.html" target="_top" xlink:title="tasks::qp::HighLevelTask">
<polygon fill="#ffffff" stroke="#000000" points="0,-340 0,-359 128,-359 128,-340 0,-340"/>
<text text-anchor="middle" x="64" y="-347" font-family="Helvetica,sans-Serif" font-size="10.00" fill="#000000">tasks::qp::HighLevelTask</text>
</a>
</g>
</g>
<!-- Node1 -->
<g id="node2" class="node">
<title>Node1</title>
<g id="a_node2"><a xlink:href="a01209.html" target="_top" xlink:title="tasks::qp::CoMTask">
<polygon fill="#ffffff" stroke="#000000" points="197.5,-628 197.5,-647 303.5,-647 303.5,-628 197.5,-628"/>
<text text-anchor="middle" x="250.5" y="-635" font-family="Helvetica,sans-Serif" font-size="10.00" fill="#000000">tasks::qp::CoMTask</text>
</a>
</g>
</g>
<!-- Node0&#45;&gt;Node1 -->
<g id="edge1" class="edge">
<title>Node0&#45;&gt;Node1</title>
<path fill="none" stroke="#191970" d="M65.145,-369.275C69.1552,-419.2679 86.9013,-551.4838 164,-618.5 173.2834,-626.5694 185.212,-631.4509 197.2259,-634.3489"/>
<polygon fill="#191970" stroke="#191970" points="68.6267,-368.8898 64.4363,-359.1588 61.6438,-369.379 68.6267,-368.8898"/>
</g>
<!-- Node2 -->
<g id="node3" class="node">
<title>Node2</title>
<g id="a_node3"><a xlink:href="a01201.html" target="_top" xlink:title="tasks::qp::GazeTask">
<polygon fill="#ffffff" stroke="#000000" points="196.5,-590 196.5,-609 304.5,-609 304.5,-590 196.5,-590"/>
<text text-anchor="middle" x="250.5" y="-597" font-family="Helvetica,sans-Serif" font-size="10.00" fill="#000000">tasks::qp::GazeTask</text>
</a>
</g>
</g>
<!-- Node0&#45;&gt;Node2 -->
<g id="edge2" class="edge">
<title>Node0&#45;&gt;Node2</title>
<path fill="none" stroke="#191970" d="M66.4804,-369.1916C73.2326,-414.1271 96.2228,-524.648 164,-580.5 173.1366,-588.029 184.6025,-592.7478 196.17,-595.6657"/>
<polygon fill="#191970" stroke="#191970" points="69.9423,-368.6751 65.0962,-359.2536 63.0092,-369.6408 69.9423,-368.6751"/>
</g>
<!-- Node3 -->
<g id="node4" class="node">
<title>Node3</title>
<g id="a_node4"><a xlink:href="a01149.html" target="_top" xlink:title="tasks::qp::JointsSelector">
<polygon fill="#ffffff" stroke="#000000" points="188,-552 188,-571 313,-571 313,-552 188,-552"/>
<text text-anchor="middle" x="250.5" y="-559" font-family="Helvetica,sans-Serif" font-size="10.00" fill="#000000">tasks::qp::JointsSelector</text>
</a>
</g>
</g>
<!-- Node0&#45;&gt;Node3 -->
<g id="edge3" class="edge">
<title>Node0&#45;&gt;Node3</title>
<path fill="none" stroke="#191970" d="M68.292,-369.1515C77.9844,-408.6162 105.4354,-497.5632 164,-542.5 170.953,-547.8351 179.098,-551.7363 187.5596,-554.5777"/>
<polygon fill="#191970" stroke="#191970" points="71.6997,-368.3529 66.0181,-359.4103 64.883,-369.9442 71.6997,-368.3529"/>
</g>
<!-- Node4 -->
<g id="node5" class="node">
<title>Node4</title>
<g id="a_node5"><a xlink:href="a01233.html" target="_top" xlink:title="tasks::qp::LinVelocityTask">
<polygon fill="#ffffff" stroke="#000000" points="184,-514 184,-533 317,-533 317,-514 184,-514"/>
<text text-anchor="middle" x="250.5" y="-521" font-family="Helvetica,sans-Serif" font-size="10.00" fill="#000000">tasks::qp::LinVelocityTask</text>
</a>
</g>
</g>
<!-- Node0&#45;&gt;Node4 -->
<g id="edge4" class="edge">
<title>Node0&#45;&gt;Node4</title>
<path fill="none" stroke="#191970" d="M70.8313,-368.916C83.6065,-402.2391 114.3953,-470.0496 164,-504.5 170.0617,-508.7098 176.8913,-512.009 183.9877,-514.5909"/>
<polygon fill="#191970" stroke="#191970" points="74.0628,-367.563 67.3155,-359.3946 67.4962,-369.9879 74.0628,-367.563"/>
</g>
<!-- Node5 -->
<g id="node6" class="node">
<title>Node5</title>
<g id="a_node6"><a xlink:href="a01221.html" target="_top" xlink:title="tasks::qp::MomentumTask">
<polygon fill="#ffffff" stroke="#000000" points="183.5,-476 183.5,-495 317.5,-495 317.5,-476 183.5,-476"/>
<text text-anchor="middle" x="250.5" y="-483" font-family="Helvetica,sans-Serif" font-size="10.00" fill="#000000">tasks::qp::MomentumTask</text>
</a>
</g>
</g>
<!-- Node0&#45;&gt;Node5 -->
<g id="edge5" class="edge">
<title>Node0&#45;&gt;Node5</title>
<path fill="none" stroke="#191970" d="M74.5323,-368.1625C90.3864,-394.4451 122.9461,-441.8967 164,-466.5 170.4623,-470.3728 177.6198,-473.4592 184.9696,-475.9182"/>
<polygon fill="#191970" stroke="#191970" points="77.3665,-366.0762 69.2911,-359.2177 71.3269,-369.6151 77.3665,-366.0762"/>
</g>
<!-- Node6 -->
<g id="node7" class="node">
<title>Node6</title>
<g id="a_node7"><a xlink:href="a01249.html" target="_top" xlink:title="tasks::qp::NetWrenchTask">
<polygon fill="#ffffff" stroke="#000000" points="183.5,-438 183.5,-457 317.5,-457 317.5,-438 183.5,-438"/>
<text text-anchor="middle" x="250.5" y="-445" font-family="Helvetica,sans-Serif" font-size="10.00" fill="#000000">tasks::qp::NetWrenchTask</text>
</a>
</g>
</g>
<!-- Node0&#45;&gt;Node6 -->
<g id="edge6" class="edge">
<title>Node0&#45;&gt;Node6</title>
<path fill="none" stroke="#191970" d="M80.2914,-366.3019C98.8576,-384.4417 130.9336,-412.8352 164,-428.5 172.1981,-432.3837 181.2119,-435.4865 190.2299,-437.962"/>
<polygon fill="#191970" stroke="#191970" points="82.7486,-363.8093 73.1981,-359.2225 77.8037,-368.7639 82.7486,-363.8093"/>
</g>
<!-- Node7 -->
<g id="node8" class="node">
<title>Node7</title>
<g id="a_node8"><a xlink:href="a01181.html" target="_top" xlink:title="tasks::qp::OrientationTask">
<polygon fill="#ffffff" stroke="#000000" points="184.5,-400 184.5,-419 316.5,-419 316.5,-400 184.5,-400"/>
<text text-anchor="middle" x="250.5" y="-407" font-family="Helvetica,sans-Serif" font-size="10.00" fill="#000000">tasks::qp::OrientationTask</text>
</a>
</g>
</g>
<!-- Node0&#45;&gt;Node7 -->
<g id="edge7" class="edge">
<title>Node0&#45;&gt;Node7</title>
<path fill="none" stroke="#191970" d="M93.6255,-363.2282C113.2692,-371.9343 139.791,-382.9407 164,-390.5 175.4477,-394.0746 187.9496,-397.2347 199.8006,-399.9012"/>
<polygon fill="#191970" stroke="#191970" points="94.8586,-359.9452 84.3024,-359.0401 91.9902,-366.3305 94.8586,-359.9452"/>
</g>
<!-- Node8 -->
<g id="node9" class="node">
<title>Node8</title>
<g id="a_node9"><a xlink:href="a01237.html" target="_top" xlink:title="tasks::qp::OrientationTrackingTask">
<polygon fill="#ffffff" stroke="#000000" points="165.5,-362 165.5,-381 335.5,-381 335.5,-362 165.5,-362"/>
<text text-anchor="middle" x="250.5" y="-369" font-family="Helvetica,sans-Serif" font-size="10.00" fill="#000000">tasks::qp::OrientationTrackingTask</text>
</a>
</g>
</g>
<!-- Node0&#45;&gt;Node8 -->
<g id="edge8" class="edge">
<title>Node0&#45;&gt;Node8</title>
<path fill="none" stroke="#191970" d="M138.3655,-358.2723C148.6752,-359.4885 159.3064,-360.7426 169.7259,-361.9717"/>
<polygon fill="#191970" stroke="#191970" points="138.5239,-354.7668 128.1827,-357.0712 137.7038,-361.7186 138.5239,-354.7668"/>
</g>
<!-- Node9 -->
<g id="node10" class="node">
<title>Node9</title>
<g id="a_node10"><a xlink:href="a01205.html" target="_top" xlink:title="tasks::qp::PositionBased\lVisServoTask">
<polygon fill="#ffffff" stroke="#000000" points="187.5,-312.5 187.5,-342.5 313.5,-342.5 313.5,-312.5 187.5,-312.5"/>
<text text-anchor="start" x="195.5" y="-330.5" font-family="Helvetica,sans-Serif" font-size="10.00" fill="#000000">tasks::qp::PositionBased</text>
<text text-anchor="middle" x="250.5" y="-319.5" font-family="Helvetica,sans-Serif" font-size="10.00" fill="#000000">VisServoTask</text>
</a>
</g>
</g>
<!-- Node0&#45;&gt;Node9 -->
<g id="edge9" class="edge">
<title>Node0&#45;&gt;Node9</title>
<path fill="none" stroke="#191970" d="M138.2134,-340.7456C154.5219,-338.8218 171.6418,-336.8023 187.4612,-334.9362"/>
<polygon fill="#191970" stroke="#191970" points="137.7038,-337.2814 128.1827,-341.9288 138.5239,-344.2332 137.7038,-337.2814"/>
</g>
<!-- Node10 -->
<g id="node11" class="node">
<title>Node10</title>
<g id="a_node11"><a xlink:href="a01177.html" target="_top" xlink:title="tasks::qp::PositionTask">
<polygon fill="#ffffff" stroke="#000000" points="190.5,-274 190.5,-293 310.5,-293 310.5,-274 190.5,-274"/>
<text text-anchor="middle" x="250.5" y="-281" font-family="Helvetica,sans-Serif" font-size="10.00" fill="#000000">tasks::qp::PositionTask</text>
</a>
</g>
</g>
<!-- Node0&#45;&gt;Node10 -->
<g id="edge10" class="edge">
<title>Node0&#45;&gt;Node10</title>
<path fill="none" stroke="#191970" d="M90.9989,-335.2518C110.7801,-325.2687 138.5132,-312.2065 164,-303.5 175.8146,-299.464 188.8126,-295.9798 201.0622,-293.1022"/>
<polygon fill="#191970" stroke="#191970" points="89.2784,-332.2005 81.9716,-339.8726 92.468,-338.4316 89.2784,-332.2005"/>
</g>
<!-- Node11 -->
<g id="node12" class="node">
<title>Node11</title>
<g id="a_node12"><a xlink:href="a01241.html" target="_top" xlink:title="tasks::qp::RelativeDistTask">
<polygon fill="#ffffff" stroke="#000000" points="181,-236 181,-255 320,-255 320,-236 181,-236"/>
<text text-anchor="middle" x="250.5" y="-243" font-family="Helvetica,sans-Serif" font-size="10.00" fill="#000000">tasks::qp::RelativeDistTask</text>
</a>
</g>
</g>
<!-- Node0&#45;&gt;Node11 -->
<g id="edge11" class="edge">
<title>Node0&#45;&gt;Node11</title>
<path fill="none" stroke="#191970" d="M79.1683,-332.302C97.3562,-312.7983 129.7056,-281.5064 164,-264.5 171.8516,-260.6065 180.4951,-257.5048 189.1885,-255.0355"/>
<polygon fill="#191970" stroke="#191970" points="76.4262,-330.1147 72.2762,-339.863 81.5995,-334.8304 76.4262,-330.1147"/>
</g>
<!-- Node12 -->
<g id="node13" class="node">
<title>Node12</title>
<g id="a_node13"><a xlink:href="a01197.html" target="_top" xlink:title="tasks::qp::SurfaceOrientationTask">
<polygon fill="#ffffff" stroke="#000000" points="167.5,-198 167.5,-217 333.5,-217 333.5,-198 167.5,-198"/>
<text text-anchor="middle" x="250.5" y="-205" font-family="Helvetica,sans-Serif" font-size="10.00" fill="#000000">tasks::qp::SurfaceOrientationTask</text>
</a>
</g>
</g>
<!-- Node0&#45;&gt;Node12 -->
<g id="edge12" class="edge">
<title>Node0&#45;&gt;Node12</title>
<path fill="none" stroke="#191970" d="M73.6256,-331.0543C88.9151,-303.6826 121.4293,-252.7291 164,-226.5 170.2833,-222.6287 177.2514,-219.5411 184.4265,-217.0795"/>
<polygon fill="#191970" stroke="#191970" points="70.4746,-329.5229 68.7853,-339.9822 76.6284,-332.8593 70.4746,-329.5229"/>
</g>
<!-- Node13 -->
<g id="node14" class="node">
<title>Node13</title>
<g id="a_node14"><a xlink:href="a01185.html" target="_top" xlink:title="tasks::qp::TransformTask\lCommon\&lt; transform_task_t \&gt;">
<polygon fill="#ffffff" stroke="#000000" points="176.5,-148.5 176.5,-178.5 324.5,-178.5 324.5,-148.5 176.5,-148.5"/>
<text text-anchor="start" x="184.5" y="-166.5" font-family="Helvetica,sans-Serif" font-size="10.00" fill="#000000">tasks::qp::TransformTask</text>
<text text-anchor="middle" x="250.5" y="-155.5" font-family="Helvetica,sans-Serif" font-size="10.00" fill="#000000">Common&lt; transform_task_t &gt;</text>
</a>
</g>
</g>
<!-- Node0&#45;&gt;Node13 -->
<g id="edge13" class="edge">
<title>Node0&#45;&gt;Node13</title>
<path fill="none" stroke="#191970" d="M70.6768,-330.1686C83.3832,-296.2713 114.2945,-226.1431 164,-188.5 169.1093,-184.6306 174.8007,-181.3594 180.7568,-178.594"/>
<polygon fill="#191970" stroke="#191970" points="67.2982,-329.2198 67.1903,-339.8141 73.8813,-331.5994 67.2982,-329.2198"/>
</g>
<!-- Node14 -->
<g id="node15" class="node">
<title>Node14</title>
<g id="a_node15"><a xlink:href="a01245.html" target="_top" xlink:title="tasks::qp::VectorOrientationTask">
<polygon fill="#ffffff" stroke="#000000" points="170,-110 170,-129 331,-129 331,-110 170,-110"/>
<text text-anchor="middle" x="250.5" y="-117" font-family="Helvetica,sans-Serif" font-size="10.00" fill="#000000">tasks::qp::VectorOrientationTask</text>
</a>
</g>
</g>
<!-- Node0&#45;&gt;Node14 -->
<g id="edge14" class="edge">
<title>Node0&#45;&gt;Node14</title>
<path fill="none" stroke="#191970" d="M67.4929,-329.6679C75.9724,-287.6741 101.7134,-189.5398 164,-139.5 169.4073,-135.1559 175.5863,-131.7211 182.0987,-129.01"/>
<polygon fill="#191970" stroke="#191970" points="64.0107,-329.2445 65.581,-339.7224 70.8875,-330.5522 64.0107,-329.2445"/>
</g>
<!-- Node15 -->
<g id="node16" class="node">
<title>Node15</title>
<g id="a_node16"><a xlink:href="a01185.html" target="_top" xlink:title="tasks::qp::TransformTask\lCommon\&lt; tasks::SurfaceTransform\lTask \&gt;">
<polygon fill="#ffffff" stroke="#000000" points="164,-50 164,-91 337,-91 337,-50 164,-50"/>
<text text-anchor="start" x="172" y="-79" font-family="Helvetica,sans-Serif" font-size="10.00" fill="#000000">tasks::qp::TransformTask</text>
<text text-anchor="start" x="172" y="-68" font-family="Helvetica,sans-Serif" font-size="10.00" fill="#000000">Common&lt; tasks::SurfaceTransform</text>
<text text-anchor="middle" x="250.5" y="-57" font-family="Helvetica,sans-Serif" font-size="10.00" fill="#000000">Task &gt;</text>
</a>
</g>
</g>
<!-- Node0&#45;&gt;Node15 -->
<g id="edge15" class="edge">
<title>Node0&#45;&gt;Node15</title>
<path fill="none" stroke="#191970" d="M66.3472,-329.8228C72.9282,-283.2919 95.7733,-165.5247 164,-100.5 167.682,-96.9908 171.795,-93.8902 176.1738,-91.1508"/>
<polygon fill="#191970" stroke="#191970" points="62.8676,-329.4394 65.0348,-339.8102 69.808,-330.3515 62.8676,-329.4394"/>
</g>
<!-- Node17 -->
<g id="node18" class="node">
<title>Node17</title>
<g id="a_node18"><a xlink:href="a01185.html" target="_top" xlink:title="tasks::qp::TransformTask\lCommon\&lt; tasks::TransformTask \&gt;">
<polygon fill="#ffffff" stroke="#000000" points="165.5,-.5 165.5,-30.5 335.5,-30.5 335.5,-.5 165.5,-.5"/>
<text text-anchor="start" x="173.5" y="-18.5" font-family="Helvetica,sans-Serif" font-size="10.00" fill="#000000">tasks::qp::TransformTask</text>
<text text-anchor="middle" x="250.5" y="-7.5" font-family="Helvetica,sans-Serif" font-size="10.00" fill="#000000">Common&lt; tasks::TransformTask &gt;</text>
</a>
</g>
</g>
<!-- Node0&#45;&gt;Node17 -->
<g id="edge17" class="edge">
<title>Node0&#45;&gt;Node17</title>
<path fill="none" stroke="#191970" d="M67.826,-330.0085C80.1969,-268.85 120.8255,-82.3298 164,-40.5 167.9294,-36.693 172.4013,-33.4596 177.1937,-30.7142"/>
<polygon fill="#191970" stroke="#191970" points="64.3756,-329.4145 65.8507,-339.9061 71.2402,-330.7846 64.3756,-329.4145"/>
</g>
<!-- Node16 -->
<g id="node17" class="node">
<title>Node16</title>
<g id="a_node17"><a xlink:href="a01189.html" target="_top" xlink:title="TransformTask in surface frame. ">
<polygon fill="#ffffff" stroke="#000000" points="373,-61 373,-80 536,-80 536,-61 373,-61"/>
<text text-anchor="middle" x="454.5" y="-68" font-family="Helvetica,sans-Serif" font-size="10.00" fill="#000000">tasks::qp::SurfaceTransformTask</text>
</a>
</g>
</g>
<!-- Node15&#45;&gt;Node16 -->
<g id="edge16" class="edge">
<title>Node15&#45;&gt;Node16</title>
<path fill="none" stroke="#191970" d="M347.0546,-70.5C355.64,-70.5 364.2771,-70.5 372.7215,-70.5"/>
<polygon fill="#191970" stroke="#191970" points="347.0144,-67.0001 337.0144,-70.5 347.0143,-74.0001 347.0144,-67.0001"/>
</g>
<!-- Node18 -->
<g id="node19" class="node">
<title>Node18</title>
<g id="a_node19"><a xlink:href="a01193.html" target="_top" xlink:title="TransformTask in world or user frame. ">
<polygon fill="#ffffff" stroke="#000000" points="390,-6 390,-25 519,-25 519,-6 390,-6"/>
<text text-anchor="middle" x="454.5" y="-13" font-family="Helvetica,sans-Serif" font-size="10.00" fill="#000000">tasks::qp::TransformTask</text>
</a>
</g>
</g>
<!-- Node17&#45;&gt;Node18 -->
<g id="edge18" class="edge">
<title>Node17&#45;&gt;Node18</title>
<path fill="none" stroke="#191970" d="M345.8076,-15.5C360.7094,-15.5 375.8026,-15.5 389.8075,-15.5"/>
<polygon fill="#191970" stroke="#191970" points="345.5372,-12.0001 335.5372,-15.5 345.5371,-19.0001 345.5372,-12.0001"/>
</g>
</g>
</svg>
