<?xml version="1.0" encoding="UTF-8" standalone="no"?>
<!DOCTYPE svg PUBLIC "-//W3C//DTD SVG 1.1//EN"
 "http://www.w3.org/Graphics/SVG/1.1/DTD/svg11.dtd">
<!-- Generated by graphviz version 2.40.1 (20161225.0304)
 -->
<!-- Title: Graphical Class Hierarchy Pages: 1 -->
<svg width="304pt" height="66pt"
 viewBox="0.00 0.00 304.00 66.00" xmlns="http://www.w3.org/2000/svg" xmlns:xlink="http://www.w3.org/1999/xlink">
<g id="graph0" class="graph" transform="scale(1 1) rotate(0) translate(4 62)">
<title>Graphical Class Hierarchy</title>
<polygon fill="#ffffff" stroke="transparent" points="-4,4 -4,-62 300,-62 300,4 -4,4"/>
<!-- Node0 -->
<g id="node1" class="node">
<title>Node0</title>
<g id="a_node1"><a xlink:href="a00921.html" target="_top" xlink:title="Generic QP solver abstract interface. ">
<polygon fill="#ffffff" stroke="#000000" points="0,-19.5 0,-38.5 123,-38.5 123,-19.5 0,-19.5"/>
<text text-anchor="middle" x="61.5" y="-26.5" font-family="Helvetica,sans-Serif" font-size="10.00" fill="#000000">tasks::qp::GenQPSolver</text>
</a>
</g>
</g>
<!-- Node1 -->
<g id="node2" class="node">
<title>Node1</title>
<g id="a_node2"><a xlink:href="a00897.html" target="_top" xlink:title="GenQPSolver interface implementation with the LSSOL QP solver. ">
<polygon fill="#ffffff" stroke="#000000" points="159,-38.5 159,-57.5 296,-57.5 296,-38.5 159,-38.5"/>
<text text-anchor="middle" x="227.5" y="-45.5" font-family="Helvetica,sans-Serif" font-size="10.00" fill="#000000">tasks::qp::LSSOLQPSolver</text>
</a>
</g>
</g>
<!-- Node0&#45;&gt;Node1 -->
<g id="edge1" class="edge">
<title>Node0&#45;&gt;Node1</title>
<path fill="none" stroke="#191970" d="M133.509,-37.242C141.951,-38.2083 150.5475,-39.1922 158.9406,-40.1528"/>
<polygon fill="#191970" stroke="#191970" points="133.6454,-33.7348 123.3123,-36.0749 132.8494,-40.6894 133.6454,-33.7348"/>
</g>
<!-- Node2 -->
<g id="node3" class="node">
<title>Node2</title>
<g id="a_node3"><a xlink:href="a00901.html" target="_top" xlink:title="GenQPSolver interface implementation with the QLD QP solver. ">
<polygon fill="#ffffff" stroke="#000000" points="165,-.5 165,-19.5 290,-19.5 290,-.5 165,-.5"/>
<text text-anchor="middle" x="227.5" y="-7.5" font-family="Helvetica,sans-Serif" font-size="10.00" fill="#000000">tasks::qp::QLDQPSolver</text>
</a>
</g>
</g>
<!-- Node0&#45;&gt;Node2 -->
<g id="edge2" class="edge">
<title>Node0&#45;&gt;Node2</title>
<path fill="none" stroke="#191970" d="M133.2772,-20.7845C143.772,-19.5833 154.5107,-18.3542 164.8054,-17.1759"/>
<polygon fill="#191970" stroke="#191970" points="132.8494,-17.3106 123.3123,-21.9251 133.6454,-24.2652 132.8494,-17.3106"/>
</g>
</g>
</svg>
