<?xml version="1.0" encoding="UTF-8" standalone="no"?>
<!DOCTYPE svg PUBLIC "-//W3C//DTD SVG 1.1//EN"
 "http://www.w3.org/Graphics/SVG/1.1/DTD/svg11.dtd">
<!-- Generated by graphviz version 2.40.1 (20161225.0304)
 -->
<!-- Title: Graphical Class Hierarchy Pages: 1 -->
<svg width="342pt" height="66pt"
 viewBox="0.00 0.00 342.00 66.00" xmlns="http://www.w3.org/2000/svg" xmlns:xlink="http://www.w3.org/1999/xlink">
<g id="graph0" class="graph" transform="scale(1 1) rotate(0) translate(4 62)">
<title>Graphical Class Hierarchy</title>
<polygon fill="#ffffff" stroke="transparent" points="-4,4 -4,-62 338,-62 338,4 -4,4"/>
<!-- Node0 -->
<g id="node1" class="node">
<title>Node0</title>
<g id="a_node1"><a xlink:href="a01261.html" target="_top" xlink:title="tasks::TransformTaskCommon">
<polygon fill="#ffffff" stroke="#000000" points="0,-19.5 0,-38.5 152,-38.5 152,-19.5 0,-19.5"/>
<text text-anchor="middle" x="76" y="-26.5" font-family="Helvetica,sans-Serif" font-size="10.00" fill="#000000">tasks::TransformTaskCommon</text>
</a>
</g>
</g>
<!-- Node1 -->
<g id="node2" class="node">
<title>Node1</title>
<g id="a_node2"><a xlink:href="a01265.html" target="_top" xlink:title="tasks::SurfaceTransformTask">
<polygon fill="#ffffff" stroke="#000000" points="188,-38.5 188,-57.5 334,-57.5 334,-38.5 188,-38.5"/>
<text text-anchor="middle" x="261" y="-45.5" font-family="Helvetica,sans-Serif" font-size="10.00" fill="#000000">tasks::SurfaceTransformTask</text>
</a>
</g>
</g>
<!-- Node0&#45;&gt;Node1 -->
<g id="edge1" class="edge">
<title>Node0&#45;&gt;Node1</title>
<path fill="none" stroke="#191970" d="M162.1242,-37.8452C170.7527,-38.7314 179.4554,-39.6252 187.9303,-40.4955"/>
<polygon fill="#191970" stroke="#191970" points="162.3527,-34.3503 152.0475,-36.8103 161.6375,-41.3137 162.3527,-34.3503"/>
</g>
<!-- Node2 -->
<g id="node3" class="node">
<title>Node2</title>
<g id="a_node3"><a xlink:href="a01269.html" target="_top" xlink:title="tasks::TransformTask">
<polygon fill="#ffffff" stroke="#000000" points="204.5,-.5 204.5,-19.5 317.5,-19.5 317.5,-.5 204.5,-.5"/>
<text text-anchor="middle" x="261" y="-7.5" font-family="Helvetica,sans-Serif" font-size="10.00" fill="#000000">tasks::TransformTask</text>
</a>
</g>
</g>
<!-- Node0&#45;&gt;Node2 -->
<g id="edge2" class="edge">
<title>Node0&#45;&gt;Node2</title>
<path fill="none" stroke="#191970" d="M162.3985,-20.1266C176.6883,-18.659 191.1731,-17.1714 204.4808,-15.8047"/>
<polygon fill="#191970" stroke="#191970" points="161.6375,-16.6863 152.0475,-21.1897 162.3527,-23.6497 161.6375,-16.6863"/>
</g>
</g>
</svg>
